solid OpenSCAD_Model
  facet normal 0.98882 -0.149111 0
    outer loop
      vertex 7.839 9.482 0
      vertex 9.532 20.709 0
      vertex 9.532 20.709 2.9
    endloop
  endfacet
  facet normal 0.98882 -0.149111 0
    outer loop
      vertex 7.839 9.482 2.9
      vertex 7.839 9.482 0
      vertex 9.532 20.709 2.9
    endloop
  endfacet
  facet normal -0.149352 -0.988784 0
    outer loop
      vertex 9.532 20.709 0
      vertex 11.922 20.348 0
      vertex 11.922 20.348 2.9
    endloop
  endfacet
  facet normal -0.149352 -0.988784 0
    outer loop
      vertex 9.532 20.709 2.9
      vertex 9.532 20.709 0
      vertex 11.922 20.348 2.9
    endloop
  endfacet
  facet normal -0 0 -1
    outer loop
      vertex 3.288 22.2 0
      vertex 4.408 25.075 0
      vertex 2.732 19.36 0
    endloop
  endfacet
  facet normal 0 0 -1
    outer loop
      vertex 2.732 19.36 0
      vertex 4.408 25.075 0
      vertex 6.013 27.959 0
    endloop
  endfacet
  facet normal 0 0 -1
    outer loop
      vertex 2.732 19.36 0
      vertex 6.013 27.959 0
      vertex 8.024 30.781 0
    endloop
  endfacet
  facet normal 0 0 -1
    outer loop
      vertex 2.732 19.36 0
      vertex 8.024 30.781 0
      vertex 10.361 33.497 0
    endloop
  endfacet
  facet normal 0 0 -1
    outer loop
      vertex 2.732 19.36 0
      vertex 10.361 33.497 0
      vertex 12.936 36.064 0
    endloop
  endfacet
  facet normal 0 0 -1
    outer loop
      vertex 2.732 19.36 0
      vertex 12.936 36.064 0
      vertex 15.67 38.419 0
    endloop
  endfacet
  facet normal 0 0 -1
    outer loop
      vertex 2.732 19.36 0
      vertex 15.67 38.419 0
      vertex 18.484 40.526 0
    endloop
  endfacet
  facet normal 0 0 -1
    outer loop
      vertex 2.732 19.36 0
      vertex 18.484 40.526 0
      vertex 21.297 42.326 0
    endloop
  endfacet
  facet normal 0 0 -1
    outer loop
      vertex 2.732 19.36 0
      vertex 21.297 42.326 0
      vertex 24.022 43.763 0
    endloop
  endfacet
  facet normal 0 0 -1
    outer loop
      vertex 2.732 19.36 0
      vertex 24.022 43.763 0
      vertex 26.589 44.795 0
    endloop
  endfacet
  facet normal 0 0 -1
    outer loop
      vertex 17.275 34.053 0
      vertex 26.589 44.795 0
      vertex 28.899 45.377 0
    endloop
  endfacet
  facet normal -0 0 -1
    outer loop
      vertex 24.728 31.804 0
      vertex 28.899 45.377 0
      vertex 28.899 21.388 0
    endloop
  endfacet
  facet normal 0 -0 -1
    outer loop
      vertex 31.325 21.388 0
      vertex 31.325 45.368 0
      vertex 33.741 44.372 0
    endloop
  endfacet
  facet normal 0 0 -1
    outer loop
      vertex 31.325 21.388 0
      vertex 33.741 44.372 0
      vertex 36.352 43.049 0
    endloop
  endfacet
  facet normal 0 -0 -1
    outer loop
      vertex 36.846 37.334 0
      vertex 36.352 43.049 0
      vertex 39.103 41.435 0
    endloop
  endfacet
  facet normal 0 0 -1
    outer loop
      vertex 37.684 37.007 0
      vertex 39.103 41.435 0
      vertex 41.899 39.574 0
    endloop
  endfacet
  facet normal 0 0 -1
    outer loop
      vertex 39.818 35.879 0
      vertex 41.899 39.574 0
      vertex 44.677 37.475 0
    endloop
  endfacet
  facet normal 0 0 -1
    outer loop
      vertex 42.666 33.7 0
      vertex 44.677 37.475 0
      vertex 47.367 35.182 0
    endloop
  endfacet
  facet normal 0 0 -1
    outer loop
      vertex 45.665 30.243 0
      vertex 47.367 35.182 0
      vertex 49.89 32.73 0
    endloop
  endfacet
  facet normal 0 -0 -1
    outer loop
      vertex 34.129 15.629 0
      vertex 31.325 21.388 0
      vertex 34.173 24.299 0
    endloop
  endfacet
  facet normal 0 0 -1
    outer loop
      vertex 46.097 25.86 0
      vertex 52.165 30.137 0
      vertex 54.141 27.438 0
    endloop
  endfacet
  facet normal 0 0 -1
    outer loop
      vertex 41.767 23.037 0
      vertex 54.141 27.438 0
      vertex 55.719 24.66 0
    endloop
  endfacet
  facet normal 0 0 -1
    outer loop
      vertex 38.495 12.534 0
      vertex 41.899 9.535 0
      vertex 36.81 10.479 0
    endloop
  endfacet
  facet normal -0 0 -1
    outer loop
      vertex 51.08 19.466 0
      vertex 56.839 21.847 0
      vertex 57.421 19.016 0
    endloop
  endfacet
  facet normal 0 0 -1
    outer loop
      vertex 45.956 9.411 0
      vertex 45.215 9.649 0
      vertex 38.495 12.534 0
    endloop
  endfacet
  facet normal 0 0 -1
    outer loop
      vertex 47.597 8.741 0
      vertex 46.741 9.103 0
      vertex 39.35 14.139 0
    endloop
  endfacet
  facet normal 0 0 -1
    outer loop
      vertex 50.622 7.418 0
      vertex 49.519 7.894 0
      vertex 48.514 8.335 0
    endloop
  endfacet
  facet normal 0 0 -1
    outer loop
      vertex 46.741 9.103 0
      vertex 45.956 9.411 0
      vertex 38.495 12.534 0
    endloop
  endfacet
  facet normal 0 0 -1
    outer loop
      vertex 21.103 7.303 0
      vertex 23.211 5.742 0
      vertex 21.95 6.51 0
    endloop
  endfacet
  facet normal 0 0 -1
    outer loop
      vertex 25.768 24.66 0
      vertex 34.129 15.629 0
      vertex 25.821 15.991 0
    endloop
  endfacet
  facet normal -0 0 -1
    outer loop
      vertex 37.684 37.007 0
      vertex 41.899 39.574 0
      vertex 39.818 35.879 0
    endloop
  endfacet
  facet normal -0 0 -1
    outer loop
      vertex 42.666 33.7 0
      vertex 47.367 35.182 0
      vertex 45.665 30.243 0
    endloop
  endfacet
  facet normal 0 -0 -1
    outer loop
      vertex 16.058 16.097 0
      vertex 11.922 20.348 0
      vertex 17.302 19.677 0
    endloop
  endfacet
  facet normal 0 0 -1
    outer loop
      vertex 21.103 7.303 0
      vertex 24.401 5.072 0
      vertex 23.211 5.742 0
    endloop
  endfacet
  facet normal 0 0 -1
    outer loop
      vertex 36.81 10.479 0
      vertex 41.899 9.535 0
      vertex 41.229 9.182 0
    endloop
  endfacet
  facet normal 0 0 -1
    outer loop
      vertex 36.81 10.479 0
      vertex 40.532 8.697 0
      vertex 39.8 8.071 0
    endloop
  endfacet
  facet normal 0 -0 -1
    outer loop
      vertex 21.244 16.732 0
      vertex 17.575 17.367 0
      vertex 23.043 20.154 0
    endloop
  endfacet
  facet normal 0 0 -1
    outer loop
      vertex 27.109 8.168 0
      vertex 35.999 4.869 0
      vertex 34.985 4.296 0
    endloop
  endfacet
  facet normal 0 0 -1
    outer loop
      vertex 18.995 9.103 0
      vertex 28.529 3.343 0
      vertex 27.568 3.626 0
    endloop
  endfacet
  facet normal 0 0 -1
    outer loop
      vertex 19.648 8.591 0
      vertex 27.568 3.626 0
      vertex 26.562 4.005 0
    endloop
  endfacet
  facet normal 0 0 -1
    outer loop
      vertex 20.344 7.991 0
      vertex 26.562 4.005 0
      vertex 25.513 4.49 0
    endloop
  endfacet
  facet normal 0 0 -1
    outer loop
      vertex 21.103 7.303 0
      vertex 25.513 4.49 0
      vertex 24.401 5.072 0
    endloop
  endfacet
  facet normal 0 0 -1
    outer loop
      vertex 20.344 7.991 0
      vertex 25.513 4.49 0
      vertex 21.103 7.303 0
    endloop
  endfacet
  facet normal 0 0 -1
    outer loop
      vertex 19.648 8.591 0
      vertex 26.562 4.005 0
      vertex 20.344 7.991 0
    endloop
  endfacet
  facet normal 0 0 -1
    outer loop
      vertex 18.995 9.103 0
      vertex 27.568 3.626 0
      vertex 19.648 8.591 0
    endloop
  endfacet
  facet normal 0 0 -1
    outer loop
      vertex 18.387 9.526 0
      vertex 28.529 3.343 0
      vertex 18.995 9.103 0
    endloop
  endfacet
  facet normal -0 0 -1
    outer loop
      vertex 45.665 30.243 0
      vertex 49.89 32.73 0
      vertex 52.165 30.137 0
    endloop
  endfacet
  facet normal 0 -0 -1
    outer loop
      vertex 7.839 9.482 0
      vertex 2.732 19.36 0
      vertex 9.532 20.709 0
    endloop
  endfacet
  facet normal 0 -0 -1
    outer loop
      vertex 12.936 27.553 0
      vertex 2.732 19.36 0
      vertex 14.277 30.596 0
    endloop
  endfacet
  facet normal 0 0 -1
    outer loop
      vertex 2.732 19.36 0
      vertex 7.839 9.482 0
      vertex 5.299 11.634 0
    endloop
  endfacet
  facet normal 0 0 -1
    outer loop
      vertex 2.732 19.36 0
      vertex 5.299 11.634 0
      vertex 3.658 14.033 0
    endloop
  endfacet
  facet normal 0 0 -1
    outer loop
      vertex 2.732 19.36 0
      vertex 3.658 14.033 0
      vertex 2.829 16.626 0
    endloop
  endfacet
  facet normal 0 0 -1
    outer loop
      vertex 17.275 34.053 0
      vertex 28.899 45.377 0
      vertex 20.124 36.231 0
    endloop
  endfacet
  facet normal 0 0 -1
    outer loop
      vertex 2.732 19.36 0
      vertex 12.936 27.553 0
      vertex 9.532 20.709 0
    endloop
  endfacet
  facet normal 0 0 -1
    outer loop
      vertex 20.124 36.231 0
      vertex 28.899 45.377 0
      vertex 22.258 37.369 0
    endloop
  endfacet
  facet normal 0 0 -1
    outer loop
      vertex 12.936 27.553 0
      vertex 13.845 26.212 0
      vertex 9.532 20.709 0
    endloop
  endfacet
  facet normal 0 0 -1
    outer loop
      vertex 18.184 23.39 0
      vertex 15.847 25.772 0
      vertex 17.734 25.428 0
    endloop
  endfacet
  facet normal 0 -0 -1
    outer loop
      vertex 17.302 19.677 0
      vertex 11.922 20.348 0
      vertex 18.184 23.39 0
    endloop
  endfacet
  facet normal 0 0 -1
    outer loop
      vertex 38.495 12.534 0
      vertex 42.552 9.764 0
      vertex 41.899 9.535 0
    endloop
  endfacet
  facet normal 0 0 -1
    outer loop
      vertex 11.922 20.348 0
      vertex 15.847 25.772 0
      vertex 18.184 23.39 0
    endloop
  endfacet
  facet normal 0 0 -1
    outer loop
      vertex 25.821 15.991 0
      vertex 33.071 10.593 0
      vertex 32.233 8.291 0
    endloop
  endfacet
  facet normal -0 0 -1
    outer loop
      vertex 39.818 35.879 0
      vertex 44.677 37.475 0
      vertex 42.666 33.7 0
    endloop
  endfacet
  facet normal 0 0 -1
    outer loop
      vertex 50.622 7.418 0
      vertex 44.519 14.139 0
      vertex 43.884 15.744 0
    endloop
  endfacet
  facet normal -0 0 -1
    outer loop
      vertex 23.096 37.695 0
      vertex 28.899 45.377 0
      vertex 24.728 31.804 0
    endloop
  endfacet
  facet normal 0 0 -1
    outer loop
      vertex 38.169 23.725 0
      vertex 34.173 24.299 0
      vertex 35.214 31.451 0
    endloop
  endfacet
  facet normal -0 -0 -1
    outer loop
      vertex 25.768 24.66 0
      vertex 24.728 31.804 0
      vertex 28.899 21.388 0
    endloop
  endfacet
  facet normal 0 -0 -1
    outer loop
      vertex 14.277 30.596 0
      vertex 2.732 19.36 0
      vertex 17.275 34.053 0
    endloop
  endfacet
  facet normal 0 -0 -1
    outer loop
      vertex 34.173 24.299 0
      vertex 31.325 21.388 0
      vertex 35.214 31.451 0
    endloop
  endfacet
  facet normal 0 0 -1
    outer loop
      vertex 15.847 25.772 0
      vertex 11.922 20.348 0
      vertex 9.532 20.709 0
    endloop
  endfacet
  facet normal 0 0 -1
    outer loop
      vertex 2.732 19.36 0
      vertex 26.589 44.795 0
      vertex 17.275 34.053 0
    endloop
  endfacet
  facet normal 0 -0 -1
    outer loop
      vertex 33.071 10.593 0
      vertex 25.821 15.991 0
      vertex 34.129 15.629 0
    endloop
  endfacet
  facet normal 0 0 -1
    outer loop
      vertex 38.169 23.725 0
      vertex 35.038 22.932 0
      vertex 34.173 24.299 0
    endloop
  endfacet
  facet normal 0 0 -1
    outer loop
      vertex 15.847 25.772 0
      vertex 9.532 20.709 0
      vertex 13.845 26.212 0
    endloop
  endfacet
  facet normal 0 0 -1
    outer loop
      vertex 31.325 21.388 0
      vertex 36.352 43.049 0
      vertex 35.214 31.451 0
    endloop
  endfacet
  facet normal -0 0 -1
    outer loop
      vertex 35.038 22.932 0
      vertex 38.169 23.725 0
      vertex 36.907 19.792 0
    endloop
  endfacet
  facet normal 0 0 -1
    outer loop
      vertex 46.741 9.103 0
      vertex 38.495 12.534 0
      vertex 39.35 14.139 0
    endloop
  endfacet
  facet normal 0 0 -1
    outer loop
      vertex 50.622 7.418 0
      vertex 47.597 8.741 0
      vertex 39.35 14.139 0
    endloop
  endfacet
  facet normal 0 0 -1
    outer loop
      vertex 50.622 7.418 0
      vertex 43.884 15.744 0
      vertex 48.69 19.069 0
    endloop
  endfacet
  facet normal 0 0 -1
    outer loop
      vertex 50.622 7.418 0
      vertex 39.35 14.139 0
      vertex 44.519 14.139 0
    endloop
  endfacet
  facet normal 0 0 -1
    outer loop
      vertex 17.575 17.367 0
      vertex 20.591 14.5 0
      vertex 21.456 12.886 0
    endloop
  endfacet
  facet normal 0 0 -1
    outer loop
      vertex 50.622 7.418 0
      vertex 48.514 8.335 0
      vertex 47.597 8.741 0
    endloop
  endfacet
  facet normal 0 0 -1
    outer loop
      vertex 36.81 10.479 0
      vertex 41.229 9.182 0
      vertex 40.532 8.697 0
    endloop
  endfacet
  facet normal -0 0 -1
    outer loop
      vertex 46.097 25.86 0
      vertex 54.141 27.438 0
      vertex 44.104 25.419 0
    endloop
  endfacet
  facet normal -0 0 -1
    outer loop
      vertex 47.014 27.2 0
      vertex 52.165 30.137 0
      vertex 46.097 25.86 0
    endloop
  endfacet
  facet normal 0 0 -1
    outer loop
      vertex 45.665 30.243 0
      vertex 52.165 30.137 0
      vertex 47.014 27.2 0
    endloop
  endfacet
  facet normal 0 0 -1
    outer loop
      vertex 42.375 17.014 0
      vertex 36.907 19.792 0
      vertex 38.169 23.725 0
    endloop
  endfacet
  facet normal -0 0 -1
    outer loop
      vertex 42.217 25.066 0
      vertex 44.104 25.419 0
      vertex 41.767 23.037 0
    endloop
  endfacet
  facet normal 0 0 -1
    outer loop
      vertex 41.767 23.037 0
      vertex 56.839 21.847 0
      vertex 51.08 19.466 0
    endloop
  endfacet
  facet normal 0 0 -1
    outer loop
      vertex 35.214 31.451 0
      vertex 36.352 43.049 0
      vertex 36.846 37.334 0
    endloop
  endfacet
  facet normal 0 0 -1
    outer loop
      vertex 26.871 10.955 0
      vertex 35.999 4.869 0
      vertex 27.709 8.644 0
    endloop
  endfacet
  facet normal 0 0 -1
    outer loop
      vertex 34.764 8.671 0
      vertex 38.177 6.36 0
      vertex 37.057 5.557 0
    endloop
  endfacet
  facet normal 0 0 -1
    outer loop
      vertex 36.81 10.479 0
      vertex 39.8 8.071 0
      vertex 39.015 7.295 0
    endloop
  endfacet
  facet normal 0 0 -1
    outer loop
      vertex 26.871 10.955 0
      vertex 37.057 5.557 0
      vertex 35.999 4.869 0
    endloop
  endfacet
  facet normal 0 0 -1
    outer loop
      vertex 39.015 7.295 0
      vertex 38.177 6.36 0
      vertex 34.764 8.671 0
    endloop
  endfacet
  facet normal 0 0 -1
    outer loop
      vertex 21.782 24.078 0
      vertex 23.043 20.154 0
      vertex 17.575 17.367 0
    endloop
  endfacet
  facet normal -0 0 -1
    outer loop
      vertex 36.846 37.334 0
      vertex 39.103 41.435 0
      vertex 37.684 37.007 0
    endloop
  endfacet
  facet normal 0 0 -1
    outer loop
      vertex 28.899 21.388 0
      vertex 31.325 21.388 0
      vertex 34.129 15.629 0
    endloop
  endfacet
  facet normal -0 0 -1
    outer loop
      vertex 44.104 25.419 0
      vertex 54.141 27.438 0
      vertex 41.767 23.037 0
    endloop
  endfacet
  facet normal -0 0 -1
    outer loop
      vertex 41.767 23.037 0
      vertex 55.719 24.66 0
      vertex 56.839 21.847 0
    endloop
  endfacet
  facet normal 0 0 -1
    outer loop
      vertex 25.821 15.991 0
      vertex 32.233 8.291 0
      vertex 26.871 10.955 0
    endloop
  endfacet
  facet normal 0 0 -1
    outer loop
      vertex 38.495 12.534 0
      vertex 43.196 9.879 0
      vertex 42.552 9.764 0
    endloop
  endfacet
  facet normal 0 0 -1
    outer loop
      vertex 38.495 12.534 0
      vertex 44.519 9.808 0
      vertex 43.848 9.888 0
    endloop
  endfacet
  facet normal 0 0 -1
    outer loop
      vertex 26.871 10.955 0
      vertex 32.833 7.815 0
      vertex 37.057 5.557 0
    endloop
  endfacet
  facet normal 0 0 -1
    outer loop
      vertex 25.178 9.023 0
      vertex 27.109 8.168 0
      vertex 34.985 4.296 0
    endloop
  endfacet
  facet normal 0 0 -1
    outer loop
      vertex 36.81 10.479 0
      vertex 39.015 7.295 0
      vertex 34.764 8.671 0
    endloop
  endfacet
  facet normal 0 -0 -1
    outer loop
      vertex 20.591 14.5 0
      vertex 17.575 17.367 0
      vertex 21.244 16.732 0
    endloop
  endfacet
  facet normal 0 0 -1
    outer loop
      vertex 21.782 24.078 0
      vertex 24.728 31.804 0
      vertex 25.768 24.66 0
    endloop
  endfacet
  facet normal 0 -0 -1
    outer loop
      vertex 23.043 20.154 0
      vertex 21.782 24.078 0
      vertex 24.913 23.284 0
    endloop
  endfacet
  facet normal -0 0 -1
    outer loop
      vertex 21.782 24.078 0
      vertex 25.768 24.66 0
      vertex 24.913 23.284 0
    endloop
  endfacet
  facet normal 0 0 -1
    outer loop
      vertex 22.258 37.369 0
      vertex 28.899 45.377 0
      vertex 23.096 37.695 0
    endloop
  endfacet
  facet normal 0 0 -1
    outer loop
      vertex 51.08 19.466 0
      vertex 57.421 19.016 0
      vertex 57.404 16.211 0
    endloop
  endfacet
  facet normal 0 0 -1
    outer loop
      vertex 51.08 19.466 0
      vertex 57.404 16.211 0
      vertex 56.698 13.442 0
    endloop
  endfacet
  facet normal 0 0 -1
    outer loop
      vertex 51.08 19.466 0
      vertex 56.698 13.442 0
      vertex 55.234 10.761 0
    endloop
  endfacet
  facet normal 0 0 -1
    outer loop
      vertex 51.08 19.466 0
      vertex 55.234 10.761 0
      vertex 52.95 8.186 0
    endloop
  endfacet
  facet normal 0 0 -1
    outer loop
      vertex 25.768 24.66 0
      vertex 28.899 21.388 0
      vertex 34.129 15.629 0
    endloop
  endfacet
  facet normal 0 0 -1
    outer loop
      vertex 42.649 19.316 0
      vertex 48.69 19.069 0
      vertex 43.884 15.744 0
    endloop
  endfacet
  facet normal 0 0 -1
    outer loop
      vertex 38.495 12.534 0
      vertex 45.215 9.649 0
      vertex 44.519 9.808 0
    endloop
  endfacet
  facet normal 0 0 -1
    outer loop
      vertex 38.707 16.379 0
      vertex 44.519 14.139 0
      vertex 39.35 14.139 0
    endloop
  endfacet
  facet normal 0 0 -1
    outer loop
      vertex 17.575 17.367 0
      vertex 21.456 12.886 0
      vertex 15.432 14.5 0
    endloop
  endfacet
  facet normal 0 -0 -1
    outer loop
      vertex 48.69 19.069 0
      vertex 42.649 19.316 0
      vertex 51.08 19.466 0
    endloop
  endfacet
  facet normal 0 0 -1
    outer loop
      vertex 44.519 14.139 0
      vertex 38.707 16.379 0
      vertex 42.375 17.014 0
    endloop
  endfacet
  facet normal 0 0 -1
    outer loop
      vertex 41.767 23.037 0
      vertex 51.08 19.466 0
      vertex 42.649 19.316 0
    endloop
  endfacet
  facet normal 0 0 -1
    outer loop
      vertex 38.495 12.534 0
      vertex 43.848 9.888 0
      vertex 43.196 9.879 0
    endloop
  endfacet
  facet normal 0 0 -1
    outer loop
      vertex 36.907 19.792 0
      vertex 42.375 17.014 0
      vertex 38.707 16.379 0
    endloop
  endfacet
  facet normal 0 0 -1
    outer loop
      vertex 23.131 10.831 0
      vertex 15.432 14.5 0
      vertex 21.456 12.886 0
    endloop
  endfacet
  facet normal 0 0 -1
    outer loop
      vertex 34.764 8.671 0
      vertex 37.057 5.557 0
      vertex 32.833 7.815 0
    endloop
  endfacet
  facet normal 0 0 -1
    outer loop
      vertex 11.922 20.348 0
      vertex 16.058 16.097 0
      vertex 15.432 14.5 0
    endloop
  endfacet
  facet normal 0 0 -1
    outer loop
      vertex 25.178 9.023 0
      vertex 15.432 14.5 0
      vertex 23.131 10.831 0
    endloop
  endfacet
  facet normal 0 0 -1
    outer loop
      vertex 26.871 10.955 0
      vertex 32.233 8.291 0
      vertex 32.833 7.815 0
    endloop
  endfacet
  facet normal 0 0 -1
    outer loop
      vertex 27.709 8.644 0
      vertex 35.999 4.869 0
      vertex 27.109 8.168 0
    endloop
  endfacet
  facet normal 0 0 -1
    outer loop
      vertex 25.178 9.023 0
      vertex 34.985 4.296 0
      vertex 34.023 3.837 0
    endloop
  endfacet
  facet normal 0 0 -1
    outer loop
      vertex 15.432 14.5 0
      vertex 25.178 9.023 0
      vertex 34.023 3.837 0
    endloop
  endfacet
  facet normal 0 0 -1
    outer loop
      vertex 15.432 14.5 0
      vertex 34.023 3.837 0
      vertex 33.089 3.485 0
    endloop
  endfacet
  facet normal 0 0 -1
    outer loop
      vertex 15.432 14.5 0
      vertex 33.089 3.485 0
      vertex 32.171 3.247 0
    endloop
  endfacet
  facet normal 0 0 -1
    outer loop
      vertex 15.432 14.5 0
      vertex 32.171 3.247 0
      vertex 31.272 3.114 0
    endloop
  endfacet
  facet normal 0 0 -1
    outer loop
      vertex 15.432 14.5 0
      vertex 31.272 3.114 0
      vertex 30.372 3.088 0
    endloop
  endfacet
  facet normal 0 0 -1
    outer loop
      vertex 15.432 14.5 0
      vertex 30.372 3.088 0
      vertex 29.455 3.167 0
    endloop
  endfacet
  facet normal 0 0 -1
    outer loop
      vertex 15.432 14.5 0
      vertex 29.455 3.167 0
      vertex 28.529 3.343 0
    endloop
  endfacet
  facet normal 0 0 -1
    outer loop
      vertex 15.432 14.5 0
      vertex 28.529 3.343 0
      vertex 18.387 9.526 0
    endloop
  endfacet
  facet normal 0 0 -1
    outer loop
      vertex 11.922 20.348 0
      vertex 15.432 14.5 0
      vertex 18.387 9.526 0
    endloop
  endfacet
  facet normal 0 0 -1
    outer loop
      vertex 11.922 20.348 0
      vertex 18.387 9.526 0
      vertex 17.796 9.861 0
    endloop
  endfacet
  facet normal 0 0 -1
    outer loop
      vertex 11.922 20.348 0
      vertex 17.796 9.861 0
      vertex 17.222 10.099 0
    endloop
  endfacet
  facet normal 0 0 -1
    outer loop
      vertex 11.922 20.348 0
      vertex 17.222 10.099 0
      vertex 16.631 10.258 0
    endloop
  endfacet
  facet normal 0 0 -1
    outer loop
      vertex 11.922 20.348 0
      vertex 16.631 10.258 0
      vertex 16.032 10.329 0
    endloop
  endfacet
  facet normal 0 0 -1
    outer loop
      vertex 11.922 20.348 0
      vertex 16.032 10.329 0
      vertex 15.397 10.311 0
    endloop
  endfacet
  facet normal 0 0 -1
    outer loop
      vertex 11.922 20.348 0
      vertex 15.397 10.311 0
      vertex 14.718 10.205 0
    endloop
  endfacet
  facet normal 0 0 -1
    outer loop
      vertex 11.922 20.348 0
      vertex 14.718 10.205 0
      vertex 13.977 10.029 0
    endloop
  endfacet
  facet normal 0 0 -1
    outer loop
      vertex 11.922 20.348 0
      vertex 13.977 10.029 0
      vertex 13.157 9.764 0
    endloop
  endfacet
  facet normal 0 0 -1
    outer loop
      vertex 11.922 20.348 0
      vertex 13.157 9.764 0
      vertex 12.257 9.411 0
    endloop
  endfacet
  facet normal 0 0 -1
    outer loop
      vertex 11.922 20.348 0
      vertex 12.257 9.411 0
      vertex 11.252 8.988 0
    endloop
  endfacet
  facet normal 0 0 -1
    outer loop
      vertex 11.922 20.348 0
      vertex 11.252 8.988 0
      vertex 10.132 8.477 0
    endloop
  endfacet
  facet normal -0.646427 -0.762976 0
    outer loop
      vertex 5.299 11.634 0
      vertex 7.839 9.482 0
      vertex 7.839 9.482 2.9
    endloop
  endfacet
  facet normal -0.646427 -0.762976 0
    outer loop
      vertex 5.299 11.634 2.9
      vertex 5.299 11.634 0
      vertex 7.839 9.482 2.9
    endloop
  endfacet
  facet normal 0 0 1
    outer loop
      vertex 2.732 19.36 2.9
      vertex 2.829 16.626 2.9
      vertex 3.658 14.033 2.9
    endloop
  endfacet
  facet normal 0 0 1
    outer loop
      vertex 7.839 9.482 2.9
      vertex 2.732 19.36 2.9
      vertex 5.299 11.634 2.9
    endloop
  endfacet
  facet normal 0 0 1
    outer loop
      vertex 5.299 11.634 2.9
      vertex 2.732 19.36 2.9
      vertex 3.658 14.033 2.9
    endloop
  endfacet
  facet normal 0 0 1
    outer loop
      vertex 9.532 20.709 2.9
      vertex 2.732 19.36 2.9
      vertex 7.839 9.482 2.9
    endloop
  endfacet
  facet normal 0 0 1
    outer loop
      vertex 17.575 17.367 2.9
      vertex 26.562 4.005 2.9
      vertex 27.568 3.626 2.9
    endloop
  endfacet
  facet normal -0 0 1
    outer loop
      vertex 11.252 8.988 2.9
      vertex 11.922 20.348 2.9
      vertex 10.132 8.477 2.9
    endloop
  endfacet
  facet normal -0 0 1
    outer loop
      vertex 12.257 9.411 2.9
      vertex 11.922 20.348 2.9
      vertex 11.252 8.988 2.9
    endloop
  endfacet
  facet normal -0 0 1
    outer loop
      vertex 13.157 9.764 2.9
      vertex 11.922 20.348 2.9
      vertex 12.257 9.411 2.9
    endloop
  endfacet
  facet normal -0 0 1
    outer loop
      vertex 13.977 10.029 2.9
      vertex 11.922 20.348 2.9
      vertex 13.157 9.764 2.9
    endloop
  endfacet
  facet normal -0 0 1
    outer loop
      vertex 14.718 10.205 2.9
      vertex 11.922 20.348 2.9
      vertex 13.977 10.029 2.9
    endloop
  endfacet
  facet normal -0 0 1
    outer loop
      vertex 15.397 10.311 2.9
      vertex 11.922 20.348 2.9
      vertex 14.718 10.205 2.9
    endloop
  endfacet
  facet normal -0 0 1
    outer loop
      vertex 16.032 10.329 2.9
      vertex 11.922 20.348 2.9
      vertex 15.397 10.311 2.9
    endloop
  endfacet
  facet normal 0 0 1
    outer loop
      vertex 16.631 10.258 2.9
      vertex 11.922 20.348 2.9
      vertex 16.032 10.329 2.9
    endloop
  endfacet
  facet normal 0 0 1
    outer loop
      vertex 17.222 10.099 2.9
      vertex 11.922 20.348 2.9
      vertex 16.631 10.258 2.9
    endloop
  endfacet
  facet normal 0 0 1
    outer loop
      vertex 17.796 9.861 2.9
      vertex 11.922 20.348 2.9
      vertex 17.222 10.099 2.9
    endloop
  endfacet
  facet normal 0 0 1
    outer loop
      vertex 18.387 9.526 2.9
      vertex 11.922 20.348 2.9
      vertex 17.796 9.861 2.9
    endloop
  endfacet
  facet normal -0 -0 1
    outer loop
      vertex 15.432 14.5 2.9
      vertex 11.922 20.348 2.9
      vertex 18.387 9.526 2.9
    endloop
  endfacet
  facet normal 0 0 1
    outer loop
      vertex 16.058 16.097 2.9
      vertex 17.302 19.677 2.9
      vertex 11.922 20.348 2.9
    endloop
  endfacet
  facet normal 0 0 1
    outer loop
      vertex 17.302 19.677 2.9
      vertex 18.184 23.39 2.9
      vertex 9.532 20.709 2.9
    endloop
  endfacet
  facet normal 0 0 1
    outer loop
      vertex 26.871 10.955 2.9
      vertex 34.985 4.296 2.9
      vertex 35.999 4.869 2.9
    endloop
  endfacet
  facet normal 0 -0 1
    outer loop
      vertex 36.81 10.479 2.9
      vertex 34.764 8.671 2.9
      vertex 39.015 7.295 2.9
    endloop
  endfacet
  facet normal 0 0 1
    outer loop
      vertex 36.81 10.479 2.9
      vertex 39.015 7.295 2.9
      vertex 39.8 8.071 2.9
    endloop
  endfacet
  facet normal 0 0 1
    outer loop
      vertex 36.81 10.479 2.9
      vertex 39.8 8.071 2.9
      vertex 40.532 8.697 2.9
    endloop
  endfacet
  facet normal 0 -0 1
    outer loop
      vertex 34.764 8.671 2.9
      vertex 32.833 7.815 2.9
      vertex 37.057 5.557 2.9
    endloop
  endfacet
  facet normal 0 0 1
    outer loop
      vertex 25.821 15.991 2.9
      vertex 32.233 8.291 2.9
      vertex 33.071 10.593 2.9
    endloop
  endfacet
  facet normal -0 0 1
    outer loop
      vertex 9.532 20.709 2.9
      vertex 18.184 23.39 2.9
      vertex 2.732 19.36 2.9
    endloop
  endfacet
  facet normal 0 0 1
    outer loop
      vertex 38.495 12.534 2.9
      vertex 42.552 9.764 2.9
      vertex 43.196 9.879 2.9
    endloop
  endfacet
  facet normal 0 0 1
    outer loop
      vertex 38.495 12.534 2.9
      vertex 41.899 9.535 2.9
      vertex 42.552 9.764 2.9
    endloop
  endfacet
  facet normal 0 0 1
    outer loop
      vertex 25.768 24.66 2.9
      vertex 34.129 15.629 2.9
      vertex 28.899 21.388 2.9
    endloop
  endfacet
  facet normal -0 -0 1
    outer loop
      vertex 27.109 8.168 2.9
      vertex 25.178 9.023 2.9
      vertex 32.171 3.247 2.9
    endloop
  endfacet
  facet normal 0 0 1
    outer loop
      vertex 17.575 17.367 2.9
      vertex 21.456 12.886 2.9
      vertex 20.591 14.5 2.9
    endloop
  endfacet
  facet normal 0 0 1
    outer loop
      vertex 47.597 8.741 2.9
      vertex 48.69 19.069 2.9
      vertex 46.741 9.103 2.9
    endloop
  endfacet
  facet normal 0 0 1
    outer loop
      vertex 50.622 7.418 2.9
      vertex 48.69 19.069 2.9
      vertex 47.597 8.741 2.9
    endloop
  endfacet
  facet normal 0 0 1
    outer loop
      vertex 49.519 7.894 2.9
      vertex 47.597 8.741 2.9
      vertex 48.514 8.335 2.9
    endloop
  endfacet
  facet normal 0 0 1
    outer loop
      vertex 50.622 7.418 2.9
      vertex 47.597 8.741 2.9
      vertex 49.519 7.894 2.9
    endloop
  endfacet
  facet normal 0 0 1
    outer loop
      vertex 46.741 9.103 2.9
      vertex 48.69 19.069 2.9
      vertex 45.956 9.411 2.9
    endloop
  endfacet
  facet normal 0 0 1
    outer loop
      vertex 17.575 17.367 2.9
      vertex 24.401 5.072 2.9
      vertex 25.513 4.49 2.9
    endloop
  endfacet
  facet normal 0 0 1
    outer loop
      vertex 17.575 17.367 2.9
      vertex 21.103 7.303 2.9
      vertex 21.95 6.51 2.9
    endloop
  endfacet
  facet normal -0 0 1
    outer loop
      vertex 55.234 10.761 2.9
      vertex 51.08 19.466 2.9
      vertex 52.95 8.186 2.9
    endloop
  endfacet
  facet normal -0 0 1
    outer loop
      vertex 56.698 13.442 2.9
      vertex 51.08 19.466 2.9
      vertex 55.234 10.761 2.9
    endloop
  endfacet
  facet normal -0 0 1
    outer loop
      vertex 57.404 16.211 2.9
      vertex 51.08 19.466 2.9
      vertex 56.698 13.442 2.9
    endloop
  endfacet
  facet normal -0 0 1
    outer loop
      vertex 57.421 19.016 2.9
      vertex 51.08 19.466 2.9
      vertex 57.404 16.211 2.9
    endloop
  endfacet
  facet normal 0 -0 1
    outer loop
      vertex 56.839 21.847 2.9
      vertex 51.08 19.466 2.9
      vertex 57.421 19.016 2.9
    endloop
  endfacet
  facet normal 0 0 1
    outer loop
      vertex 17.575 17.367 2.9
      vertex 20.344 7.991 2.9
      vertex 21.103 7.303 2.9
    endloop
  endfacet
  facet normal 0 0 1
    outer loop
      vertex 28.899 21.388 2.9
      vertex 23.096 37.695 2.9
      vertex 24.728 31.804 2.9
    endloop
  endfacet
  facet normal -0 0 1
    outer loop
      vertex 22.258 37.369 2.9
      vertex 28.899 45.377 2.9
      vertex 20.124 36.231 2.9
    endloop
  endfacet
  facet normal 0 0 1
    outer loop
      vertex 42.649 19.316 2.9
      vertex 43.884 15.744 2.9
      vertex 48.69 19.069 2.9
    endloop
  endfacet
  facet normal 0 0 1
    outer loop
      vertex 34.129 15.629 2.9
      vertex 31.325 21.388 2.9
      vertex 28.899 21.388 2.9
    endloop
  endfacet
  facet normal 0 0 1
    outer loop
      vertex 21.782 24.078 2.9
      vertex 17.575 17.367 2.9
      vertex 21.244 16.732 2.9
    endloop
  endfacet
  facet normal 0 0 1
    outer loop
      vertex 17.575 17.367 2.9
      vertex 19.648 8.591 2.9
      vertex 20.344 7.991 2.9
    endloop
  endfacet
  facet normal 0 -0 1
    outer loop
      vertex 24.022 43.763 2.9
      vertex 2.732 19.36 2.9
      vertex 26.589 44.795 2.9
    endloop
  endfacet
  facet normal 0 -0 1
    outer loop
      vertex 21.297 42.326 2.9
      vertex 2.732 19.36 2.9
      vertex 24.022 43.763 2.9
    endloop
  endfacet
  facet normal 0 -0 1
    outer loop
      vertex 18.484 40.526 2.9
      vertex 2.732 19.36 2.9
      vertex 21.297 42.326 2.9
    endloop
  endfacet
  facet normal 0 -0 1
    outer loop
      vertex 15.67 38.419 2.9
      vertex 2.732 19.36 2.9
      vertex 18.484 40.526 2.9
    endloop
  endfacet
  facet normal 0 -0 1
    outer loop
      vertex 12.936 36.064 2.9
      vertex 2.732 19.36 2.9
      vertex 15.67 38.419 2.9
    endloop
  endfacet
  facet normal 0 -0 1
    outer loop
      vertex 10.361 33.497 2.9
      vertex 2.732 19.36 2.9
      vertex 12.936 36.064 2.9
    endloop
  endfacet
  facet normal 0 -0 1
    outer loop
      vertex 8.024 30.781 2.9
      vertex 2.732 19.36 2.9
      vertex 10.361 33.497 2.9
    endloop
  endfacet
  facet normal 0 -0 1
    outer loop
      vertex 6.013 27.959 2.9
      vertex 2.732 19.36 2.9
      vertex 8.024 30.781 2.9
    endloop
  endfacet
  facet normal 0 -0 1
    outer loop
      vertex 4.408 25.075 2.9
      vertex 2.732 19.36 2.9
      vertex 6.013 27.959 2.9
    endloop
  endfacet
  facet normal 0 -0 1
    outer loop
      vertex 3.288 22.2 2.9
      vertex 2.732 19.36 2.9
      vertex 4.408 25.075 2.9
    endloop
  endfacet
  facet normal 0 0 1
    outer loop
      vertex 17.275 34.053 2.9
      vertex 20.124 36.231 2.9
      vertex 28.899 45.377 2.9
    endloop
  endfacet
  facet normal 0 -0 1
    outer loop
      vertex 26.589 44.795 2.9
      vertex 17.275 34.053 2.9
      vertex 28.899 45.377 2.9
    endloop
  endfacet
  facet normal 0 0 1
    outer loop
      vertex 26.589 44.795 2.9
      vertex 2.732 19.36 2.9
      vertex 17.275 34.053 2.9
    endloop
  endfacet
  facet normal -0 0 1
    outer loop
      vertex 12.936 27.553 2.9
      vertex 14.277 30.596 2.9
      vertex 2.732 19.36 2.9
    endloop
  endfacet
  facet normal 0 0 1
    outer loop
      vertex 38.495 12.534 2.9
      vertex 44.519 9.808 2.9
      vertex 45.215 9.649 2.9
    endloop
  endfacet
  facet normal 0 0 1
    outer loop
      vertex 38.495 12.534 2.9
      vertex 43.196 9.879 2.9
      vertex 43.848 9.888 2.9
    endloop
  endfacet
  facet normal 0 0 1
    outer loop
      vertex 15.432 14.5 2.9
      vertex 16.058 16.097 2.9
      vertex 11.922 20.348 2.9
    endloop
  endfacet
  facet normal 0 0 1
    outer loop
      vertex 18.995 9.103 2.9
      vertex 15.432 14.5 2.9
      vertex 18.387 9.526 2.9
    endloop
  endfacet
  facet normal 0 0 1
    outer loop
      vertex 26.871 10.955 2.9
      vertex 27.709 8.644 2.9
      vertex 34.985 4.296 2.9
    endloop
  endfacet
  facet normal 0 0 1
    outer loop
      vertex 23.131 10.831 2.9
      vertex 30.372 3.088 2.9
      vertex 31.272 3.114 2.9
    endloop
  endfacet
  facet normal 0 0 1
    outer loop
      vertex 17.575 17.367 2.9
      vertex 28.529 3.343 2.9
      vertex 29.455 3.167 2.9
    endloop
  endfacet
  facet normal 0 0 1
    outer loop
      vertex 42.375 17.014 2.9
      vertex 35.038 22.932 2.9
      vertex 36.907 19.792 2.9
    endloop
  endfacet
  facet normal 0 0 1
    outer loop
      vertex 42.375 17.014 2.9
      vertex 38.169 23.725 2.9
      vertex 35.038 22.932 2.9
    endloop
  endfacet
  facet normal 0 0 1
    outer loop
      vertex 25.768 24.66 2.9
      vertex 25.821 15.991 2.9
      vertex 33.071 10.593 2.9
    endloop
  endfacet
  facet normal 0 0 1
    outer loop
      vertex 25.821 15.991 2.9
      vertex 26.871 10.955 2.9
      vertex 32.233 8.291 2.9
    endloop
  endfacet
  facet normal 0 0 1
    outer loop
      vertex 34.129 15.629 2.9
      vertex 34.173 24.299 2.9
      vertex 31.325 21.388 2.9
    endloop
  endfacet
  facet normal -0 -0 1
    outer loop
      vertex 32.833 7.815 2.9
      vertex 32.233 8.291 2.9
      vertex 35.999 4.869 2.9
    endloop
  endfacet
  facet normal 0 0 1
    outer loop
      vertex 38.495 12.534 2.9
      vertex 41.229 9.182 2.9
      vertex 41.899 9.535 2.9
    endloop
  endfacet
  facet normal 0 0 1
    outer loop
      vertex 17.575 17.367 2.9
      vertex 29.455 3.167 2.9
      vertex 23.131 10.831 2.9
    endloop
  endfacet
  facet normal -0 0 1
    outer loop
      vertex 14.277 30.596 2.9
      vertex 17.275 34.053 2.9
      vertex 2.732 19.36 2.9
    endloop
  endfacet
  facet normal 0 0 1
    outer loop
      vertex 17.575 17.367 2.9
      vertex 21.95 6.51 2.9
      vertex 23.211 5.742 2.9
    endloop
  endfacet
  facet normal 0 0 1
    outer loop
      vertex 38.707 16.379 2.9
      vertex 39.35 14.139 2.9
      vertex 45.956 9.411 2.9
    endloop
  endfacet
  facet normal 0 0 1
    outer loop
      vertex 23.131 10.831 2.9
      vertex 29.455 3.167 2.9
      vertex 30.372 3.088 2.9
    endloop
  endfacet
  facet normal -0 0 1
    outer loop
      vertex 41.229 9.182 2.9
      vertex 36.81 10.479 2.9
      vertex 40.532 8.697 2.9
    endloop
  endfacet
  facet normal 0 0 1
    outer loop
      vertex 23.043 20.154 2.9
      vertex 24.913 23.284 2.9
      vertex 21.782 24.078 2.9
    endloop
  endfacet
  facet normal -0 0 1
    outer loop
      vertex 39.015 7.295 2.9
      vertex 34.764 8.671 2.9
      vertex 38.177 6.36 2.9
    endloop
  endfacet
  facet normal 0 0 1
    outer loop
      vertex 38.495 12.534 2.9
      vertex 43.848 9.888 2.9
      vertex 44.519 9.808 2.9
    endloop
  endfacet
  facet normal -0 0 1
    outer loop
      vertex 37.057 5.557 2.9
      vertex 32.833 7.815 2.9
      vertex 35.999 4.869 2.9
    endloop
  endfacet
  facet normal 0 -0 1
    outer loop
      vertex 47.014 27.2 2.9
      vertex 46.097 25.86 2.9
      vertex 54.141 27.438 2.9
    endloop
  endfacet
  facet normal 0 0 1
    outer loop
      vertex 42.666 33.7 2.9
      vertex 45.665 30.243 2.9
      vertex 49.89 32.73 2.9
    endloop
  endfacet
  facet normal 0 -0 1
    outer loop
      vertex 39.103 41.435 2.9
      vertex 36.846 37.334 2.9
      vertex 41.899 39.574 2.9
    endloop
  endfacet
  facet normal 0 0 1
    outer loop
      vertex 38.495 12.534 2.9
      vertex 45.215 9.649 2.9
      vertex 45.956 9.411 2.9
    endloop
  endfacet
  facet normal 0 -0 1
    outer loop
      vertex 41.899 39.574 2.9
      vertex 37.684 37.007 2.9
      vertex 44.677 37.475 2.9
    endloop
  endfacet
  facet normal 0 -0 1
    outer loop
      vertex 21.782 24.078 2.9
      vertex 21.244 16.732 2.9
      vertex 23.043 20.154 2.9
    endloop
  endfacet
  facet normal 0 0 1
    outer loop
      vertex 37.684 37.007 2.9
      vertex 39.818 35.879 2.9
      vertex 44.677 37.475 2.9
    endloop
  endfacet
  facet normal 0 -0 1
    outer loop
      vertex 38.495 12.534 2.9
      vertex 36.81 10.479 2.9
      vertex 41.229 9.182 2.9
    endloop
  endfacet
  facet normal 0 -0 1
    outer loop
      vertex 49.89 32.73 2.9
      vertex 45.665 30.243 2.9
      vertex 52.165 30.137 2.9
    endloop
  endfacet
  facet normal 0 0 1
    outer loop
      vertex 41.767 23.037 2.9
      vertex 56.839 21.847 2.9
      vertex 55.719 24.66 2.9
    endloop
  endfacet
  facet normal 0 -0 1
    outer loop
      vertex 52.165 30.137 2.9
      vertex 47.014 27.2 2.9
      vertex 54.141 27.438 2.9
    endloop
  endfacet
  facet normal 0 -0 1
    outer loop
      vertex 54.141 27.438 2.9
      vertex 46.097 25.86 2.9
      vertex 55.719 24.66 2.9
    endloop
  endfacet
  facet normal 0 0 1
    outer loop
      vertex 39.818 35.879 2.9
      vertex 42.666 33.7 2.9
      vertex 47.367 35.182 2.9
    endloop
  endfacet
  facet normal 0 -0 1
    outer loop
      vertex 46.097 25.86 2.9
      vertex 44.104 25.419 2.9
      vertex 55.719 24.66 2.9
    endloop
  endfacet
  facet normal 0 0 1
    outer loop
      vertex 41.767 23.037 2.9
      vertex 48.69 19.069 2.9
      vertex 51.08 19.466 2.9
    endloop
  endfacet
  facet normal 0 -0 1
    outer loop
      vertex 44.104 25.419 2.9
      vertex 42.217 25.066 2.9
      vertex 55.719 24.66 2.9
    endloop
  endfacet
  facet normal 0 0 1
    outer loop
      vertex 41.767 23.037 2.9
      vertex 42.649 19.316 2.9
      vertex 48.69 19.069 2.9
    endloop
  endfacet
  facet normal 0 0 1
    outer loop
      vertex 28.899 21.388 2.9
      vertex 24.728 31.804 2.9
      vertex 25.768 24.66 2.9
    endloop
  endfacet
  facet normal 0 0 1
    outer loop
      vertex 17.575 17.367 2.9
      vertex 27.568 3.626 2.9
      vertex 28.529 3.343 2.9
    endloop
  endfacet
  facet normal 0 0 1
    outer loop
      vertex 17.575 17.367 2.9
      vertex 25.513 4.49 2.9
      vertex 26.562 4.005 2.9
    endloop
  endfacet
  facet normal -0 0 1
    outer loop
      vertex 42.375 17.014 2.9
      vertex 36.907 19.792 2.9
      vertex 38.707 16.379 2.9
    endloop
  endfacet
  facet normal 0 0 1
    outer loop
      vertex 48.69 19.069 2.9
      vertex 44.519 14.139 2.9
      vertex 45.956 9.411 2.9
    endloop
  endfacet
  facet normal 0 0 1
    outer loop
      vertex 48.69 19.069 2.9
      vertex 43.884 15.744 2.9
      vertex 44.519 14.139 2.9
    endloop
  endfacet
  facet normal -0 -0 1
    outer loop
      vertex 44.519 14.139 2.9
      vertex 38.707 16.379 2.9
      vertex 45.956 9.411 2.9
    endloop
  endfacet
  facet normal 0 0 1
    outer loop
      vertex 34.173 24.299 2.9
      vertex 35.038 22.932 2.9
      vertex 38.169 23.725 2.9
    endloop
  endfacet
  facet normal 0 0 1
    outer loop
      vertex 27.709 8.644 2.9
      vertex 33.089 3.485 2.9
      vertex 34.023 3.837 2.9
    endloop
  endfacet
  facet normal 0 -0 1
    outer loop
      vertex 27.709 8.644 2.9
      vertex 27.109 8.168 2.9
      vertex 33.089 3.485 2.9
    endloop
  endfacet
  facet normal 0 0 1
    outer loop
      vertex 17.575 17.367 2.9
      vertex 23.211 5.742 2.9
      vertex 24.401 5.072 2.9
    endloop
  endfacet
  facet normal -0 0 1
    outer loop
      vertex 23.096 37.695 2.9
      vertex 28.899 45.377 2.9
      vertex 22.258 37.369 2.9
    endloop
  endfacet
  facet normal 0 0 1
    outer loop
      vertex 28.899 21.388 2.9
      vertex 28.899 45.377 2.9
      vertex 23.096 37.695 2.9
    endloop
  endfacet
  facet normal 0 -0 1
    outer loop
      vertex 39.35 14.139 2.9
      vertex 38.495 12.534 2.9
      vertex 45.956 9.411 2.9
    endloop
  endfacet
  facet normal 0 0 1
    outer loop
      vertex 23.131 10.831 2.9
      vertex 31.272 3.114 2.9
      vertex 25.178 9.023 2.9
    endloop
  endfacet
  facet normal 0 0 1
    outer loop
      vertex 17.575 17.367 2.9
      vertex 23.131 10.831 2.9
      vertex 21.456 12.886 2.9
    endloop
  endfacet
  facet normal -0 -0 1
    outer loop
      vertex 32.233 8.291 2.9
      vertex 26.871 10.955 2.9
      vertex 35.999 4.869 2.9
    endloop
  endfacet
  facet normal -0 0 1
    outer loop
      vertex 34.985 4.296 2.9
      vertex 27.709 8.644 2.9
      vertex 34.023 3.837 2.9
    endloop
  endfacet
  facet normal -0 0 1
    outer loop
      vertex 33.089 3.485 2.9
      vertex 27.109 8.168 2.9
      vertex 32.171 3.247 2.9
    endloop
  endfacet
  facet normal -0 0 1
    outer loop
      vertex 32.171 3.247 2.9
      vertex 25.178 9.023 2.9
      vertex 31.272 3.114 2.9
    endloop
  endfacet
  facet normal 0 0 1
    outer loop
      vertex 17.575 17.367 2.9
      vertex 18.995 9.103 2.9
      vertex 19.648 8.591 2.9
    endloop
  endfacet
  facet normal 0 0 1
    outer loop
      vertex 38.169 23.725 2.9
      vertex 35.214 31.451 2.9
      vertex 34.173 24.299 2.9
    endloop
  endfacet
  facet normal 0 -0 1
    outer loop
      vertex 17.575 17.367 2.9
      vertex 15.432 14.5 2.9
      vertex 18.995 9.103 2.9
    endloop
  endfacet
  facet normal -0 0 1
    outer loop
      vertex 18.184 23.39 2.9
      vertex 17.734 25.428 2.9
      vertex 2.732 19.36 2.9
    endloop
  endfacet
  facet normal -0 0 1
    outer loop
      vertex 17.734 25.428 2.9
      vertex 15.847 25.772 2.9
      vertex 2.732 19.36 2.9
    endloop
  endfacet
  facet normal 0 0 1
    outer loop
      vertex 17.302 19.677 2.9
      vertex 9.532 20.709 2.9
      vertex 11.922 20.348 2.9
    endloop
  endfacet
  facet normal 0 0 1
    outer loop
      vertex 34.764 8.671 2.9
      vertex 37.057 5.557 2.9
      vertex 38.177 6.36 2.9
    endloop
  endfacet
  facet normal -0 0 1
    outer loop
      vertex 15.847 25.772 2.9
      vertex 13.845 26.212 2.9
      vertex 2.732 19.36 2.9
    endloop
  endfacet
  facet normal 0 0 1
    outer loop
      vertex 41.767 23.037 2.9
      vertex 51.08 19.466 2.9
      vertex 56.839 21.847 2.9
    endloop
  endfacet
  facet normal -0 0 1
    outer loop
      vertex 13.845 26.212 2.9
      vertex 12.936 27.553 2.9
      vertex 2.732 19.36 2.9
    endloop
  endfacet
  facet normal 0 -0 1
    outer loop
      vertex 24.728 31.804 2.9
      vertex 21.782 24.078 2.9
      vertex 25.768 24.66 2.9
    endloop
  endfacet
  facet normal 0 0 1
    outer loop
      vertex 21.782 24.078 2.9
      vertex 24.913 23.284 2.9
      vertex 25.768 24.66 2.9
    endloop
  endfacet
  facet normal 0 0 1
    outer loop
      vertex 31.325 45.368 2.9
      vertex 36.352 43.049 2.9
      vertex 33.741 44.372 2.9
    endloop
  endfacet
  facet normal 0 0 1
    outer loop
      vertex 31.325 45.368 2.9
      vertex 39.103 41.435 2.9
      vertex 36.352 43.049 2.9
    endloop
  endfacet
  facet normal 0 0 1
    outer loop
      vertex 31.325 45.368 2.9
      vertex 36.846 37.334 2.9
      vertex 39.103 41.435 2.9
    endloop
  endfacet
  facet normal 0 0 1
    outer loop
      vertex 36.846 37.334 2.9
      vertex 37.684 37.007 2.9
      vertex 41.899 39.574 2.9
    endloop
  endfacet
  facet normal 0 -0 1
    outer loop
      vertex 42.217 25.066 2.9
      vertex 41.767 23.037 2.9
      vertex 55.719 24.66 2.9
    endloop
  endfacet
  facet normal 0 0 1
    outer loop
      vertex 31.325 45.368 2.9
      vertex 35.214 31.451 2.9
      vertex 36.846 37.334 2.9
    endloop
  endfacet
  facet normal 0 0 1
    outer loop
      vertex 42.666 33.7 2.9
      vertex 49.89 32.73 2.9
      vertex 47.367 35.182 2.9
    endloop
  endfacet
  facet normal 0 0 1
    outer loop
      vertex 45.665 30.243 2.9
      vertex 47.014 27.2 2.9
      vertex 52.165 30.137 2.9
    endloop
  endfacet
  facet normal 0 0 1
    outer loop
      vertex 39.818 35.879 2.9
      vertex 47.367 35.182 2.9
      vertex 44.677 37.475 2.9
    endloop
  endfacet
  facet normal 0 0 1
    outer loop
      vertex 31.325 45.368 2.9
      vertex 34.173 24.299 2.9
      vertex 35.214 31.451 2.9
    endloop
  endfacet
  facet normal 0 0 1
    outer loop
      vertex 20.591 14.5 2.9
      vertex 21.244 16.732 2.9
      vertex 17.575 17.367 2.9
    endloop
  endfacet
  facet normal 0 0 1
    outer loop
      vertex 25.768 24.66 2.9
      vertex 33.071 10.593 2.9
      vertex 34.129 15.629 2.9
    endloop
  endfacet
  facet normal 0 0 1
    outer loop
      vertex 44.519 14.139 2.9
      vertex 42.375 17.014 2.9
      vertex 38.707 16.379 2.9
    endloop
  endfacet
  facet normal 0 -0 1
    outer loop
      vertex 31.325 45.368 2.9
      vertex 31.325 21.388 2.9
      vertex 34.173 24.299 2.9
    endloop
  endfacet
  facet normal -0.988822 0.149102 0
    outer loop
      vertex 10.132 8.477 2.9
      vertex 11.922 20.348 2.9
      vertex 10.132 8.477 0
    endloop
  endfacet
  facet normal -0.988822 0.149102 0
    outer loop
      vertex 10.132 8.477 0
      vertex 11.922 20.348 2.9
      vertex 11.922 20.348 0
    endloop
  endfacet
  facet normal -0.999371 -0.0354568 -0
    outer loop
      vertex 2.829 16.626 0
      vertex 2.829 16.626 2.9
      vertex 2.732 19.36 0
    endloop
  endfacet
  facet normal -0.999371 -0.0354568 -0
    outer loop
      vertex 2.732 19.36 0
      vertex 2.829 16.626 2.9
      vertex 2.732 19.36 2.9
    endloop
  endfacet
  facet normal -0.98137 0.192127 0
    outer loop
      vertex 2.732 19.36 2.9
      vertex 3.288 22.2 2.9
      vertex 2.732 19.36 0
    endloop
  endfacet
  facet normal -0.98137 0.192127 0
    outer loop
      vertex 2.732 19.36 0
      vertex 3.288 22.2 2.9
      vertex 3.288 22.2 0
    endloop
  endfacet
  facet normal -0.952505 -0.304522 -0
    outer loop
      vertex 3.658 14.033 0
      vertex 3.658 14.033 2.9
      vertex 2.829 16.626 0
    endloop
  endfacet
  facet normal -0.952505 -0.304522 -0
    outer loop
      vertex 2.829 16.626 0
      vertex 3.658 14.033 2.9
      vertex 2.829 16.626 2.9
    endloop
  endfacet
  facet normal -0.825375 -0.564585 -0
    outer loop
      vertex 5.299 11.634 0
      vertex 5.299 11.634 2.9
      vertex 3.658 14.033 0
    endloop
  endfacet
  facet normal -0.825375 -0.564585 -0
    outer loop
      vertex 3.658 14.033 0
      vertex 5.299 11.634 2.9
      vertex 3.658 14.033 2.9
    endloop
  endfacet
  facet normal 0.415088 -0.909781 0
    outer loop
      vertex 10.132 8.477 0
      vertex 11.252 8.988 0
      vertex 11.252 8.988 2.9
    endloop
  endfacet
  facet normal 0.415088 -0.909781 0
    outer loop
      vertex 10.132 8.477 2.9
      vertex 10.132 8.477 0
      vertex 11.252 8.988 2.9
    endloop
  endfacet
  facet normal 0.387934 -0.921687 0
    outer loop
      vertex 11.252 8.988 0
      vertex 12.257 9.411 0
      vertex 12.257 9.411 2.9
    endloop
  endfacet
  facet normal 0.387934 -0.921687 0
    outer loop
      vertex 11.252 8.988 2.9
      vertex 11.252 8.988 0
      vertex 12.257 9.411 2.9
    endloop
  endfacet
  facet normal 0.36514 -0.930953 0
    outer loop
      vertex 12.257 9.411 0
      vertex 13.157 9.764 0
      vertex 13.157 9.764 2.9
    endloop
  endfacet
  facet normal 0.36514 -0.930953 0
    outer loop
      vertex 12.257 9.411 2.9
      vertex 12.257 9.411 0
      vertex 13.157 9.764 2.9
    endloop
  endfacet
  facet normal 0.307511 -0.951544 0
    outer loop
      vertex 13.157 9.764 0
      vertex 13.977 10.029 0
      vertex 13.977 10.029 2.9
    endloop
  endfacet
  facet normal 0.307511 -0.951544 0
    outer loop
      vertex 13.157 9.764 2.9
      vertex 13.157 9.764 0
      vertex 13.977 10.029 2.9
    endloop
  endfacet
  facet normal 0.231088 -0.972933 0
    outer loop
      vertex 13.977 10.029 0
      vertex 14.718 10.205 0
      vertex 14.718 10.205 2.9
    endloop
  endfacet
  facet normal 0.231088 -0.972933 0
    outer loop
      vertex 13.977 10.029 2.9
      vertex 13.977 10.029 0
      vertex 14.718 10.205 2.9
    endloop
  endfacet
  facet normal 0.154244 -0.988033 0
    outer loop
      vertex 14.718 10.205 0
      vertex 15.397 10.311 0
      vertex 15.397 10.311 2.9
    endloop
  endfacet
  facet normal 0.154244 -0.988033 0
    outer loop
      vertex 14.718 10.205 2.9
      vertex 14.718 10.205 0
      vertex 15.397 10.311 2.9
    endloop
  endfacet
  facet normal 0.0283351 -0.999598 0
    outer loop
      vertex 15.397 10.311 0
      vertex 16.032 10.329 0
      vertex 16.032 10.329 2.9
    endloop
  endfacet
  facet normal 0.0283351 -0.999598 0
    outer loop
      vertex 15.397 10.311 2.9
      vertex 15.397 10.311 0
      vertex 16.032 10.329 2.9
    endloop
  endfacet
  facet normal -0.117707 -0.993048 0
    outer loop
      vertex 16.032 10.329 0
      vertex 16.631 10.258 0
      vertex 16.631 10.258 2.9
    endloop
  endfacet
  facet normal -0.117707 -0.993048 0
    outer loop
      vertex 16.032 10.329 2.9
      vertex 16.032 10.329 0
      vertex 16.631 10.258 2.9
    endloop
  endfacet
  facet normal -0.259798 -0.965663 0
    outer loop
      vertex 16.631 10.258 0
      vertex 17.222 10.099 0
      vertex 17.222 10.099 2.9
    endloop
  endfacet
  facet normal -0.259798 -0.965663 0
    outer loop
      vertex 16.631 10.258 2.9
      vertex 16.631 10.258 0
      vertex 17.222 10.099 2.9
    endloop
  endfacet
  facet normal -0.383015 -0.923742 0
    outer loop
      vertex 17.222 10.099 0
      vertex 17.796 9.861 0
      vertex 17.796 9.861 2.9
    endloop
  endfacet
  facet normal -0.383015 -0.923742 0
    outer loop
      vertex 17.222 10.099 2.9
      vertex 17.222 10.099 0
      vertex 17.796 9.861 2.9
    endloop
  endfacet
  facet normal -0.493124 -0.869959 0
    outer loop
      vertex 17.796 9.861 0
      vertex 18.387 9.526 0
      vertex 18.387 9.526 2.9
    endloop
  endfacet
  facet normal -0.493124 -0.869959 0
    outer loop
      vertex 17.796 9.861 2.9
      vertex 17.796 9.861 0
      vertex 18.387 9.526 2.9
    endloop
  endfacet
  facet normal -0.571104 -0.820878 0
    outer loop
      vertex 18.387 9.526 0
      vertex 18.995 9.103 0
      vertex 18.995 9.103 2.9
    endloop
  endfacet
  facet normal -0.571104 -0.820878 0
    outer loop
      vertex 18.387 9.526 2.9
      vertex 18.387 9.526 0
      vertex 18.995 9.103 2.9
    endloop
  endfacet
  facet normal -0.617023 -0.786945 0
    outer loop
      vertex 18.995 9.103 0
      vertex 19.648 8.591 0
      vertex 19.648 8.591 2.9
    endloop
  endfacet
  facet normal -0.617023 -0.786945 0
    outer loop
      vertex 18.995 9.103 2.9
      vertex 18.995 9.103 0
      vertex 19.648 8.591 2.9
    endloop
  endfacet
  facet normal -0.65294 -0.75741 0
    outer loop
      vertex 19.648 8.591 0
      vertex 20.344 7.991 0
      vertex 20.344 7.991 2.9
    endloop
  endfacet
  facet normal -0.65294 -0.75741 0
    outer loop
      vertex 19.648 8.591 2.9
      vertex 19.648 8.591 0
      vertex 20.344 7.991 2.9
    endloop
  endfacet
  facet normal -0.671603 -0.740911 0
    outer loop
      vertex 20.344 7.991 0
      vertex 21.103 7.303 0
      vertex 21.103 7.303 2.9
    endloop
  endfacet
  facet normal -0.671603 -0.740911 0
    outer loop
      vertex 20.344 7.991 2.9
      vertex 20.344 7.991 0
      vertex 21.103 7.303 2.9
    endloop
  endfacet
  facet normal -0.683454 -0.729994 0
    outer loop
      vertex 21.103 7.303 0
      vertex 21.95 6.51 0
      vertex 21.95 6.51 2.9
    endloop
  endfacet
  facet normal -0.683454 -0.729994 0
    outer loop
      vertex 21.103 7.303 2.9
      vertex 21.103 7.303 0
      vertex 21.95 6.51 2.9
    endloop
  endfacet
  facet normal -0.520162 -0.854068 0
    outer loop
      vertex 21.95 6.51 0
      vertex 23.211 5.742 0
      vertex 23.211 5.742 2.9
    endloop
  endfacet
  facet normal -0.520162 -0.854068 0
    outer loop
      vertex 21.95 6.51 2.9
      vertex 21.95 6.51 0
      vertex 23.211 5.742 2.9
    endloop
  endfacet
  facet normal -0.490609 -0.87138 0
    outer loop
      vertex 23.211 5.742 0
      vertex 24.401 5.072 0
      vertex 24.401 5.072 2.9
    endloop
  endfacet
  facet normal -0.490609 -0.87138 0
    outer loop
      vertex 23.211 5.742 2.9
      vertex 23.211 5.742 0
      vertex 24.401 5.072 2.9
    endloop
  endfacet
  facet normal -0.463709 -0.885987 0
    outer loop
      vertex 24.401 5.072 0
      vertex 25.513 4.49 0
      vertex 25.513 4.49 2.9
    endloop
  endfacet
  facet normal -0.463709 -0.885987 0
    outer loop
      vertex 24.401 5.072 2.9
      vertex 24.401 5.072 0
      vertex 25.513 4.49 2.9
    endloop
  endfacet
  facet normal -0.419662 -0.907681 0
    outer loop
      vertex 25.513 4.49 0
      vertex 26.562 4.005 0
      vertex 26.562 4.005 2.9
    endloop
  endfacet
  facet normal -0.419662 -0.907681 0
    outer loop
      vertex 25.513 4.49 2.9
      vertex 25.513 4.49 0
      vertex 26.562 4.005 2.9
    endloop
  endfacet
  facet normal -0.35255 -0.935793 0
    outer loop
      vertex 26.562 4.005 0
      vertex 27.568 3.626 0
      vertex 27.568 3.626 2.9
    endloop
  endfacet
  facet normal -0.35255 -0.935793 0
    outer loop
      vertex 26.562 4.005 2.9
      vertex 26.562 4.005 0
      vertex 27.568 3.626 2.9
    endloop
  endfacet
  facet normal -0.282491 -0.95927 0
    outer loop
      vertex 27.568 3.626 0
      vertex 28.529 3.343 0
      vertex 28.529 3.343 2.9
    endloop
  endfacet
  facet normal -0.282491 -0.95927 0
    outer loop
      vertex 27.568 3.626 2.9
      vertex 27.568 3.626 0
      vertex 28.529 3.343 2.9
    endloop
  endfacet
  facet normal -0.186722 -0.982413 0
    outer loop
      vertex 28.529 3.343 0
      vertex 29.455 3.167 0
      vertex 29.455 3.167 2.9
    endloop
  endfacet
  facet normal -0.186722 -0.982413 0
    outer loop
      vertex 28.529 3.343 2.9
      vertex 28.529 3.343 0
      vertex 29.455 3.167 2.9
    endloop
  endfacet
  facet normal -0.0858326 -0.99631 0
    outer loop
      vertex 29.455 3.167 0
      vertex 30.372 3.088 0
      vertex 30.372 3.088 2.9
    endloop
  endfacet
  facet normal -0.0858326 -0.99631 0
    outer loop
      vertex 29.455 3.167 2.9
      vertex 29.455 3.167 0
      vertex 30.372 3.088 2.9
    endloop
  endfacet
  facet normal 0.0288768 -0.999583 0
    outer loop
      vertex 30.372 3.088 0
      vertex 31.272 3.114 0
      vertex 31.272 3.114 2.9
    endloop
  endfacet
  facet normal 0.0288768 -0.999583 0
    outer loop
      vertex 30.372 3.088 2.9
      vertex 30.372 3.088 0
      vertex 31.272 3.114 2.9
    endloop
  endfacet
  facet normal 0.146349 -0.989233 0
    outer loop
      vertex 31.272 3.114 0
      vertex 32.171 3.247 0
      vertex 32.171 3.247 2.9
    endloop
  endfacet
  facet normal 0.146349 -0.989233 0
    outer loop
      vertex 31.272 3.114 2.9
      vertex 31.272 3.114 0
      vertex 32.171 3.247 2.9
    endloop
  endfacet
  facet normal 0.250962 -0.967997 0
    outer loop
      vertex 32.171 3.247 0
      vertex 33.089 3.485 0
      vertex 33.089 3.485 2.9
    endloop
  endfacet
  facet normal 0.250962 -0.967997 0
    outer loop
      vertex 32.171 3.247 2.9
      vertex 32.171 3.247 0
      vertex 33.089 3.485 2.9
    endloop
  endfacet
  facet normal 0.35266 -0.935751 0
    outer loop
      vertex 33.089 3.485 0
      vertex 34.023 3.837 0
      vertex 34.023 3.837 2.9
    endloop
  endfacet
  facet normal 0.35266 -0.935751 0
    outer loop
      vertex 33.089 3.485 2.9
      vertex 33.089 3.485 0
      vertex 34.023 3.837 2.9
    endloop
  endfacet
  facet normal 0.430625 -0.902531 0
    outer loop
      vertex 34.023 3.837 0
      vertex 34.985 4.296 0
      vertex 34.985 4.296 2.9
    endloop
  endfacet
  facet normal 0.430625 -0.902531 0
    outer loop
      vertex 34.023 3.837 2.9
      vertex 34.023 3.837 0
      vertex 34.985 4.296 2.9
    endloop
  endfacet
  facet normal 0.491972 -0.870611 0
    outer loop
      vertex 34.985 4.296 0
      vertex 35.999 4.869 0
      vertex 35.999 4.869 2.9
    endloop
  endfacet
  facet normal 0.491972 -0.870611 0
    outer loop
      vertex 34.985 4.296 2.9
      vertex 34.985 4.296 0
      vertex 35.999 4.869 2.9
    endloop
  endfacet
  facet normal 0.545155 -0.838335 0
    outer loop
      vertex 35.999 4.869 0
      vertex 37.057 5.557 0
      vertex 37.057 5.557 2.9
    endloop
  endfacet
  facet normal 0.545155 -0.838335 0
    outer loop
      vertex 35.999 4.869 2.9
      vertex 35.999 4.869 0
      vertex 37.057 5.557 2.9
    endloop
  endfacet
  facet normal 0.582679 -0.812703 0
    outer loop
      vertex 37.057 5.557 0
      vertex 38.177 6.36 0
      vertex 38.177 6.36 2.9
    endloop
  endfacet
  facet normal 0.582679 -0.812703 0
    outer loop
      vertex 37.057 5.557 2.9
      vertex 37.057 5.557 0
      vertex 38.177 6.36 2.9
    endloop
  endfacet
  facet normal 0.744679 -0.667423 0
    outer loop
      vertex 38.177 6.36 0
      vertex 39.015 7.295 0
      vertex 39.015 7.295 2.9
    endloop
  endfacet
  facet normal 0.744679 -0.667423 0
    outer loop
      vertex 38.177 6.36 2.9
      vertex 38.177 6.36 0
      vertex 39.015 7.295 2.9
    endloop
  endfacet
  facet normal 0.703018 -0.711172 0
    outer loop
      vertex 39.015 7.295 0
      vertex 39.8 8.071 0
      vertex 39.8 8.071 2.9
    endloop
  endfacet
  facet normal 0.703018 -0.711172 0
    outer loop
      vertex 39.015 7.295 2.9
      vertex 39.015 7.295 0
      vertex 39.8 8.071 2.9
    endloop
  endfacet
  facet normal 0.649936 -0.759989 0
    outer loop
      vertex 39.8 8.071 0
      vertex 40.532 8.697 0
      vertex 40.532 8.697 2.9
    endloop
  endfacet
  facet normal 0.649936 -0.759989 0
    outer loop
      vertex 39.8 8.071 2.9
      vertex 39.8 8.071 0
      vertex 40.532 8.697 2.9
    endloop
  endfacet
  facet normal 0.571168 -0.820833 0
    outer loop
      vertex 40.532 8.697 0
      vertex 41.229 9.182 0
      vertex 41.229 9.182 2.9
    endloop
  endfacet
  facet normal 0.571168 -0.820833 0
    outer loop
      vertex 40.532 8.697 2.9
      vertex 40.532 8.697 0
      vertex 41.229 9.182 2.9
    endloop
  endfacet
  facet normal 0.466127 -0.884718 0
    outer loop
      vertex 41.229 9.182 0
      vertex 41.899 9.535 0
      vertex 41.899 9.535 2.9
    endloop
  endfacet
  facet normal 0.466127 -0.884718 0
    outer loop
      vertex 41.229 9.182 2.9
      vertex 41.229 9.182 0
      vertex 41.899 9.535 2.9
    endloop
  endfacet
  facet normal 0.33093 -0.943655 0
    outer loop
      vertex 41.899 9.535 0
      vertex 42.552 9.764 0
      vertex 42.552 9.764 2.9
    endloop
  endfacet
  facet normal 0.33093 -0.943655 0
    outer loop
      vertex 41.899 9.535 2.9
      vertex 41.899 9.535 0
      vertex 42.552 9.764 2.9
    endloop
  endfacet
  facet normal 0.175791 -0.984428 0
    outer loop
      vertex 42.552 9.764 0
      vertex 43.196 9.879 0
      vertex 43.196 9.879 2.9
    endloop
  endfacet
  facet normal 0.175791 -0.984428 0
    outer loop
      vertex 42.552 9.764 2.9
      vertex 42.552 9.764 0
      vertex 43.196 9.879 2.9
    endloop
  endfacet
  facet normal 0.0138024 -0.999905 0
    outer loop
      vertex 43.196 9.879 0
      vertex 43.848 9.888 0
      vertex 43.848 9.888 2.9
    endloop
  endfacet
  facet normal 0.0138024 -0.999905 0
    outer loop
      vertex 43.196 9.879 2.9
      vertex 43.196 9.879 0
      vertex 43.848 9.888 2.9
    endloop
  endfacet
  facet normal -0.118387 -0.992968 0
    outer loop
      vertex 43.848 9.888 0
      vertex 44.519 9.808 0
      vertex 44.519 9.808 2.9
    endloop
  endfacet
  facet normal -0.118387 -0.992968 0
    outer loop
      vertex 43.848 9.888 2.9
      vertex 43.848 9.888 0
      vertex 44.519 9.808 2.9
    endloop
  endfacet
  facet normal -0.222711 -0.974885 0
    outer loop
      vertex 44.519 9.808 0
      vertex 45.215 9.649 0
      vertex 45.215 9.649 2.9
    endloop
  endfacet
  facet normal -0.222711 -0.974885 0
    outer loop
      vertex 44.519 9.808 2.9
      vertex 44.519 9.808 0
      vertex 45.215 9.649 2.9
    endloop
  endfacet
  facet normal -0.305801 -0.952095 0
    outer loop
      vertex 45.215 9.649 0
      vertex 45.956 9.411 0
      vertex 45.956 9.411 2.9
    endloop
  endfacet
  facet normal -0.305801 -0.952095 0
    outer loop
      vertex 45.215 9.649 2.9
      vertex 45.215 9.649 0
      vertex 45.956 9.411 2.9
    endloop
  endfacet
  facet normal -0.365249 -0.93091 0
    outer loop
      vertex 45.956 9.411 0
      vertex 46.741 9.103 0
      vertex 46.741 9.103 2.9
    endloop
  endfacet
  facet normal -0.365249 -0.93091 0
    outer loop
      vertex 45.956 9.411 2.9
      vertex 45.956 9.411 0
      vertex 46.741 9.103 2.9
    endloop
  endfacet
  facet normal -0.3895 -0.921027 0
    outer loop
      vertex 46.741 9.103 0
      vertex 47.597 8.741 0
      vertex 47.597 8.741 2.9
    endloop
  endfacet
  facet normal -0.3895 -0.921027 0
    outer loop
      vertex 46.741 9.103 2.9
      vertex 46.741 9.103 0
      vertex 47.597 8.741 2.9
    endloop
  endfacet
  facet normal -0.404843 -0.914386 0
    outer loop
      vertex 47.597 8.741 0
      vertex 48.514 8.335 0
      vertex 48.514 8.335 2.9
    endloop
  endfacet
  facet normal -0.404843 -0.914386 0
    outer loop
      vertex 47.597 8.741 2.9
      vertex 47.597 8.741 0
      vertex 48.514 8.335 2.9
    endloop
  endfacet
  facet normal -0.401822 -0.915718 0
    outer loop
      vertex 48.514 8.335 0
      vertex 49.519 7.894 0
      vertex 49.519 7.894 2.9
    endloop
  endfacet
  facet normal -0.401822 -0.915718 0
    outer loop
      vertex 48.514 8.335 2.9
      vertex 48.514 8.335 0
      vertex 49.519 7.894 2.9
    endloop
  endfacet
  facet normal -0.396229 -0.918152 0
    outer loop
      vertex 49.519 7.894 0
      vertex 50.622 7.418 0
      vertex 50.622 7.418 2.9
    endloop
  endfacet
  facet normal -0.396229 -0.918152 0
    outer loop
      vertex 49.519 7.894 2.9
      vertex 49.519 7.894 0
      vertex 50.622 7.418 2.9
    endloop
  endfacet
  facet normal 0.986529 0.163589 0
    outer loop
      vertex 48.69 19.069 0
      vertex 48.69 19.069 2.9
      vertex 50.622 7.418 2.9
    endloop
  endfacet
  facet normal 0.986529 0.163589 0
    outer loop
      vertex 50.622 7.418 0
      vertex 48.69 19.069 0
      vertex 50.622 7.418 2.9
    endloop
  endfacet
  facet normal 0.163863 -0.986483 0
    outer loop
      vertex 48.69 19.069 0
      vertex 51.08 19.466 0
      vertex 51.08 19.466 2.9
    endloop
  endfacet
  facet normal 0.163863 -0.986483 0
    outer loop
      vertex 48.69 19.069 2.9
      vertex 48.69 19.069 0
      vertex 51.08 19.466 2.9
    endloop
  endfacet
  facet normal -0.986535 -0.163548 -0
    outer loop
      vertex 52.95 8.186 0
      vertex 52.95 8.186 2.9
      vertex 51.08 19.466 0
    endloop
  endfacet
  facet normal -0.986535 -0.163548 -0
    outer loop
      vertex 51.08 19.466 0
      vertex 52.95 8.186 2.9
      vertex 51.08 19.466 2.9
    endloop
  endfacet
  facet normal 0.748114 -0.66357 0
    outer loop
      vertex 52.95 8.186 0
      vertex 55.234 10.761 0
      vertex 55.234 10.761 2.9
    endloop
  endfacet
  facet normal 0.748114 -0.66357 0
    outer loop
      vertex 52.95 8.186 2.9
      vertex 52.95 8.186 0
      vertex 55.234 10.761 2.9
    endloop
  endfacet
  facet normal 0.87767 -0.479265 0
    outer loop
      vertex 55.234 10.761 0
      vertex 56.698 13.442 0
      vertex 56.698 13.442 2.9
    endloop
  endfacet
  facet normal 0.87767 -0.479265 0
    outer loop
      vertex 55.234 10.761 2.9
      vertex 55.234 10.761 0
      vertex 56.698 13.442 2.9
    endloop
  endfacet
  facet normal 0.969 -0.247062 0
    outer loop
      vertex 56.698 13.442 0
      vertex 57.404 16.211 0
      vertex 57.404 16.211 2.9
    endloop
  endfacet
  facet normal 0.969 -0.247062 0
    outer loop
      vertex 56.698 13.442 2.9
      vertex 56.698 13.442 0
      vertex 57.404 16.211 2.9
    endloop
  endfacet
  facet normal 0.999982 -0.00606049 0
    outer loop
      vertex 57.404 16.211 0
      vertex 57.421 19.016 0
      vertex 57.421 19.016 2.9
    endloop
  endfacet
  facet normal 0.999982 -0.00606049 0
    outer loop
      vertex 57.404 16.211 2.9
      vertex 57.404 16.211 0
      vertex 57.421 19.016 2.9
    endloop
  endfacet
  facet normal 0.979515 0.20137 0
    outer loop
      vertex 56.839 21.847 0
      vertex 56.839 21.847 2.9
      vertex 57.421 19.016 2.9
    endloop
  endfacet
  facet normal 0.979515 0.20137 0
    outer loop
      vertex 57.421 19.016 0
      vertex 56.839 21.847 0
      vertex 57.421 19.016 2.9
    endloop
  endfacet
  facet normal 0.929068 0.36991 0
    outer loop
      vertex 55.719 24.66 0
      vertex 55.719 24.66 2.9
      vertex 56.839 21.847 2.9
    endloop
  endfacet
  facet normal 0.929068 0.36991 0
    outer loop
      vertex 56.839 21.847 0
      vertex 55.719 24.66 0
      vertex 56.839 21.847 2.9
    endloop
  endfacet
  facet normal 0.869512 0.493913 0
    outer loop
      vertex 54.141 27.438 0
      vertex 54.141 27.438 2.9
      vertex 55.719 24.66 2.9
    endloop
  endfacet
  facet normal 0.869512 0.493913 0
    outer loop
      vertex 55.719 24.66 0
      vertex 54.141 27.438 0
      vertex 55.719 24.66 2.9
    endloop
  endfacet
  facet normal 0.80687 0.590728 0
    outer loop
      vertex 52.165 30.137 0
      vertex 52.165 30.137 2.9
      vertex 54.141 27.438 2.9
    endloop
  endfacet
  facet normal 0.80687 0.590728 0
    outer loop
      vertex 54.141 27.438 0
      vertex 52.165 30.137 0
      vertex 54.141 27.438 2.9
    endloop
  endfacet
  facet normal 0.751696 0.65951 0
    outer loop
      vertex 49.89 32.73 0
      vertex 49.89 32.73 2.9
      vertex 52.165 30.137 2.9
    endloop
  endfacet
  facet normal 0.751696 0.65951 0
    outer loop
      vertex 52.165 30.137 0
      vertex 49.89 32.73 0
      vertex 52.165 30.137 2.9
    endloop
  endfacet
  facet normal 0.696944 0.717125 -0
    outer loop
      vertex 47.367 35.182 2.9
      vertex 49.89 32.73 2.9
      vertex 47.367 35.182 0
    endloop
  endfacet
  facet normal 0.696944 0.717125 0
    outer loop
      vertex 47.367 35.182 0
      vertex 49.89 32.73 2.9
      vertex 49.89 32.73 0
    endloop
  endfacet
  facet normal 0.648715 0.761031 -0
    outer loop
      vertex 44.677 37.475 2.9
      vertex 47.367 35.182 2.9
      vertex 44.677 37.475 0
    endloop
  endfacet
  facet normal 0.648715 0.761031 0
    outer loop
      vertex 44.677 37.475 0
      vertex 47.367 35.182 2.9
      vertex 47.367 35.182 0
    endloop
  endfacet
  facet normal 0.602845 0.797858 -0
    outer loop
      vertex 41.899 39.574 2.9
      vertex 44.677 37.475 2.9
      vertex 41.899 39.574 0
    endloop
  endfacet
  facet normal 0.602845 0.797858 0
    outer loop
      vertex 41.899 39.574 0
      vertex 44.677 37.475 2.9
      vertex 44.677 37.475 0
    endloop
  endfacet
  facet normal 0.554082 0.832462 -0
    outer loop
      vertex 39.103 41.435 2.9
      vertex 41.899 39.574 2.9
      vertex 39.103 41.435 0
    endloop
  endfacet
  facet normal 0.554082 0.832462 0
    outer loop
      vertex 39.103 41.435 0
      vertex 41.899 39.574 2.9
      vertex 41.899 39.574 0
    endloop
  endfacet
  facet normal 0.506033 0.862514 -0
    outer loop
      vertex 36.352 43.049 2.9
      vertex 39.103 41.435 2.9
      vertex 36.352 43.049 0
    endloop
  endfacet
  facet normal 0.506033 0.862514 0
    outer loop
      vertex 36.352 43.049 0
      vertex 39.103 41.435 2.9
      vertex 39.103 41.435 0
    endloop
  endfacet
  facet normal 0.45199 0.892023 -0
    outer loop
      vertex 33.741 44.372 2.9
      vertex 36.352 43.049 2.9
      vertex 33.741 44.372 0
    endloop
  endfacet
  facet normal 0.45199 0.892023 0
    outer loop
      vertex 33.741 44.372 0
      vertex 36.352 43.049 2.9
      vertex 36.352 43.049 0
    endloop
  endfacet
  facet normal 0.381135 0.92452 -0
    outer loop
      vertex 31.325 45.368 2.9
      vertex 33.741 44.372 2.9
      vertex 31.325 45.368 0
    endloop
  endfacet
  facet normal 0.381135 0.92452 0
    outer loop
      vertex 31.325 45.368 0
      vertex 33.741 44.372 2.9
      vertex 33.741 44.372 0
    endloop
  endfacet
  facet normal -1 0 0
    outer loop
      vertex 31.325 21.388 2.9
      vertex 31.325 45.368 2.9
      vertex 31.325 21.388 0
    endloop
  endfacet
  facet normal -1 -0 0
    outer loop
      vertex 31.325 21.388 0
      vertex 31.325 45.368 2.9
      vertex 31.325 45.368 0
    endloop
  endfacet
  facet normal 0 1 -0
    outer loop
      vertex 28.899 21.388 2.9
      vertex 31.325 21.388 2.9
      vertex 28.899 21.388 0
    endloop
  endfacet
  facet normal 0 1 0
    outer loop
      vertex 28.899 21.388 0
      vertex 31.325 21.388 2.9
      vertex 31.325 21.388 0
    endloop
  endfacet
  facet normal 1 0 0
    outer loop
      vertex 28.899 21.388 0
      vertex 28.899 45.377 0
      vertex 28.899 45.377 2.9
    endloop
  endfacet
  facet normal 1 0 -0
    outer loop
      vertex 28.899 21.388 2.9
      vertex 28.899 21.388 0
      vertex 28.899 45.377 2.9
    endloop
  endfacet
  facet normal -0.244313 0.969696 0
    outer loop
      vertex 26.589 44.795 2.9
      vertex 28.899 45.377 2.9
      vertex 26.589 44.795 0
    endloop
  endfacet
  facet normal -0.244313 0.969696 0
    outer loop
      vertex 26.589 44.795 0
      vertex 28.899 45.377 2.9
      vertex 28.899 45.377 0
    endloop
  endfacet
  facet normal -0.37301 0.927827 0
    outer loop
      vertex 24.022 43.763 2.9
      vertex 26.589 44.795 2.9
      vertex 24.022 43.763 0
    endloop
  endfacet
  facet normal -0.37301 0.927827 0
    outer loop
      vertex 24.022 43.763 0
      vertex 26.589 44.795 2.9
      vertex 26.589 44.795 0
    endloop
  endfacet
  facet normal -0.466455 0.884545 0
    outer loop
      vertex 21.297 42.326 2.9
      vertex 24.022 43.763 2.9
      vertex 21.297 42.326 0
    endloop
  endfacet
  facet normal -0.466455 0.884545 0
    outer loop
      vertex 21.297 42.326 0
      vertex 24.022 43.763 2.9
      vertex 24.022 43.763 0
    endloop
  endfacet
  facet normal -0.538986 0.842315 0
    outer loop
      vertex 18.484 40.526 2.9
      vertex 21.297 42.326 2.9
      vertex 18.484 40.526 0
    endloop
  endfacet
  facet normal -0.538986 0.842315 0
    outer loop
      vertex 18.484 40.526 0
      vertex 21.297 42.326 2.9
      vertex 21.297 42.326 0
    endloop
  endfacet
  facet normal -0.599363 0.800478 0
    outer loop
      vertex 15.67 38.419 2.9
      vertex 18.484 40.526 2.9
      vertex 15.67 38.419 0
    endloop
  endfacet
  facet normal -0.599363 0.800478 0
    outer loop
      vertex 15.67 38.419 0
      vertex 18.484 40.526 2.9
      vertex 18.484 40.526 0
    endloop
  endfacet
  facet normal -0.652638 0.75767 0
    outer loop
      vertex 12.936 36.064 2.9
      vertex 15.67 38.419 2.9
      vertex 12.936 36.064 0
    endloop
  endfacet
  facet normal -0.652638 0.75767 0
    outer loop
      vertex 12.936 36.064 0
      vertex 15.67 38.419 2.9
      vertex 15.67 38.419 0
    endloop
  endfacet
  facet normal -0.706006 0.708206 0
    outer loop
      vertex 10.361 33.497 2.9
      vertex 12.936 36.064 2.9
      vertex 10.361 33.497 0
    endloop
  endfacet
  facet normal -0.706006 0.708206 0
    outer loop
      vertex 10.361 33.497 0
      vertex 12.936 36.064 2.9
      vertex 12.936 36.064 0
    endloop
  endfacet
  facet normal -0.758014 0.652238 0
    outer loop
      vertex 8.024 30.781 2.9
      vertex 10.361 33.497 2.9
      vertex 8.024 30.781 0
    endloop
  endfacet
  facet normal -0.758014 0.652238 0
    outer loop
      vertex 8.024 30.781 0
      vertex 10.361 33.497 2.9
      vertex 10.361 33.497 0
    endloop
  endfacet
  facet normal -0.814376 0.580337 0
    outer loop
      vertex 6.013 27.959 2.9
      vertex 8.024 30.781 2.9
      vertex 6.013 27.959 0
    endloop
  endfacet
  facet normal -0.814376 0.580337 0
    outer loop
      vertex 6.013 27.959 0
      vertex 8.024 30.781 2.9
      vertex 8.024 30.781 0
    endloop
  endfacet
  facet normal -0.8738 0.486286 0
    outer loop
      vertex 4.408 25.075 2.9
      vertex 6.013 27.959 2.9
      vertex 4.408 25.075 0
    endloop
  endfacet
  facet normal -0.8738 0.486286 0
    outer loop
      vertex 4.408 25.075 0
      vertex 6.013 27.959 2.9
      vertex 6.013 27.959 0
    endloop
  endfacet
  facet normal -0.931792 0.362994 0
    outer loop
      vertex 3.288 22.2 2.9
      vertex 4.408 25.075 2.9
      vertex 3.288 22.2 0
    endloop
  endfacet
  facet normal -0.931792 0.362994 0
    outer loop
      vertex 3.288 22.2 0
      vertex 4.408 25.075 2.9
      vertex 4.408 25.075 0
    endloop
  endfacet
  facet normal 0.827752 0.561094 0
    outer loop
      vertex 12.936 27.553 0
      vertex 12.936 27.553 2.9
      vertex 13.845 26.212 2.9
    endloop
  endfacet
  facet normal 0.827752 0.561094 0
    outer loop
      vertex 13.845 26.212 0
      vertex 12.936 27.553 0
      vertex 13.845 26.212 2.9
    endloop
  endfacet
  facet normal 0.915084 -0.403263 0
    outer loop
      vertex 12.936 27.553 0
      vertex 14.277 30.596 0
      vertex 14.277 30.596 2.9
    endloop
  endfacet
  facet normal 0.915084 -0.403263 0
    outer loop
      vertex 12.936 27.553 2.9
      vertex 12.936 27.553 0
      vertex 14.277 30.596 2.9
    endloop
  endfacet
  facet normal 0.75548 -0.655172 0
    outer loop
      vertex 14.277 30.596 0
      vertex 17.275 34.053 0
      vertex 17.275 34.053 2.9
    endloop
  endfacet
  facet normal 0.75548 -0.655172 0
    outer loop
      vertex 14.277 30.596 2.9
      vertex 14.277 30.596 0
      vertex 17.275 34.053 2.9
    endloop
  endfacet
  facet normal 0.607336 -0.794445 0
    outer loop
      vertex 17.275 34.053 0
      vertex 20.124 36.231 0
      vertex 20.124 36.231 2.9
    endloop
  endfacet
  facet normal 0.607336 -0.794445 0
    outer loop
      vertex 17.275 34.053 2.9
      vertex 17.275 34.053 0
      vertex 20.124 36.231 2.9
    endloop
  endfacet
  facet normal 0.470545 -0.882376 0
    outer loop
      vertex 20.124 36.231 0
      vertex 22.258 37.369 0
      vertex 22.258 37.369 2.9
    endloop
  endfacet
  facet normal 0.470545 -0.882376 0
    outer loop
      vertex 20.124 36.231 2.9
      vertex 20.124 36.231 0
      vertex 22.258 37.369 2.9
    endloop
  endfacet
  facet normal 0.362554 -0.931963 0
    outer loop
      vertex 22.258 37.369 0
      vertex 23.096 37.695 0
      vertex 23.096 37.695 2.9
    endloop
  endfacet
  facet normal 0.362554 -0.931963 0
    outer loop
      vertex 22.258 37.369 2.9
      vertex 22.258 37.369 0
      vertex 23.096 37.695 2.9
    endloop
  endfacet
  facet normal -0.963703 -0.266977 -0
    outer loop
      vertex 24.728 31.804 0
      vertex 24.728 31.804 2.9
      vertex 23.096 37.695 0
    endloop
  endfacet
  facet normal -0.963703 -0.266977 -0
    outer loop
      vertex 23.096 37.695 0
      vertex 24.728 31.804 2.9
      vertex 23.096 37.695 2.9
    endloop
  endfacet
  facet normal -0.934377 0.356287 0
    outer loop
      vertex 21.782 24.078 2.9
      vertex 24.728 31.804 2.9
      vertex 21.782 24.078 0
    endloop
  endfacet
  facet normal -0.934377 0.356287 0
    outer loop
      vertex 21.782 24.078 0
      vertex 24.728 31.804 2.9
      vertex 24.728 31.804 0
    endloop
  endfacet
  facet normal -0.847281 0.531145 0
    outer loop
      vertex 17.575 17.367 2.9
      vertex 21.782 24.078 2.9
      vertex 17.575 17.367 0
    endloop
  endfacet
  facet normal -0.847281 0.531145 0
    outer loop
      vertex 17.575 17.367 0
      vertex 21.782 24.078 2.9
      vertex 21.782 24.078 0
    endloop
  endfacet
  facet normal -0.800971 0.598703 0
    outer loop
      vertex 15.432 14.5 2.9
      vertex 17.575 17.367 2.9
      vertex 15.432 14.5 0
    endloop
  endfacet
  facet normal -0.800971 0.598703 0
    outer loop
      vertex 15.432 14.5 0
      vertex 17.575 17.367 2.9
      vertex 17.575 17.367 0
    endloop
  endfacet
  facet normal 0.931028 -0.364949 0
    outer loop
      vertex 15.432 14.5 0
      vertex 16.058 16.097 0
      vertex 16.058 16.097 2.9
    endloop
  endfacet
  facet normal 0.931028 -0.364949 0
    outer loop
      vertex 15.432 14.5 2.9
      vertex 15.432 14.5 0
      vertex 16.058 16.097 2.9
    endloop
  endfacet
  facet normal 0.944596 -0.328234 0
    outer loop
      vertex 16.058 16.097 0
      vertex 17.302 19.677 0
      vertex 17.302 19.677 2.9
    endloop
  endfacet
  facet normal 0.944596 -0.328234 0
    outer loop
      vertex 16.058 16.097 2.9
      vertex 16.058 16.097 0
      vertex 17.302 19.677 2.9
    endloop
  endfacet
  facet normal 0.972927 -0.231113 0
    outer loop
      vertex 17.302 19.677 0
      vertex 18.184 23.39 0
      vertex 18.184 23.39 2.9
    endloop
  endfacet
  facet normal 0.972927 -0.231113 0
    outer loop
      vertex 17.302 19.677 2.9
      vertex 17.302 19.677 0
      vertex 18.184 23.39 2.9
    endloop
  endfacet
  facet normal 0.976479 0.215611 0
    outer loop
      vertex 17.734 25.428 0
      vertex 17.734 25.428 2.9
      vertex 18.184 23.39 2.9
    endloop
  endfacet
  facet normal 0.976479 0.215611 0
    outer loop
      vertex 18.184 23.39 0
      vertex 17.734 25.428 0
      vertex 18.184 23.39 2.9
    endloop
  endfacet
  facet normal 0.179344 0.983786 -0
    outer loop
      vertex 15.847 25.772 2.9
      vertex 17.734 25.428 2.9
      vertex 15.847 25.772 0
    endloop
  endfacet
  facet normal 0.179344 0.983786 0
    outer loop
      vertex 15.847 25.772 0
      vertex 17.734 25.428 2.9
      vertex 17.734 25.428 0
    endloop
  endfacet
  facet normal 0.214657 0.976689 -0
    outer loop
      vertex 13.845 26.212 2.9
      vertex 15.847 25.772 2.9
      vertex 13.845 26.212 0
    endloop
  endfacet
  facet normal 0.214657 0.976689 0
    outer loop
      vertex 13.845 26.212 0
      vertex 15.847 25.772 2.9
      vertex 15.847 25.772 0
    endloop
  endfacet
  facet normal 0.934014 0.357237 0
    outer loop
      vertex 35.214 31.451 0
      vertex 35.214 31.451 2.9
      vertex 38.169 23.725 2.9
    endloop
  endfacet
  facet normal 0.934014 0.357237 0
    outer loop
      vertex 38.169 23.725 0
      vertex 35.214 31.451 0
      vertex 38.169 23.725 2.9
    endloop
  endfacet
  facet normal 0.963609 -0.267314 0
    outer loop
      vertex 35.214 31.451 0
      vertex 36.846 37.334 0
      vertex 36.846 37.334 2.9
    endloop
  endfacet
  facet normal 0.963609 -0.267314 0
    outer loop
      vertex 35.214 31.451 2.9
      vertex 35.214 31.451 0
      vertex 36.846 37.334 2.9
    endloop
  endfacet
  facet normal -0.363519 -0.931587 0
    outer loop
      vertex 36.846 37.334 0
      vertex 37.684 37.007 0
      vertex 37.684 37.007 2.9
    endloop
  endfacet
  facet normal -0.363519 -0.931587 0
    outer loop
      vertex 36.846 37.334 2.9
      vertex 36.846 37.334 0
      vertex 37.684 37.007 2.9
    endloop
  endfacet
  facet normal -0.467317 -0.88409 0
    outer loop
      vertex 37.684 37.007 0
      vertex 39.818 35.879 0
      vertex 39.818 35.879 2.9
    endloop
  endfacet
  facet normal -0.467317 -0.88409 0
    outer loop
      vertex 37.684 37.007 2.9
      vertex 37.684 37.007 0
      vertex 39.818 35.879 2.9
    endloop
  endfacet
  facet normal -0.607647 -0.794207 0
    outer loop
      vertex 39.818 35.879 0
      vertex 42.666 33.7 0
      vertex 42.666 33.7 2.9
    endloop
  endfacet
  facet normal -0.607647 -0.794207 0
    outer loop
      vertex 39.818 35.879 2.9
      vertex 39.818 35.879 0
      vertex 42.666 33.7 2.9
    endloop
  endfacet
  facet normal -0.755372 -0.655296 -0
    outer loop
      vertex 45.665 30.243 0
      vertex 45.665 30.243 2.9
      vertex 42.666 33.7 0
    endloop
  endfacet
  facet normal -0.755372 -0.655296 -0
    outer loop
      vertex 42.666 33.7 0
      vertex 45.665 30.243 2.9
      vertex 42.666 33.7 2.9
    endloop
  endfacet
  facet normal -0.914195 -0.405274 -0
    outer loop
      vertex 47.014 27.2 0
      vertex 47.014 27.2 2.9
      vertex 45.665 30.243 0
    endloop
  endfacet
  facet normal -0.914195 -0.405274 -0
    outer loop
      vertex 45.665 30.243 0
      vertex 47.014 27.2 2.9
      vertex 45.665 30.243 2.9
    endloop
  endfacet
  facet normal -0.825262 0.56475 0
    outer loop
      vertex 46.097 25.86 2.9
      vertex 47.014 27.2 2.9
      vertex 46.097 25.86 0
    endloop
  endfacet
  facet normal -0.825262 0.56475 0
    outer loop
      vertex 46.097 25.86 0
      vertex 47.014 27.2 2.9
      vertex 47.014 27.2 0
    endloop
  endfacet
  facet normal -0.216049 0.976383 0
    outer loop
      vertex 44.104 25.419 2.9
      vertex 46.097 25.86 2.9
      vertex 44.104 25.419 0
    endloop
  endfacet
  facet normal -0.216049 0.976383 0
    outer loop
      vertex 44.104 25.419 0
      vertex 46.097 25.86 2.9
      vertex 46.097 25.86 0
    endloop
  endfacet
  facet normal -0.18388 0.982949 0
    outer loop
      vertex 42.217 25.066 2.9
      vertex 44.104 25.419 2.9
      vertex 42.217 25.066 0
    endloop
  endfacet
  facet normal -0.18388 0.982949 0
    outer loop
      vertex 42.217 25.066 0
      vertex 44.104 25.419 2.9
      vertex 44.104 25.419 0
    endloop
  endfacet
  facet normal -0.976278 0.216523 0
    outer loop
      vertex 41.767 23.037 2.9
      vertex 42.217 25.066 2.9
      vertex 41.767 23.037 0
    endloop
  endfacet
  facet normal -0.976278 0.216523 0
    outer loop
      vertex 41.767 23.037 0
      vertex 42.217 25.066 2.9
      vertex 42.217 25.066 0
    endloop
  endfacet
  facet normal -0.973039 -0.230642 -0
    outer loop
      vertex 42.649 19.316 0
      vertex 42.649 19.316 2.9
      vertex 41.767 23.037 0
    endloop
  endfacet
  facet normal -0.973039 -0.230642 -0
    outer loop
      vertex 41.767 23.037 0
      vertex 42.649 19.316 2.9
      vertex 41.767 23.037 2.9
    endloop
  endfacet
  facet normal -0.945106 -0.326765 -0
    outer loop
      vertex 43.884 15.744 0
      vertex 43.884 15.744 2.9
      vertex 42.649 19.316 0
    endloop
  endfacet
  facet normal -0.945106 -0.326765 -0
    outer loop
      vertex 42.649 19.316 0
      vertex 43.884 15.744 2.9
      vertex 42.649 19.316 2.9
    endloop
  endfacet
  facet normal -0.929869 -0.367892 -0
    outer loop
      vertex 44.519 14.139 0
      vertex 44.519 14.139 2.9
      vertex 43.884 15.744 0
    endloop
  endfacet
  facet normal -0.929869 -0.367892 -0
    outer loop
      vertex 43.884 15.744 0
      vertex 44.519 14.139 2.9
      vertex 43.884 15.744 2.9
    endloop
  endfacet
  facet normal 0.801637 0.597812 0
    outer loop
      vertex 42.375 17.014 0
      vertex 42.375 17.014 2.9
      vertex 44.519 14.139 2.9
    endloop
  endfacet
  facet normal 0.801637 0.597812 0
    outer loop
      vertex 44.519 14.139 0
      vertex 42.375 17.014 0
      vertex 44.519 14.139 2.9
    endloop
  endfacet
  facet normal 0.847338 0.531054 0
    outer loop
      vertex 38.169 23.725 0
      vertex 38.169 23.725 2.9
      vertex 42.375 17.014 2.9
    endloop
  endfacet
  facet normal 0.847338 0.531054 0
    outer loop
      vertex 42.375 17.014 0
      vertex 38.169 23.725 0
      vertex 42.375 17.014 2.9
    endloop
  endfacet
  facet normal 0.621505 0.78341 -0
    outer loop
      vertex 32.233 8.291 2.9
      vertex 32.833 7.815 2.9
      vertex 32.233 8.291 0
    endloop
  endfacet
  facet normal 0.621505 0.78341 0
    outer loop
      vertex 32.233 8.291 0
      vertex 32.833 7.815 2.9
      vertex 32.833 7.815 0
    endloop
  endfacet
  facet normal 0.939674 -0.342071 0
    outer loop
      vertex 32.233 8.291 0
      vertex 33.071 10.593 0
      vertex 33.071 10.593 2.9
    endloop
  endfacet
  facet normal 0.939674 -0.342071 0
    outer loop
      vertex 32.233 8.291 2.9
      vertex 32.233 8.291 0
      vertex 33.071 10.593 2.9
    endloop
  endfacet
  facet normal 0.978636 -0.205599 0
    outer loop
      vertex 33.071 10.593 0
      vertex 34.129 15.629 0
      vertex 34.129 15.629 2.9
    endloop
  endfacet
  facet normal 0.978636 -0.205599 0
    outer loop
      vertex 33.071 10.593 2.9
      vertex 33.071 10.593 0
      vertex 34.129 15.629 2.9
    endloop
  endfacet
  facet normal 0.999987 -0.00507491 0
    outer loop
      vertex 34.129 15.629 0
      vertex 34.173 24.299 0
      vertex 34.173 24.299 2.9
    endloop
  endfacet
  facet normal 0.999987 -0.00507491 0
    outer loop
      vertex 34.129 15.629 2.9
      vertex 34.129 15.629 0
      vertex 34.173 24.299 2.9
    endloop
  endfacet
  facet normal -0.845033 -0.534714 -0
    outer loop
      vertex 35.038 22.932 0
      vertex 35.038 22.932 2.9
      vertex 34.173 24.299 0
    endloop
  endfacet
  facet normal -0.845033 -0.534714 -0
    outer loop
      vertex 34.173 24.299 0
      vertex 35.038 22.932 2.9
      vertex 34.173 24.299 2.9
    endloop
  endfacet
  facet normal -0.859299 -0.511474 -0
    outer loop
      vertex 36.907 19.792 0
      vertex 36.907 19.792 2.9
      vertex 35.038 22.932 0
    endloop
  endfacet
  facet normal -0.859299 -0.511474 -0
    outer loop
      vertex 35.038 22.932 0
      vertex 36.907 19.792 2.9
      vertex 35.038 22.932 2.9
    endloop
  endfacet
  facet normal -0.884524 -0.466494 -0
    outer loop
      vertex 38.707 16.379 0
      vertex 38.707 16.379 2.9
      vertex 36.907 19.792 0
    endloop
  endfacet
  facet normal -0.884524 -0.466494 -0
    outer loop
      vertex 36.907 19.792 0
      vertex 38.707 16.379 2.9
      vertex 36.907 19.792 2.9
    endloop
  endfacet
  facet normal -0.961183 -0.275911 -0
    outer loop
      vertex 39.35 14.139 0
      vertex 39.35 14.139 2.9
      vertex 38.707 16.379 0
    endloop
  endfacet
  facet normal -0.961183 -0.275911 -0
    outer loop
      vertex 38.707 16.379 0
      vertex 39.35 14.139 2.9
      vertex 38.707 16.379 2.9
    endloop
  endfacet
  facet normal -0.882581 0.47016 0
    outer loop
      vertex 38.495 12.534 2.9
      vertex 39.35 14.139 2.9
      vertex 38.495 12.534 0
    endloop
  endfacet
  facet normal -0.882581 0.47016 0
    outer loop
      vertex 38.495 12.534 0
      vertex 39.35 14.139 2.9
      vertex 39.35 14.139 0
    endloop
  endfacet
  facet normal -0.773286 0.634057 0
    outer loop
      vertex 36.81 10.479 2.9
      vertex 38.495 12.534 2.9
      vertex 36.81 10.479 0
    endloop
  endfacet
  facet normal -0.773286 0.634057 0
    outer loop
      vertex 36.81 10.479 0
      vertex 38.495 12.534 2.9
      vertex 38.495 12.534 0
    endloop
  endfacet
  facet normal -0.662179 0.749346 0
    outer loop
      vertex 34.764 8.671 2.9
      vertex 36.81 10.479 2.9
      vertex 34.764 8.671 0
    endloop
  endfacet
  facet normal -0.662179 0.749346 0
    outer loop
      vertex 34.764 8.671 0
      vertex 36.81 10.479 2.9
      vertex 36.81 10.479 0
    endloop
  endfacet
  facet normal -0.40526 0.914202 0
    outer loop
      vertex 32.833 7.815 2.9
      vertex 34.764 8.671 2.9
      vertex 32.833 7.815 0
    endloop
  endfacet
  facet normal -0.40526 0.914202 0
    outer loop
      vertex 32.833 7.815 0
      vertex 34.764 8.671 2.9
      vertex 34.764 8.671 0
    endloop
  endfacet
  facet normal 0.881399 0.472373 0
    outer loop
      vertex 20.591 14.5 0
      vertex 20.591 14.5 2.9
      vertex 21.456 12.886 2.9
    endloop
  endfacet
  facet normal 0.881399 0.472373 0
    outer loop
      vertex 21.456 12.886 0
      vertex 20.591 14.5 0
      vertex 21.456 12.886 2.9
    endloop
  endfacet
  facet normal 0.959769 -0.280792 0
    outer loop
      vertex 20.591 14.5 0
      vertex 21.244 16.732 0
      vertex 21.244 16.732 2.9
    endloop
  endfacet
  facet normal 0.959769 -0.280792 0
    outer loop
      vertex 20.591 14.5 2.9
      vertex 20.591 14.5 0
      vertex 21.244 16.732 2.9
    endloop
  endfacet
  facet normal 0.885137 -0.465331 0
    outer loop
      vertex 21.244 16.732 0
      vertex 23.043 20.154 0
      vertex 23.043 20.154 2.9
    endloop
  endfacet
  facet normal 0.885137 -0.465331 0
    outer loop
      vertex 21.244 16.732 2.9
      vertex 21.244 16.732 0
      vertex 23.043 20.154 2.9
    endloop
  endfacet
  facet normal 0.858459 -0.512882 0
    outer loop
      vertex 23.043 20.154 0
      vertex 24.913 23.284 0
      vertex 24.913 23.284 2.9
    endloop
  endfacet
  facet normal 0.858459 -0.512882 0
    outer loop
      vertex 23.043 20.154 2.9
      vertex 23.043 20.154 0
      vertex 24.913 23.284 2.9
    endloop
  endfacet
  facet normal 0.849383 -0.527778 0
    outer loop
      vertex 24.913 23.284 0
      vertex 25.768 24.66 0
      vertex 25.768 24.66 2.9
    endloop
  endfacet
  facet normal 0.849383 -0.527778 0
    outer loop
      vertex 24.913 23.284 2.9
      vertex 24.913 23.284 0
      vertex 25.768 24.66 2.9
    endloop
  endfacet
  facet normal -0.999981 -0.00611362 -0
    outer loop
      vertex 25.821 15.991 0
      vertex 25.821 15.991 2.9
      vertex 25.768 24.66 0
    endloop
  endfacet
  facet normal -0.999981 -0.00611362 -0
    outer loop
      vertex 25.768 24.66 0
      vertex 25.821 15.991 2.9
      vertex 25.768 24.66 2.9
    endloop
  endfacet
  facet normal -0.978948 -0.20411 -0
    outer loop
      vertex 26.871 10.955 0
      vertex 26.871 10.955 2.9
      vertex 25.821 15.991 0
    endloop
  endfacet
  facet normal -0.978948 -0.20411 -0
    outer loop
      vertex 25.821 15.991 0
      vertex 26.871 10.955 2.9
      vertex 25.821 15.991 2.9
    endloop
  endfacet
  facet normal -0.940102 -0.340894 -0
    outer loop
      vertex 27.709 8.644 0
      vertex 27.709 8.644 2.9
      vertex 26.871 10.955 0
    endloop
  endfacet
  facet normal -0.940102 -0.340894 -0
    outer loop
      vertex 26.871 10.955 0
      vertex 27.709 8.644 2.9
      vertex 26.871 10.955 2.9
    endloop
  endfacet
  facet normal -0.621505 0.78341 0
    outer loop
      vertex 27.109 8.168 2.9
      vertex 27.709 8.644 2.9
      vertex 27.109 8.168 0
    endloop
  endfacet
  facet normal -0.621505 0.78341 0
    outer loop
      vertex 27.109 8.168 0
      vertex 27.709 8.644 2.9
      vertex 27.709 8.644 0
    endloop
  endfacet
  facet normal 0.404864 0.914377 -0
    outer loop
      vertex 25.178 9.023 2.9
      vertex 27.109 8.168 2.9
      vertex 25.178 9.023 0
    endloop
  endfacet
  facet normal 0.404864 0.914377 0
    outer loop
      vertex 25.178 9.023 0
      vertex 27.109 8.168 2.9
      vertex 27.109 8.168 0
    endloop
  endfacet
  facet normal 0.661997 0.749507 -0
    outer loop
      vertex 23.131 10.831 2.9
      vertex 25.178 9.023 2.9
      vertex 23.131 10.831 0
    endloop
  endfacet
  facet normal 0.661997 0.749507 0
    outer loop
      vertex 23.131 10.831 0
      vertex 25.178 9.023 2.9
      vertex 25.178 9.023 0
    endloop
  endfacet
  facet normal 0.775132 0.631799 0
    outer loop
      vertex 21.456 12.886 0
      vertex 21.456 12.886 2.9
      vertex 23.131 10.831 2.9
    endloop
  endfacet
  facet normal 0.775132 0.631799 0
    outer loop
      vertex 23.131 10.831 0
      vertex 21.456 12.886 0
      vertex 23.131 10.831 2.9
    endloop
  endfacet
endsolid OpenSCAD_Model
