solid OpenSCAD_Model
  facet normal -0.990603 0.136767 0
    outer loop
      vertex 7.103 24.838 2.6
      vertex 7.852 30.263 2.6
      vertex 7.103 24.838 0
    endloop
  endfacet
  facet normal -0.990603 0.136767 0
    outer loop
      vertex 7.103 24.838 0
      vertex 7.852 30.263 2.6
      vertex 7.852 30.263 0
    endloop
  endfacet
  facet normal -0 0 -1
    outer loop
      vertex 7.852 30.263 0
      vertex 9.695 36.339 0
      vertex 7.103 24.838 0
    endloop
  endfacet
  facet normal 0 0 -1
    outer loop
      vertex 7.103 24.838 0
      vertex 9.695 36.339 0
      vertex 12.671 42.888 0
    endloop
  endfacet
  facet normal 0 0 -1
    outer loop
      vertex 7.103 24.838 0
      vertex 12.671 42.888 0
      vertex 16.821 49.731 0
    endloop
  endfacet
  facet normal 0 0 -1
    outer loop
      vertex 7.103 24.838 0
      vertex 16.821 49.731 0
      vertex 22.185 56.688 0
    endloop
  endfacet
  facet normal 0 0 -1
    outer loop
      vertex 7.103 24.838 0
      vertex 22.185 56.688 0
      vertex 28.802 63.583 0
    endloop
  endfacet
  facet normal 0 0 -1
    outer loop
      vertex 7.103 24.838 0
      vertex 28.802 63.583 0
      vertex 28.959 63.579 0
    endloop
  endfacet
  facet normal 0 0 -1
    outer loop
      vertex 7.103 24.838 0
      vertex 28.959 63.579 0
      vertex 29.116 63.574 0
    endloop
  endfacet
  facet normal 0 0 -1
    outer loop
      vertex 7.103 24.838 0
      vertex 29.116 63.574 0
      vertex 29.272 63.57 0
    endloop
  endfacet
  facet normal 0 0 -1
    outer loop
      vertex 7.103 24.838 0
      vertex 29.272 63.57 0
      vertex 29.429 63.565 0
    endloop
  endfacet
  facet normal 0 0 -1
    outer loop
      vertex 7.103 24.838 0
      vertex 29.429 63.565 0
      vertex 29.585 63.561 0
    endloop
  endfacet
  facet normal 0 0 -1
    outer loop
      vertex 29.585 63.561 0
      vertex 29.742 63.557 0
      vertex 7.103 24.838 0
    endloop
  endfacet
  facet normal 0 0 -1
    outer loop
      vertex 7.103 24.838 0
      vertex 29.742 63.557 0
      vertex 29.898 63.552 0
    endloop
  endfacet
  facet normal 0 0 -1
    outer loop
      vertex 7.103 24.838 0
      vertex 29.898 63.552 0
      vertex 30.055 63.548 0
    endloop
  endfacet
  facet normal 0 0 -1
    outer loop
      vertex 7.103 24.838 0
      vertex 30.055 63.548 0
      vertex 30.064 61.811 0
    endloop
  endfacet
  facet normal 0 0 -1
    outer loop
      vertex 7.103 24.838 0
      vertex 30.064 61.811 0
      vertex 30.073 60.075 0
    endloop
  endfacet
  facet normal 0 0 -1
    outer loop
      vertex 7.103 24.838 0
      vertex 30.073 60.075 0
      vertex 30.081 58.339 0
    endloop
  endfacet
  facet normal 0 0 -1
    outer loop
      vertex 7.103 24.838 0
      vertex 30.081 58.339 0
      vertex 30.09 56.602 0
    endloop
  endfacet
  facet normal 0 0 -1
    outer loop
      vertex 30.09 56.602 0
      vertex 30.099 54.866 0
      vertex 7.103 24.838 0
    endloop
  endfacet
  facet normal 0 0 -1
    outer loop
      vertex 7.103 24.838 0
      vertex 30.099 54.866 0
      vertex 30.108 53.13 0
    endloop
  endfacet
  facet normal 0 0 -1
    outer loop
      vertex 7.103 24.838 0
      vertex 30.108 53.13 0
      vertex 30.117 51.393 0
    endloop
  endfacet
  facet normal 0 0 -1
    outer loop
      vertex 7.103 24.838 0
      vertex 30.117 51.393 0
      vertex 30.125 49.657 0
    endloop
  endfacet
  facet normal 0 0 -1
    outer loop
      vertex 7.103 24.838 0
      vertex 30.125 49.657 0
      vertex 30.442 49.646 0
    endloop
  endfacet
  facet normal 0 0 -1
    outer loop
      vertex 30.442 49.646 0
      vertex 30.758 49.635 0
      vertex 7.103 24.838 0
    endloop
  endfacet
  facet normal 0 0 -1
    outer loop
      vertex 30.758 49.635 0
      vertex 31.075 49.624 0
      vertex 7.103 24.838 0
    endloop
  endfacet
  facet normal 0 0 -1
    outer loop
      vertex 7.103 24.838 0
      vertex 31.075 49.624 0
      vertex 31.391 49.613 0
    endloop
  endfacet
  facet normal 0 0 -1
    outer loop
      vertex 7.103 24.838 0
      vertex 31.391 49.613 0
      vertex 31.707 49.602 0
    endloop
  endfacet
  facet normal 0 0 -1
    outer loop
      vertex 31.707 49.602 0
      vertex 32.024 49.591 0
      vertex 7.103 24.838 0
    endloop
  endfacet
  facet normal 0 0 -1
    outer loop
      vertex 7.103 24.838 0
      vertex 32.024 49.591 0
      vertex 32.34 49.58 0
    endloop
  endfacet
  facet normal 0 0 -1
    outer loop
      vertex 32.34 49.58 0
      vertex 32.657 49.569 0
      vertex 7.103 24.838 0
    endloop
  endfacet
  facet normal 0 0 -6.62492e-007
    outer loop
      vertex 32.657 49.569 0
      vertex 32.649 51.306 0
      vertex 32.641 53.044 0
    endloop
  endfacet
  facet normal 0 0 -1
    outer loop
      vertex 32.641 53.044 0
      vertex 32.633 54.781 0
      vertex 32.626 56.519 0
    endloop
  endfacet
  facet normal -0 -0 -1
    outer loop
      vertex 32.641 53.044 0
      vertex 32.626 56.519 0
      vertex 32.657 49.569 0
    endloop
  endfacet
  facet normal 0 0 -6.62492e-007
    outer loop
      vertex 32.626 56.519 0
      vertex 32.618 58.256 0
      vertex 32.61 59.994 0
    endloop
  endfacet
  facet normal 0 0 -1
    outer loop
      vertex 32.626 56.519 0
      vertex 32.61 59.994 0
      vertex 32.603 61.731 0
    endloop
  endfacet
  facet normal -0 -0 -1
    outer loop
      vertex 32.626 56.519 0
      vertex 32.603 61.731 0
      vertex 32.657 49.569 0
    endloop
  endfacet
  facet normal 0 -0 -1
    outer loop
      vertex 32.603 61.731 0
      vertex 32.595 63.468 0
      vertex 32.781 63.463 0
    endloop
  endfacet
  facet normal -0 0 -1
    outer loop
      vertex 32.603 61.731 0
      vertex 32.781 63.463 0
      vertex 32.657 49.569 0
    endloop
  endfacet
  facet normal 0 0 -1
    outer loop
      vertex 32.657 49.569 0
      vertex 32.781 63.463 0
      vertex 32.967 63.457 0
    endloop
  endfacet
  facet normal 0 0 -1
    outer loop
      vertex 32.657 49.569 0
      vertex 32.967 63.457 0
      vertex 33.154 63.452 0
    endloop
  endfacet
  facet normal 0 0 -1
    outer loop
      vertex 32.657 49.569 0
      vertex 33.154 63.452 0
      vertex 33.34 63.446 0
    endloop
  endfacet
  facet normal 0 0 -1
    outer loop
      vertex 32.657 49.569 0
      vertex 33.34 63.446 0
      vertex 33.526 63.441 0
    endloop
  endfacet
  facet normal 0 0 -1
    outer loop
      vertex 32.657 49.569 0
      vertex 33.526 63.441 0
      vertex 33.713 63.435 0
    endloop
  endfacet
  facet normal 0 0 -1
    outer loop
      vertex 32.657 49.569 0
      vertex 33.713 63.435 0
      vertex 33.899 63.43 0
    endloop
  endfacet
  facet normal 0 0 -1
    outer loop
      vertex 32.657 49.569 0
      vertex 33.899 63.43 0
      vertex 34.085 63.424 0
    endloop
  endfacet
  facet normal 0 0 -1
    outer loop
      vertex 32.657 49.569 0
      vertex 34.085 63.424 0
      vertex 40.703 56.554 0
    endloop
  endfacet
  facet normal -0 0 -1
    outer loop
      vertex 32.657 49.569 0
      vertex 40.703 56.554 0
      vertex 7.103 24.838 0
    endloop
  endfacet
  facet normal 0 0 -1
    outer loop
      vertex 32.016 41.431 0
      vertex 40.703 56.554 0
      vertex 46.068 49.659 0
    endloop
  endfacet
  facet normal 0 0 -1
    outer loop
      vertex 35.766 38.491 0
      vertex 46.068 49.659 0
      vertex 50.219 42.905 0
    endloop
  endfacet
  facet normal 0 0 -1
    outer loop
      vertex 41.248 33.698 0
      vertex 50.219 42.905 0
      vertex 53.198 36.458 0
    endloop
  endfacet
  facet normal -0 0 -1
    outer loop
      vertex 43.982 30.962 0
      vertex 53.198 36.458 0
      vertex 55.042 30.484 0
    endloop
  endfacet
  facet normal -0 0 -1
    outer loop
      vertex 48.117 25.518 0
      vertex 55.042 30.484 0
      vertex 55.792 25.148 0
    endloop
  endfacet
  facet normal -0 0 -1
    outer loop
      vertex 48.934 22.719 0
      vertex 55.792 25.148 0
      vertex 55.487 20.615 0
    endloop
  endfacet
  facet normal -0 0 -1
    outer loop
      vertex 48.829 19.604 0
      vertex 55.487 20.615 0
      vertex 54.167 17.052 0
    endloop
  endfacet
  facet normal -0 0 -1
    outer loop
      vertex 48.054 16.384 0
      vertex 54.167 17.052 0
      vertex 52.293 14.269 0
    endloop
  endfacet
  facet normal -0 0 -1
    outer loop
      vertex 46.858 13.273 0
      vertex 52.293 14.269 0
      vertex 50.362 11.949 0
    endloop
  endfacet
  facet normal 0 0 -1
    outer loop
      vertex 45.493 10.484 0
      vertex 48.469 10.065 0
      vertex 46.708 8.586 0
    endloop
  endfacet
  facet normal -0 0 -1
    outer loop
      vertex 44.207 8.228 0
      vertex 46.708 8.586 0
      vertex 45.175 7.486 0
    endloop
  endfacet
  facet normal -0 0 -1
    outer loop
      vertex 43.252 6.719 0
      vertex 43.962 6.735 0
      vertex 43.165 6.305 0
    endloop
  endfacet
  facet normal 0 0 -1
    outer loop
      vertex 44.207 8.228 0
      vertex 43.962 6.735 0
      vertex 43.252 6.719 0
    endloop
  endfacet
  facet normal 0 0 -1
    outer loop
      vertex 14.067 19.205 0
      vertex 7.103 24.838 0
      vertex 13.963 22.322 0
    endloop
  endfacet
  facet normal 0 0 -1
    outer loop
      vertex 44.207 8.228 0
      vertex 45.175 7.486 0
      vertex 43.962 6.735 0
    endloop
  endfacet
  facet normal 0 0 -1
    outer loop
      vertex 46.858 13.273 0
      vertex 48.469 10.065 0
      vertex 45.493 10.484 0
    endloop
  endfacet
  facet normal 0 0 -1
    outer loop
      vertex 45.493 10.484 0
      vertex 46.708 8.586 0
      vertex 44.207 8.228 0
    endloop
  endfacet
  facet normal 0 0 -1
    outer loop
      vertex 46.858 13.273 0
      vertex 50.362 11.949 0
      vertex 48.469 10.065 0
    endloop
  endfacet
  facet normal 0 0 -1
    outer loop
      vertex 48.054 16.384 0
      vertex 52.293 14.269 0
      vertex 46.858 13.273 0
    endloop
  endfacet
  facet normal 0 0 -1
    outer loop
      vertex 48.829 19.604 0
      vertex 54.167 17.052 0
      vertex 48.054 16.384 0
    endloop
  endfacet
  facet normal 0 0 -1
    outer loop
      vertex 48.934 22.719 0
      vertex 55.487 20.615 0
      vertex 48.829 19.604 0
    endloop
  endfacet
  facet normal 0 0 -1
    outer loop
      vertex 48.117 25.518 0
      vertex 55.792 25.148 0
      vertex 48.934 22.719 0
    endloop
  endfacet
  facet normal -0 0 -1
    outer loop
      vertex 46.359 28.188 0
      vertex 55.042 30.484 0
      vertex 48.117 25.518 0
    endloop
  endfacet
  facet normal 0 0 -1
    outer loop
      vertex 43.982 30.962 0
      vertex 55.042 30.484 0
      vertex 46.359 28.188 0
    endloop
  endfacet
  facet normal -0 0 -1
    outer loop
      vertex 41.248 33.698 0
      vertex 53.198 36.458 0
      vertex 43.982 30.962 0
    endloop
  endfacet
  facet normal -0 0 -1
    outer loop
      vertex 38.422 36.255 0
      vertex 50.219 42.905 0
      vertex 41.248 33.698 0
    endloop
  endfacet
  facet normal -0 0 -1
    outer loop
      vertex 35.766 38.491 0
      vertex 50.219 42.905 0
      vertex 38.422 36.255 0
    endloop
  endfacet
  facet normal 0 -0 -1
    outer loop
      vertex 21.648 33.427 0
      vertex 7.103 24.838 0
      vertex 24.475 36.057 0
    endloop
  endfacet
  facet normal -0 0 -1
    outer loop
      vertex 33.543 40.264 0
      vertex 46.068 49.659 0
      vertex 35.766 38.491 0
    endloop
  endfacet
  facet normal -0 0 -1
    outer loop
      vertex 32.016 41.431 0
      vertex 46.068 49.659 0
      vertex 33.543 40.264 0
    endloop
  endfacet
  facet normal -0 0 -1
    outer loop
      vertex 31.448 41.852 0
      vertex 40.703 56.554 0
      vertex 32.016 41.431 0
    endloop
  endfacet
  facet normal 0 -0 -1
    outer loop
      vertex 24.475 36.057 0
      vertex 7.103 24.838 0
      vertex 27.131 38.366 0
    endloop
  endfacet
  facet normal 0 0 -1
    outer loop
      vertex 7.103 24.838 0
      vertex 40.703 56.554 0
      vertex 31.448 41.852 0
    endloop
  endfacet
  facet normal 0 0 -1
    outer loop
      vertex 7.103 24.838 0
      vertex 31.448 41.852 0
      vertex 30.881 41.414 0
    endloop
  endfacet
  facet normal 0 0 -1
    outer loop
      vertex 7.103 24.838 0
      vertex 30.881 41.414 0
      vertex 29.354 40.202 0
    endloop
  endfacet
  facet normal 0 0 -1
    outer loop
      vertex 7.103 24.838 0
      vertex 29.354 40.202 0
      vertex 27.131 38.366 0
    endloop
  endfacet
  facet normal 0 -0 -1
    outer loop
      vertex 18.915 30.627 0
      vertex 7.103 24.838 0
      vertex 21.648 33.427 0
    endloop
  endfacet
  facet normal 0 -0 -1
    outer loop
      vertex 16.538 27.808 0
      vertex 7.103 24.838 0
      vertex 18.915 30.627 0
    endloop
  endfacet
  facet normal 0 -0 -1
    outer loop
      vertex 14.78 25.122 0
      vertex 7.103 24.838 0
      vertex 16.538 27.808 0
    endloop
  endfacet
  facet normal 0 -0 -1
    outer loop
      vertex 13.963 22.322 0
      vertex 7.103 24.838 0
      vertex 14.78 25.122 0
    endloop
  endfacet
  facet normal 0 0 -1
    outer loop
      vertex 7.103 24.838 0
      vertex 14.067 19.205 0
      vertex 14.843 15.984 0
    endloop
  endfacet
  facet normal 0 0 -1
    outer loop
      vertex 14.843 15.984 0
      vertex 16.038 12.872 0
      vertex 7.103 24.838 0
    endloop
  endfacet
  facet normal 0 0 -1
    outer loop
      vertex 16.038 12.872 0
      vertex 17.404 10.081 0
      vertex 7.103 24.838 0
    endloop
  endfacet
  facet normal 0 0 -1
    outer loop
      vertex 17.404 10.081 0
      vertex 18.689 7.824 0
      vertex 7.103 24.838 0
    endloop
  endfacet
  facet normal 0 0 -1
    outer loop
      vertex 18.689 7.824 0
      vertex 19.644 6.314 0
      vertex 7.103 24.838 0
    endloop
  endfacet
  facet normal 0 0 -1
    outer loop
      vertex 19.644 6.314 0
      vertex 20.018 5.763 0
      vertex 19.732 5.9 0
    endloop
  endfacet
  facet normal 0 0 -1
    outer loop
      vertex 19.644 6.314 0
      vertex 19.732 5.9 0
      vertex 7.103 24.838 0
    endloop
  endfacet
  facet normal 0 0 -1
    outer loop
      vertex 7.103 24.838 0
      vertex 19.732 5.9 0
      vertex 18.935 6.331 0
    endloop
  endfacet
  facet normal 0 0 -1
    outer loop
      vertex 7.103 24.838 0
      vertex 18.935 6.331 0
      vertex 17.722 7.083 0
    endloop
  endfacet
  facet normal 0 0 -1
    outer loop
      vertex 7.103 24.838 0
      vertex 17.722 7.083 0
      vertex 16.188 8.185 0
    endloop
  endfacet
  facet normal 0 0 -1
    outer loop
      vertex 7.103 24.838 0
      vertex 16.188 8.185 0
      vertex 14.427 9.665 0
    endloop
  endfacet
  facet normal 0 0 -1
    outer loop
      vertex 7.103 24.838 0
      vertex 14.427 9.665 0
      vertex 12.534 11.551 0
    endloop
  endfacet
  facet normal 0 0 -1
    outer loop
      vertex 7.103 24.838 0
      vertex 12.534 11.551 0
      vertex 10.604 13.872 0
    endloop
  endfacet
  facet normal 0 0 -1
    outer loop
      vertex 7.103 24.838 0
      vertex 10.604 13.872 0
      vertex 8.729 16.655 0
    endloop
  endfacet
  facet normal 0 0 -1
    outer loop
      vertex 7.103 24.838 0
      vertex 8.729 16.655 0
      vertex 7.409 20.242 0
    endloop
  endfacet
  facet normal 0 0 -1
    outer loop
      vertex 43.252 6.719 0
      vertex 43.165 6.305 0
      vertex 42.878 6.169 0
    endloop
  endfacet
  facet normal -0.956946 0.290265 0
    outer loop
      vertex 7.852 30.263 2.6
      vertex 9.695 36.339 2.6
      vertex 7.852 30.263 0
    endloop
  endfacet
  facet normal -0.956946 0.290265 0
    outer loop
      vertex 7.852 30.263 0
      vertex 9.695 36.339 2.6
      vertex 9.695 36.339 0
    endloop
  endfacet
  facet normal -0.997791 -0.0664326 -0
    outer loop
      vertex 7.409 20.242 0
      vertex 7.409 20.242 2.6
      vertex 7.103 24.838 0
    endloop
  endfacet
  facet normal -0.997791 -0.0664326 -0
    outer loop
      vertex 7.103 24.838 0
      vertex 7.409 20.242 2.6
      vertex 7.103 24.838 2.6
    endloop
  endfacet
  facet normal 0 0 1
    outer loop
      vertex 7.103 24.838 2.6
      vertex 7.409 20.242 2.6
      vertex 8.729 16.655 2.6
    endloop
  endfacet
  facet normal 0 0 1
    outer loop
      vertex 12.534 11.551 2.6
      vertex 7.103 24.838 2.6
      vertex 10.604 13.872 2.6
    endloop
  endfacet
  facet normal 0 0 1
    outer loop
      vertex 10.604 13.872 2.6
      vertex 7.103 24.838 2.6
      vertex 8.729 16.655 2.6
    endloop
  endfacet
  facet normal 0 0 1
    outer loop
      vertex 14.427 9.665 2.6
      vertex 7.103 24.838 2.6
      vertex 12.534 11.551 2.6
    endloop
  endfacet
  facet normal 0 0 1
    outer loop
      vertex 16.188 8.185 2.6
      vertex 7.103 24.838 2.6
      vertex 14.427 9.665 2.6
    endloop
  endfacet
  facet normal 0 0 1
    outer loop
      vertex 17.722 7.083 2.6
      vertex 7.103 24.838 2.6
      vertex 16.188 8.185 2.6
    endloop
  endfacet
  facet normal 0 0 1
    outer loop
      vertex 18.935 6.331 2.6
      vertex 7.103 24.838 2.6
      vertex 17.722 7.083 2.6
    endloop
  endfacet
  facet normal 0 0 1
    outer loop
      vertex 19.732 5.9 2.6
      vertex 7.103 24.838 2.6
      vertex 18.935 6.331 2.6
    endloop
  endfacet
  facet normal -0 -0 1
    outer loop
      vertex 19.644 6.314 2.6
      vertex 7.103 24.838 2.6
      vertex 19.732 5.9 2.6
    endloop
  endfacet
  facet normal 0 0 1
    outer loop
      vertex 20.018 5.763 2.6
      vertex 19.644 6.314 2.6
      vertex 19.732 5.9 2.6
    endloop
  endfacet
  facet normal -0 -0 1
    outer loop
      vertex 17.404 10.081 2.6
      vertex 7.103 24.838 2.6
      vertex 18.689 7.824 2.6
    endloop
  endfacet
  facet normal -0 -0 1
    outer loop
      vertex 16.038 12.872 2.6
      vertex 7.103 24.838 2.6
      vertex 17.404 10.081 2.6
    endloop
  endfacet
  facet normal -0 -0 1
    outer loop
      vertex 14.843 15.984 2.6
      vertex 7.103 24.838 2.6
      vertex 16.038 12.872 2.6
    endloop
  endfacet
  facet normal -0 -0 1
    outer loop
      vertex 14.067 19.205 2.6
      vertex 7.103 24.838 2.6
      vertex 14.843 15.984 2.6
    endloop
  endfacet
  facet normal -0 -0 1
    outer loop
      vertex 13.963 22.322 2.6
      vertex 7.103 24.838 2.6
      vertex 14.067 19.205 2.6
    endloop
  endfacet
  facet normal 0 0 1
    outer loop
      vertex 14.78 25.122 2.6
      vertex 7.103 24.838 2.6
      vertex 13.963 22.322 2.6
    endloop
  endfacet
  facet normal 0 0 1
    outer loop
      vertex 16.538 27.808 2.6
      vertex 7.103 24.838 2.6
      vertex 14.78 25.122 2.6
    endloop
  endfacet
  facet normal 0 0 1
    outer loop
      vertex 18.915 30.627 2.6
      vertex 7.103 24.838 2.6
      vertex 16.538 27.808 2.6
    endloop
  endfacet
  facet normal 0 0 1
    outer loop
      vertex 21.648 33.427 2.6
      vertex 7.103 24.838 2.6
      vertex 18.915 30.627 2.6
    endloop
  endfacet
  facet normal 0 0 1
    outer loop
      vertex 24.475 36.057 2.6
      vertex 7.103 24.838 2.6
      vertex 21.648 33.427 2.6
    endloop
  endfacet
  facet normal 0 0 1
    outer loop
      vertex 27.131 38.366 2.6
      vertex 7.103 24.838 2.6
      vertex 24.475 36.057 2.6
    endloop
  endfacet
  facet normal 0 0 1
    outer loop
      vertex 29.354 40.202 2.6
      vertex 7.103 24.838 2.6
      vertex 27.131 38.366 2.6
    endloop
  endfacet
  facet normal 0 0 1
    outer loop
      vertex 30.881 41.414 2.6
      vertex 7.103 24.838 2.6
      vertex 29.354 40.202 2.6
    endloop
  endfacet
  facet normal 0 0 1
    outer loop
      vertex 31.448 41.852 2.6
      vertex 7.103 24.838 2.6
      vertex 30.881 41.414 2.6
    endloop
  endfacet
  facet normal 0 0 1
    outer loop
      vertex 40.703 56.554 2.6
      vertex 7.103 24.838 2.6
      vertex 31.448 41.852 2.6
    endloop
  endfacet
  facet normal 0 0 1
    outer loop
      vertex 55.792 25.148 2.6
      vertex 31.448 41.852 2.6
      vertex 32.016 41.431 2.6
    endloop
  endfacet
  facet normal 0 0 1
    outer loop
      vertex 55.792 25.148 2.6
      vertex 32.016 41.431 2.6
      vertex 33.543 40.264 2.6
    endloop
  endfacet
  facet normal 0 0 1
    outer loop
      vertex 55.792 25.148 2.6
      vertex 33.543 40.264 2.6
      vertex 35.766 38.491 2.6
    endloop
  endfacet
  facet normal 0 0 1
    outer loop
      vertex 55.792 25.148 2.6
      vertex 35.766 38.491 2.6
      vertex 38.422 36.255 2.6
    endloop
  endfacet
  facet normal 0 0 1
    outer loop
      vertex 55.792 25.148 2.6
      vertex 38.422 36.255 2.6
      vertex 41.248 33.698 2.6
    endloop
  endfacet
  facet normal 0 0 1
    outer loop
      vertex 55.487 20.615 2.6
      vertex 41.248 33.698 2.6
      vertex 43.982 30.962 2.6
    endloop
  endfacet
  facet normal 0 0 1
    outer loop
      vertex 55.487 20.615 2.6
      vertex 43.982 30.962 2.6
      vertex 46.359 28.188 2.6
    endloop
  endfacet
  facet normal 0 0 1
    outer loop
      vertex 54.167 17.052 2.6
      vertex 46.359 28.188 2.6
      vertex 48.117 25.518 2.6
    endloop
  endfacet
  facet normal 0 0 1
    outer loop
      vertex 52.293 14.269 2.6
      vertex 48.117 25.518 2.6
      vertex 48.934 22.719 2.6
    endloop
  endfacet
  facet normal 0 0 1
    outer loop
      vertex 50.362 11.949 2.6
      vertex 48.934 22.719 2.6
      vertex 48.829 19.604 2.6
    endloop
  endfacet
  facet normal 0 0 1
    outer loop
      vertex 46.708 8.586 2.6
      vertex 48.829 19.604 2.6
      vertex 48.054 16.384 2.6
    endloop
  endfacet
  facet normal 0 0 1
    outer loop
      vertex 45.175 7.486 2.6
      vertex 48.054 16.384 2.6
      vertex 46.858 13.273 2.6
    endloop
  endfacet
  facet normal 0 0 1
    outer loop
      vertex 43.962 6.735 2.6
      vertex 46.858 13.273 2.6
      vertex 45.493 10.484 2.6
    endloop
  endfacet
  facet normal 0 0 1
    outer loop
      vertex 43.165 6.305 2.6
      vertex 45.493 10.484 2.6
      vertex 44.207 8.228 2.6
    endloop
  endfacet
  facet normal 0 0 1
    outer loop
      vertex 43.165 6.305 2.6
      vertex 44.207 8.228 2.6
      vertex 43.252 6.719 2.6
    endloop
  endfacet
  facet normal -0 0 1
    outer loop
      vertex 43.165 6.305 2.6
      vertex 43.252 6.719 2.6
      vertex 42.878 6.169 2.6
    endloop
  endfacet
  facet normal -0 0 1
    outer loop
      vertex 43.962 6.735 2.6
      vertex 45.493 10.484 2.6
      vertex 43.165 6.305 2.6
    endloop
  endfacet
  facet normal -0 0 1
    outer loop
      vertex 45.175 7.486 2.6
      vertex 46.858 13.273 2.6
      vertex 43.962 6.735 2.6
    endloop
  endfacet
  facet normal -0 0 1
    outer loop
      vertex 46.708 8.586 2.6
      vertex 48.054 16.384 2.6
      vertex 45.175 7.486 2.6
    endloop
  endfacet
  facet normal -0 0 1
    outer loop
      vertex 48.469 10.065 2.6
      vertex 48.829 19.604 2.6
      vertex 46.708 8.586 2.6
    endloop
  endfacet
  facet normal -0 0 1
    outer loop
      vertex 50.362 11.949 2.6
      vertex 48.829 19.604 2.6
      vertex 48.469 10.065 2.6
    endloop
  endfacet
  facet normal -0 0 1
    outer loop
      vertex 52.293 14.269 2.6
      vertex 48.934 22.719 2.6
      vertex 50.362 11.949 2.6
    endloop
  endfacet
  facet normal -0 0 1
    outer loop
      vertex 54.167 17.052 2.6
      vertex 48.117 25.518 2.6
      vertex 52.293 14.269 2.6
    endloop
  endfacet
  facet normal -0 0 1
    outer loop
      vertex 55.487 20.615 2.6
      vertex 46.359 28.188 2.6
      vertex 54.167 17.052 2.6
    endloop
  endfacet
  facet normal -0 0 1
    outer loop
      vertex 55.792 25.148 2.6
      vertex 41.248 33.698 2.6
      vertex 55.487 20.615 2.6
    endloop
  endfacet
  facet normal -0 -0 1
    outer loop
      vertex 55.042 30.484 2.6
      vertex 31.448 41.852 2.6
      vertex 55.792 25.148 2.6
    endloop
  endfacet
  facet normal -0 -0 1
    outer loop
      vertex 53.198 36.458 2.6
      vertex 31.448 41.852 2.6
      vertex 55.042 30.484 2.6
    endloop
  endfacet
  facet normal 0 -0 1
    outer loop
      vertex 50.219 42.905 2.6
      vertex 31.448 41.852 2.6
      vertex 53.198 36.458 2.6
    endloop
  endfacet
  facet normal 0 -0 1
    outer loop
      vertex 46.068 49.659 2.6
      vertex 31.448 41.852 2.6
      vertex 50.219 42.905 2.6
    endloop
  endfacet
  facet normal 0 -0 1
    outer loop
      vertex 40.703 56.554 2.6
      vertex 31.448 41.852 2.6
      vertex 46.068 49.659 2.6
    endloop
  endfacet
  facet normal 0 -0 1
    outer loop
      vertex 32.657 49.569 2.6
      vertex 7.103 24.838 2.6
      vertex 40.703 56.554 2.6
    endloop
  endfacet
  facet normal -0 0 1
    outer loop
      vertex 30.099 54.866 2.6
      vertex 30.09 56.602 2.6
      vertex 7.103 24.838 2.6
    endloop
  endfacet
  facet normal 0 -0 1
    outer loop
      vertex 33.713 63.435 2.6
      vertex 32.603 61.731 2.6
      vertex 33.899 63.43 2.6
    endloop
  endfacet
  facet normal -0 0 1
    outer loop
      vertex 30.081 58.339 2.6
      vertex 30.073 60.075 2.6
      vertex 7.103 24.838 2.6
    endloop
  endfacet
  facet normal 0 -0 1
    outer loop
      vertex 34.085 63.424 2.6
      vertex 32.61 59.994 2.6
      vertex 40.703 56.554 2.6
    endloop
  endfacet
  facet normal 0 0 1
    outer loop
      vertex 32.61 59.994 2.6
      vertex 32.618 58.256 2.6
      vertex 40.703 56.554 2.6
    endloop
  endfacet
  facet normal -0 0 1
    outer loop
      vertex 30.09 56.602 2.6
      vertex 30.081 58.339 2.6
      vertex 7.103 24.838 2.6
    endloop
  endfacet
  facet normal 0 0 1
    outer loop
      vertex 32.618 58.256 2.6
      vertex 32.626 56.519 2.6
      vertex 40.703 56.554 2.6
    endloop
  endfacet
  facet normal 0 0 1
    outer loop
      vertex 32.626 56.519 2.6
      vertex 32.633 54.781 2.6
      vertex 40.703 56.554 2.6
    endloop
  endfacet
  facet normal 0 0 1
    outer loop
      vertex 32.633 54.781 2.6
      vertex 32.641 53.044 2.6
      vertex 40.703 56.554 2.6
    endloop
  endfacet
  facet normal 0 0 1
    outer loop
      vertex 32.641 53.044 2.6
      vertex 32.649 51.306 2.6
      vertex 40.703 56.554 2.6
    endloop
  endfacet
  facet normal 0 0 1
    outer loop
      vertex 32.649 51.306 2.6
      vertex 32.657 49.569 2.6
      vertex 40.703 56.554 2.6
    endloop
  endfacet
  facet normal 0 -0 1
    outer loop
      vertex 32.34 49.58 2.6
      vertex 7.103 24.838 2.6
      vertex 32.657 49.569 2.6
    endloop
  endfacet
  facet normal 0 -0 1
    outer loop
      vertex 32.024 49.591 2.6
      vertex 7.103 24.838 2.6
      vertex 32.34 49.58 2.6
    endloop
  endfacet
  facet normal 0 -0 1
    outer loop
      vertex 31.707 49.602 2.6
      vertex 7.103 24.838 2.6
      vertex 32.024 49.591 2.6
    endloop
  endfacet
  facet normal 0 -0 1
    outer loop
      vertex 31.391 49.613 2.6
      vertex 7.103 24.838 2.6
      vertex 31.707 49.602 2.6
    endloop
  endfacet
  facet normal 0 -0 1
    outer loop
      vertex 31.075 49.624 2.6
      vertex 7.103 24.838 2.6
      vertex 31.391 49.613 2.6
    endloop
  endfacet
  facet normal -0 0 1
    outer loop
      vertex 30.125 49.657 2.6
      vertex 30.117 51.393 2.6
      vertex 7.103 24.838 2.6
    endloop
  endfacet
  facet normal 0 -0 1
    outer loop
      vertex 30.442 49.646 2.6
      vertex 7.103 24.838 2.6
      vertex 30.758 49.635 2.6
    endloop
  endfacet
  facet normal 0 -0 1
    outer loop
      vertex 30.125 49.657 2.6
      vertex 7.103 24.838 2.6
      vertex 30.442 49.646 2.6
    endloop
  endfacet
  facet normal -0 0 1
    outer loop
      vertex 30.117 51.393 2.6
      vertex 30.108 53.13 2.6
      vertex 7.103 24.838 2.6
    endloop
  endfacet
  facet normal -0 0 1
    outer loop
      vertex 30.108 53.13 2.6
      vertex 30.099 54.866 2.6
      vertex 7.103 24.838 2.6
    endloop
  endfacet
  facet normal -0 0 1
    outer loop
      vertex 31.075 49.624 2.6
      vertex 30.758 49.635 2.6
      vertex 7.103 24.838 2.6
    endloop
  endfacet
  facet normal 0 0 1
    outer loop
      vertex 32.603 61.731 2.6
      vertex 34.085 63.424 2.6
      vertex 33.899 63.43 2.6
    endloop
  endfacet
  facet normal 0 0 1
    outer loop
      vertex 32.603 61.731 2.6
      vertex 32.61 59.994 2.6
      vertex 34.085 63.424 2.6
    endloop
  endfacet
  facet normal 0 -0 1
    outer loop
      vertex 30.064 61.811 2.6
      vertex 7.103 24.838 2.6
      vertex 30.073 60.075 2.6
    endloop
  endfacet
  facet normal 0 -0 1
    outer loop
      vertex 30.055 63.548 2.6
      vertex 7.103 24.838 2.6
      vertex 30.064 61.811 2.6
    endloop
  endfacet
  facet normal 0 -0 1
    outer loop
      vertex 29.898 63.552 2.6
      vertex 7.103 24.838 2.6
      vertex 30.055 63.548 2.6
    endloop
  endfacet
  facet normal 0 -0 1
    outer loop
      vertex 29.742 63.557 2.6
      vertex 7.103 24.838 2.6
      vertex 29.898 63.552 2.6
    endloop
  endfacet
  facet normal 0 -0 1
    outer loop
      vertex 29.585 63.561 2.6
      vertex 7.103 24.838 2.6
      vertex 29.742 63.557 2.6
    endloop
  endfacet
  facet normal 0 -0 1
    outer loop
      vertex 29.429 63.565 2.6
      vertex 7.103 24.838 2.6
      vertex 29.585 63.561 2.6
    endloop
  endfacet
  facet normal 0 -0 1
    outer loop
      vertex 29.272 63.57 2.6
      vertex 7.103 24.838 2.6
      vertex 29.429 63.565 2.6
    endloop
  endfacet
  facet normal 0 -0 1
    outer loop
      vertex 29.116 63.574 2.6
      vertex 7.103 24.838 2.6
      vertex 29.272 63.57 2.6
    endloop
  endfacet
  facet normal 0 -0 1
    outer loop
      vertex 28.959 63.579 2.6
      vertex 7.103 24.838 2.6
      vertex 29.116 63.574 2.6
    endloop
  endfacet
  facet normal 0 -0 1
    outer loop
      vertex 28.802 63.583 2.6
      vertex 7.103 24.838 2.6
      vertex 28.959 63.579 2.6
    endloop
  endfacet
  facet normal 0 -0 1
    outer loop
      vertex 22.185 56.688 2.6
      vertex 7.103 24.838 2.6
      vertex 28.802 63.583 2.6
    endloop
  endfacet
  facet normal 0 -0 1
    outer loop
      vertex 16.821 49.731 2.6
      vertex 7.103 24.838 2.6
      vertex 22.185 56.688 2.6
    endloop
  endfacet
  facet normal 0 -0 1
    outer loop
      vertex 12.671 42.888 2.6
      vertex 7.103 24.838 2.6
      vertex 16.821 49.731 2.6
    endloop
  endfacet
  facet normal 0 -0 1
    outer loop
      vertex 9.695 36.339 2.6
      vertex 7.103 24.838 2.6
      vertex 12.671 42.888 2.6
    endloop
  endfacet
  facet normal 0 -0 1
    outer loop
      vertex 7.852 30.263 2.6
      vertex 7.103 24.838 2.6
      vertex 9.695 36.339 2.6
    endloop
  endfacet
  facet normal 0 0 1
    outer loop
      vertex 19.644 6.314 2.6
      vertex 18.689 7.824 2.6
      vertex 7.103 24.838 2.6
    endloop
  endfacet
  facet normal 0 0 1
    outer loop
      vertex 32.595 63.468 2.6
      vertex 32.967 63.457 2.6
      vertex 32.781 63.463 2.6
    endloop
  endfacet
  facet normal 0 0 1
    outer loop
      vertex 32.967 63.457 2.6
      vertex 33.34 63.446 2.6
      vertex 33.154 63.452 2.6
    endloop
  endfacet
  facet normal 0 0 1
    outer loop
      vertex 33.34 63.446 2.6
      vertex 33.713 63.435 2.6
      vertex 33.526 63.441 2.6
    endloop
  endfacet
  facet normal 0 0 4.62103e-015
    outer loop
      vertex 32.967 63.457 2.6
      vertex 33.713 63.435 2.6
      vertex 33.34 63.446 2.6
    endloop
  endfacet
  facet normal 0 -0 1
    outer loop
      vertex 32.967 63.457 2.6
      vertex 32.603 61.731 2.6
      vertex 33.713 63.435 2.6
    endloop
  endfacet
  facet normal 0 0 1
    outer loop
      vertex 32.595 63.468 2.6
      vertex 32.603 61.731 2.6
      vertex 32.967 63.457 2.6
    endloop
  endfacet
  facet normal -0.938473 -0.345354 -0
    outer loop
      vertex 8.729 16.655 0
      vertex 8.729 16.655 2.6
      vertex 7.409 20.242 0
    endloop
  endfacet
  facet normal -0.938473 -0.345354 -0
    outer loop
      vertex 7.409 20.242 0
      vertex 8.729 16.655 2.6
      vertex 7.409 20.242 2.6
    endloop
  endfacet
  facet normal -0.829335 -0.558751 -0
    outer loop
      vertex 10.604 13.872 0
      vertex 10.604 13.872 2.6
      vertex 8.729 16.655 0
    endloop
  endfacet
  facet normal -0.829335 -0.558751 -0
    outer loop
      vertex 8.729 16.655 0
      vertex 10.604 13.872 2.6
      vertex 8.729 16.655 2.6
    endloop
  endfacet
  facet normal -0.7689 -0.639369 -0
    outer loop
      vertex 12.534 11.551 0
      vertex 12.534 11.551 2.6
      vertex 10.604 13.872 0
    endloop
  endfacet
  facet normal -0.7689 -0.639369 -0
    outer loop
      vertex 10.604 13.872 0
      vertex 12.534 11.551 2.6
      vertex 10.604 13.872 2.6
    endloop
  endfacet
  facet normal -0.705796 -0.708415 0
    outer loop
      vertex 12.534 11.551 0
      vertex 14.427 9.665 0
      vertex 14.427 9.665 2.6
    endloop
  endfacet
  facet normal -0.705796 -0.708415 0
    outer loop
      vertex 12.534 11.551 2.6
      vertex 12.534 11.551 0
      vertex 14.427 9.665 2.6
    endloop
  endfacet
  facet normal -0.643386 -0.765542 0
    outer loop
      vertex 14.427 9.665 0
      vertex 16.188 8.185 0
      vertex 16.188 8.185 2.6
    endloop
  endfacet
  facet normal -0.643386 -0.765542 0
    outer loop
      vertex 14.427 9.665 2.6
      vertex 14.427 9.665 0
      vertex 16.188 8.185 2.6
    endloop
  endfacet
  facet normal -0.58344 -0.812156 0
    outer loop
      vertex 16.188 8.185 0
      vertex 17.722 7.083 0
      vertex 17.722 7.083 2.6
    endloop
  endfacet
  facet normal -0.58344 -0.812156 0
    outer loop
      vertex 16.188 8.185 2.6
      vertex 16.188 8.185 0
      vertex 17.722 7.083 2.6
    endloop
  endfacet
  facet normal -0.526909 -0.849922 0
    outer loop
      vertex 17.722 7.083 0
      vertex 18.935 6.331 0
      vertex 18.935 6.331 2.6
    endloop
  endfacet
  facet normal -0.526909 -0.849922 0
    outer loop
      vertex 17.722 7.083 2.6
      vertex 17.722 7.083 0
      vertex 18.935 6.331 2.6
    endloop
  endfacet
  facet normal -0.475679 -0.879619 0
    outer loop
      vertex 18.935 6.331 0
      vertex 19.732 5.9 0
      vertex 19.732 5.9 2.6
    endloop
  endfacet
  facet normal -0.475679 -0.879619 0
    outer loop
      vertex 18.935 6.331 2.6
      vertex 18.935 6.331 0
      vertex 19.732 5.9 2.6
    endloop
  endfacet
  facet normal -0.432013 -0.901867 0
    outer loop
      vertex 19.732 5.9 0
      vertex 20.018 5.763 0
      vertex 20.018 5.763 2.6
    endloop
  endfacet
  facet normal -0.432013 -0.901867 0
    outer loop
      vertex 19.732 5.9 2.6
      vertex 19.732 5.9 0
      vertex 20.018 5.763 2.6
    endloop
  endfacet
  facet normal 0.827401 0.561612 0
    outer loop
      vertex 19.644 6.314 0
      vertex 19.644 6.314 2.6
      vertex 20.018 5.763 2.6
    endloop
  endfacet
  facet normal 0.827401 0.561612 0
    outer loop
      vertex 20.018 5.763 0
      vertex 19.644 6.314 0
      vertex 20.018 5.763 2.6
    endloop
  endfacet
  facet normal 0.845156 0.534519 0
    outer loop
      vertex 18.689 7.824 0
      vertex 18.689 7.824 2.6
      vertex 19.644 6.314 2.6
    endloop
  endfacet
  facet normal 0.845156 0.534519 0
    outer loop
      vertex 19.644 6.314 0
      vertex 18.689 7.824 0
      vertex 19.644 6.314 2.6
    endloop
  endfacet
  facet normal 0.869024 0.49477 0
    outer loop
      vertex 17.404 10.081 0
      vertex 17.404 10.081 2.6
      vertex 18.689 7.824 2.6
    endloop
  endfacet
  facet normal 0.869024 0.49477 0
    outer loop
      vertex 18.689 7.824 0
      vertex 17.404 10.081 0
      vertex 18.689 7.824 2.6
    endloop
  endfacet
  facet normal 0.898192 0.439603 0
    outer loop
      vertex 16.038 12.872 0
      vertex 16.038 12.872 2.6
      vertex 17.404 10.081 2.6
    endloop
  endfacet
  facet normal 0.898192 0.439603 0
    outer loop
      vertex 17.404 10.081 0
      vertex 16.038 12.872 0
      vertex 17.404 10.081 2.6
    endloop
  endfacet
  facet normal 0.933539 0.358476 0
    outer loop
      vertex 14.843 15.984 0
      vertex 14.843 15.984 2.6
      vertex 16.038 12.872 2.6
    endloop
  endfacet
  facet normal 0.933539 0.358476 0
    outer loop
      vertex 16.038 12.872 0
      vertex 14.843 15.984 0
      vertex 16.038 12.872 2.6
    endloop
  endfacet
  facet normal 0.972184 0.234218 0
    outer loop
      vertex 14.067 19.205 0
      vertex 14.067 19.205 2.6
      vertex 14.843 15.984 2.6
    endloop
  endfacet
  facet normal 0.972184 0.234218 0
    outer loop
      vertex 14.843 15.984 0
      vertex 14.067 19.205 0
      vertex 14.843 15.984 2.6
    endloop
  endfacet
  facet normal 0.999444 0.0333469 0
    outer loop
      vertex 13.963 22.322 0
      vertex 13.963 22.322 2.6
      vertex 14.067 19.205 2.6
    endloop
  endfacet
  facet normal 0.999444 0.0333469 0
    outer loop
      vertex 14.067 19.205 0
      vertex 13.963 22.322 0
      vertex 14.067 19.205 2.6
    endloop
  endfacet
  facet normal 0.959969 -0.280105 0
    outer loop
      vertex 13.963 22.322 0
      vertex 14.78 25.122 0
      vertex 14.78 25.122 2.6
    endloop
  endfacet
  facet normal 0.959969 -0.280105 0
    outer loop
      vertex 13.963 22.322 2.6
      vertex 13.963 22.322 0
      vertex 14.78 25.122 2.6
    endloop
  endfacet
  facet normal 0.836717 -0.547635 0
    outer loop
      vertex 14.78 25.122 0
      vertex 16.538 27.808 0
      vertex 16.538 27.808 2.6
    endloop
  endfacet
  facet normal 0.836717 -0.547635 0
    outer loop
      vertex 14.78 25.122 2.6
      vertex 14.78 25.122 0
      vertex 16.538 27.808 2.6
    endloop
  endfacet
  facet normal 0.764496 -0.644628 0
    outer loop
      vertex 16.538 27.808 0
      vertex 18.915 30.627 0
      vertex 18.915 30.627 2.6
    endloop
  endfacet
  facet normal 0.764496 -0.644628 0
    outer loop
      vertex 16.538 27.808 2.6
      vertex 16.538 27.808 0
      vertex 18.915 30.627 2.6
    endloop
  endfacet
  facet normal 0.715617 -0.698493 0
    outer loop
      vertex 18.915 30.627 0
      vertex 21.648 33.427 0
      vertex 21.648 33.427 2.6
    endloop
  endfacet
  facet normal 0.715617 -0.698493 0
    outer loop
      vertex 18.915 30.627 2.6
      vertex 18.915 30.627 0
      vertex 21.648 33.427 2.6
    endloop
  endfacet
  facet normal 0.681136 -0.732157 0
    outer loop
      vertex 21.648 33.427 0
      vertex 24.475 36.057 0
      vertex 24.475 36.057 2.6
    endloop
  endfacet
  facet normal 0.681136 -0.732157 0
    outer loop
      vertex 21.648 33.427 2.6
      vertex 21.648 33.427 0
      vertex 24.475 36.057 2.6
    endloop
  endfacet
  facet normal 0.656087 -0.754685 0
    outer loop
      vertex 24.475 36.057 0
      vertex 27.131 38.366 0
      vertex 27.131 38.366 2.6
    endloop
  endfacet
  facet normal 0.656087 -0.754685 0
    outer loop
      vertex 24.475 36.057 2.6
      vertex 24.475 36.057 0
      vertex 27.131 38.366 2.6
    endloop
  endfacet
  facet normal 0.636801 -0.771028 0
    outer loop
      vertex 27.131 38.366 0
      vertex 29.354 40.202 0
      vertex 29.354 40.202 2.6
    endloop
  endfacet
  facet normal 0.636801 -0.771028 0
    outer loop
      vertex 27.131 38.366 2.6
      vertex 27.131 38.366 0
      vertex 29.354 40.202 2.6
    endloop
  endfacet
  facet normal 0.621688 -0.783265 0
    outer loop
      vertex 29.354 40.202 0
      vertex 30.881 41.414 0
      vertex 30.881 41.414 2.6
    endloop
  endfacet
  facet normal 0.621688 -0.783265 0
    outer loop
      vertex 29.354 40.202 2.6
      vertex 29.354 40.202 0
      vertex 30.881 41.414 2.6
    endloop
  endfacet
  facet normal 0.611328 -0.791377 0
    outer loop
      vertex 30.881 41.414 0
      vertex 31.448 41.852 0
      vertex 31.448 41.852 2.6
    endloop
  endfacet
  facet normal 0.611328 -0.791377 0
    outer loop
      vertex 30.881 41.414 2.6
      vertex 30.881 41.414 0
      vertex 31.448 41.852 2.6
    endloop
  endfacet
  facet normal -0.595464 -0.803382 0
    outer loop
      vertex 31.448 41.852 0
      vertex 32.016 41.431 0
      vertex 32.016 41.431 2.6
    endloop
  endfacet
  facet normal -0.595464 -0.803382 0
    outer loop
      vertex 31.448 41.852 2.6
      vertex 31.448 41.852 0
      vertex 32.016 41.431 2.6
    endloop
  endfacet
  facet normal -0.607218 -0.794535 0
    outer loop
      vertex 32.016 41.431 0
      vertex 33.543 40.264 0
      vertex 33.543 40.264 2.6
    endloop
  endfacet
  facet normal -0.607218 -0.794535 0
    outer loop
      vertex 32.016 41.431 2.6
      vertex 32.016 41.431 0
      vertex 33.543 40.264 2.6
    endloop
  endfacet
  facet normal -0.623536 -0.781794 0
    outer loop
      vertex 33.543 40.264 0
      vertex 35.766 38.491 0
      vertex 35.766 38.491 2.6
    endloop
  endfacet
  facet normal -0.623536 -0.781794 0
    outer loop
      vertex 33.543 40.264 2.6
      vertex 33.543 40.264 0
      vertex 35.766 38.491 2.6
    endloop
  endfacet
  facet normal -0.644029 -0.765001 0
    outer loop
      vertex 35.766 38.491 0
      vertex 38.422 36.255 0
      vertex 38.422 36.255 2.6
    endloop
  endfacet
  facet normal -0.644029 -0.765001 0
    outer loop
      vertex 35.766 38.491 2.6
      vertex 35.766 38.491 0
      vertex 38.422 36.255 2.6
    endloop
  endfacet
  facet normal -0.670934 -0.741517 0
    outer loop
      vertex 38.422 36.255 0
      vertex 41.248 33.698 0
      vertex 41.248 33.698 2.6
    endloop
  endfacet
  facet normal -0.670934 -0.741517 0
    outer loop
      vertex 38.422 36.255 2.6
      vertex 38.422 36.255 0
      vertex 41.248 33.698 2.6
    endloop
  endfacet
  facet normal -0.707365 -0.706848 -0
    outer loop
      vertex 43.982 30.962 0
      vertex 43.982 30.962 2.6
      vertex 41.248 33.698 0
    endloop
  endfacet
  facet normal -0.707365 -0.706848 -0
    outer loop
      vertex 41.248 33.698 0
      vertex 43.982 30.962 2.6
      vertex 41.248 33.698 2.6
    endloop
  endfacet
  facet normal -0.759353 -0.650679 -0
    outer loop
      vertex 46.359 28.188 0
      vertex 46.359 28.188 2.6
      vertex 43.982 30.962 0
    endloop
  endfacet
  facet normal -0.759353 -0.650679 -0
    outer loop
      vertex 43.982 30.962 0
      vertex 46.359 28.188 2.6
      vertex 43.982 30.962 2.6
    endloop
  endfacet
  facet normal -0.835213 -0.549927 -0
    outer loop
      vertex 48.117 25.518 0
      vertex 48.117 25.518 2.6
      vertex 46.359 28.188 0
    endloop
  endfacet
  facet normal -0.835213 -0.549927 -0
    outer loop
      vertex 46.359 28.188 0
      vertex 48.117 25.518 2.6
      vertex 46.359 28.188 2.6
    endloop
  endfacet
  facet normal -0.959942 -0.280198 -0
    outer loop
      vertex 48.934 22.719 0
      vertex 48.934 22.719 2.6
      vertex 48.117 25.518 0
    endloop
  endfacet
  facet normal -0.959942 -0.280198 -0
    outer loop
      vertex 48.117 25.518 0
      vertex 48.934 22.719 2.6
      vertex 48.117 25.518 2.6
    endloop
  endfacet
  facet normal -0.999432 0.0336887 0
    outer loop
      vertex 48.829 19.604 2.6
      vertex 48.934 22.719 2.6
      vertex 48.829 19.604 0
    endloop
  endfacet
  facet normal -0.999432 0.0336887 0
    outer loop
      vertex 48.829 19.604 0
      vertex 48.934 22.719 2.6
      vertex 48.934 22.719 0
    endloop
  endfacet
  facet normal -0.972236 0.234001 0
    outer loop
      vertex 48.054 16.384 2.6
      vertex 48.829 19.604 2.6
      vertex 48.054 16.384 0
    endloop
  endfacet
  facet normal -0.972236 0.234001 0
    outer loop
      vertex 48.054 16.384 0
      vertex 48.829 19.604 2.6
      vertex 48.829 19.604 0
    endloop
  endfacet
  facet normal -0.9334 0.358838 0
    outer loop
      vertex 46.858 13.273 2.6
      vertex 48.054 16.384 2.6
      vertex 46.858 13.273 0
    endloop
  endfacet
  facet normal -0.9334 0.358838 0
    outer loop
      vertex 46.858 13.273 0
      vertex 48.054 16.384 2.6
      vertex 48.054 16.384 0
    endloop
  endfacet
  facet normal -0.898195 0.439597 0
    outer loop
      vertex 45.493 10.484 2.6
      vertex 46.858 13.273 2.6
      vertex 45.493 10.484 0
    endloop
  endfacet
  facet normal -0.898195 0.439597 0
    outer loop
      vertex 45.493 10.484 0
      vertex 46.858 13.273 2.6
      vertex 46.858 13.273 0
    endloop
  endfacet
  facet normal -0.868764 0.495226 0
    outer loop
      vertex 44.207 8.228 2.6
      vertex 45.493 10.484 2.6
      vertex 44.207 8.228 0
    endloop
  endfacet
  facet normal -0.868764 0.495226 0
    outer loop
      vertex 44.207 8.228 0
      vertex 45.493 10.484 2.6
      vertex 45.493 10.484 0
    endloop
  endfacet
  facet normal -0.844996 0.534772 0
    outer loop
      vertex 43.252 6.719 2.6
      vertex 44.207 8.228 2.6
      vertex 43.252 6.719 0
    endloop
  endfacet
  facet normal -0.844996 0.534772 0
    outer loop
      vertex 43.252 6.719 0
      vertex 44.207 8.228 2.6
      vertex 44.207 8.228 0
    endloop
  endfacet
  facet normal -0.826927 0.56231 0
    outer loop
      vertex 42.878 6.169 2.6
      vertex 43.252 6.719 2.6
      vertex 42.878 6.169 0
    endloop
  endfacet
  facet normal -0.826927 0.56231 0
    outer loop
      vertex 42.878 6.169 0
      vertex 43.252 6.719 2.6
      vertex 43.252 6.719 0
    endloop
  endfacet
  facet normal 0.428222 -0.903674 0
    outer loop
      vertex 42.878 6.169 0
      vertex 43.165 6.305 0
      vertex 43.165 6.305 2.6
    endloop
  endfacet
  facet normal 0.428222 -0.903674 0
    outer loop
      vertex 42.878 6.169 2.6
      vertex 42.878 6.169 0
      vertex 43.165 6.305 2.6
    endloop
  endfacet
  facet normal 0.474824 -0.880081 0
    outer loop
      vertex 43.165 6.305 0
      vertex 43.962 6.735 0
      vertex 43.962 6.735 2.6
    endloop
  endfacet
  facet normal 0.474824 -0.880081 0
    outer loop
      vertex 43.165 6.305 2.6
      vertex 43.165 6.305 0
      vertex 43.962 6.735 2.6
    endloop
  endfacet
  facet normal 0.526403 -0.850235 0
    outer loop
      vertex 43.962 6.735 0
      vertex 45.175 7.486 0
      vertex 45.175 7.486 2.6
    endloop
  endfacet
  facet normal 0.526403 -0.850235 0
    outer loop
      vertex 43.962 6.735 2.6
      vertex 43.962 6.735 0
      vertex 45.175 7.486 2.6
    endloop
  endfacet
  facet normal 0.582992 -0.812478 0
    outer loop
      vertex 45.175 7.486 0
      vertex 46.708 8.586 0
      vertex 46.708 8.586 2.6
    endloop
  endfacet
  facet normal 0.582992 -0.812478 0
    outer loop
      vertex 45.175 7.486 2.6
      vertex 45.175 7.486 0
      vertex 46.708 8.586 2.6
    endloop
  endfacet
  facet normal 0.643131 -0.765756 0
    outer loop
      vertex 46.708 8.586 0
      vertex 48.469 10.065 0
      vertex 48.469 10.065 2.6
    endloop
  endfacet
  facet normal 0.643131 -0.765756 0
    outer loop
      vertex 46.708 8.586 2.6
      vertex 46.708 8.586 0
      vertex 48.469 10.065 2.6
    endloop
  endfacet
  facet normal 0.70542 -0.70879 0
    outer loop
      vertex 48.469 10.065 0
      vertex 50.362 11.949 0
      vertex 50.362 11.949 2.6
    endloop
  endfacet
  facet normal 0.70542 -0.70879 0
    outer loop
      vertex 48.469 10.065 2.6
      vertex 48.469 10.065 0
      vertex 50.362 11.949 2.6
    endloop
  endfacet
  facet normal 0.768601 -0.639728 0
    outer loop
      vertex 50.362 11.949 0
      vertex 52.293 14.269 0
      vertex 52.293 14.269 2.6
    endloop
  endfacet
  facet normal 0.768601 -0.639728 0
    outer loop
      vertex 50.362 11.949 2.6
      vertex 50.362 11.949 0
      vertex 52.293 14.269 2.6
    endloop
  endfacet
  facet normal 0.829474 -0.558546 0
    outer loop
      vertex 52.293 14.269 0
      vertex 54.167 17.052 0
      vertex 54.167 17.052 2.6
    endloop
  endfacet
  facet normal 0.829474 -0.558546 0
    outer loop
      vertex 52.293 14.269 2.6
      vertex 52.293 14.269 0
      vertex 54.167 17.052 2.6
    endloop
  endfacet
  facet normal 0.937717 -0.3474 0
    outer loop
      vertex 54.167 17.052 0
      vertex 55.487 20.615 0
      vertex 55.487 20.615 2.6
    endloop
  endfacet
  facet normal 0.937717 -0.3474 0
    outer loop
      vertex 54.167 17.052 2.6
      vertex 54.167 17.052 0
      vertex 55.487 20.615 2.6
    endloop
  endfacet
  facet normal 0.997744 -0.0671326 0
    outer loop
      vertex 55.487 20.615 0
      vertex 55.792 25.148 0
      vertex 55.792 25.148 2.6
    endloop
  endfacet
  facet normal 0.997744 -0.0671326 0
    outer loop
      vertex 55.487 20.615 2.6
      vertex 55.487 20.615 0
      vertex 55.792 25.148 2.6
    endloop
  endfacet
  facet normal 0.990266 0.139187 0
    outer loop
      vertex 55.042 30.484 0
      vertex 55.042 30.484 2.6
      vertex 55.792 25.148 2.6
    endloop
  endfacet
  facet normal 0.990266 0.139187 0
    outer loop
      vertex 55.792 25.148 0
      vertex 55.042 30.484 0
      vertex 55.792 25.148 2.6
    endloop
  endfacet
  facet normal 0.955516 0.29494 0
    outer loop
      vertex 53.198 36.458 0
      vertex 53.198 36.458 2.6
      vertex 55.042 30.484 2.6
    endloop
  endfacet
  facet normal 0.955516 0.29494 0
    outer loop
      vertex 55.042 30.484 0
      vertex 53.198 36.458 0
      vertex 55.042 30.484 2.6
    endloop
  endfacet
  facet normal 0.907774 0.41946 0
    outer loop
      vertex 50.219 42.905 0
      vertex 50.219 42.905 2.6
      vertex 53.198 36.458 2.6
    endloop
  endfacet
  facet normal 0.907774 0.41946 0
    outer loop
      vertex 53.198 36.458 0
      vertex 50.219 42.905 0
      vertex 53.198 36.458 2.6
    endloop
  endfacet
  facet normal 0.851957 0.523612 0
    outer loop
      vertex 46.068 49.659 0
      vertex 46.068 49.659 2.6
      vertex 50.219 42.905 2.6
    endloop
  endfacet
  facet normal 0.851957 0.523612 0
    outer loop
      vertex 50.219 42.905 0
      vertex 46.068 49.659 0
      vertex 50.219 42.905 2.6
    endloop
  endfacet
  facet normal 0.789229 0.614099 0
    outer loop
      vertex 40.703 56.554 0
      vertex 40.703 56.554 2.6
      vertex 46.068 49.659 2.6
    endloop
  endfacet
  facet normal 0.789229 0.614099 0
    outer loop
      vertex 46.068 49.659 0
      vertex 40.703 56.554 0
      vertex 46.068 49.659 2.6
    endloop
  endfacet
  facet normal 0.720192 0.693775 0
    outer loop
      vertex 34.085 63.424 0
      vertex 34.085 63.424 2.6
      vertex 40.703 56.554 2.6
    endloop
  endfacet
  facet normal 0.720192 0.693775 0
    outer loop
      vertex 40.703 56.554 0
      vertex 34.085 63.424 0
      vertex 40.703 56.554 2.6
    endloop
  endfacet
  facet normal 0.0322413 0.99948 -0
    outer loop
      vertex 33.899 63.43 2.6
      vertex 34.085 63.424 2.6
      vertex 33.899 63.43 0
    endloop
  endfacet
  facet normal 0.0322413 0.99948 0
    outer loop
      vertex 33.899 63.43 0
      vertex 34.085 63.424 2.6
      vertex 34.085 63.424 0
    endloop
  endfacet
  facet normal 0.026872 0.999639 -0
    outer loop
      vertex 33.713 63.435 2.6
      vertex 33.899 63.43 2.6
      vertex 33.713 63.435 0
    endloop
  endfacet
  facet normal 0.026872 0.999639 0
    outer loop
      vertex 33.713 63.435 0
      vertex 33.899 63.43 2.6
      vertex 33.899 63.43 0
    endloop
  endfacet
  facet normal 0.0320691 0.999486 -0
    outer loop
      vertex 33.526 63.441 2.6
      vertex 33.713 63.435 2.6
      vertex 33.526 63.441 0
    endloop
  endfacet
  facet normal 0.0320691 0.999486 0
    outer loop
      vertex 33.526 63.441 0
      vertex 33.713 63.435 2.6
      vertex 33.713 63.435 0
    endloop
  endfacet
  facet normal 0.026872 0.999639 -0
    outer loop
      vertex 33.34 63.446 2.6
      vertex 33.526 63.441 2.6
      vertex 33.34 63.446 0
    endloop
  endfacet
  facet normal 0.026872 0.999639 0
    outer loop
      vertex 33.34 63.446 0
      vertex 33.526 63.441 2.6
      vertex 33.526 63.441 0
    endloop
  endfacet
  facet normal 0.0322413 0.99948 -0
    outer loop
      vertex 33.154 63.452 2.6
      vertex 33.34 63.446 2.6
      vertex 33.154 63.452 0
    endloop
  endfacet
  facet normal 0.0322413 0.99948 0
    outer loop
      vertex 33.154 63.452 0
      vertex 33.34 63.446 2.6
      vertex 33.34 63.446 0
    endloop
  endfacet
  facet normal 0.0267284 0.999643 -0
    outer loop
      vertex 32.967 63.457 2.6
      vertex 33.154 63.452 2.6
      vertex 32.967 63.457 0
    endloop
  endfacet
  facet normal 0.0267284 0.999643 0
    outer loop
      vertex 32.967 63.457 0
      vertex 33.154 63.452 2.6
      vertex 33.154 63.452 0
    endloop
  endfacet
  facet normal 0.0322413 0.99948 -0
    outer loop
      vertex 32.781 63.463 2.6
      vertex 32.967 63.457 2.6
      vertex 32.781 63.463 0
    endloop
  endfacet
  facet normal 0.0322413 0.99948 0
    outer loop
      vertex 32.781 63.463 0
      vertex 32.967 63.457 2.6
      vertex 32.967 63.457 0
    endloop
  endfacet
  facet normal 0.026872 0.999639 -0
    outer loop
      vertex 32.595 63.468 2.6
      vertex 32.781 63.463 2.6
      vertex 32.595 63.468 0
    endloop
  endfacet
  facet normal 0.026872 0.999639 0
    outer loop
      vertex 32.595 63.468 0
      vertex 32.781 63.463 2.6
      vertex 32.781 63.463 0
    endloop
  endfacet
  facet normal -0.999989 -0.00460559 -0
    outer loop
      vertex 32.603 61.731 0
      vertex 32.603 61.731 2.6
      vertex 32.595 63.468 0
    endloop
  endfacet
  facet normal -0.999989 -0.00460559 -0
    outer loop
      vertex 32.595 63.468 0
      vertex 32.603 61.731 2.6
      vertex 32.595 63.468 2.6
    endloop
  endfacet
  facet normal -0.999992 -0.0040299 -0
    outer loop
      vertex 32.61 59.994 0
      vertex 32.61 59.994 2.6
      vertex 32.603 61.731 0
    endloop
  endfacet
  facet normal -0.999992 -0.0040299 -0
    outer loop
      vertex 32.603 61.731 0
      vertex 32.61 59.994 2.6
      vertex 32.603 61.731 2.6
    endloop
  endfacet
  facet normal -0.999989 -0.00460294 -0
    outer loop
      vertex 32.618 58.256 0
      vertex 32.618 58.256 2.6
      vertex 32.61 59.994 0
    endloop
  endfacet
  facet normal -0.999989 -0.00460294 -0
    outer loop
      vertex 32.61 59.994 0
      vertex 32.618 58.256 2.6
      vertex 32.61 59.994 2.6
    endloop
  endfacet
  facet normal -0.999989 -0.00460559 -0
    outer loop
      vertex 32.626 56.519 0
      vertex 32.626 56.519 2.6
      vertex 32.618 58.256 0
    endloop
  endfacet
  facet normal -0.999989 -0.00460559 -0
    outer loop
      vertex 32.618 58.256 0
      vertex 32.626 56.519 2.6
      vertex 32.618 58.256 2.6
    endloop
  endfacet
  facet normal -0.999992 -0.00402759 -0
    outer loop
      vertex 32.633 54.781 0
      vertex 32.633 54.781 2.6
      vertex 32.626 56.519 0
    endloop
  endfacet
  facet normal -0.999992 -0.00402759 -0
    outer loop
      vertex 32.626 56.519 0
      vertex 32.633 54.781 2.6
      vertex 32.626 56.519 2.6
    endloop
  endfacet
  facet normal -0.999989 -0.00460559 -0
    outer loop
      vertex 32.641 53.044 0
      vertex 32.641 53.044 2.6
      vertex 32.633 54.781 0
    endloop
  endfacet
  facet normal -0.999989 -0.00460559 -0
    outer loop
      vertex 32.633 54.781 0
      vertex 32.641 53.044 2.6
      vertex 32.633 54.781 2.6
    endloop
  endfacet
  facet normal -0.999989 -0.00460294 -0
    outer loop
      vertex 32.649 51.306 0
      vertex 32.649 51.306 2.6
      vertex 32.641 53.044 0
    endloop
  endfacet
  facet normal -0.999989 -0.00460294 -0
    outer loop
      vertex 32.641 53.044 0
      vertex 32.649 51.306 2.6
      vertex 32.641 53.044 2.6
    endloop
  endfacet
  facet normal -0.999989 -0.00460559 -0
    outer loop
      vertex 32.657 49.569 0
      vertex 32.657 49.569 2.6
      vertex 32.649 51.306 0
    endloop
  endfacet
  facet normal -0.999989 -0.00460559 -0
    outer loop
      vertex 32.649 51.306 0
      vertex 32.657 49.569 2.6
      vertex 32.649 51.306 2.6
    endloop
  endfacet
  facet normal 0.0346794 0.999398 -0
    outer loop
      vertex 32.34 49.58 2.6
      vertex 32.657 49.569 2.6
      vertex 32.34 49.58 0
    endloop
  endfacet
  facet normal 0.0346794 0.999398 0
    outer loop
      vertex 32.34 49.58 0
      vertex 32.657 49.569 2.6
      vertex 32.657 49.569 0
    endloop
  endfacet
  facet normal 0.0347891 0.999395 -0
    outer loop
      vertex 32.024 49.591 2.6
      vertex 32.34 49.58 2.6
      vertex 32.024 49.591 0
    endloop
  endfacet
  facet normal 0.0347891 0.999395 0
    outer loop
      vertex 32.024 49.591 0
      vertex 32.34 49.58 2.6
      vertex 32.34 49.58 0
    endloop
  endfacet
  facet normal 0.0346794 0.999398 -0
    outer loop
      vertex 31.707 49.602 2.6
      vertex 32.024 49.591 2.6
      vertex 31.707 49.602 0
    endloop
  endfacet
  facet normal 0.0346794 0.999398 0
    outer loop
      vertex 31.707 49.602 0
      vertex 32.024 49.591 2.6
      vertex 32.024 49.591 0
    endloop
  endfacet
  facet normal 0.0347891 0.999395 -0
    outer loop
      vertex 31.391 49.613 2.6
      vertex 31.707 49.602 2.6
      vertex 31.391 49.613 0
    endloop
  endfacet
  facet normal 0.0347891 0.999395 0
    outer loop
      vertex 31.391 49.613 0
      vertex 31.707 49.602 2.6
      vertex 31.707 49.602 0
    endloop
  endfacet
  facet normal 0.0347891 0.999395 -0
    outer loop
      vertex 31.075 49.624 2.6
      vertex 31.391 49.613 2.6
      vertex 31.075 49.624 0
    endloop
  endfacet
  facet normal 0.0347891 0.999395 0
    outer loop
      vertex 31.075 49.624 0
      vertex 31.391 49.613 2.6
      vertex 31.391 49.613 0
    endloop
  endfacet
  facet normal 0.0346794 0.999398 -0
    outer loop
      vertex 30.758 49.635 2.6
      vertex 31.075 49.624 2.6
      vertex 30.758 49.635 0
    endloop
  endfacet
  facet normal 0.0346794 0.999398 0
    outer loop
      vertex 30.758 49.635 0
      vertex 31.075 49.624 2.6
      vertex 31.075 49.624 0
    endloop
  endfacet
  facet normal 0.0347891 0.999395 -0
    outer loop
      vertex 30.442 49.646 2.6
      vertex 30.758 49.635 2.6
      vertex 30.442 49.646 0
    endloop
  endfacet
  facet normal 0.0347891 0.999395 0
    outer loop
      vertex 30.442 49.646 0
      vertex 30.758 49.635 2.6
      vertex 30.758 49.635 0
    endloop
  endfacet
  facet normal 0.0346794 0.999398 -0
    outer loop
      vertex 30.125 49.657 2.6
      vertex 30.442 49.646 2.6
      vertex 30.125 49.657 0
    endloop
  endfacet
  facet normal 0.0346794 0.999398 0
    outer loop
      vertex 30.125 49.657 0
      vertex 30.442 49.646 2.6
      vertex 30.442 49.646 0
    endloop
  endfacet
  facet normal 0.999989 0.00460825 0
    outer loop
      vertex 30.117 51.393 0
      vertex 30.117 51.393 2.6
      vertex 30.125 49.657 2.6
    endloop
  endfacet
  facet normal 0.999989 0.00460825 0
    outer loop
      vertex 30.125 49.657 0
      vertex 30.117 51.393 0
      vertex 30.125 49.657 2.6
    endloop
  endfacet
  facet normal 0.999987 0.00518128 0
    outer loop
      vertex 30.108 53.13 0
      vertex 30.108 53.13 2.6
      vertex 30.117 51.393 2.6
    endloop
  endfacet
  facet normal 0.999987 0.00518128 0
    outer loop
      vertex 30.117 51.393 0
      vertex 30.108 53.13 0
      vertex 30.117 51.393 2.6
    endloop
  endfacet
  facet normal 0.999987 0.00518426 0
    outer loop
      vertex 30.099 54.866 0
      vertex 30.099 54.866 2.6
      vertex 30.108 53.13 2.6
    endloop
  endfacet
  facet normal 0.999987 0.00518426 0
    outer loop
      vertex 30.108 53.13 0
      vertex 30.099 54.866 0
      vertex 30.108 53.13 2.6
    endloop
  endfacet
  facet normal 0.999987 0.00518426 0
    outer loop
      vertex 30.09 56.602 0
      vertex 30.09 56.602 2.6
      vertex 30.099 54.866 2.6
    endloop
  endfacet
  facet normal 0.999987 0.00518426 0
    outer loop
      vertex 30.099 54.866 0
      vertex 30.09 56.602 0
      vertex 30.099 54.866 2.6
    endloop
  endfacet
  facet normal 0.999987 0.00518128 0
    outer loop
      vertex 30.081 58.339 0
      vertex 30.081 58.339 2.6
      vertex 30.09 56.602 2.6
    endloop
  endfacet
  facet normal 0.999987 0.00518128 0
    outer loop
      vertex 30.09 56.602 0
      vertex 30.081 58.339 0
      vertex 30.09 56.602 2.6
    endloop
  endfacet
  facet normal 0.999989 0.00460825 0
    outer loop
      vertex 30.073 60.075 0
      vertex 30.073 60.075 2.6
      vertex 30.081 58.339 2.6
    endloop
  endfacet
  facet normal 0.999989 0.00460825 0
    outer loop
      vertex 30.081 58.339 0
      vertex 30.073 60.075 0
      vertex 30.081 58.339 2.6
    endloop
  endfacet
  facet normal 0.999987 0.00518426 0
    outer loop
      vertex 30.064 61.811 0
      vertex 30.064 61.811 2.6
      vertex 30.073 60.075 2.6
    endloop
  endfacet
  facet normal 0.999987 0.00518426 0
    outer loop
      vertex 30.073 60.075 0
      vertex 30.064 61.811 0
      vertex 30.073 60.075 2.6
    endloop
  endfacet
  facet normal 0.999987 0.00518128 0
    outer loop
      vertex 30.055 63.548 0
      vertex 30.055 63.548 2.6
      vertex 30.064 61.811 2.6
    endloop
  endfacet
  facet normal 0.999987 0.00518128 0
    outer loop
      vertex 30.064 61.811 0
      vertex 30.055 63.548 0
      vertex 30.064 61.811 2.6
    endloop
  endfacet
  facet normal 0.0254694 0.999676 -0
    outer loop
      vertex 29.898 63.552 2.6
      vertex 30.055 63.548 2.6
      vertex 29.898 63.552 0
    endloop
  endfacet
  facet normal 0.0254694 0.999676 0
    outer loop
      vertex 29.898 63.552 0
      vertex 30.055 63.548 2.6
      vertex 30.055 63.548 0
    endloop
  endfacet
  facet normal 0.0320348 0.999487 -0
    outer loop
      vertex 29.742 63.557 2.6
      vertex 29.898 63.552 2.6
      vertex 29.742 63.557 0
    endloop
  endfacet
  facet normal 0.0320348 0.999487 0
    outer loop
      vertex 29.742 63.557 0
      vertex 29.898 63.552 2.6
      vertex 29.898 63.552 0
    endloop
  endfacet
  facet normal 0.0254694 0.999676 -0
    outer loop
      vertex 29.585 63.561 2.6
      vertex 29.742 63.557 2.6
      vertex 29.585 63.561 0
    endloop
  endfacet
  facet normal 0.0254694 0.999676 0
    outer loop
      vertex 29.585 63.561 0
      vertex 29.742 63.557 2.6
      vertex 29.742 63.557 0
    endloop
  endfacet
  facet normal 0.0256326 0.999671 -0
    outer loop
      vertex 29.429 63.565 2.6
      vertex 29.585 63.561 2.6
      vertex 29.429 63.565 0
    endloop
  endfacet
  facet normal 0.0256326 0.999671 0
    outer loop
      vertex 29.429 63.565 0
      vertex 29.585 63.561 2.6
      vertex 29.585 63.561 0
    endloop
  endfacet
  facet normal 0.031831 0.999493 -0
    outer loop
      vertex 29.272 63.57 2.6
      vertex 29.429 63.565 2.6
      vertex 29.272 63.57 0
    endloop
  endfacet
  facet normal 0.031831 0.999493 0
    outer loop
      vertex 29.272 63.57 0
      vertex 29.429 63.565 2.6
      vertex 29.429 63.565 0
    endloop
  endfacet
  facet normal 0.0256326 0.999671 -0
    outer loop
      vertex 29.116 63.574 2.6
      vertex 29.272 63.57 2.6
      vertex 29.116 63.574 0
    endloop
  endfacet
  facet normal 0.0256326 0.999671 0
    outer loop
      vertex 29.116 63.574 0
      vertex 29.272 63.57 2.6
      vertex 29.272 63.57 0
    endloop
  endfacet
  facet normal 0.031831 0.999493 -0
    outer loop
      vertex 28.959 63.579 2.6
      vertex 29.116 63.574 2.6
      vertex 28.959 63.579 0
    endloop
  endfacet
  facet normal 0.031831 0.999493 0
    outer loop
      vertex 28.959 63.579 0
      vertex 29.116 63.574 2.6
      vertex 29.116 63.574 0
    endloop
  endfacet
  facet normal 0.0254694 0.999676 -0
    outer loop
      vertex 28.802 63.583 2.6
      vertex 28.959 63.579 2.6
      vertex 28.802 63.583 0
    endloop
  endfacet
  facet normal 0.0254694 0.999676 0
    outer loop
      vertex 28.802 63.583 0
      vertex 28.959 63.579 2.6
      vertex 28.959 63.579 0
    endloop
  endfacet
  facet normal -0.721502 0.692412 0
    outer loop
      vertex 22.185 56.688 2.6
      vertex 28.802 63.583 2.6
      vertex 22.185 56.688 0
    endloop
  endfacet
  facet normal -0.721502 0.692412 0
    outer loop
      vertex 22.185 56.688 0
      vertex 28.802 63.583 2.6
      vertex 28.802 63.583 0
    endloop
  endfacet
  facet normal -0.791938 0.610602 0
    outer loop
      vertex 16.821 49.731 2.6
      vertex 22.185 56.688 2.6
      vertex 16.821 49.731 0
    endloop
  endfacet
  facet normal -0.791938 0.610602 0
    outer loop
      vertex 16.821 49.731 0
      vertex 22.185 56.688 2.6
      vertex 22.185 56.688 0
    endloop
  endfacet
  facet normal -0.855047 0.518551 0
    outer loop
      vertex 12.671 42.888 2.6
      vertex 16.821 49.731 2.6
      vertex 12.671 42.888 0
    endloop
  endfacet
  facet normal -0.855047 0.518551 0
    outer loop
      vertex 12.671 42.888 0
      vertex 16.821 49.731 2.6
      vertex 16.821 49.731 0
    endloop
  endfacet
  facet normal -0.910409 0.413709 0
    outer loop
      vertex 9.695 36.339 2.6
      vertex 12.671 42.888 2.6
      vertex 9.695 36.339 0
    endloop
  endfacet
  facet normal -0.910409 0.413709 0
    outer loop
      vertex 9.695 36.339 0
      vertex 12.671 42.888 2.6
      vertex 12.671 42.888 0
    endloop
  endfacet
endsolid OpenSCAD_Model
