solid OpenSCAD_Model
  facet normal 0.470932 -0.882169 0
    outer loop
      vertex 5.875 38.848 0
      vertex 6.008 38.919 0
      vertex 6.008 38.919 2.9
    endloop
  endfacet
  facet normal 0.470932 -0.882169 0
    outer loop
      vertex 5.875 38.848 2.9
      vertex 5.875 38.848 0
      vertex 6.008 38.919 2.9
    endloop
  endfacet
  facet normal -0 0 -1
    outer loop
      vertex 8.574 35.338 0
      vertex 10.744 40.956 0
      vertex 14.695 32.446 0
    endloop
  endfacet
  facet normal -0 0 -1
    outer loop
      vertex 9.73 29.985 0
      vertex 14.695 32.446 0
      vertex 14.73 24.393 0
    endloop
  endfacet
  facet normal -0 0 -1
    outer loop
      vertex 17.147 32.446 0
      vertex 20.542 40.956 0
      vertex 17.147 24.393 0
    endloop
  endfacet
  facet normal 0 -0 -1
    outer loop
      vertex 25.613 38.972 0
      vertex 20.542 40.956 0
      vertex 29.353 40.956 0
    endloop
  endfacet
  facet normal 0 0 -1
    outer loop
      vertex 25.199 32.939 0
      vertex 29.353 40.956 0
      vertex 29.168 35.77 0
    endloop
  endfacet
  facet normal -0 0 -1
    outer loop
      vertex 22.403 24.676 0
      vertex 29.168 35.77 0
      vertex 25.613 22.744 0
    endloop
  endfacet
  facet normal -0 0 -1
    outer loop
      vertex 21.512 22.286 0
      vertex 25.613 22.744 0
      vertex 20.119 1.807 0
    endloop
  endfacet
  facet normal 0 0 -1
    outer loop
      vertex 14.757 4.664 0
      vertex 20.119 1.807 0
      vertex 12.437 1.807 0
    endloop
  endfacet
  facet normal 0 0 -1
    outer loop
      vertex 21.759 22.938 0
      vertex 25.613 22.744 0
      vertex 21.512 22.286 0
    endloop
  endfacet
  facet normal 0 0 -1
    outer loop
      vertex 2.718 40.956 0
      vertex 5.479 37.605 0
      vertex 2.577 35.568 0
    endloop
  endfacet
  facet normal -0 0 -1
    outer loop
      vertex 7.234 38.99 0
      vertex 10.744 40.956 0
      vertex 7.719 38.857 0
    endloop
  endfacet
  facet normal 0 0 -1
    outer loop
      vertex 8.574 35.338 0
      vertex 14.695 32.446 0
      vertex 8.98 32.834 0
    endloop
  endfacet
  facet normal 0 0 -1
    outer loop
      vertex 9.73 29.985 0
      vertex 14.73 24.393 0
      vertex 10.638 27.145 0
    endloop
  endfacet
  facet normal 0 0 -1
    outer loop
      vertex 7.481 30.011 0
      vertex 8.468 27.145 0
      vertex 2.577 35.568 0
    endloop
  endfacet
  facet normal 0 0 -1
    outer loop
      vertex 8.468 27.145 0
      vertex 9.359 24.676 0
      vertex 2.577 35.568 0
    endloop
  endfacet
  facet normal 0 0 -1
    outer loop
      vertex 9.359 24.676 0
      vertex 10.003 22.938 0
      vertex 2.577 35.568 0
    endloop
  endfacet
  facet normal 0 0 -1
    outer loop
      vertex 10.003 22.938 0
      vertex 10.25 22.286 0
      vertex 2.577 35.568 0
    endloop
  endfacet
  facet normal 0 0 -1
    outer loop
      vertex 14.73 24.393 0
      vertex 12.437 22.286 0
      vertex 12.173 22.947 0
    endloop
  endfacet
  facet normal 0 0 -1
    outer loop
      vertex 14.73 24.393 0
      vertex 12.173 22.947 0
      vertex 11.511 24.684 0
    endloop
  endfacet
  facet normal 0 0 -1
    outer loop
      vertex 14.73 24.393 0
      vertex 11.511 24.684 0
      vertex 10.638 27.145 0
    endloop
  endfacet
  facet normal 0 0 -1
    outer loop
      vertex 10.867 20.054 0
      vertex 14.73 24.393 0
      vertex 19.325 22.286 0
    endloop
  endfacet
  facet normal 0 0 -1
    outer loop
      vertex 8.98 32.834 0
      vertex 14.695 32.446 0
      vertex 9.73 29.985 0
    endloop
  endfacet
  facet normal 0 0 -1
    outer loop
      vertex 7.481 30.011 0
      vertex 2.577 35.568 0
      vertex 6.555 32.939 0
    endloop
  endfacet
  facet normal -0 0 -1
    outer loop
      vertex 9.518 37.922 0
      vertex 10.744 40.956 0
      vertex 8.574 35.338 0
    endloop
  endfacet
  facet normal -0 0 -1
    outer loop
      vertex 8.971 38.266 0
      vertex 10.744 40.956 0
      vertex 9.262 38.09 0
    endloop
  endfacet
  facet normal -0 0 -1
    outer loop
      vertex 8.177 38.681 0
      vertex 10.744 40.956 0
      vertex 8.609 38.478 0
    endloop
  endfacet
  facet normal -0 0 -1
    outer loop
      vertex 9.447 37.967 0
      vertex 10.744 40.956 0
      vertex 9.518 37.922 0
    endloop
  endfacet
  facet normal -0 0 -1
    outer loop
      vertex 8.689 37.155 0
      vertex 9.518 37.922 0
      vertex 8.574 35.338 0
    endloop
  endfacet
  facet normal -0 0 -1
    outer loop
      vertex 9.262 38.09 0
      vertex 10.744 40.956 0
      vertex 9.447 37.967 0
    endloop
  endfacet
  facet normal -0 0 -1
    outer loop
      vertex 8.609 38.478 0
      vertex 10.744 40.956 0
      vertex 8.971 38.266 0
    endloop
  endfacet
  facet normal -0 0 -1
    outer loop
      vertex 7.719 38.857 0
      vertex 10.744 40.956 0
      vertex 8.177 38.681 0
    endloop
  endfacet
  facet normal 0 0 -1
    outer loop
      vertex 6.555 32.939 0
      vertex 2.577 35.568 0
      vertex 5.84 35.585 0
    endloop
  endfacet
  facet normal 0 0 -1
    outer loop
      vertex 2.718 40.956 0
      vertex 10.744 40.956 0
      vertex 7.234 38.99 0
    endloop
  endfacet
  facet normal 0 0 -1
    outer loop
      vertex 2.718 40.956 0
      vertex 7.234 38.99 0
      vertex 6.749 39.051 0
    endloop
  endfacet
  facet normal 0 0 -1
    outer loop
      vertex 2.718 40.956 0
      vertex 6.749 39.051 0
      vertex 6.59 39.051 0
    endloop
  endfacet
  facet normal 0 0 -1
    outer loop
      vertex 2.718 40.956 0
      vertex 6.59 39.051 0
      vertex 6.44 39.034 0
    endloop
  endfacet
  facet normal 0 0 -1
    outer loop
      vertex 2.718 40.956 0
      vertex 6.44 39.034 0
      vertex 6.29 39.007 0
    endloop
  endfacet
  facet normal 0 0 -1
    outer loop
      vertex 2.718 40.956 0
      vertex 6.29 39.007 0
      vertex 6.14 38.972 0
    endloop
  endfacet
  facet normal 0 0 -1
    outer loop
      vertex 2.718 40.956 0
      vertex 6.14 38.972 0
      vertex 6.008 38.919 0
    endloop
  endfacet
  facet normal 0 0 -1
    outer loop
      vertex 2.718 40.956 0
      vertex 6.008 38.919 0
      vertex 5.875 38.848 0
    endloop
  endfacet
  facet normal 0 0 -1
    outer loop
      vertex 2.718 40.956 0
      vertex 5.875 38.848 0
      vertex 5.743 38.76 0
    endloop
  endfacet
  facet normal 0 0 -1
    outer loop
      vertex 2.718 40.956 0
      vertex 5.743 38.76 0
      vertex 5.629 38.654 0
    endloop
  endfacet
  facet normal 0 0 -1
    outer loop
      vertex 2.718 40.956 0
      vertex 5.629 38.654 0
      vertex 5.479 37.605 0
    endloop
  endfacet
  facet normal 0 0 -1
    outer loop
      vertex 22.403 24.676 0
      vertex 25.613 22.744 0
      vertex 21.759 22.938 0
    endloop
  endfacet
  facet normal 0 0 -1
    outer loop
      vertex 10.867 20.054 0
      vertex 12.437 22.286 0
      vertex 14.73 24.393 0
    endloop
  endfacet
  facet normal -0 0 -1
    outer loop
      vertex 21.063 20.054 0
      vertex 21.512 22.286 0
      vertex 20.119 1.807 0
    endloop
  endfacet
  facet normal -0 0 -1
    outer loop
      vertex 23.294 27.145 0
      vertex 29.168 35.77 0
      vertex 22.403 24.676 0
    endloop
  endfacet
  facet normal -0 0 -1
    outer loop
      vertex 25.199 32.939 0
      vertex 29.168 35.77 0
      vertex 24.273 30.011 0
    endloop
  endfacet
  facet normal -0 0 -1
    outer loop
      vertex 24.273 30.011 0
      vertex 29.168 35.77 0
      vertex 23.294 27.145 0
    endloop
  endfacet
  facet normal -0 0 -1
    outer loop
      vertex 25.913 35.585 0
      vertex 29.353 40.956 0
      vertex 25.199 32.939 0
    endloop
  endfacet
  facet normal -0 0 -1
    outer loop
      vertex 26.275 37.605 0
      vertex 29.353 40.956 0
      vertex 25.913 35.585 0
    endloop
  endfacet
  facet normal 0 0 -1
    outer loop
      vertex 23.065 37.155 0
      vertex 17.147 24.393 0
      vertex 22.236 37.922 0
    endloop
  endfacet
  facet normal -0 -0 -1
    outer loop
      vertex 25.463 39.007 0
      vertex 20.542 40.956 0
      vertex 25.613 38.972 0
    endloop
  endfacet
  facet normal 0 -0 -1
    outer loop
      vertex 24.035 38.857 0
      vertex 20.542 40.956 0
      vertex 24.52 38.99 0
    endloop
  endfacet
  facet normal 0 -0 -1
    outer loop
      vertex 26.275 37.605 0
      vertex 26.125 38.654 0
      vertex 29.353 40.956 0
    endloop
  endfacet
  facet normal -0 -0 -1
    outer loop
      vertex 25.005 39.051 0
      vertex 20.542 40.956 0
      vertex 25.164 39.051 0
    endloop
  endfacet
  facet normal 0 -0 -1
    outer loop
      vertex 26.125 38.654 0
      vertex 26.01 38.76 0
      vertex 29.353 40.956 0
    endloop
  endfacet
  facet normal -0 -0 -1
    outer loop
      vertex 25.314 39.034 0
      vertex 20.542 40.956 0
      vertex 25.463 39.007 0
    endloop
  endfacet
  facet normal 0 -0 -1
    outer loop
      vertex 26.01 38.76 0
      vertex 25.878 38.848 0
      vertex 29.353 40.956 0
    endloop
  endfacet
  facet normal 0 -0 -1
    outer loop
      vertex 25.878 38.848 0
      vertex 25.746 38.919 0
      vertex 29.353 40.956 0
    endloop
  endfacet
  facet normal 0 -0 -1
    outer loop
      vertex 25.746 38.919 0
      vertex 25.613 38.972 0
      vertex 29.353 40.956 0
    endloop
  endfacet
  facet normal -0 -0 -1
    outer loop
      vertex 25.164 39.051 0
      vertex 20.542 40.956 0
      vertex 25.314 39.034 0
    endloop
  endfacet
  facet normal 0 -0 -1
    outer loop
      vertex 24.52 38.99 0
      vertex 20.542 40.956 0
      vertex 25.005 39.051 0
    endloop
  endfacet
  facet normal 0 -0 -1
    outer loop
      vertex 23.576 38.681 0
      vertex 20.542 40.956 0
      vertex 24.035 38.857 0
    endloop
  endfacet
  facet normal 0 -0 -1
    outer loop
      vertex 23.144 38.478 0
      vertex 20.542 40.956 0
      vertex 23.576 38.681 0
    endloop
  endfacet
  facet normal 0 -0 -1
    outer loop
      vertex 22.782 38.266 0
      vertex 20.542 40.956 0
      vertex 23.144 38.478 0
    endloop
  endfacet
  facet normal 0 -0 -1
    outer loop
      vertex 22.491 38.09 0
      vertex 20.542 40.956 0
      vertex 22.782 38.266 0
    endloop
  endfacet
  facet normal 0 -0 -1
    outer loop
      vertex 22.306 37.967 0
      vertex 20.542 40.956 0
      vertex 22.491 38.09 0
    endloop
  endfacet
  facet normal 0 -0 -1
    outer loop
      vertex 22.236 37.922 0
      vertex 20.542 40.956 0
      vertex 22.306 37.967 0
    endloop
  endfacet
  facet normal 0 0 -1
    outer loop
      vertex 17.147 24.393 0
      vertex 20.542 40.956 0
      vertex 22.236 37.922 0
    endloop
  endfacet
  facet normal 0 0 -1
    outer loop
      vertex 23.179 35.338 0
      vertex 17.147 24.393 0
      vertex 23.065 37.155 0
    endloop
  endfacet
  facet normal 0 -0 -1
    outer loop
      vertex 22.024 29.985 0
      vertex 17.147 24.393 0
      vertex 22.774 32.834 0
    endloop
  endfacet
  facet normal 0 0 -1
    outer loop
      vertex 17.147 24.393 0
      vertex 23.179 35.338 0
      vertex 22.774 32.834 0
    endloop
  endfacet
  facet normal 0 -0 -1
    outer loop
      vertex 21.124 27.145 0
      vertex 17.147 24.393 0
      vertex 22.024 29.985 0
    endloop
  endfacet
  facet normal 0 -0 -1
    outer loop
      vertex 20.251 24.684 0
      vertex 17.147 24.393 0
      vertex 21.124 27.145 0
    endloop
  endfacet
  facet normal 0 -0 -1
    outer loop
      vertex 19.59 22.947 0
      vertex 17.147 24.393 0
      vertex 20.251 24.684 0
    endloop
  endfacet
  facet normal 0 0 -1
    outer loop
      vertex 19.59 22.947 0
      vertex 14.73 24.393 0
      vertex 17.147 24.393 0
    endloop
  endfacet
  facet normal -0 0 -1
    outer loop
      vertex 10.867 20.054 0
      vertex 19.325 22.286 0
      vertex 21.063 20.054 0
    endloop
  endfacet
  facet normal 0 -0 -1
    outer loop
      vertex 10.867 20.054 0
      vertex 10.25 22.286 0
      vertex 12.437 22.286 0
    endloop
  endfacet
  facet normal 0 0 -1
    outer loop
      vertex 14.73 24.393 0
      vertex 19.59 22.947 0
      vertex 19.325 22.286 0
    endloop
  endfacet
  facet normal 0 0 -1
    outer loop
      vertex 14.757 4.664 0
      vertex 2.577 35.568 0
      vertex 10.867 20.054 0
    endloop
  endfacet
  facet normal 0 0 -1
    outer loop
      vertex 10.25 22.286 0
      vertex 10.867 20.054 0
      vertex 2.577 35.568 0
    endloop
  endfacet
  facet normal 0 0 -1
    outer loop
      vertex 17.852 4.664 0
      vertex 20.119 1.807 0
      vertex 14.757 4.664 0
    endloop
  endfacet
  facet normal 0 0 -1
    outer loop
      vertex 2.577 35.568 0
      vertex 14.757 4.664 0
      vertex 12.437 1.807 0
    endloop
  endfacet
  facet normal 0 0 -1
    outer loop
      vertex 21.063 20.054 0
      vertex 20.119 1.807 0
      vertex 17.852 4.664 0
    endloop
  endfacet
  facet normal 0 0 -1
    outer loop
      vertex 19.325 22.286 0
      vertex 21.512 22.286 0
      vertex 21.063 20.054 0
    endloop
  endfacet
  facet normal 0 0 -1
    outer loop
      vertex 5.84 35.585 0
      vertex 2.577 35.568 0
      vertex 5.479 37.605 0
    endloop
  endfacet
  facet normal 0.5547 -0.83205 0
    outer loop
      vertex 5.743 38.76 0
      vertex 5.875 38.848 0
      vertex 5.875 38.848 2.9
    endloop
  endfacet
  facet normal 0.5547 -0.83205 0
    outer loop
      vertex 5.743 38.76 2.9
      vertex 5.743 38.76 0
      vertex 5.875 38.848 2.9
    endloop
  endfacet
  facet normal 0 -0 1
    outer loop
      vertex 17.852 4.664 2.9
      vertex 12.437 1.807 2.9
      vertex 20.119 1.807 2.9
    endloop
  endfacet
  facet normal 0 0 1
    outer loop
      vertex 14.73 24.393 2.9
      vertex 8.98 32.834 2.9
      vertex 9.73 29.985 2.9
    endloop
  endfacet
  facet normal 0 -0 1
    outer loop
      vertex 22.403 24.676 2.9
      vertex 21.759 22.938 2.9
      vertex 25.613 22.744 2.9
    endloop
  endfacet
  facet normal -0 0 1
    outer loop
      vertex 22.774 32.834 2.9
      vertex 23.179 35.338 2.9
      vertex 17.147 32.446 2.9
    endloop
  endfacet
  facet normal 0 0 1
    outer loop
      vertex 21.063 20.054 2.9
      vertex 17.852 4.664 2.9
      vertex 20.119 1.807 2.9
    endloop
  endfacet
  facet normal 0 0 1
    outer loop
      vertex 9.73 29.985 2.9
      vertex 10.638 27.145 2.9
      vertex 14.73 24.393 2.9
    endloop
  endfacet
  facet normal 0 0 1
    outer loop
      vertex 8.177 38.681 2.9
      vertex 10.744 40.956 2.9
      vertex 7.719 38.857 2.9
    endloop
  endfacet
  facet normal 0 0 1
    outer loop
      vertex 8.574 35.338 2.9
      vertex 8.98 32.834 2.9
      vertex 14.695 32.446 2.9
    endloop
  endfacet
  facet normal 0 -0 1
    outer loop
      vertex 2.718 40.956 2.9
      vertex 2.577 35.568 2.9
      vertex 5.479 37.605 2.9
    endloop
  endfacet
  facet normal 0 0 1
    outer loop
      vertex 7.234 38.99 2.9
      vertex 7.719 38.857 2.9
      vertex 10.744 40.956 2.9
    endloop
  endfacet
  facet normal 0 0 1
    outer loop
      vertex 2.718 40.956 2.9
      vertex 5.479 37.605 2.9
      vertex 5.629 38.654 2.9
    endloop
  endfacet
  facet normal 0 0 1
    outer loop
      vertex 6.44 39.034 2.9
      vertex 6.59 39.051 2.9
      vertex 10.744 40.956 2.9
    endloop
  endfacet
  facet normal 0 0 1
    outer loop
      vertex 2.718 40.956 2.9
      vertex 5.629 38.654 2.9
      vertex 5.743 38.76 2.9
    endloop
  endfacet
  facet normal 0 0 1
    outer loop
      vertex 6.29 39.007 2.9
      vertex 6.44 39.034 2.9
      vertex 10.744 40.956 2.9
    endloop
  endfacet
  facet normal 0 0 1
    outer loop
      vertex 2.718 40.956 2.9
      vertex 5.743 38.76 2.9
      vertex 5.875 38.848 2.9
    endloop
  endfacet
  facet normal 0 0 1
    outer loop
      vertex 2.718 40.956 2.9
      vertex 6.008 38.919 2.9
      vertex 10.744 40.956 2.9
    endloop
  endfacet
  facet normal 0 0 1
    outer loop
      vertex 2.718 40.956 2.9
      vertex 5.875 38.848 2.9
      vertex 6.008 38.919 2.9
    endloop
  endfacet
  facet normal 0 0 1
    outer loop
      vertex 6.008 38.919 2.9
      vertex 6.14 38.972 2.9
      vertex 10.744 40.956 2.9
    endloop
  endfacet
  facet normal 0 0 1
    outer loop
      vertex 6.59 39.051 2.9
      vertex 6.749 39.051 2.9
      vertex 10.744 40.956 2.9
    endloop
  endfacet
  facet normal 0 0 1
    outer loop
      vertex 6.749 39.051 2.9
      vertex 7.234 38.99 2.9
      vertex 10.744 40.956 2.9
    endloop
  endfacet
  facet normal 0 0 1
    outer loop
      vertex 6.14 38.972 2.9
      vertex 6.29 39.007 2.9
      vertex 10.744 40.956 2.9
    endloop
  endfacet
  facet normal 0 0 1
    outer loop
      vertex 24.52 38.99 2.9
      vertex 25.005 39.051 2.9
      vertex 29.353 40.956 2.9
    endloop
  endfacet
  facet normal 0 0 1
    outer loop
      vertex 10.867 20.054 2.9
      vertex 19.325 22.286 2.9
      vertex 17.147 24.393 2.9
    endloop
  endfacet
  facet normal 0 0 1
    outer loop
      vertex 10.867 20.054 2.9
      vertex 21.063 20.054 2.9
      vertex 19.325 22.286 2.9
    endloop
  endfacet
  facet normal 0 0 1
    outer loop
      vertex 19.59 22.947 2.9
      vertex 20.251 24.684 2.9
      vertex 17.147 24.393 2.9
    endloop
  endfacet
  facet normal 0 0 1
    outer loop
      vertex 9.518 37.922 2.9
      vertex 9.262 38.09 2.9
      vertex 9.447 37.967 2.9
    endloop
  endfacet
  facet normal 0 0 1
    outer loop
      vertex 14.695 32.446 2.9
      vertex 8.689 37.155 2.9
      vertex 8.574 35.338 2.9
    endloop
  endfacet
  facet normal 0 0 1
    outer loop
      vertex 8.468 27.145 2.9
      vertex 7.481 30.011 2.9
      vertex 2.577 35.568 2.9
    endloop
  endfacet
  facet normal 0 0 1
    outer loop
      vertex 7.481 30.011 2.9
      vertex 6.555 32.939 2.9
      vertex 2.577 35.568 2.9
    endloop
  endfacet
  facet normal 0 0 1
    outer loop
      vertex 10.638 27.145 2.9
      vertex 11.511 24.684 2.9
      vertex 12.173 22.947 2.9
    endloop
  endfacet
  facet normal 0 0 1
    outer loop
      vertex 10.638 27.145 2.9
      vertex 12.173 22.947 2.9
      vertex 12.437 22.286 2.9
    endloop
  endfacet
  facet normal -0 -0 1
    outer loop
      vertex 10.003 22.938 2.9
      vertex 2.577 35.568 2.9
      vertex 10.25 22.286 2.9
    endloop
  endfacet
  facet normal -0 -0 1
    outer loop
      vertex 9.359 24.676 2.9
      vertex 2.577 35.568 2.9
      vertex 10.003 22.938 2.9
    endloop
  endfacet
  facet normal -0 -0 1
    outer loop
      vertex 8.468 27.145 2.9
      vertex 2.577 35.568 2.9
      vertex 9.359 24.676 2.9
    endloop
  endfacet
  facet normal 0 0 1
    outer loop
      vertex 6.555 32.939 2.9
      vertex 5.84 35.585 2.9
      vertex 2.577 35.568 2.9
    endloop
  endfacet
  facet normal -0 0 1
    outer loop
      vertex 19.59 22.947 2.9
      vertex 17.147 24.393 2.9
      vertex 19.325 22.286 2.9
    endloop
  endfacet
  facet normal 0 0 1
    outer loop
      vertex 21.124 27.145 2.9
      vertex 22.024 29.985 2.9
      vertex 17.147 32.446 2.9
    endloop
  endfacet
  facet normal 0 0 1
    outer loop
      vertex 8.609 38.478 2.9
      vertex 10.744 40.956 2.9
      vertex 8.177 38.681 2.9
    endloop
  endfacet
  facet normal 0 -0 1
    outer loop
      vertex 23.294 27.145 2.9
      vertex 22.403 24.676 2.9
      vertex 25.613 22.744 2.9
    endloop
  endfacet
  facet normal 0 0 1
    outer loop
      vertex 22.774 32.834 2.9
      vertex 17.147 32.446 2.9
      vertex 22.024 29.985 2.9
    endloop
  endfacet
  facet normal 0 0 1
    outer loop
      vertex 24.035 38.857 2.9
      vertex 24.52 38.99 2.9
      vertex 29.353 40.956 2.9
    endloop
  endfacet
  facet normal 0 0 1
    outer loop
      vertex 25.746 38.919 2.9
      vertex 25.878 38.848 2.9
      vertex 29.353 40.956 2.9
    endloop
  endfacet
  facet normal 0 -0 1
    outer loop
      vertex 17.147 32.446 2.9
      vertex 17.147 24.393 2.9
      vertex 20.251 24.684 2.9
    endloop
  endfacet
  facet normal 0 0 1
    outer loop
      vertex 26.125 38.654 2.9
      vertex 26.275 37.605 2.9
      vertex 29.168 35.77 2.9
    endloop
  endfacet
  facet normal 0 0 1
    outer loop
      vertex 8.971 38.266 2.9
      vertex 10.744 40.956 2.9
      vertex 8.609 38.478 2.9
    endloop
  endfacet
  facet normal 0 0 1
    outer loop
      vertex 10.867 20.054 2.9
      vertex 14.73 24.393 2.9
      vertex 12.437 22.286 2.9
    endloop
  endfacet
  facet normal 0 0 1
    outer loop
      vertex 9.262 38.09 2.9
      vertex 10.744 40.956 2.9
      vertex 8.971 38.266 2.9
    endloop
  endfacet
  facet normal 0 0 1
    outer loop
      vertex 9.518 37.922 2.9
      vertex 10.744 40.956 2.9
      vertex 9.262 38.09 2.9
    endloop
  endfacet
  facet normal 0 0 1
    outer loop
      vertex 14.695 32.446 2.9
      vertex 10.744 40.956 2.9
      vertex 9.518 37.922 2.9
    endloop
  endfacet
  facet normal 0 0 1
    outer loop
      vertex 29.353 40.956 2.9
      vertex 23.576 38.681 2.9
      vertex 24.035 38.857 2.9
    endloop
  endfacet
  facet normal 0 0 1
    outer loop
      vertex 10.867 20.054 2.9
      vertex 17.147 24.393 2.9
      vertex 14.73 24.393 2.9
    endloop
  endfacet
  facet normal 0 0 1
    outer loop
      vertex 29.353 40.956 2.9
      vertex 25.005 39.051 2.9
      vertex 25.164 39.051 2.9
    endloop
  endfacet
  facet normal 0 0 1
    outer loop
      vertex 29.353 40.956 2.9
      vertex 25.164 39.051 2.9
      vertex 25.314 39.034 2.9
    endloop
  endfacet
  facet normal 0 0 1
    outer loop
      vertex 29.353 40.956 2.9
      vertex 25.314 39.034 2.9
      vertex 25.463 39.007 2.9
    endloop
  endfacet
  facet normal 0 0 1
    outer loop
      vertex 29.353 40.956 2.9
      vertex 25.463 39.007 2.9
      vertex 25.613 38.972 2.9
    endloop
  endfacet
  facet normal 0 0 1
    outer loop
      vertex 29.353 40.956 2.9
      vertex 25.613 38.972 2.9
      vertex 25.746 38.919 2.9
    endloop
  endfacet
  facet normal 0 -0 1
    outer loop
      vertex 26.275 37.605 2.9
      vertex 25.913 35.585 2.9
      vertex 29.168 35.77 2.9
    endloop
  endfacet
  facet normal 0 -0 1
    outer loop
      vertex 25.913 35.585 2.9
      vertex 25.199 32.939 2.9
      vertex 29.168 35.77 2.9
    endloop
  endfacet
  facet normal 0 0 1
    outer loop
      vertex 29.353 40.956 2.9
      vertex 25.878 38.848 2.9
      vertex 26.01 38.76 2.9
    endloop
  endfacet
  facet normal 0 0 1
    outer loop
      vertex 29.353 40.956 2.9
      vertex 26.125 38.654 2.9
      vertex 29.168 35.77 2.9
    endloop
  endfacet
  facet normal 0 0 1
    outer loop
      vertex 29.353 40.956 2.9
      vertex 26.01 38.76 2.9
      vertex 26.125 38.654 2.9
    endloop
  endfacet
  facet normal 0 -0 1
    outer loop
      vertex 21.759 22.938 2.9
      vertex 21.512 22.286 2.9
      vertex 25.613 22.744 2.9
    endloop
  endfacet
  facet normal 0 -0 1
    outer loop
      vertex 24.273 30.011 2.9
      vertex 23.294 27.145 2.9
      vertex 25.613 22.744 2.9
    endloop
  endfacet
  facet normal 0 0 1
    outer loop
      vertex 29.168 35.77 2.9
      vertex 24.273 30.011 2.9
      vertex 25.613 22.744 2.9
    endloop
  endfacet
  facet normal 0 -0 1
    outer loop
      vertex 25.199 32.939 2.9
      vertex 24.273 30.011 2.9
      vertex 29.168 35.77 2.9
    endloop
  endfacet
  facet normal 0 0 1
    outer loop
      vertex 14.695 32.446 2.9
      vertex 9.518 37.922 2.9
      vertex 8.689 37.155 2.9
    endloop
  endfacet
  facet normal 0 0 1
    outer loop
      vertex 14.73 24.393 2.9
      vertex 14.695 32.446 2.9
      vertex 8.98 32.834 2.9
    endloop
  endfacet
  facet normal 0 0 1
    outer loop
      vertex 14.757 4.664 2.9
      vertex 10.867 20.054 2.9
      vertex 2.577 35.568 2.9
    endloop
  endfacet
  facet normal 0 0 1
    outer loop
      vertex 20.251 24.684 2.9
      vertex 21.124 27.145 2.9
      vertex 17.147 32.446 2.9
    endloop
  endfacet
  facet normal 0 0 1
    outer loop
      vertex 25.613 22.744 2.9
      vertex 21.512 22.286 2.9
      vertex 20.119 1.807 2.9
    endloop
  endfacet
  facet normal -0 -0 1
    outer loop
      vertex 10.25 22.286 2.9
      vertex 2.577 35.568 2.9
      vertex 10.867 20.054 2.9
    endloop
  endfacet
  facet normal 0 0 1
    outer loop
      vertex 21.512 22.286 2.9
      vertex 21.063 20.054 2.9
      vertex 20.119 1.807 2.9
    endloop
  endfacet
  facet normal 0 0 1
    outer loop
      vertex 21.512 22.286 2.9
      vertex 19.325 22.286 2.9
      vertex 21.063 20.054 2.9
    endloop
  endfacet
  facet normal 0 0 1
    outer loop
      vertex 10.867 20.054 2.9
      vertex 12.437 22.286 2.9
      vertex 10.25 22.286 2.9
    endloop
  endfacet
  facet normal 0 -0 1
    outer loop
      vertex 14.757 4.664 2.9
      vertex 12.437 1.807 2.9
      vertex 17.852 4.664 2.9
    endloop
  endfacet
  facet normal 0 0 1
    outer loop
      vertex 12.437 22.286 2.9
      vertex 14.73 24.393 2.9
      vertex 10.638 27.145 2.9
    endloop
  endfacet
  facet normal 0 0 1
    outer loop
      vertex 2.577 35.568 2.9
      vertex 12.437 1.807 2.9
      vertex 14.757 4.664 2.9
    endloop
  endfacet
  facet normal -0 0 1
    outer loop
      vertex 5.84 35.585 2.9
      vertex 5.479 37.605 2.9
      vertex 2.577 35.568 2.9
    endloop
  endfacet
  facet normal 0 0 1
    outer loop
      vertex 20.542 40.956 2.9
      vertex 23.576 38.681 2.9
      vertex 29.353 40.956 2.9
    endloop
  endfacet
  facet normal 0 0 1
    outer loop
      vertex 20.542 40.956 2.9
      vertex 23.144 38.478 2.9
      vertex 23.576 38.681 2.9
    endloop
  endfacet
  facet normal 0 0 1
    outer loop
      vertex 20.542 40.956 2.9
      vertex 22.782 38.266 2.9
      vertex 23.144 38.478 2.9
    endloop
  endfacet
  facet normal 0 0 1
    outer loop
      vertex 20.542 40.956 2.9
      vertex 22.491 38.09 2.9
      vertex 22.782 38.266 2.9
    endloop
  endfacet
  facet normal 0 0 1
    outer loop
      vertex 20.542 40.956 2.9
      vertex 22.306 37.967 2.9
      vertex 22.491 38.09 2.9
    endloop
  endfacet
  facet normal 0 0 1
    outer loop
      vertex 20.542 40.956 2.9
      vertex 22.236 37.922 2.9
      vertex 22.306 37.967 2.9
    endloop
  endfacet
  facet normal 0 0 1
    outer loop
      vertex 22.236 37.922 2.9
      vertex 23.179 35.338 2.9
      vertex 23.065 37.155 2.9
    endloop
  endfacet
  facet normal 0 0 1
    outer loop
      vertex 20.542 40.956 2.9
      vertex 23.179 35.338 2.9
      vertex 22.236 37.922 2.9
    endloop
  endfacet
  facet normal 0 -0 1
    outer loop
      vertex 20.542 40.956 2.9
      vertex 17.147 32.446 2.9
      vertex 23.179 35.338 2.9
    endloop
  endfacet
  facet normal 0.372602 -0.927991 0
    outer loop
      vertex 6.008 38.919 0
      vertex 6.14 38.972 0
      vertex 6.14 38.972 2.9
    endloop
  endfacet
  facet normal 0.372602 -0.927991 0
    outer loop
      vertex 6.008 38.919 2.9
      vertex 6.008 38.919 0
      vertex 6.14 38.972 2.9
    endloop
  endfacet
  facet normal -0.9599 -0.280342 -0
    outer loop
      vertex 12.437 1.807 0
      vertex 12.437 1.807 2.9
      vertex 2.577 35.568 0
    endloop
  endfacet
  facet normal -0.9599 -0.280342 -0
    outer loop
      vertex 2.577 35.568 0
      vertex 12.437 1.807 2.9
      vertex 2.577 35.568 2.9
    endloop
  endfacet
  facet normal -0.999658 0.0261603 0
    outer loop
      vertex 2.577 35.568 2.9
      vertex 2.718 40.956 2.9
      vertex 2.577 35.568 0
    endloop
  endfacet
  facet normal -0.999658 0.0261603 0
    outer loop
      vertex 2.577 35.568 0
      vertex 2.718 40.956 2.9
      vertex 2.718 40.956 0
    endloop
  endfacet
  facet normal -0 -1 0
    outer loop
      vertex 12.437 1.807 0
      vertex 20.119 1.807 0
      vertex 20.119 1.807 2.9
    endloop
  endfacet
  facet normal 0 -1 0
    outer loop
      vertex 12.437 1.807 2.9
      vertex 12.437 1.807 0
      vertex 20.119 1.807 2.9
    endloop
  endfacet
  facet normal 0.967253 -0.253813 0
    outer loop
      vertex 20.119 1.807 0
      vertex 25.613 22.744 0
      vertex 25.613 22.744 2.9
    endloop
  endfacet
  facet normal 0.967253 -0.253813 0
    outer loop
      vertex 20.119 1.807 2.9
      vertex 20.119 1.807 0
      vertex 25.613 22.744 2.9
    endloop
  endfacet
  facet normal 0.964718 -0.263287 0
    outer loop
      vertex 25.613 22.744 0
      vertex 29.168 35.77 0
      vertex 29.168 35.77 2.9
    endloop
  endfacet
  facet normal 0.964718 -0.263287 0
    outer loop
      vertex 25.613 22.744 2.9
      vertex 25.613 22.744 0
      vertex 29.168 35.77 2.9
    endloop
  endfacet
  facet normal 0.999364 -0.0356503 0
    outer loop
      vertex 29.168 35.77 0
      vertex 29.353 40.956 0
      vertex 29.353 40.956 2.9
    endloop
  endfacet
  facet normal 0.999364 -0.0356503 0
    outer loop
      vertex 29.168 35.77 2.9
      vertex 29.168 35.77 0
      vertex 29.353 40.956 2.9
    endloop
  endfacet
  facet normal 0 1 -0
    outer loop
      vertex 20.542 40.956 2.9
      vertex 29.353 40.956 2.9
      vertex 20.542 40.956 0
    endloop
  endfacet
  facet normal 0 1 0
    outer loop
      vertex 20.542 40.956 0
      vertex 29.353 40.956 2.9
      vertex 29.353 40.956 0
    endloop
  endfacet
  facet normal -0.928815 0.370544 0
    outer loop
      vertex 17.147 32.446 2.9
      vertex 20.542 40.956 2.9
      vertex 17.147 32.446 0
    endloop
  endfacet
  facet normal -0.928815 0.370544 0
    outer loop
      vertex 17.147 32.446 0
      vertex 20.542 40.956 2.9
      vertex 20.542 40.956 0
    endloop
  endfacet
  facet normal -1 0 0
    outer loop
      vertex 17.147 24.393 2.9
      vertex 17.147 32.446 2.9
      vertex 17.147 24.393 0
    endloop
  endfacet
  facet normal -1 -0 0
    outer loop
      vertex 17.147 24.393 0
      vertex 17.147 32.446 2.9
      vertex 17.147 32.446 0
    endloop
  endfacet
  facet normal 0 1 -0
    outer loop
      vertex 14.73 24.393 2.9
      vertex 17.147 24.393 2.9
      vertex 14.73 24.393 0
    endloop
  endfacet
  facet normal 0 1 0
    outer loop
      vertex 14.73 24.393 0
      vertex 17.147 24.393 2.9
      vertex 17.147 24.393 0
    endloop
  endfacet
  facet normal 0.999991 0.00434617 0
    outer loop
      vertex 14.695 32.446 0
      vertex 14.695 32.446 2.9
      vertex 14.73 24.393 2.9
    endloop
  endfacet
  facet normal 0.999991 0.00434617 0
    outer loop
      vertex 14.73 24.393 0
      vertex 14.695 32.446 0
      vertex 14.73 24.393 2.9
    endloop
  endfacet
  facet normal 0.907012 0.421105 0
    outer loop
      vertex 10.744 40.956 0
      vertex 10.744 40.956 2.9
      vertex 14.695 32.446 2.9
    endloop
  endfacet
  facet normal 0.907012 0.421105 0
    outer loop
      vertex 14.695 32.446 0
      vertex 10.744 40.956 0
      vertex 14.695 32.446 2.9
    endloop
  endfacet
  facet normal 0 1 -0
    outer loop
      vertex 2.718 40.956 2.9
      vertex 10.744 40.956 2.9
      vertex 2.718 40.956 0
    endloop
  endfacet
  facet normal 0 1 0
    outer loop
      vertex 2.718 40.956 0
      vertex 10.744 40.956 2.9
      vertex 10.744 40.956 0
    endloop
  endfacet
  facet normal 0.984403 0.175926 0
    outer loop
      vertex 5.479 37.605 0
      vertex 5.479 37.605 2.9
      vertex 5.84 35.585 2.9
    endloop
  endfacet
  facet normal 0.984403 0.175926 0
    outer loop
      vertex 5.84 35.585 0
      vertex 5.479 37.605 0
      vertex 5.84 35.585 2.9
    endloop
  endfacet
  facet normal 0.989931 -0.141553 0
    outer loop
      vertex 5.479 37.605 0
      vertex 5.629 38.654 0
      vertex 5.629 38.654 2.9
    endloop
  endfacet
  facet normal 0.989931 -0.141553 0
    outer loop
      vertex 5.479 37.605 2.9
      vertex 5.479 37.605 0
      vertex 5.629 38.654 2.9
    endloop
  endfacet
  facet normal 0.680944 -0.732336 0
    outer loop
      vertex 5.629 38.654 0
      vertex 5.743 38.76 0
      vertex 5.743 38.76 2.9
    endloop
  endfacet
  facet normal 0.680944 -0.732336 0
    outer loop
      vertex 5.629 38.654 2.9
      vertex 5.629 38.654 0
      vertex 5.743 38.76 2.9
    endloop
  endfacet
  facet normal 0.22723 -0.973841 0
    outer loop
      vertex 6.14 38.972 0
      vertex 6.29 39.007 0
      vertex 6.29 39.007 2.9
    endloop
  endfacet
  facet normal 0.22723 -0.973841 0
    outer loop
      vertex 6.14 38.972 2.9
      vertex 6.14 38.972 0
      vertex 6.29 39.007 2.9
    endloop
  endfacet
  facet normal 0.177153 -0.984183 0
    outer loop
      vertex 6.29 39.007 0
      vertex 6.44 39.034 0
      vertex 6.44 39.034 2.9
    endloop
  endfacet
  facet normal 0.177153 -0.984183 0
    outer loop
      vertex 6.29 39.007 2.9
      vertex 6.29 39.007 0
      vertex 6.44 39.034 2.9
    endloop
  endfacet
  facet normal 0.112612 -0.993639 0
    outer loop
      vertex 6.44 39.034 0
      vertex 6.59 39.051 0
      vertex 6.59 39.051 2.9
    endloop
  endfacet
  facet normal 0.112612 -0.993639 0
    outer loop
      vertex 6.44 39.034 2.9
      vertex 6.44 39.034 0
      vertex 6.59 39.051 2.9
    endloop
  endfacet
  facet normal -0 -1 0
    outer loop
      vertex 6.59 39.051 0
      vertex 6.749 39.051 0
      vertex 6.749 39.051 2.9
    endloop
  endfacet
  facet normal 0 -1 0
    outer loop
      vertex 6.59 39.051 2.9
      vertex 6.59 39.051 0
      vertex 6.749 39.051 2.9
    endloop
  endfacet
  facet normal -0.12479 -0.992183 0
    outer loop
      vertex 6.749 39.051 0
      vertex 7.234 38.99 0
      vertex 7.234 38.99 2.9
    endloop
  endfacet
  facet normal -0.12479 -0.992183 0
    outer loop
      vertex 6.749 39.051 2.9
      vertex 6.749 39.051 0
      vertex 7.234 38.99 2.9
    endloop
  endfacet
  facet normal -0.264463 -0.964396 0
    outer loop
      vertex 7.234 38.99 0
      vertex 7.719 38.857 0
      vertex 7.719 38.857 2.9
    endloop
  endfacet
  facet normal -0.264463 -0.964396 0
    outer loop
      vertex 7.234 38.99 2.9
      vertex 7.234 38.99 0
      vertex 7.719 38.857 2.9
    endloop
  endfacet
  facet normal -0.358706 -0.933451 0
    outer loop
      vertex 7.719 38.857 0
      vertex 8.177 38.681 0
      vertex 8.177 38.681 2.9
    endloop
  endfacet
  facet normal -0.358706 -0.933451 0
    outer loop
      vertex 7.719 38.857 2.9
      vertex 7.719 38.857 0
      vertex 8.177 38.681 2.9
    endloop
  endfacet
  facet normal -0.425292 -0.905056 0
    outer loop
      vertex 8.177 38.681 0
      vertex 8.609 38.478 0
      vertex 8.609 38.478 2.9
    endloop
  endfacet
  facet normal -0.425292 -0.905056 0
    outer loop
      vertex 8.177 38.681 2.9
      vertex 8.177 38.681 0
      vertex 8.609 38.478 2.9
    endloop
  endfacet
  facet normal -0.505352 -0.862913 0
    outer loop
      vertex 8.609 38.478 0
      vertex 8.971 38.266 0
      vertex 8.971 38.266 2.9
    endloop
  endfacet
  facet normal -0.505352 -0.862913 0
    outer loop
      vertex 8.609 38.478 2.9
      vertex 8.609 38.478 0
      vertex 8.971 38.266 2.9
    endloop
  endfacet
  facet normal -0.517519 -0.855671 0
    outer loop
      vertex 8.971 38.266 0
      vertex 9.262 38.09 0
      vertex 9.262 38.09 2.9
    endloop
  endfacet
  facet normal -0.517519 -0.855671 0
    outer loop
      vertex 8.971 38.266 2.9
      vertex 8.971 38.266 0
      vertex 9.262 38.09 2.9
    endloop
  endfacet
  facet normal -0.553661 -0.832742 0
    outer loop
      vertex 9.262 38.09 0
      vertex 9.447 37.967 0
      vertex 9.447 37.967 2.9
    endloop
  endfacet
  facet normal -0.553661 -0.832742 0
    outer loop
      vertex 9.262 38.09 2.9
      vertex 9.262 38.09 0
      vertex 9.447 37.967 2.9
    endloop
  endfacet
  facet normal -0.535335 -0.84464 0
    outer loop
      vertex 9.447 37.967 0
      vertex 9.518 37.922 0
      vertex 9.518 37.922 2.9
    endloop
  endfacet
  facet normal -0.535335 -0.84464 0
    outer loop
      vertex 9.447 37.967 2.9
      vertex 9.447 37.967 0
      vertex 9.518 37.922 2.9
    endloop
  endfacet
  facet normal -0.679125 0.734022 0
    outer loop
      vertex 8.689 37.155 2.9
      vertex 9.518 37.922 2.9
      vertex 8.689 37.155 0
    endloop
  endfacet
  facet normal -0.679125 0.734022 0
    outer loop
      vertex 8.689 37.155 0
      vertex 9.518 37.922 2.9
      vertex 9.518 37.922 0
    endloop
  endfacet
  facet normal -0.998003 0.0631648 0
    outer loop
      vertex 8.574 35.338 2.9
      vertex 8.689 37.155 2.9
      vertex 8.574 35.338 0
    endloop
  endfacet
  facet normal -0.998003 0.0631648 0
    outer loop
      vertex 8.574 35.338 0
      vertex 8.689 37.155 2.9
      vertex 8.689 37.155 0
    endloop
  endfacet
  facet normal -0.987109 -0.16005 -0
    outer loop
      vertex 8.98 32.834 0
      vertex 8.98 32.834 2.9
      vertex 8.574 35.338 0
    endloop
  endfacet
  facet normal -0.987109 -0.16005 -0
    outer loop
      vertex 8.574 35.338 0
      vertex 8.98 32.834 2.9
      vertex 8.574 35.338 2.9
    endloop
  endfacet
  facet normal -0.967053 -0.254577 -0
    outer loop
      vertex 9.73 29.985 0
      vertex 9.73 29.985 2.9
      vertex 8.98 32.834 0
    endloop
  endfacet
  facet normal -0.967053 -0.254577 -0
    outer loop
      vertex 8.98 32.834 0
      vertex 9.73 29.985 2.9
      vertex 8.98 32.834 2.9
    endloop
  endfacet
  facet normal -0.952502 -0.304532 -0
    outer loop
      vertex 10.638 27.145 0
      vertex 10.638 27.145 2.9
      vertex 9.73 29.985 0
    endloop
  endfacet
  facet normal -0.952502 -0.304532 -0
    outer loop
      vertex 9.73 29.985 0
      vertex 10.638 27.145 2.9
      vertex 9.73 29.985 2.9
    endloop
  endfacet
  facet normal -0.942459 -0.334322 -0
    outer loop
      vertex 11.511 24.684 0
      vertex 11.511 24.684 2.9
      vertex 10.638 27.145 0
    endloop
  endfacet
  facet normal -0.942459 -0.334322 -0
    outer loop
      vertex 10.638 27.145 0
      vertex 11.511 24.684 2.9
      vertex 10.638 27.145 2.9
    endloop
  endfacet
  facet normal -0.934437 -0.35613 -0
    outer loop
      vertex 12.173 22.947 0
      vertex 12.173 22.947 2.9
      vertex 11.511 24.684 0
    endloop
  endfacet
  facet normal -0.934437 -0.35613 -0
    outer loop
      vertex 11.511 24.684 0
      vertex 12.173 22.947 2.9
      vertex 11.511 24.684 2.9
    endloop
  endfacet
  facet normal -0.92867 -0.370906 -0
    outer loop
      vertex 12.437 22.286 0
      vertex 12.437 22.286 2.9
      vertex 12.173 22.947 0
    endloop
  endfacet
  facet normal -0.92867 -0.370906 -0
    outer loop
      vertex 12.173 22.947 0
      vertex 12.437 22.286 2.9
      vertex 12.173 22.947 2.9
    endloop
  endfacet
  facet normal 0 1 -0
    outer loop
      vertex 10.25 22.286 2.9
      vertex 12.437 22.286 2.9
      vertex 10.25 22.286 0
    endloop
  endfacet
  facet normal 0 1 0
    outer loop
      vertex 10.25 22.286 0
      vertex 12.437 22.286 2.9
      vertex 12.437 22.286 0
    endloop
  endfacet
  facet normal 0.935145 0.354265 0
    outer loop
      vertex 10.003 22.938 0
      vertex 10.003 22.938 2.9
      vertex 10.25 22.286 2.9
    endloop
  endfacet
  facet normal 0.935145 0.354265 0
    outer loop
      vertex 10.25 22.286 0
      vertex 10.003 22.938 0
      vertex 10.25 22.286 2.9
    endloop
  endfacet
  facet normal 0.937697 0.347455 0
    outer loop
      vertex 9.359 24.676 0
      vertex 9.359 24.676 2.9
      vertex 10.003 22.938 2.9
    endloop
  endfacet
  facet normal 0.937697 0.347455 0
    outer loop
      vertex 10.003 22.938 0
      vertex 9.359 24.676 0
      vertex 10.003 22.938 2.9
    endloop
  endfacet
  facet normal 0.940625 0.339448 0
    outer loop
      vertex 8.468 27.145 0
      vertex 8.468 27.145 2.9
      vertex 9.359 24.676 2.9
    endloop
  endfacet
  facet normal 0.940625 0.339448 0
    outer loop
      vertex 9.359 24.676 0
      vertex 8.468 27.145 0
      vertex 9.359 24.676 2.9
    endloop
  endfacet
  facet normal 0.945503 0.325614 0
    outer loop
      vertex 7.481 30.011 0
      vertex 7.481 30.011 2.9
      vertex 8.468 27.145 2.9
    endloop
  endfacet
  facet normal 0.945503 0.325614 0
    outer loop
      vertex 8.468 27.145 0
      vertex 7.481 30.011 0
      vertex 8.468 27.145 2.9
    endloop
  endfacet
  facet normal 0.953455 0.301537 0
    outer loop
      vertex 6.555 32.939 0
      vertex 6.555 32.939 2.9
      vertex 7.481 30.011 2.9
    endloop
  endfacet
  facet normal 0.953455 0.301537 0
    outer loop
      vertex 7.481 30.011 0
      vertex 6.555 32.939 0
      vertex 7.481 30.011 2.9
    endloop
  endfacet
  facet normal 0.965376 0.260863 0
    outer loop
      vertex 5.84 35.585 0
      vertex 5.84 35.585 2.9
      vertex 6.555 32.939 2.9
    endloop
  endfacet
  facet normal 0.965376 0.260863 0
    outer loop
      vertex 6.555 32.939 0
      vertex 5.84 35.585 0
      vertex 6.555 32.939 2.9
    endloop
  endfacet
  facet normal 0 1 -0
    outer loop
      vertex 19.325 22.286 2.9
      vertex 21.512 22.286 2.9
      vertex 19.325 22.286 0
    endloop
  endfacet
  facet normal 0 1 0
    outer loop
      vertex 19.325 22.286 0
      vertex 21.512 22.286 2.9
      vertex 21.512 22.286 0
    endloop
  endfacet
  facet normal 0.928186 -0.372117 0
    outer loop
      vertex 19.325 22.286 0
      vertex 19.59 22.947 0
      vertex 19.59 22.947 2.9
    endloop
  endfacet
  facet normal 0.928186 -0.372117 0
    outer loop
      vertex 19.325 22.286 2.9
      vertex 19.325 22.286 0
      vertex 19.59 22.947 2.9
    endloop
  endfacet
  facet normal 0.934616 -0.35566 0
    outer loop
      vertex 19.59 22.947 0
      vertex 20.251 24.684 0
      vertex 20.251 24.684 2.9
    endloop
  endfacet
  facet normal 0.934616 -0.35566 0
    outer loop
      vertex 19.59 22.947 2.9
      vertex 19.59 22.947 0
      vertex 20.251 24.684 2.9
    endloop
  endfacet
  facet normal 0.942459 -0.334322 0
    outer loop
      vertex 20.251 24.684 0
      vertex 21.124 27.145 0
      vertex 21.124 27.145 2.9
    endloop
  endfacet
  facet normal 0.942459 -0.334322 0
    outer loop
      vertex 20.251 24.684 2.9
      vertex 20.251 24.684 0
      vertex 21.124 27.145 2.9
    endloop
  endfacet
  facet normal 0.953278 -0.302095 0
    outer loop
      vertex 21.124 27.145 0
      vertex 22.024 29.985 0
      vertex 22.024 29.985 2.9
    endloop
  endfacet
  facet normal 0.953278 -0.302095 0
    outer loop
      vertex 21.124 27.145 2.9
      vertex 21.124 27.145 0
      vertex 22.024 29.985 2.9
    endloop
  endfacet
  facet normal 0.967053 -0.254577 0
    outer loop
      vertex 22.024 29.985 0
      vertex 22.774 32.834 0
      vertex 22.774 32.834 2.9
    endloop
  endfacet
  facet normal 0.967053 -0.254577 0
    outer loop
      vertex 22.024 29.985 2.9
      vertex 22.024 29.985 0
      vertex 22.774 32.834 2.9
    endloop
  endfacet
  facet normal 0.987171 -0.159666 0
    outer loop
      vertex 22.774 32.834 0
      vertex 23.179 35.338 0
      vertex 23.179 35.338 2.9
    endloop
  endfacet
  facet normal 0.987171 -0.159666 0
    outer loop
      vertex 22.774 32.834 2.9
      vertex 22.774 32.834 0
      vertex 23.179 35.338 2.9
    endloop
  endfacet
  facet normal 0.998038 0.0626177 0
    outer loop
      vertex 23.065 37.155 0
      vertex 23.065 37.155 2.9
      vertex 23.179 35.338 2.9
    endloop
  endfacet
  facet normal 0.998038 0.0626177 0
    outer loop
      vertex 23.179 35.338 0
      vertex 23.065 37.155 0
      vertex 23.179 35.338 2.9
    endloop
  endfacet
  facet normal 0.679125 0.734022 -0
    outer loop
      vertex 22.236 37.922 2.9
      vertex 23.065 37.155 2.9
      vertex 22.236 37.922 0
    endloop
  endfacet
  facet normal 0.679125 0.734022 0
    outer loop
      vertex 22.236 37.922 0
      vertex 23.065 37.155 2.9
      vertex 23.065 37.155 0
    endloop
  endfacet
  facet normal 0.540758 -0.841178 0
    outer loop
      vertex 22.236 37.922 0
      vertex 22.306 37.967 0
      vertex 22.306 37.967 2.9
    endloop
  endfacet
  facet normal 0.540758 -0.841178 0
    outer loop
      vertex 22.236 37.922 2.9
      vertex 22.236 37.922 0
      vertex 22.306 37.967 2.9
    endloop
  endfacet
  facet normal 0.553661 -0.832742 0
    outer loop
      vertex 22.306 37.967 0
      vertex 22.491 38.09 0
      vertex 22.491 38.09 2.9
    endloop
  endfacet
  facet normal 0.553661 -0.832742 0
    outer loop
      vertex 22.306 37.967 2.9
      vertex 22.306 37.967 0
      vertex 22.491 38.09 2.9
    endloop
  endfacet
  facet normal 0.517519 -0.855671 0
    outer loop
      vertex 22.491 38.09 0
      vertex 22.782 38.266 0
      vertex 22.782 38.266 2.9
    endloop
  endfacet
  facet normal 0.517519 -0.855671 0
    outer loop
      vertex 22.491 38.09 2.9
      vertex 22.491 38.09 0
      vertex 22.782 38.266 2.9
    endloop
  endfacet
  facet normal 0.505352 -0.862913 0
    outer loop
      vertex 22.782 38.266 0
      vertex 23.144 38.478 0
      vertex 23.144 38.478 2.9
    endloop
  endfacet
  facet normal 0.505352 -0.862913 0
    outer loop
      vertex 22.782 38.266 2.9
      vertex 22.782 38.266 0
      vertex 23.144 38.478 2.9
    endloop
  endfacet
  facet normal 0.425292 -0.905056 0
    outer loop
      vertex 23.144 38.478 0
      vertex 23.576 38.681 0
      vertex 23.576 38.681 2.9
    endloop
  endfacet
  facet normal 0.425292 -0.905056 0
    outer loop
      vertex 23.144 38.478 2.9
      vertex 23.144 38.478 0
      vertex 23.576 38.681 2.9
    endloop
  endfacet
  facet normal 0.358025 -0.933712 0
    outer loop
      vertex 23.576 38.681 0
      vertex 24.035 38.857 0
      vertex 24.035 38.857 2.9
    endloop
  endfacet
  facet normal 0.358025 -0.933712 0
    outer loop
      vertex 23.576 38.681 2.9
      vertex 23.576 38.681 0
      vertex 24.035 38.857 2.9
    endloop
  endfacet
  facet normal 0.264463 -0.964396 0
    outer loop
      vertex 24.035 38.857 0
      vertex 24.52 38.99 0
      vertex 24.52 38.99 2.9
    endloop
  endfacet
  facet normal 0.264463 -0.964396 0
    outer loop
      vertex 24.035 38.857 2.9
      vertex 24.035 38.857 0
      vertex 24.52 38.99 2.9
    endloop
  endfacet
  facet normal 0.12479 -0.992183 0
    outer loop
      vertex 24.52 38.99 0
      vertex 25.005 39.051 0
      vertex 25.005 39.051 2.9
    endloop
  endfacet
  facet normal 0.12479 -0.992183 0
    outer loop
      vertex 24.52 38.99 2.9
      vertex 24.52 38.99 0
      vertex 25.005 39.051 2.9
    endloop
  endfacet
  facet normal -0 -1 0
    outer loop
      vertex 25.005 39.051 0
      vertex 25.164 39.051 0
      vertex 25.164 39.051 2.9
    endloop
  endfacet
  facet normal 0 -1 0
    outer loop
      vertex 25.005 39.051 2.9
      vertex 25.005 39.051 0
      vertex 25.164 39.051 2.9
    endloop
  endfacet
  facet normal -0.112612 -0.993639 0
    outer loop
      vertex 25.164 39.051 0
      vertex 25.314 39.034 0
      vertex 25.314 39.034 2.9
    endloop
  endfacet
  facet normal -0.112612 -0.993639 0
    outer loop
      vertex 25.164 39.051 2.9
      vertex 25.164 39.051 0
      vertex 25.314 39.034 2.9
    endloop
  endfacet
  facet normal -0.178304 -0.983975 0
    outer loop
      vertex 25.314 39.034 0
      vertex 25.463 39.007 0
      vertex 25.463 39.007 2.9
    endloop
  endfacet
  facet normal -0.178304 -0.983975 0
    outer loop
      vertex 25.314 39.034 2.9
      vertex 25.314 39.034 0
      vertex 25.463 39.007 2.9
    endloop
  endfacet
  facet normal -0.22723 -0.973841 0
    outer loop
      vertex 25.463 39.007 0
      vertex 25.613 38.972 0
      vertex 25.613 38.972 2.9
    endloop
  endfacet
  facet normal -0.22723 -0.973841 0
    outer loop
      vertex 25.463 39.007 2.9
      vertex 25.463 39.007 0
      vertex 25.613 38.972 2.9
    endloop
  endfacet
  facet normal -0.370186 -0.928958 0
    outer loop
      vertex 25.613 38.972 0
      vertex 25.746 38.919 0
      vertex 25.746 38.919 2.9
    endloop
  endfacet
  facet normal -0.370186 -0.928958 0
    outer loop
      vertex 25.613 38.972 2.9
      vertex 25.613 38.972 0
      vertex 25.746 38.919 2.9
    endloop
  endfacet
  facet normal -0.473702 -0.880685 0
    outer loop
      vertex 25.746 38.919 0
      vertex 25.878 38.848 0
      vertex 25.878 38.848 2.9
    endloop
  endfacet
  facet normal -0.473702 -0.880685 0
    outer loop
      vertex 25.746 38.919 2.9
      vertex 25.746 38.919 0
      vertex 25.878 38.848 2.9
    endloop
  endfacet
  facet normal -0.5547 -0.83205 0
    outer loop
      vertex 25.878 38.848 0
      vertex 26.01 38.76 0
      vertex 26.01 38.76 2.9
    endloop
  endfacet
  facet normal -0.5547 -0.83205 0
    outer loop
      vertex 25.878 38.848 2.9
      vertex 25.878 38.848 0
      vertex 26.01 38.76 2.9
    endloop
  endfacet
  facet normal -0.677749 -0.735294 0
    outer loop
      vertex 26.01 38.76 0
      vertex 26.125 38.654 0
      vertex 26.125 38.654 2.9
    endloop
  endfacet
  facet normal -0.677749 -0.735294 0
    outer loop
      vertex 26.01 38.76 2.9
      vertex 26.01 38.76 0
      vertex 26.125 38.654 2.9
    endloop
  endfacet
  facet normal -0.989931 -0.141553 -0
    outer loop
      vertex 26.275 37.605 0
      vertex 26.275 37.605 2.9
      vertex 26.125 38.654 0
    endloop
  endfacet
  facet normal -0.989931 -0.141553 -0
    outer loop
      vertex 26.125 38.654 0
      vertex 26.275 37.605 2.9
      vertex 26.125 38.654 2.9
    endloop
  endfacet
  facet normal -0.984319 0.176398 0
    outer loop
      vertex 25.913 35.585 2.9
      vertex 26.275 37.605 2.9
      vertex 25.913 35.585 0
    endloop
  endfacet
  facet normal -0.984319 0.176398 0
    outer loop
      vertex 25.913 35.585 0
      vertex 26.275 37.605 2.9
      vertex 26.275 37.605 0
    endloop
  endfacet
  facet normal -0.965468 0.260523 0
    outer loop
      vertex 25.199 32.939 2.9
      vertex 25.913 35.585 2.9
      vertex 25.199 32.939 0
    endloop
  endfacet
  facet normal -0.965468 0.260523 0
    outer loop
      vertex 25.199 32.939 0
      vertex 25.913 35.585 2.9
      vertex 25.913 35.585 0
    endloop
  endfacet
  facet normal -0.953455 0.301537 0
    outer loop
      vertex 24.273 30.011 2.9
      vertex 25.199 32.939 2.9
      vertex 24.273 30.011 0
    endloop
  endfacet
  facet normal -0.953455 0.301537 0
    outer loop
      vertex 24.273 30.011 0
      vertex 25.199 32.939 2.9
      vertex 25.199 32.939 0
    endloop
  endfacet
  facet normal -0.946313 0.323252 0
    outer loop
      vertex 23.294 27.145 2.9
      vertex 24.273 30.011 2.9
      vertex 23.294 27.145 0
    endloop
  endfacet
  facet normal -0.946313 0.323252 0
    outer loop
      vertex 23.294 27.145 0
      vertex 24.273 30.011 2.9
      vertex 24.273 30.011 0
    endloop
  endfacet
  facet normal -0.940625 0.339448 0
    outer loop
      vertex 22.403 24.676 2.9
      vertex 23.294 27.145 2.9
      vertex 22.403 24.676 0
    endloop
  endfacet
  facet normal -0.940625 0.339448 0
    outer loop
      vertex 22.403 24.676 0
      vertex 23.294 27.145 2.9
      vertex 23.294 27.145 0
    endloop
  endfacet
  facet normal -0.937697 0.347455 0
    outer loop
      vertex 21.759 22.938 2.9
      vertex 22.403 24.676 2.9
      vertex 21.759 22.938 0
    endloop
  endfacet
  facet normal -0.937697 0.347455 0
    outer loop
      vertex 21.759 22.938 0
      vertex 22.403 24.676 2.9
      vertex 22.403 24.676 0
    endloop
  endfacet
  facet normal -0.935145 0.354265 0
    outer loop
      vertex 21.512 22.286 2.9
      vertex 21.759 22.938 2.9
      vertex 21.512 22.286 0
    endloop
  endfacet
  facet normal -0.935145 0.354265 0
    outer loop
      vertex 21.512 22.286 0
      vertex 21.759 22.938 2.9
      vertex 21.759 22.938 0
    endloop
  endfacet
  facet normal 0.969509 0.245055 0
    outer loop
      vertex 10.867 20.054 0
      vertex 10.867 20.054 2.9
      vertex 14.757 4.664 2.9
    endloop
  endfacet
  facet normal 0.969509 0.245055 0
    outer loop
      vertex 14.757 4.664 0
      vertex 10.867 20.054 0
      vertex 14.757 4.664 2.9
    endloop
  endfacet
  facet normal -0 -1 0
    outer loop
      vertex 10.867 20.054 0
      vertex 21.063 20.054 0
      vertex 21.063 20.054 2.9
    endloop
  endfacet
  facet normal 0 -1 0
    outer loop
      vertex 10.867 20.054 2.9
      vertex 10.867 20.054 0
      vertex 21.063 20.054 2.9
    endloop
  endfacet
  facet normal -0.97892 0.204244 0
    outer loop
      vertex 17.852 4.664 2.9
      vertex 21.063 20.054 2.9
      vertex 17.852 4.664 0
    endloop
  endfacet
  facet normal -0.97892 0.204244 0
    outer loop
      vertex 17.852 4.664 0
      vertex 21.063 20.054 2.9
      vertex 21.063 20.054 0
    endloop
  endfacet
  facet normal 0 1 -0
    outer loop
      vertex 14.757 4.664 2.9
      vertex 17.852 4.664 2.9
      vertex 14.757 4.664 0
    endloop
  endfacet
  facet normal 0 1 0
    outer loop
      vertex 14.757 4.664 0
      vertex 17.852 4.664 2.9
      vertex 17.852 4.664 0
    endloop
  endfacet
endsolid OpenSCAD_Model
