solid OpenSCAD_Model
  facet normal -0.9971 0.0761088 0
    outer loop
      vertex 60.201 174.651 0
      vertex 60.201 174.651 2.95
      vertex 60.815 182.695 0
    endloop
  endfacet
  facet normal -0.9971 0.0761088 0
    outer loop
      vertex 60.815 182.695 0
      vertex 60.201 174.651 2.95
      vertex 60.815 182.695 2.95
    endloop
  endfacet
  facet normal -0.987583 -0.157098 -0
    outer loop
      vertex 60.201 174.651 0
      vertex 61.636 165.63 0
      vertex 60.201 174.651 2.95
    endloop
  endfacet
  facet normal -0.987583 -0.157098 0
    outer loop
      vertex 60.201 174.651 2.95
      vertex 61.636 165.63 0
      vertex 61.636 165.63 2.95
    endloop
  endfacet
  facet normal -0 0 -1
    outer loop
      vertex 60.201 174.651 0
      vertex 60.815 182.695 0
      vertex 61.636 165.63 0
    endloop
  endfacet
  facet normal 0 -0 -1
    outer loop
      vertex 61.636 165.63 0
      vertex 60.815 182.695 0
      vertex 63.26 189.747 0
    endloop
  endfacet
  facet normal 0 0 -1
    outer loop
      vertex 61.636 165.63 0
      vertex 63.26 189.747 0
      vertex 67.317 195.795 0
    endloop
  endfacet
  facet normal 0 -0 -1
    outer loop
      vertex 68.701 192.009 0
      vertex 67.317 195.795 0
      vertex 72.769 200.823 0
    endloop
  endfacet
  facet normal 0 -0 -1
    outer loop
      vertex 74.268 196.241 0
      vertex 72.769 200.823 0
      vertex 79.397 204.819 0
    endloop
  endfacet
  facet normal 0 -0 -1
    outer loop
      vertex 82.812 201.481 0
      vertex 79.397 204.819 0
      vertex 86.983 207.768 0
    endloop
  endfacet
  facet normal 0 0 -1
    outer loop
      vertex 86.481 201.481 0
      vertex 86.983 207.768 0
      vertex 95.309 209.657 0
    endloop
  endfacet
  facet normal 0 0 -1
    outer loop
      vertex 74.268 196.241 0
      vertex 79.397 204.819 0
      vertex 78.173 198.659 0
    endloop
  endfacet
  facet normal -0 0 -1
    outer loop
      vertex 93.634 194.711 0
      vertex 98.616 210.504 0
      vertex 97.761 189.619 0
    endloop
  endfacet
  facet normal 0 0 -1
    outer loop
      vertex 109.539 173.973 0
      vertex 102.584 179.096 0
      vertex 107.056 178.913 0
    endloop
  endfacet
  facet normal 0 0 -1
    outer loop
      vertex 100.459 189.487 0
      vertex 101.306 210.451 0
      vertex 104.896 209.437 0
    endloop
  endfacet
  facet normal 0 -0 -1
    outer loop
      vertex 105.725 204.154 0
      vertex 104.896 209.437 0
      vertex 113.408 206.063 0
    endloop
  endfacet
  facet normal 0 0 -1
    outer loop
      vertex 112.939 200.723 0
      vertex 113.408 206.063 0
      vertex 121.017 202.319 0
    endloop
  endfacet
  facet normal -0 0 -1
    outer loop
      vertex 118.363 198.183 0
      vertex 121.017 202.319 0
      vertex 127.508 198.015 0
    endloop
  endfacet
  facet normal -0 0 -1
    outer loop
      vertex 124.587 194.354 0
      vertex 127.508 198.015 0
      vertex 132.67 192.957 0
    endloop
  endfacet
  facet normal 0 0 -1
    outer loop
      vertex 131.087 186.596 0
      vertex 132.67 192.957 0
      vertex 136.292 186.953 0
    endloop
  endfacet
  facet normal 0 0 -1
    outer loop
      vertex 132.139 179.653 0
      vertex 136.292 186.953 0
      vertex 138.16 179.812 0
    endloop
  endfacet
  facet normal 0 0 -1
    outer loop
      vertex 72.731 174.873 0
      vertex 76.409 174.745 0
      vertex 78.64 171.275 0
    endloop
  endfacet
  facet normal 0 -0 -1
    outer loop
      vertex 84.578 178.781 0
      vertex 80.995 179.909 0
      vertex 85.872 186.771 0
    endloop
  endfacet
  facet normal 0 0 -1
    outer loop
      vertex 129.475 179.23 0
      vertex 136.292 186.953 0
      vertex 132.139 179.653 0
    endloop
  endfacet
  facet normal 0 -0 -1
    outer loop
      vertex 86.434 196.315 0
      vertex 82.444 194.907 0
      vertex 86.481 201.481 0
    endloop
  endfacet
  facet normal -0 0 -1
    outer loop
      vertex 78.64 171.275 0
      vertex 93.854 172.21 0
      vertex 83.678 168.541 0
    endloop
  endfacet
  facet normal 0 -0 -1
    outer loop
      vertex 113.981 167.825 0
      vertex 99.824 168.788 0
      vertex 118.61 170.613 0
    endloop
  endfacet
  facet normal 0 0 -1
    outer loop
      vertex 70.553 182.528 0
      vertex 68.533 164.008 0
      vertex 66.002 163.434 0
    endloop
  endfacet
  facet normal 0 0 -1
    outer loop
      vertex 70.553 182.528 0
      vertex 71.294 165.458 0
      vertex 68.533 164.008 0
    endloop
  endfacet
  facet normal -0 0 -1
    outer loop
      vertex 76.409 174.745 0
      vertex 83.738 174.873 0
      vertex 78.64 171.275 0
    endloop
  endfacet
  facet normal 0 0 -1
    outer loop
      vertex 72.731 174.873 0
      vertex 78.64 171.275 0
      vertex 76.347 169.092 0
    endloop
  endfacet
  facet normal 0 0 -1
    outer loop
      vertex 83.678 168.541 0
      vertex 113.981 167.825 0
      vertex 88.798 166.501 0
    endloop
  endfacet
  facet normal 0 0 -1
    outer loop
      vertex 72.731 174.873 0
      vertex 76.347 169.092 0
      vertex 71.294 165.458 0
    endloop
  endfacet
  facet normal -0 0 -1
    outer loop
      vertex 93.951 165.188 0
      vertex 109.155 165.919 0
      vertex 104.176 164.866 0
    endloop
  endfacet
  facet normal 0 0 -1
    outer loop
      vertex 70.553 182.528 0
      vertex 72.731 174.873 0
      vertex 71.294 165.458 0
    endloop
  endfacet
  facet normal 0 0 -1
    outer loop
      vertex 93.951 165.188 0
      vertex 104.176 164.866 0
      vertex 99.093 164.632 0
    endloop
  endfacet
  facet normal 0 0 -1
    outer loop
      vertex 86.481 201.481 0
      vertex 95.309 209.657 0
      vertex 96.963 210.08 0
    endloop
  endfacet
  facet normal -0 0 -1
    outer loop
      vertex 83.678 168.541 0
      vertex 99.824 168.788 0
      vertex 113.981 167.825 0
    endloop
  endfacet
  facet normal 0 0 -1
    outer loop
      vertex 88.798 166.501 0
      vertex 109.155 165.919 0
      vertex 93.951 165.188 0
    endloop
  endfacet
  facet normal 0 0 -1
    outer loop
      vertex 132.483 158.804 0
      vertex 126.128 162.292 0
      vertex 123.849 164.105 0
    endloop
  endfacet
  facet normal 0 0 -1
    outer loop
      vertex 112.939 200.723 0
      vertex 116.043 199.594 0
      vertex 112.986 195.556 0
    endloop
  endfacet
  facet normal 0 0 -1
    outer loop
      vertex 93.854 172.21 0
      vertex 87.768 173.056 0
      vertex 90.445 175.01 0
    endloop
  endfacet
  facet normal 0 0 -1
    outer loop
      vertex 112.986 195.556 0
      vertex 116.498 191.458 0
      vertex 113.548 186.012 0
    endloop
  endfacet
  facet normal 0 0 -1
    outer loop
      vertex 74.742 185.157 0
      vertex 70.553 182.528 0
      vertex 71.62 185.964 0
    endloop
  endfacet
  facet normal 0 -0 -1
    outer loop
      vertex 63.215 163.646 0
      vertex 61.636 165.63 0
      vertex 68.26 183.075 0
    endloop
  endfacet
  facet normal 0 0 -1
    outer loop
      vertex 68.498 186.771 0
      vertex 61.636 165.63 0
      vertex 67.768 188.483 0
    endloop
  endfacet
  facet normal 0 0 -1
    outer loop
      vertex 61.636 165.63 0
      vertex 67.317 195.795 0
      vertex 67.768 188.483 0
    endloop
  endfacet
  facet normal 0 0 -1
    outer loop
      vertex 71.62 185.964 0
      vertex 68.26 183.075 0
      vertex 68.498 186.771 0
    endloop
  endfacet
  facet normal 0 0 -1
    outer loop
      vertex 61.636 165.63 0
      vertex 68.498 186.771 0
      vertex 68.26 183.075 0
    endloop
  endfacet
  facet normal -0 0 -1
    outer loop
      vertex 68.26 183.075 0
      vertex 71.62 185.964 0
      vertex 70.553 182.528 0
    endloop
  endfacet
  facet normal -0 0 -1
    outer loop
      vertex 127.231 184.076 0
      vertex 130.357 184.883 0
      vertex 129.475 179.23 0
    endloop
  endfacet
  facet normal -0 0 -1
    outer loop
      vertex 124.104 183.269 0
      vertex 127.231 184.076 0
      vertex 129.475 179.23 0
    endloop
  endfacet
  facet normal -0 0 -1
    outer loop
      vertex 131.087 186.596 0
      vertex 136.292 186.953 0
      vertex 130.357 184.883 0
    endloop
  endfacet
  facet normal 0 0 -1
    outer loop
      vertex 86.481 201.481 0
      vertex 96.963 210.08 0
      vertex 93.695 204.912 0
    endloop
  endfacet
  facet normal 0 0 -1
    outer loop
      vertex 68.701 192.009 0
      vertex 72.769 200.823 0
      vertex 74.268 196.241 0
    endloop
  endfacet
  facet normal -0 0 -1
    outer loop
      vertex 82.812 201.481 0
      vertex 86.983 207.768 0
      vertex 82.444 194.907 0
    endloop
  endfacet
  facet normal 0 -0 -1
    outer loop
      vertex 80.492 200.07 0
      vertex 79.397 204.819 0
      vertex 82.812 201.481 0
    endloop
  endfacet
  facet normal 0 0 -1
    outer loop
      vertex 78.173 198.659 0
      vertex 79.397 204.819 0
      vertex 80.492 200.07 0
    endloop
  endfacet
  facet normal 0 0 -1
    outer loop
      vertex 93.854 172.21 0
      vertex 78.64 171.275 0
      vertex 87.768 173.056 0
    endloop
  endfacet
  facet normal 0 0 -1
    outer loop
      vertex 82.357 193.341 0
      vertex 85.872 186.771 0
      vertex 80.995 179.909 0
    endloop
  endfacet
  facet normal 0 -0 -1
    outer loop
      vertex 67.768 188.483 0
      vertex 67.317 195.795 0
      vertex 68.701 192.009 0
    endloop
  endfacet
  facet normal 0 0 -1
    outer loop
      vertex 84.578 178.781 0
      vertex 76.409 174.745 0
      vertex 80.995 179.909 0
    endloop
  endfacet
  facet normal 0 0 -1
    outer loop
      vertex 87.768 173.056 0
      vertex 78.64 171.275 0
      vertex 84.997 173.587 0
    endloop
  endfacet
  facet normal 0 -0 -1
    outer loop
      vertex 97.078 180.128 0
      vertex 92.363 179.671 0
      vertex 97.884 184.266 0
    endloop
  endfacet
  facet normal 0 -0 -1
    outer loop
      vertex 85.872 186.771 0
      vertex 82.357 193.341 0
      vertex 86.434 196.315 0
    endloop
  endfacet
  facet normal -0 0 -1
    outer loop
      vertex 93.695 204.912 0
      vertex 98.616 210.504 0
      vertex 93.634 194.711 0
    endloop
  endfacet
  facet normal -0 0 -1
    outer loop
      vertex 96.963 210.08 0
      vertex 98.616 210.504 0
      vertex 93.695 204.912 0
    endloop
  endfacet
  facet normal 0 0 -1
    outer loop
      vertex 82.444 194.907 0
      vertex 86.983 207.768 0
      vertex 86.481 201.481 0
    endloop
  endfacet
  facet normal 0 0 -1
    outer loop
      vertex 86.434 196.315 0
      vertex 82.357 193.341 0
      vertex 82.444 194.907 0
    endloop
  endfacet
  facet normal 0 0 -1
    outer loop
      vertex 116.498 191.458 0
      vertex 112.986 195.556 0
      vertex 116.043 199.594 0
    endloop
  endfacet
  facet normal 0 -0 -1
    outer loop
      vertex 83.738 174.873 0
      vertex 76.409 174.745 0
      vertex 84.578 178.781 0
    endloop
  endfacet
  facet normal -0 0 -1
    outer loop
      vertex 92.363 179.671 0
      vertex 97.078 180.128 0
      vertex 90.445 175.01 0
    endloop
  endfacet
  facet normal 0 0 -1
    outer loop
      vertex 132.483 158.804 0
      vertex 121.229 167.359 0
      vertex 118.61 170.613 0
    endloop
  endfacet
  facet normal 0 0 -1
    outer loop
      vertex 102.584 179.096 0
      vertex 109.539 173.973 0
      vertex 105.672 172.492 0
    endloop
  endfacet
  facet normal 0 0 -1
    outer loop
      vertex 84.997 173.587 0
      vertex 78.64 171.275 0
      vertex 83.738 174.873 0
    endloop
  endfacet
  facet normal 0 0 -1
    outer loop
      vertex 105.672 172.492 0
      vertex 112.78 171.742 0
      vertex 118.61 170.613 0
    endloop
  endfacet
  facet normal 0 0 -1
    outer loop
      vertex 132.483 158.804 0
      vertex 123.849 164.105 0
      vertex 121.229 167.359 0
    endloop
  endfacet
  facet normal 0 0 -1
    outer loop
      vertex 99.824 168.788 0
      vertex 83.678 168.541 0
      vertex 96.328 169.701 0
    endloop
  endfacet
  facet normal 0 -0 -1
    outer loop
      vertex 93.854 172.21 0
      vertex 90.445 175.01 0
      vertex 97.078 180.128 0
    endloop
  endfacet
  facet normal 0 0 -1
    outer loop
      vertex 97.761 189.619 0
      vertex 100.459 189.487 0
      vertex 97.884 184.266 0
    endloop
  endfacet
  facet normal 0 0 -1
    outer loop
      vertex 100.459 189.487 0
      vertex 104.896 209.437 0
      vertex 105.725 204.154 0
    endloop
  endfacet
  facet normal 0 0 -1
    outer loop
      vertex 105.786 193.952 0
      vertex 100.459 189.487 0
      vertex 105.725 204.154 0
    endloop
  endfacet
  facet normal 0 0 -1
    outer loop
      vertex 132.483 158.804 0
      vertex 130.446 159.642 0
      vertex 126.128 162.292 0
    endloop
  endfacet
  facet normal 0 0 -1
    outer loop
      vertex 93.634 194.711 0
      vertex 97.884 184.266 0
      vertex 92.363 179.671 0
    endloop
  endfacet
  facet normal 0 0 -1
    outer loop
      vertex 112.78 171.742 0
      vertex 105.672 172.492 0
      vertex 109.539 173.973 0
    endloop
  endfacet
  facet normal 0 0 -1
    outer loop
      vertex 132.483 158.804 0
      vertex 126.124 172.986 0
      vertex 125.114 178.128 0
    endloop
  endfacet
  facet normal 0 0 -1
    outer loop
      vertex 124.587 194.354 0
      vertex 132.67 192.957 0
      vertex 130.155 190.122 0
    endloop
  endfacet
  facet normal 0 0 -1
    outer loop
      vertex 132.483 158.804 0
      vertex 118.61 170.613 0
      vertex 126.124 172.986 0
    endloop
  endfacet
  facet normal 0 0 -1
    outer loop
      vertex 122.446 172.862 0
      vertex 116.246 174.115 0
      vertex 117.86 178.031 0
    endloop
  endfacet
  facet normal 0 0 -1
    outer loop
      vertex 93.634 194.711 0
      vertex 97.761 189.619 0
      vertex 97.884 184.266 0
    endloop
  endfacet
  facet normal 0 0 -1
    outer loop
      vertex 107.056 178.913 0
      vertex 102.584 179.096 0
      vertex 100.706 184.107 0
    endloop
  endfacet
  facet normal 0 0 -1
    outer loop
      vertex 117.86 178.031 0
      vertex 113.548 186.012 0
      vertex 116.498 191.458 0
    endloop
  endfacet
  facet normal 0 0 -1
    outer loop
      vertex 107.056 178.913 0
      vertex 100.706 184.107 0
      vertex 100.459 189.487 0
    endloop
  endfacet
  facet normal 0 -0 -1
    outer loop
      vertex 116.043 199.594 0
      vertex 112.939 200.723 0
      vertex 121.017 202.319 0
    endloop
  endfacet
  facet normal -0 0 -1
    outer loop
      vertex 116.043 199.594 0
      vertex 121.017 202.319 0
      vertex 118.363 198.183 0
    endloop
  endfacet
  facet normal 0 0 -1
    outer loop
      vertex 100.706 184.107 0
      vertex 97.884 184.266 0
      vertex 100.459 189.487 0
    endloop
  endfacet
  facet normal 0 0 -1
    outer loop
      vertex 107.056 178.913 0
      vertex 100.459 189.487 0
      vertex 105.786 193.952 0
    endloop
  endfacet
  facet normal -0 0 -1
    outer loop
      vertex 70.553 182.528 0
      vertex 74.742 185.157 0
      vertex 73.737 180.015 0
    endloop
  endfacet
  facet normal 0 0 -1
    outer loop
      vertex 70.553 182.528 0
      vertex 73.737 180.015 0
      vertex 72.731 174.873 0
    endloop
  endfacet
  facet normal 0 0 -1
    outer loop
      vertex 132.483 158.804 0
      vertex 125.114 178.128 0
      vertex 129.475 179.23 0
    endloop
  endfacet
  facet normal -0 0 -1
    outer loop
      vertex 112.78 171.742 0
      vertex 122.446 172.862 0
      vertex 118.61 170.613 0
    endloop
  endfacet
  facet normal 0 0 -1
    outer loop
      vertex 130.446 159.642 0
      vertex 128.408 160.48 0
      vertex 126.128 162.292 0
    endloop
  endfacet
  facet normal -0 0 -1
    outer loop
      vertex 130.155 190.122 0
      vertex 132.67 192.957 0
      vertex 131.087 186.596 0
    endloop
  endfacet
  facet normal -0 0 -1
    outer loop
      vertex 120.682 196.772 0
      vertex 127.508 198.015 0
      vertex 124.587 194.354 0
    endloop
  endfacet
  facet normal 0 0 -1
    outer loop
      vertex 118.363 198.183 0
      vertex 127.508 198.015 0
      vertex 120.682 196.772 0
    endloop
  endfacet
  facet normal -0 0 -1
    outer loop
      vertex 132.139 179.653 0
      vertex 138.16 179.812 0
      vertex 138.064 171.341 0
    endloop
  endfacet
  facet normal 0 0 -1
    outer loop
      vertex 132.139 179.653 0
      vertex 138.064 171.341 0
      vertex 137.271 164.175 0
    endloop
  endfacet
  facet normal 0 0 -1
    outer loop
      vertex 132.139 179.653 0
      vertex 137.271 164.175 0
      vertex 135.138 160.639 0
    endloop
  endfacet
  facet normal 0 0 -1
    outer loop
      vertex 105.672 172.492 0
      vertex 118.61 170.613 0
      vertex 103.376 169.758 0
    endloop
  endfacet
  facet normal -0 0 -1
    outer loop
      vertex 115.124 178.022 0
      vertex 117.86 178.031 0
      vertex 116.246 174.115 0
    endloop
  endfacet
  facet normal 0 -0 -1
    outer loop
      vertex 109.155 165.919 0
      vertex 88.798 166.501 0
      vertex 113.981 167.825 0
    endloop
  endfacet
  facet normal 0 0 -1
    outer loop
      vertex 96.328 169.701 0
      vertex 83.678 168.541 0
      vertex 93.854 172.21 0
    endloop
  endfacet
  facet normal 0 0 -1
    outer loop
      vertex 126.124 172.986 0
      vertex 118.61 170.613 0
      vertex 122.446 172.862 0
    endloop
  endfacet
  facet normal 0 0 -1
    outer loop
      vertex 122.446 172.862 0
      vertex 112.78 171.742 0
      vertex 115.269 172.551 0
    endloop
  endfacet
  facet normal 0 0 -1
    outer loop
      vertex 122.446 172.862 0
      vertex 115.269 172.551 0
      vertex 116.246 174.115 0
    endloop
  endfacet
  facet normal 0 0 -1
    outer loop
      vertex 124.104 183.269 0
      vertex 129.475 179.23 0
      vertex 125.114 178.128 0
    endloop
  endfacet
  facet normal -0 0 -1
    outer loop
      vertex 103.376 169.758 0
      vertex 118.61 170.613 0
      vertex 99.824 168.788 0
    endloop
  endfacet
  facet normal 0 0 -1
    outer loop
      vertex 117.86 178.031 0
      vertex 115.124 178.022 0
      vertex 113.548 186.012 0
    endloop
  endfacet
  facet normal -0 0 -1
    outer loop
      vertex 130.357 184.883 0
      vertex 136.292 186.953 0
      vertex 129.475 179.23 0
    endloop
  endfacet
  facet normal -0 0 -1
    outer loop
      vertex 105.725 204.154 0
      vertex 113.408 206.063 0
      vertex 112.939 200.723 0
    endloop
  endfacet
  facet normal -0.944823 0.32758 0
    outer loop
      vertex 60.815 182.695 0
      vertex 60.815 182.695 2.95
      vertex 63.26 189.747 0
    endloop
  endfacet
  facet normal -0.944823 0.32758 0
    outer loop
      vertex 63.26 189.747 0
      vertex 60.815 182.695 2.95
      vertex 63.26 189.747 2.95
    endloop
  endfacet
  facet normal 0 -0 1
    outer loop
      vertex 60.815 182.695 2.95
      vertex 60.201 174.651 2.95
      vertex 61.636 165.63 2.95
    endloop
  endfacet
  facet normal 0 0 1
    outer loop
      vertex 68.26 183.075 2.95
      vertex 60.815 182.695 2.95
      vertex 63.215 163.646 2.95
    endloop
  endfacet
  facet normal 0 0 1
    outer loop
      vertex 63.215 163.646 2.95
      vertex 60.815 182.695 2.95
      vertex 61.636 165.63 2.95
    endloop
  endfacet
  facet normal 0 0 1
    outer loop
      vertex 84.997 173.587 2.95
      vertex 93.951 165.188 2.95
      vertex 99.093 164.632 2.95
    endloop
  endfacet
  facet normal -0 0 1
    outer loop
      vertex 68.533 164.008 2.95
      vertex 70.553 182.528 2.95
      vertex 66.002 163.434 2.95
    endloop
  endfacet
  facet normal -0 0 1
    outer loop
      vertex 71.294 165.458 2.95
      vertex 70.553 182.528 2.95
      vertex 68.533 164.008 2.95
    endloop
  endfacet
  facet normal -0 0 1
    outer loop
      vertex 72.731 174.873 2.95
      vertex 70.553 182.528 2.95
      vertex 71.294 165.458 2.95
    endloop
  endfacet
  facet normal 0 0 1
    outer loop
      vertex 72.731 174.873 2.95
      vertex 73.737 180.015 2.95
      vertex 70.553 182.528 2.95
    endloop
  endfacet
  facet normal 0 0 1
    outer loop
      vertex 87.768 173.056 2.95
      vertex 99.093 164.632 2.95
      vertex 104.176 164.866 2.95
    endloop
  endfacet
  facet normal 0 -0 1
    outer loop
      vertex 76.409 174.745 2.95
      vertex 76.347 169.092 2.95
      vertex 78.64 171.275 2.95
    endloop
  endfacet
  facet normal -0 0 1
    outer loop
      vertex 76.409 174.745 2.95
      vertex 72.731 174.873 2.95
      vertex 76.347 169.092 2.95
    endloop
  endfacet
  facet normal 0 0 1
    outer loop
      vertex 83.738 174.873 2.95
      vertex 84.578 178.781 2.95
      vertex 80.995 179.909 2.95
    endloop
  endfacet
  facet normal 0 0 1
    outer loop
      vertex 93.634 194.711 2.95
      vertex 97.078 180.128 2.95
      vertex 97.884 184.266 2.95
    endloop
  endfacet
  facet normal 0 0 1
    outer loop
      vertex 93.854 172.21 2.95
      vertex 97.078 180.128 2.95
      vertex 92.363 179.671 2.95
    endloop
  endfacet
  facet normal 0 0 1
    outer loop
      vertex 100.706 184.107 2.95
      vertex 97.761 189.619 2.95
      vertex 97.884 184.266 2.95
    endloop
  endfacet
  facet normal 0 0 1
    outer loop
      vertex 107.056 178.913 2.95
      vertex 100.459 189.487 2.95
      vertex 97.761 189.619 2.95
    endloop
  endfacet
  facet normal -0 -0 1
    outer loop
      vertex 87.768 173.056 2.95
      vertex 84.997 173.587 2.95
      vertex 99.093 164.632 2.95
    endloop
  endfacet
  facet normal 0 0 1
    outer loop
      vertex 123.849 164.105 2.95
      vertex 118.61 170.613 2.95
      vertex 121.229 167.359 2.95
    endloop
  endfacet
  facet normal 0 0 1
    outer loop
      vertex 126.128 162.292 2.95
      vertex 118.61 170.613 2.95
      vertex 123.849 164.105 2.95
    endloop
  endfacet
  facet normal 0 0 1
    outer loop
      vertex 128.408 160.48 2.95
      vertex 118.61 170.613 2.95
      vertex 126.128 162.292 2.95
    endloop
  endfacet
  facet normal 0 0 1
    outer loop
      vertex 130.446 159.642 2.95
      vertex 118.61 170.613 2.95
      vertex 128.408 160.48 2.95
    endloop
  endfacet
  facet normal 0 0 1
    outer loop
      vertex 132.483 158.804 2.95
      vertex 118.61 170.613 2.95
      vertex 130.446 159.642 2.95
    endloop
  endfacet
  facet normal 0 -0 1
    outer loop
      vertex 126.124 172.986 2.95
      vertex 118.61 170.613 2.95
      vertex 132.483 158.804 2.95
    endloop
  endfacet
  facet normal 0 0 1
    outer loop
      vertex 84.578 178.781 2.95
      vertex 85.872 186.771 2.95
      vertex 80.995 179.909 2.95
    endloop
  endfacet
  facet normal 0 0 1
    outer loop
      vertex 109.539 173.973 2.95
      vertex 107.056 178.913 2.95
      vertex 102.584 179.096 2.95
    endloop
  endfacet
  facet normal -0 0 1
    outer loop
      vertex 137.271 164.175 2.95
      vertex 132.139 179.653 2.95
      vertex 135.138 160.639 2.95
    endloop
  endfacet
  facet normal -0 0 1
    outer loop
      vertex 138.064 171.341 2.95
      vertex 132.139 179.653 2.95
      vertex 137.271 164.175 2.95
    endloop
  endfacet
  facet normal 0 0 1
    outer loop
      vertex 138.16 179.812 2.95
      vertex 132.139 179.653 2.95
      vertex 138.064 171.341 2.95
    endloop
  endfacet
  facet normal -0 -0 1
    outer loop
      vertex 96.328 169.701 2.95
      vertex 87.768 173.056 2.95
      vertex 104.176 164.866 2.95
    endloop
  endfacet
  facet normal 0 0 1
    outer loop
      vertex 84.997 173.587 2.95
      vertex 88.798 166.501 2.95
      vertex 93.951 165.188 2.95
    endloop
  endfacet
  facet normal 0 -0 1
    outer loop
      vertex 83.738 174.873 2.95
      vertex 83.678 168.541 2.95
      vertex 88.798 166.501 2.95
    endloop
  endfacet
  facet normal 0 0 1
    outer loop
      vertex 97.761 189.619 2.95
      vertex 93.695 204.912 2.95
      vertex 93.634 194.711 2.95
    endloop
  endfacet
  facet normal -0 0 1
    outer loop
      vertex 86.434 196.315 2.95
      vertex 86.481 201.481 2.95
      vertex 82.444 194.907 2.95
    endloop
  endfacet
  facet normal -0 0 1
    outer loop
      vertex 71.62 185.964 2.95
      vertex 68.498 186.771 2.95
      vertex 60.815 182.695 2.95
    endloop
  endfacet
  facet normal 0 0 1
    outer loop
      vertex 112.939 200.723 2.95
      vertex 112.986 195.556 2.95
      vertex 116.043 199.594 2.95
    endloop
  endfacet
  facet normal 0 -0 1
    outer loop
      vertex 80.995 179.909 2.95
      vertex 76.409 174.745 2.95
      vertex 83.678 168.541 2.95
    endloop
  endfacet
  facet normal -0 0 1
    outer loop
      vertex 67.768 188.483 2.95
      vertex 68.701 192.009 2.95
      vertex 60.815 182.695 2.95
    endloop
  endfacet
  facet normal 0 0 1
    outer loop
      vertex 82.812 201.481 2.95
      vertex 96.963 210.08 2.95
      vertex 95.309 209.657 2.95
    endloop
  endfacet
  facet normal 0 0 1
    outer loop
      vertex 74.268 196.241 2.95
      vertex 78.173 198.659 2.95
      vertex 86.983 207.768 2.95
    endloop
  endfacet
  facet normal 0 -0 1
    outer loop
      vertex 72.769 200.823 2.95
      vertex 60.815 182.695 2.95
      vertex 79.397 204.819 2.95
    endloop
  endfacet
  facet normal 0 -0 1
    outer loop
      vertex 67.317 195.795 2.95
      vertex 60.815 182.695 2.95
      vertex 72.769 200.823 2.95
    endloop
  endfacet
  facet normal 0 -0 1
    outer loop
      vertex 63.26 189.747 2.95
      vertex 60.815 182.695 2.95
      vertex 67.317 195.795 2.95
    endloop
  endfacet
  facet normal 0 0 1
    outer loop
      vertex 124.104 183.269 2.95
      vertex 129.475 179.23 2.95
      vertex 132.139 179.653 2.95
    endloop
  endfacet
  facet normal 0 0 1
    outer loop
      vertex 82.812 201.481 2.95
      vertex 98.616 210.504 2.95
      vertex 96.963 210.08 2.95
    endloop
  endfacet
  facet normal 0 -0 1
    outer loop
      vertex 79.397 204.819 2.95
      vertex 68.701 192.009 2.95
      vertex 86.983 207.768 2.95
    endloop
  endfacet
  facet normal 0 0 1
    outer loop
      vertex 79.397 204.819 2.95
      vertex 60.815 182.695 2.95
      vertex 68.701 192.009 2.95
    endloop
  endfacet
  facet normal 0 0 1
    outer loop
      vertex 68.701 192.009 2.95
      vertex 74.268 196.241 2.95
      vertex 86.983 207.768 2.95
    endloop
  endfacet
  facet normal 0 -0 1
    outer loop
      vertex 86.983 207.768 2.95
      vertex 78.173 198.659 2.95
      vertex 95.309 209.657 2.95
    endloop
  endfacet
  facet normal 0 0 1
    outer loop
      vertex 78.173 198.659 2.95
      vertex 80.492 200.07 2.95
      vertex 95.309 209.657 2.95
    endloop
  endfacet
  facet normal 0 0 1
    outer loop
      vertex 80.492 200.07 2.95
      vertex 82.812 201.481 2.95
      vertex 95.309 209.657 2.95
    endloop
  endfacet
  facet normal 0 0 1
    outer loop
      vertex 102.584 179.096 2.95
      vertex 105.672 172.492 2.95
      vertex 109.539 173.973 2.95
    endloop
  endfacet
  facet normal 0 0 1
    outer loop
      vertex 83.678 168.541 2.95
      vertex 76.409 174.745 2.95
      vertex 78.64 171.275 2.95
    endloop
  endfacet
  facet normal 0 0 1
    outer loop
      vertex 73.737 180.015 2.95
      vertex 74.742 185.157 2.95
      vertex 70.553 182.528 2.95
    endloop
  endfacet
  facet normal -0 0 1
    outer loop
      vertex 76.347 169.092 2.95
      vertex 72.731 174.873 2.95
      vertex 71.294 165.458 2.95
    endloop
  endfacet
  facet normal 0 0 1
    outer loop
      vertex 107.056 178.913 2.95
      vertex 105.786 193.952 2.95
      vertex 100.459 189.487 2.95
    endloop
  endfacet
  facet normal -0 0 1
    outer loop
      vertex 68.498 186.771 2.95
      vertex 67.768 188.483 2.95
      vertex 60.815 182.695 2.95
    endloop
  endfacet
  facet normal 0 0 1
    outer loop
      vertex 90.445 175.01 2.95
      vertex 96.328 169.701 2.95
      vertex 93.854 172.21 2.95
    endloop
  endfacet
  facet normal 0 0 1
    outer loop
      vertex 85.872 186.771 2.95
      vertex 86.434 196.315 2.95
      vertex 82.357 193.341 2.95
    endloop
  endfacet
  facet normal 0 0 1
    outer loop
      vertex 124.104 183.269 2.95
      vertex 132.139 179.653 2.95
      vertex 138.16 179.812 2.95
    endloop
  endfacet
  facet normal 0 0 1
    outer loop
      vertex 80.995 179.909 2.95
      vertex 83.678 168.541 2.95
      vertex 83.738 174.873 2.95
    endloop
  endfacet
  facet normal 0 -0 1
    outer loop
      vertex 131.087 186.596 2.95
      vertex 130.357 184.883 2.95
      vertex 136.292 186.953 2.95
    endloop
  endfacet
  facet normal 0 -0 1
    outer loop
      vertex 82.444 194.907 2.95
      vertex 82.357 193.341 2.95
      vertex 86.434 196.315 2.95
    endloop
  endfacet
  facet normal 0 0 1
    outer loop
      vertex 82.812 201.481 2.95
      vertex 86.481 201.481 2.95
      vertex 98.616 210.504 2.95
    endloop
  endfacet
  facet normal 0 0 1
    outer loop
      vertex 116.043 199.594 2.95
      vertex 118.363 198.183 2.95
      vertex 121.017 202.319 2.95
    endloop
  endfacet
  facet normal 0 -0 1
    outer loop
      vertex 105.672 172.492 2.95
      vertex 103.376 169.758 2.95
      vertex 113.981 167.825 2.95
    endloop
  endfacet
  facet normal 0 0 1
    outer loop
      vertex 107.056 178.913 2.95
      vertex 97.761 189.619 2.95
      vertex 100.706 184.107 2.95
    endloop
  endfacet
  facet normal 0 0 1
    outer loop
      vertex 93.854 172.21 2.95
      vertex 92.363 179.671 2.95
      vertex 90.445 175.01 2.95
    endloop
  endfacet
  facet normal 0 -0 1
    outer loop
      vertex 93.634 194.711 2.95
      vertex 92.363 179.671 2.95
      vertex 97.078 180.128 2.95
    endloop
  endfacet
  facet normal -0 0 1
    outer loop
      vertex 109.155 165.919 2.95
      vertex 96.328 169.701 2.95
      vertex 104.176 164.866 2.95
    endloop
  endfacet
  facet normal 0 0 1
    outer loop
      vertex 107.056 178.913 2.95
      vertex 100.706 184.107 2.95
      vertex 102.584 179.096 2.95
    endloop
  endfacet
  facet normal 0 0 1
    outer loop
      vertex 116.498 191.458 2.95
      vertex 116.043 199.594 2.95
      vertex 112.986 195.556 2.95
    endloop
  endfacet
  facet normal -0 0 1
    outer loop
      vertex 118.61 170.613 2.95
      vertex 105.672 172.492 2.95
      vertex 113.981 167.825 2.95
    endloop
  endfacet
  facet normal 0 -0 1
    outer loop
      vertex 90.445 175.01 2.95
      vertex 87.768 173.056 2.95
      vertex 96.328 169.701 2.95
    endloop
  endfacet
  facet normal -0 0 1
    outer loop
      vertex 113.981 167.825 2.95
      vertex 103.376 169.758 2.95
      vertex 109.155 165.919 2.95
    endloop
  endfacet
  facet normal 0 0 1
    outer loop
      vertex 109.155 165.919 2.95
      vertex 99.824 168.788 2.95
      vertex 96.328 169.701 2.95
    endloop
  endfacet
  facet normal 0 -0 1
    outer loop
      vertex 115.269 172.551 2.95
      vertex 112.78 171.742 2.95
      vertex 118.61 170.613 2.95
    endloop
  endfacet
  facet normal -0 0 1
    outer loop
      vertex 93.695 204.912 2.95
      vertex 98.616 210.504 2.95
      vertex 86.481 201.481 2.95
    endloop
  endfacet
  facet normal 0 0 1
    outer loop
      vertex 104.896 209.437 2.95
      vertex 105.725 204.154 2.95
      vertex 113.408 206.063 2.95
    endloop
  endfacet
  facet normal 0 -0 1
    outer loop
      vertex 109.539 173.973 2.95
      vertex 105.672 172.492 2.95
      vertex 112.78 171.742 2.95
    endloop
  endfacet
  facet normal 0 -0 1
    outer loop
      vertex 113.408 206.063 2.95
      vertex 112.939 200.723 2.95
      vertex 121.017 202.319 2.95
    endloop
  endfacet
  facet normal 0 0 1
    outer loop
      vertex 112.986 195.556 2.95
      vertex 113.548 186.012 2.95
      vertex 116.498 191.458 2.95
    endloop
  endfacet
  facet normal 0 0 1
    outer loop
      vertex 125.114 178.128 2.95
      vertex 126.124 172.986 2.95
      vertex 129.475 179.23 2.95
    endloop
  endfacet
  facet normal 0 0 1
    outer loop
      vertex 83.738 174.873 2.95
      vertex 88.798 166.501 2.95
      vertex 84.997 173.587 2.95
    endloop
  endfacet
  facet normal 0 -0 1
    outer loop
      vertex 117.86 178.031 2.95
      vertex 115.124 178.022 2.95
      vertex 118.61 170.613 2.95
    endloop
  endfacet
  facet normal 0 0 1
    outer loop
      vertex 115.124 178.022 2.95
      vertex 116.246 174.115 2.95
      vertex 118.61 170.613 2.95
    endloop
  endfacet
  facet normal 0 -0 1
    outer loop
      vertex 116.246 174.115 2.95
      vertex 115.269 172.551 2.95
      vertex 118.61 170.613 2.95
    endloop
  endfacet
  facet normal 0 0 1
    outer loop
      vertex 118.61 170.613 2.95
      vertex 112.78 171.742 2.95
      vertex 105.672 172.492 2.95
    endloop
  endfacet
  facet normal 0 -0 1
    outer loop
      vertex 103.376 169.758 2.95
      vertex 99.824 168.788 2.95
      vertex 109.155 165.919 2.95
    endloop
  endfacet
  facet normal 0 0 1
    outer loop
      vertex 130.155 190.122 2.95
      vertex 131.087 186.596 2.95
      vertex 136.292 186.953 2.95
    endloop
  endfacet
  facet normal 0 0 1
    outer loop
      vertex 124.587 194.354 2.95
      vertex 130.155 190.122 2.95
      vertex 132.67 192.957 2.95
    endloop
  endfacet
  facet normal 0 0 1
    outer loop
      vertex 97.761 189.619 2.95
      vertex 98.616 210.504 2.95
      vertex 93.695 204.912 2.95
    endloop
  endfacet
  facet normal 0 -0 1
    outer loop
      vertex 121.017 202.319 2.95
      vertex 118.363 198.183 2.95
      vertex 127.508 198.015 2.95
    endloop
  endfacet
  facet normal 0 0 1
    outer loop
      vertex 120.682 196.772 2.95
      vertex 124.587 194.354 2.95
      vertex 127.508 198.015 2.95
    endloop
  endfacet
  facet normal 0 -0 1
    outer loop
      vertex 127.508 198.015 2.95
      vertex 124.587 194.354 2.95
      vertex 132.67 192.957 2.95
    endloop
  endfacet
  facet normal 0 -0 1
    outer loop
      vertex 132.67 192.957 2.95
      vertex 130.155 190.122 2.95
      vertex 136.292 186.953 2.95
    endloop
  endfacet
  facet normal 0 0 1
    outer loop
      vertex 118.363 198.183 2.95
      vertex 120.682 196.772 2.95
      vertex 127.508 198.015 2.95
    endloop
  endfacet
  facet normal 0 0 1
    outer loop
      vertex 124.104 183.269 2.95
      vertex 125.114 178.128 2.95
      vertex 129.475 179.23 2.95
    endloop
  endfacet
  facet normal 0 0 1
    outer loop
      vertex 93.634 194.711 2.95
      vertex 97.884 184.266 2.95
      vertex 97.761 189.619 2.95
    endloop
  endfacet
  facet normal 0 -0 1
    outer loop
      vertex 136.292 186.953 2.95
      vertex 130.357 184.883 2.95
      vertex 138.16 179.812 2.95
    endloop
  endfacet
  facet normal 0 -0 1
    outer loop
      vertex 130.357 184.883 2.95
      vertex 127.231 184.076 2.95
      vertex 138.16 179.812 2.95
    endloop
  endfacet
  facet normal -0 0 1
    outer loop
      vertex 117.86 178.031 2.95
      vertex 113.548 186.012 2.95
      vertex 115.124 178.022 2.95
    endloop
  endfacet
  facet normal 0 -0 1
    outer loop
      vertex 127.231 184.076 2.95
      vertex 124.104 183.269 2.95
      vertex 138.16 179.812 2.95
    endloop
  endfacet
  facet normal 0 0 1
    outer loop
      vertex 117.86 178.031 2.95
      vertex 116.498 191.458 2.95
      vertex 113.548 186.012 2.95
    endloop
  endfacet
  facet normal 0 -0 1
    outer loop
      vertex 129.475 179.23 2.95
      vertex 126.124 172.986 2.95
      vertex 132.483 158.804 2.95
    endloop
  endfacet
  facet normal 0 -0 1
    outer loop
      vertex 122.446 172.862 2.95
      vertex 118.61 170.613 2.95
      vertex 126.124 172.986 2.95
    endloop
  endfacet
  facet normal -0 0 1
    outer loop
      vertex 122.446 172.862 2.95
      vertex 117.86 178.031 2.95
      vertex 118.61 170.613 2.95
    endloop
  endfacet
  facet normal -0 0 1
    outer loop
      vertex 74.742 185.157 2.95
      vertex 71.62 185.964 2.95
      vertex 60.815 182.695 2.95
    endloop
  endfacet
  facet normal 0 -0 1
    outer loop
      vertex 82.812 201.481 2.95
      vertex 82.444 194.907 2.95
      vertex 86.481 201.481 2.95
    endloop
  endfacet
  facet normal -0 0 1
    outer loop
      vertex 68.26 183.075 2.95
      vertex 74.742 185.157 2.95
      vertex 60.815 182.695 2.95
    endloop
  endfacet
  facet normal 0 0 1
    outer loop
      vertex 70.553 182.528 2.95
      vertex 74.742 185.157 2.95
      vertex 68.26 183.075 2.95
    endloop
  endfacet
  facet normal 0 0 1
    outer loop
      vertex 101.306 210.451 2.95
      vertex 105.725 204.154 2.95
      vertex 104.896 209.437 2.95
    endloop
  endfacet
  facet normal 0 0 1
    outer loop
      vertex 105.725 204.154 2.95
      vertex 112.939 200.723 2.95
      vertex 113.408 206.063 2.95
    endloop
  endfacet
  facet normal 0 0 1
    outer loop
      vertex 112.939 200.723 2.95
      vertex 116.043 199.594 2.95
      vertex 121.017 202.319 2.95
    endloop
  endfacet
  facet normal 0 0 1
    outer loop
      vertex 101.306 210.451 2.95
      vertex 105.786 193.952 2.95
      vertex 105.725 204.154 2.95
    endloop
  endfacet
  facet normal 0 -0 1
    outer loop
      vertex 101.306 210.451 2.95
      vertex 100.459 189.487 2.95
      vertex 105.786 193.952 2.95
    endloop
  endfacet
  facet normal 0 -0 1
    outer loop
      vertex 82.357 193.341 2.95
      vertex 80.995 179.909 2.95
      vertex 85.872 186.771 2.95
    endloop
  endfacet
  facet normal -0.782444 -0.622721 -0
    outer loop
      vertex 61.636 165.63 0
      vertex 63.215 163.646 0
      vertex 61.636 165.63 2.95
    endloop
  endfacet
  facet normal -0.782444 -0.622721 0
    outer loop
      vertex 61.636 165.63 2.95
      vertex 63.215 163.646 0
      vertex 63.215 163.646 2.95
    endloop
  endfacet
  facet normal 0.967902 -0.251329 0
    outer loop
      vertex 63.215 163.646 2.95
      vertex 63.215 163.646 0
      vertex 68.26 183.075 0
    endloop
  endfacet
  facet normal 0.967902 -0.251329 0
    outer loop
      vertex 68.26 183.075 2.95
      vertex 63.215 163.646 2.95
      vertex 68.26 183.075 0
    endloop
  endfacet
  facet normal -0.232041 -0.972706 0
    outer loop
      vertex 68.26 183.075 2.95
      vertex 68.26 183.075 0
      vertex 70.553 182.528 0
    endloop
  endfacet
  facet normal -0.232041 -0.972706 0
    outer loop
      vertex 70.553 182.528 2.95
      vertex 68.26 183.075 2.95
      vertex 70.553 182.528 0
    endloop
  endfacet
  facet normal -0.972751 0.231852 0
    outer loop
      vertex 66.002 163.434 0
      vertex 66.002 163.434 2.95
      vertex 70.553 182.528 0
    endloop
  endfacet
  facet normal -0.972751 0.231852 0
    outer loop
      vertex 70.553 182.528 0
      vertex 66.002 163.434 2.95
      vertex 70.553 182.528 2.95
    endloop
  endfacet
  facet normal 0.221171 -0.975235 0
    outer loop
      vertex 66.002 163.434 2.95
      vertex 66.002 163.434 0
      vertex 68.533 164.008 0
    endloop
  endfacet
  facet normal 0.221171 -0.975235 0
    outer loop
      vertex 68.533 164.008 2.95
      vertex 66.002 163.434 2.95
      vertex 68.533 164.008 0
    endloop
  endfacet
  facet normal 0.464953 -0.885335 0
    outer loop
      vertex 68.533 164.008 2.95
      vertex 68.533 164.008 0
      vertex 71.294 165.458 0
    endloop
  endfacet
  facet normal 0.464953 -0.885335 0
    outer loop
      vertex 71.294 165.458 2.95
      vertex 68.533 164.008 2.95
      vertex 71.294 165.458 0
    endloop
  endfacet
  facet normal 0.583864 -0.811851 0
    outer loop
      vertex 71.294 165.458 2.95
      vertex 71.294 165.458 0
      vertex 76.347 169.092 0
    endloop
  endfacet
  facet normal 0.583864 -0.811851 0
    outer loop
      vertex 76.347 169.092 2.95
      vertex 71.294 165.458 2.95
      vertex 76.347 169.092 0
    endloop
  endfacet
  facet normal 0.689521 -0.724266 0
    outer loop
      vertex 76.347 169.092 2.95
      vertex 76.347 169.092 0
      vertex 78.64 171.275 0
    endloop
  endfacet
  facet normal 0.689521 -0.724266 0
    outer loop
      vertex 78.64 171.275 2.95
      vertex 76.347 169.092 2.95
      vertex 78.64 171.275 0
    endloop
  endfacet
  facet normal -0.476969 -0.87892 0
    outer loop
      vertex 78.64 171.275 2.95
      vertex 78.64 171.275 0
      vertex 83.678 168.541 0
    endloop
  endfacet
  facet normal -0.476969 -0.87892 0
    outer loop
      vertex 83.678 168.541 2.95
      vertex 78.64 171.275 2.95
      vertex 83.678 168.541 0
    endloop
  endfacet
  facet normal -0.370139 -0.928976 0
    outer loop
      vertex 83.678 168.541 2.95
      vertex 83.678 168.541 0
      vertex 88.798 166.501 0
    endloop
  endfacet
  facet normal -0.370139 -0.928976 0
    outer loop
      vertex 88.798 166.501 2.95
      vertex 83.678 168.541 2.95
      vertex 88.798 166.501 0
    endloop
  endfacet
  facet normal -0.246914 -0.969037 0
    outer loop
      vertex 88.798 166.501 2.95
      vertex 88.798 166.501 0
      vertex 93.951 165.188 0
    endloop
  endfacet
  facet normal -0.246914 -0.969037 0
    outer loop
      vertex 93.951 165.188 2.95
      vertex 88.798 166.501 2.95
      vertex 93.951 165.188 0
    endloop
  endfacet
  facet normal -0.107503 -0.994205 0
    outer loop
      vertex 93.951 165.188 2.95
      vertex 93.951 165.188 0
      vertex 99.093 164.632 0
    endloop
  endfacet
  facet normal -0.107503 -0.994205 0
    outer loop
      vertex 99.093 164.632 2.95
      vertex 93.951 165.188 2.95
      vertex 99.093 164.632 0
    endloop
  endfacet
  facet normal 0.0459871 -0.998942 0
    outer loop
      vertex 99.093 164.632 2.95
      vertex 99.093 164.632 0
      vertex 104.176 164.866 0
    endloop
  endfacet
  facet normal 0.0459871 -0.998942 0
    outer loop
      vertex 104.176 164.866 2.95
      vertex 99.093 164.632 2.95
      vertex 104.176 164.866 0
    endloop
  endfacet
  facet normal 0.206912 -0.97836 0
    outer loop
      vertex 104.176 164.866 2.95
      vertex 104.176 164.866 0
      vertex 109.155 165.919 0
    endloop
  endfacet
  facet normal 0.206912 -0.97836 0
    outer loop
      vertex 109.155 165.919 2.95
      vertex 104.176 164.866 2.95
      vertex 109.155 165.919 0
    endloop
  endfacet
  facet normal 0.367333 -0.930089 0
    outer loop
      vertex 109.155 165.919 2.95
      vertex 109.155 165.919 0
      vertex 113.981 167.825 0
    endloop
  endfacet
  facet normal 0.367333 -0.930089 0
    outer loop
      vertex 113.981 167.825 2.95
      vertex 109.155 165.919 2.95
      vertex 113.981 167.825 0
    endloop
  endfacet
  facet normal 0.515937 -0.856626 0
    outer loop
      vertex 113.981 167.825 2.95
      vertex 113.981 167.825 0
      vertex 118.61 170.613 0
    endloop
  endfacet
  facet normal 0.515937 -0.856626 0
    outer loop
      vertex 118.61 170.613 2.95
      vertex 113.981 167.825 2.95
      vertex 118.61 170.613 0
    endloop
  endfacet
  facet normal -0.77902 -0.626999 -0
    outer loop
      vertex 118.61 170.613 0
      vertex 121.229 167.359 0
      vertex 118.61 170.613 2.95
    endloop
  endfacet
  facet normal -0.77902 -0.626999 0
    outer loop
      vertex 118.61 170.613 2.95
      vertex 121.229 167.359 0
      vertex 121.229 167.359 2.95
    endloop
  endfacet
  facet normal -0.778903 -0.627144 -0
    outer loop
      vertex 121.229 167.359 0
      vertex 123.849 164.105 0
      vertex 121.229 167.359 2.95
    endloop
  endfacet
  facet normal -0.778903 -0.627144 0
    outer loop
      vertex 121.229 167.359 2.95
      vertex 123.849 164.105 0
      vertex 123.849 164.105 2.95
    endloop
  endfacet
  facet normal -0.622557 -0.782574 0
    outer loop
      vertex 123.849 164.105 2.95
      vertex 123.849 164.105 0
      vertex 126.128 162.292 0
    endloop
  endfacet
  facet normal -0.622557 -0.782574 0
    outer loop
      vertex 126.128 162.292 2.95
      vertex 123.849 164.105 2.95
      vertex 126.128 162.292 0
    endloop
  endfacet
  facet normal -0.622179 -0.782875 0
    outer loop
      vertex 126.128 162.292 2.95
      vertex 126.128 162.292 0
      vertex 128.408 160.48 0
    endloop
  endfacet
  facet normal -0.622179 -0.782875 0
    outer loop
      vertex 128.408 160.48 2.95
      vertex 126.128 162.292 2.95
      vertex 128.408 160.48 0
    endloop
  endfacet
  facet normal -0.380293 -0.924866 0
    outer loop
      vertex 128.408 160.48 2.95
      vertex 128.408 160.48 0
      vertex 130.446 159.642 0
    endloop
  endfacet
  facet normal -0.380293 -0.924866 0
    outer loop
      vertex 130.446 159.642 2.95
      vertex 128.408 160.48 2.95
      vertex 130.446 159.642 0
    endloop
  endfacet
  facet normal -0.380453 -0.9248 0
    outer loop
      vertex 130.446 159.642 2.95
      vertex 130.446 159.642 0
      vertex 132.483 158.804 0
    endloop
  endfacet
  facet normal -0.380453 -0.9248 0
    outer loop
      vertex 132.483 158.804 2.95
      vertex 130.446 159.642 2.95
      vertex 132.483 158.804 0
    endloop
  endfacet
  facet normal 0.98933 0.145692 0
    outer loop
      vertex 132.483 158.804 0
      vertex 129.475 179.23 0
      vertex 129.475 179.23 2.95
    endloop
  endfacet
  facet normal 0.98933 0.145692 -0
    outer loop
      vertex 132.483 158.804 2.95
      vertex 132.483 158.804 0
      vertex 129.475 179.23 2.95
    endloop
  endfacet
  facet normal 0.156819 -0.987627 0
    outer loop
      vertex 129.475 179.23 2.95
      vertex 129.475 179.23 0
      vertex 132.139 179.653 0
    endloop
  endfacet
  facet normal 0.156819 -0.987627 0
    outer loop
      vertex 132.139 179.653 2.95
      vertex 129.475 179.23 2.95
      vertex 132.139 179.653 0
    endloop
  endfacet
  facet normal -0.987789 -0.1558 -0
    outer loop
      vertex 132.139 179.653 0
      vertex 135.138 160.639 0
      vertex 132.139 179.653 2.95
    endloop
  endfacet
  facet normal -0.987789 -0.1558 0
    outer loop
      vertex 132.139 179.653 2.95
      vertex 135.138 160.639 0
      vertex 135.138 160.639 2.95
    endloop
  endfacet
  facet normal 0.856273 -0.516524 0
    outer loop
      vertex 135.138 160.639 2.95
      vertex 135.138 160.639 0
      vertex 137.271 164.175 0
    endloop
  endfacet
  facet normal 0.856273 -0.516524 0
    outer loop
      vertex 137.271 164.175 2.95
      vertex 135.138 160.639 2.95
      vertex 137.271 164.175 0
    endloop
  endfacet
  facet normal 0.993933 -0.10999 0
    outer loop
      vertex 137.271 164.175 2.95
      vertex 137.271 164.175 0
      vertex 138.064 171.341 0
    endloop
  endfacet
  facet normal 0.993933 -0.10999 0
    outer loop
      vertex 138.064 171.341 2.95
      vertex 137.271 164.175 2.95
      vertex 138.064 171.341 0
    endloop
  endfacet
  facet normal 0.999936 -0.0113321 0
    outer loop
      vertex 138.064 171.341 2.95
      vertex 138.064 171.341 0
      vertex 138.16 179.812 0
    endloop
  endfacet
  facet normal 0.999936 -0.0113321 0
    outer loop
      vertex 138.16 179.812 2.95
      vertex 138.064 171.341 2.95
      vertex 138.16 179.812 0
    endloop
  endfacet
  facet normal 0.967447 0.253073 0
    outer loop
      vertex 138.16 179.812 0
      vertex 136.292 186.953 0
      vertex 136.292 186.953 2.95
    endloop
  endfacet
  facet normal 0.967447 0.253073 -0
    outer loop
      vertex 138.16 179.812 2.95
      vertex 138.16 179.812 0
      vertex 136.292 186.953 2.95
    endloop
  endfacet
  facet normal 0.856257 0.51655 0
    outer loop
      vertex 136.292 186.953 0
      vertex 132.67 192.957 0
      vertex 132.67 192.957 2.95
    endloop
  endfacet
  facet normal 0.856257 0.51655 -0
    outer loop
      vertex 136.292 186.953 2.95
      vertex 136.292 186.953 0
      vertex 132.67 192.957 2.95
    endloop
  endfacet
  facet normal 0.699875 0.714265 0
    outer loop
      vertex 127.508 198.015 0
      vertex 127.508 198.015 2.95
      vertex 132.67 192.957 0
    endloop
  endfacet
  facet normal 0.699875 0.714265 0
    outer loop
      vertex 132.67 192.957 0
      vertex 127.508 198.015 2.95
      vertex 132.67 192.957 2.95
    endloop
  endfacet
  facet normal 0.552624 0.83343 0
    outer loop
      vertex 121.017 202.319 0
      vertex 121.017 202.319 2.95
      vertex 127.508 198.015 0
    endloop
  endfacet
  facet normal 0.552624 0.83343 0
    outer loop
      vertex 127.508 198.015 0
      vertex 121.017 202.319 2.95
      vertex 127.508 198.015 2.95
    endloop
  endfacet
  facet normal 0.441497 0.897263 0
    outer loop
      vertex 113.408 206.063 0
      vertex 113.408 206.063 2.95
      vertex 121.017 202.319 0
    endloop
  endfacet
  facet normal 0.441497 0.897263 0
    outer loop
      vertex 121.017 202.319 0
      vertex 113.408 206.063 2.95
      vertex 121.017 202.319 2.95
    endloop
  endfacet
  facet normal 0.368489 0.929632 0
    outer loop
      vertex 104.896 209.437 0
      vertex 104.896 209.437 2.95
      vertex 113.408 206.063 0
    endloop
  endfacet
  facet normal 0.368489 0.929632 0
    outer loop
      vertex 113.408 206.063 0
      vertex 104.896 209.437 2.95
      vertex 113.408 206.063 2.95
    endloop
  endfacet
  facet normal 0.271817 0.962349 0
    outer loop
      vertex 101.306 210.451 0
      vertex 101.306 210.451 2.95
      vertex 104.896 209.437 0
    endloop
  endfacet
  facet normal 0.271817 0.962349 0
    outer loop
      vertex 104.896 209.437 0
      vertex 101.306 210.451 2.95
      vertex 104.896 209.437 2.95
    endloop
  endfacet
  facet normal -0.999185 0.0403697 0
    outer loop
      vertex 100.459 189.487 0
      vertex 100.459 189.487 2.95
      vertex 101.306 210.451 0
    endloop
  endfacet
  facet normal -0.999185 0.0403697 0
    outer loop
      vertex 101.306 210.451 0
      vertex 100.459 189.487 2.95
      vertex 101.306 210.451 2.95
    endloop
  endfacet
  facet normal 0.0488667 0.998805 0
    outer loop
      vertex 97.761 189.619 0
      vertex 97.761 189.619 2.95
      vertex 100.459 189.487 0
    endloop
  endfacet
  facet normal 0.0488667 0.998805 0
    outer loop
      vertex 100.459 189.487 0
      vertex 97.761 189.619 2.95
      vertex 100.459 189.487 2.95
    endloop
  endfacet
  facet normal 0.999163 -0.0409042 0
    outer loop
      vertex 97.761 189.619 2.95
      vertex 97.761 189.619 0
      vertex 98.616 210.504 0
    endloop
  endfacet
  facet normal 0.999163 -0.0409042 0
    outer loop
      vertex 98.616 210.504 2.95
      vertex 97.761 189.619 2.95
      vertex 98.616 210.504 0
    endloop
  endfacet
  facet normal -0.24846 0.968642 0
    outer loop
      vertex 96.963 210.08 0
      vertex 96.963 210.08 2.95
      vertex 98.616 210.504 0
    endloop
  endfacet
  facet normal -0.24846 0.968642 0
    outer loop
      vertex 98.616 210.504 0
      vertex 96.963 210.08 2.95
      vertex 98.616 210.504 2.95
    endloop
  endfacet
  facet normal -0.247769 0.968819 0
    outer loop
      vertex 95.309 209.657 0
      vertex 95.309 209.657 2.95
      vertex 96.963 210.08 0
    endloop
  endfacet
  facet normal -0.247769 0.968819 0
    outer loop
      vertex 96.963 210.08 0
      vertex 95.309 209.657 2.95
      vertex 96.963 210.08 2.95
    endloop
  endfacet
  facet normal -0.221257 0.975216 0
    outer loop
      vertex 86.983 207.768 0
      vertex 86.983 207.768 2.95
      vertex 95.309 209.657 0
    endloop
  endfacet
  facet normal -0.221257 0.975216 0
    outer loop
      vertex 95.309 209.657 0
      vertex 86.983 207.768 2.95
      vertex 95.309 209.657 2.95
    endloop
  endfacet
  facet normal -0.362328 0.932051 0
    outer loop
      vertex 79.397 204.819 0
      vertex 79.397 204.819 2.95
      vertex 86.983 207.768 0
    endloop
  endfacet
  facet normal -0.362328 0.932051 0
    outer loop
      vertex 86.983 207.768 0
      vertex 79.397 204.819 2.95
      vertex 86.983 207.768 2.95
    endloop
  endfacet
  facet normal -0.516319 0.856397 0
    outer loop
      vertex 72.769 200.823 0
      vertex 72.769 200.823 2.95
      vertex 79.397 204.819 0
    endloop
  endfacet
  facet normal -0.516319 0.856397 0
    outer loop
      vertex 79.397 204.819 0
      vertex 72.769 200.823 2.95
      vertex 79.397 204.819 2.95
    endloop
  endfacet
  facet normal -0.677944 0.735114 0
    outer loop
      vertex 67.317 195.795 0
      vertex 67.317 195.795 2.95
      vertex 72.769 200.823 0
    endloop
  endfacet
  facet normal -0.677944 0.735114 0
    outer loop
      vertex 72.769 200.823 0
      vertex 67.317 195.795 2.95
      vertex 72.769 200.823 2.95
    endloop
  endfacet
  facet normal -0.830463 0.557074 0
    outer loop
      vertex 63.26 189.747 0
      vertex 63.26 189.747 2.95
      vertex 67.317 195.795 0
    endloop
  endfacet
  facet normal -0.830463 0.557074 0
    outer loop
      vertex 67.317 195.795 0
      vertex 63.26 189.747 2.95
      vertex 67.317 195.795 2.95
    endloop
  endfacet
  facet normal 0.919866 0.392233 0
    outer loop
      vertex 68.498 186.771 0
      vertex 67.768 188.483 0
      vertex 67.768 188.483 2.95
    endloop
  endfacet
  facet normal 0.919866 0.392233 -0
    outer loop
      vertex 68.498 186.771 2.95
      vertex 68.498 186.771 0
      vertex 67.768 188.483 2.95
    endloop
  endfacet
  facet normal 0.966729 -0.255802 0
    outer loop
      vertex 67.768 188.483 2.95
      vertex 67.768 188.483 0
      vertex 68.701 192.009 0
    endloop
  endfacet
  facet normal 0.966729 -0.255802 0
    outer loop
      vertex 68.701 192.009 2.95
      vertex 67.768 188.483 2.95
      vertex 68.701 192.009 0
    endloop
  endfacet
  facet normal 0.605181 -0.796088 0
    outer loop
      vertex 68.701 192.009 2.95
      vertex 68.701 192.009 0
      vertex 74.268 196.241 0
    endloop
  endfacet
  facet normal 0.605181 -0.796088 0
    outer loop
      vertex 74.268 196.241 2.95
      vertex 68.701 192.009 2.95
      vertex 74.268 196.241 0
    endloop
  endfacet
  facet normal 0.526452 -0.850205 0
    outer loop
      vertex 74.268 196.241 2.95
      vertex 74.268 196.241 0
      vertex 78.173 198.659 0
    endloop
  endfacet
  facet normal 0.526452 -0.850205 0
    outer loop
      vertex 78.173 198.659 2.95
      vertex 74.268 196.241 2.95
      vertex 78.173 198.659 0
    endloop
  endfacet
  facet normal 0.519795 -0.854291 0
    outer loop
      vertex 78.173 198.659 2.95
      vertex 78.173 198.659 0
      vertex 80.492 200.07 0
    endloop
  endfacet
  facet normal 0.519795 -0.854291 0
    outer loop
      vertex 80.492 200.07 2.95
      vertex 78.173 198.659 2.95
      vertex 80.492 200.07 0
    endloop
  endfacet
  facet normal 0.519631 -0.854391 0
    outer loop
      vertex 80.492 200.07 2.95
      vertex 80.492 200.07 0
      vertex 82.812 201.481 0
    endloop
  endfacet
  facet normal 0.519631 -0.854391 0
    outer loop
      vertex 82.812 201.481 2.95
      vertex 80.492 200.07 2.95
      vertex 82.812 201.481 0
    endloop
  endfacet
  facet normal -0.998437 0.0558906 0
    outer loop
      vertex 82.444 194.907 0
      vertex 82.444 194.907 2.95
      vertex 82.812 201.481 0
    endloop
  endfacet
  facet normal -0.998437 0.0558906 0
    outer loop
      vertex 82.812 201.481 0
      vertex 82.444 194.907 2.95
      vertex 82.812 201.481 2.95
    endloop
  endfacet
  facet normal -0.99846 0.05547 0
    outer loop
      vertex 82.357 193.341 0
      vertex 82.357 193.341 2.95
      vertex 82.444 194.907 0
    endloop
  endfacet
  facet normal -0.99846 0.05547 0
    outer loop
      vertex 82.444 194.907 0
      vertex 82.357 193.341 2.95
      vertex 82.444 194.907 2.95
    endloop
  endfacet
  facet normal -0.994898 0.100882 0
    outer loop
      vertex 80.995 179.909 0
      vertex 80.995 179.909 2.95
      vertex 82.357 193.341 0
    endloop
  endfacet
  facet normal -0.994898 0.100882 0
    outer loop
      vertex 82.357 193.341 0
      vertex 80.995 179.909 2.95
      vertex 82.357 193.341 2.95
    endloop
  endfacet
  facet normal -0.747713 0.664022 0
    outer loop
      vertex 76.409 174.745 0
      vertex 76.409 174.745 2.95
      vertex 80.995 179.909 0
    endloop
  endfacet
  facet normal -0.747713 0.664022 0
    outer loop
      vertex 80.995 179.909 0
      vertex 76.409 174.745 2.95
      vertex 80.995 179.909 2.95
    endloop
  endfacet
  facet normal 0.0347805 0.999395 0
    outer loop
      vertex 72.731 174.873 0
      vertex 72.731 174.873 2.95
      vertex 76.409 174.745 0
    endloop
  endfacet
  facet normal 0.0347805 0.999395 0
    outer loop
      vertex 76.409 174.745 0
      vertex 72.731 174.873 2.95
      vertex 76.409 174.745 2.95
    endloop
  endfacet
  facet normal 0.981394 -0.192004 0
    outer loop
      vertex 72.731 174.873 2.95
      vertex 72.731 174.873 0
      vertex 73.737 180.015 0
    endloop
  endfacet
  facet normal 0.981394 -0.192004 0
    outer loop
      vertex 73.737 180.015 2.95
      vertex 72.731 174.873 2.95
      vertex 73.737 180.015 0
    endloop
  endfacet
  facet normal 0.98143 -0.19182 0
    outer loop
      vertex 73.737 180.015 2.95
      vertex 73.737 180.015 0
      vertex 74.742 185.157 0
    endloop
  endfacet
  facet normal 0.98143 -0.19182 0
    outer loop
      vertex 74.742 185.157 2.95
      vertex 73.737 180.015 2.95
      vertex 74.742 185.157 0
    endloop
  endfacet
  facet normal 0.250263 0.968178 0
    outer loop
      vertex 71.62 185.964 0
      vertex 71.62 185.964 2.95
      vertex 74.742 185.157 0
    endloop
  endfacet
  facet normal 0.250263 0.968178 0
    outer loop
      vertex 74.742 185.157 0
      vertex 71.62 185.964 2.95
      vertex 74.742 185.157 2.95
    endloop
  endfacet
  facet normal 0.250263 0.968178 0
    outer loop
      vertex 68.498 186.771 0
      vertex 68.498 186.771 2.95
      vertex 71.62 185.964 0
    endloop
  endfacet
  facet normal 0.250263 0.968178 0
    outer loop
      vertex 71.62 185.964 0
      vertex 68.498 186.771 2.95
      vertex 71.62 185.964 2.95
    endloop
  endfacet
  facet normal 0.97767 -0.210144 0
    outer loop
      vertex 83.738 174.873 2.95
      vertex 83.738 174.873 0
      vertex 84.578 178.781 0
    endloop
  endfacet
  facet normal 0.97767 -0.210144 0
    outer loop
      vertex 84.578 178.781 2.95
      vertex 83.738 174.873 2.95
      vertex 84.578 178.781 0
    endloop
  endfacet
  facet normal 0.987138 -0.159869 0
    outer loop
      vertex 84.578 178.781 2.95
      vertex 84.578 178.781 0
      vertex 85.872 186.771 0
    endloop
  endfacet
  facet normal 0.987138 -0.159869 0
    outer loop
      vertex 85.872 186.771 2.95
      vertex 84.578 178.781 2.95
      vertex 85.872 186.771 0
    endloop
  endfacet
  facet normal 0.998271 -0.0587833 0
    outer loop
      vertex 85.872 186.771 2.95
      vertex 85.872 186.771 0
      vertex 86.434 196.315 0
    endloop
  endfacet
  facet normal 0.998271 -0.0587833 0
    outer loop
      vertex 86.434 196.315 2.95
      vertex 85.872 186.771 2.95
      vertex 86.434 196.315 0
    endloop
  endfacet
  facet normal 0.999959 -0.00909757 0
    outer loop
      vertex 86.434 196.315 2.95
      vertex 86.434 196.315 0
      vertex 86.481 201.481 0
    endloop
  endfacet
  facet normal 0.999959 -0.00909757 0
    outer loop
      vertex 86.481 201.481 2.95
      vertex 86.434 196.315 2.95
      vertex 86.481 201.481 0
    endloop
  endfacet
  facet normal 0.429501 -0.903066 0
    outer loop
      vertex 86.481 201.481 2.95
      vertex 86.481 201.481 0
      vertex 93.695 204.912 0
    endloop
  endfacet
  facet normal 0.429501 -0.903066 0
    outer loop
      vertex 93.695 204.912 2.95
      vertex 86.481 201.481 2.95
      vertex 93.695 204.912 0
    endloop
  endfacet
  facet normal -0.999982 0.0059797 0
    outer loop
      vertex 93.634 194.711 0
      vertex 93.634 194.711 2.95
      vertex 93.695 204.912 0
    endloop
  endfacet
  facet normal -0.999982 0.0059797 0
    outer loop
      vertex 93.695 204.912 0
      vertex 93.634 194.711 2.95
      vertex 93.695 204.912 2.95
    endloop
  endfacet
  facet normal -0.996448 0.0842078 0
    outer loop
      vertex 92.363 179.671 0
      vertex 92.363 179.671 2.95
      vertex 93.634 194.711 0
    endloop
  endfacet
  facet normal -0.996448 0.0842078 0
    outer loop
      vertex 93.634 194.711 0
      vertex 92.363 179.671 2.95
      vertex 93.634 194.711 2.95
    endloop
  endfacet
  facet normal -0.924764 0.38054 0
    outer loop
      vertex 90.445 175.01 0
      vertex 90.445 175.01 2.95
      vertex 92.363 179.671 0
    endloop
  endfacet
  facet normal -0.924764 0.38054 0
    outer loop
      vertex 92.363 179.671 0
      vertex 90.445 175.01 2.95
      vertex 92.363 179.671 2.95
    endloop
  endfacet
  facet normal -0.58957 0.807717 0
    outer loop
      vertex 87.768 173.056 0
      vertex 87.768 173.056 2.95
      vertex 90.445 175.01 0
    endloop
  endfacet
  facet normal -0.58957 0.807717 0
    outer loop
      vertex 90.445 175.01 0
      vertex 87.768 173.056 2.95
      vertex 90.445 175.01 2.95
    endloop
  endfacet
  facet normal 0.188203 0.98213 0
    outer loop
      vertex 84.997 173.587 0
      vertex 84.997 173.587 2.95
      vertex 87.768 173.056 0
    endloop
  endfacet
  facet normal 0.188203 0.98213 0
    outer loop
      vertex 87.768 173.056 0
      vertex 84.997 173.587 2.95
      vertex 87.768 173.056 2.95
    endloop
  endfacet
  facet normal 0.714568 0.699566 0
    outer loop
      vertex 84.997 173.587 0
      vertex 83.738 174.873 0
      vertex 83.738 174.873 2.95
    endloop
  endfacet
  facet normal 0.714568 0.699566 -0
    outer loop
      vertex 84.997 173.587 2.95
      vertex 84.997 173.587 0
      vertex 83.738 174.873 2.95
    endloop
  endfacet
  facet normal 0.712056 0.702123 0
    outer loop
      vertex 96.328 169.701 0
      vertex 93.854 172.21 0
      vertex 93.854 172.21 2.95
    endloop
  endfacet
  facet normal 0.712056 0.702123 -0
    outer loop
      vertex 96.328 169.701 2.95
      vertex 96.328 169.701 0
      vertex 93.854 172.21 2.95
    endloop
  endfacet
  facet normal 0.926168 -0.377111 0
    outer loop
      vertex 93.854 172.21 2.95
      vertex 93.854 172.21 0
      vertex 97.078 180.128 0
    endloop
  endfacet
  facet normal 0.926168 -0.377111 0
    outer loop
      vertex 97.078 180.128 2.95
      vertex 93.854 172.21 2.95
      vertex 97.078 180.128 0
    endloop
  endfacet
  facet normal 0.981554 -0.191187 0
    outer loop
      vertex 97.078 180.128 2.95
      vertex 97.078 180.128 0
      vertex 97.884 184.266 0
    endloop
  endfacet
  facet normal 0.981554 -0.191187 0
    outer loop
      vertex 97.884 184.266 2.95
      vertex 97.078 180.128 2.95
      vertex 97.884 184.266 0
    endloop
  endfacet
  facet normal -0.0562538 -0.998417 0
    outer loop
      vertex 97.884 184.266 2.95
      vertex 97.884 184.266 0
      vertex 100.706 184.107 0
    endloop
  endfacet
  facet normal -0.0562538 -0.998417 0
    outer loop
      vertex 100.706 184.107 2.95
      vertex 97.884 184.266 2.95
      vertex 100.706 184.107 0
    endloop
  endfacet
  facet normal -0.936398 -0.350939 -0
    outer loop
      vertex 100.706 184.107 0
      vertex 102.584 179.096 0
      vertex 100.706 184.107 2.95
    endloop
  endfacet
  facet normal -0.936398 -0.350939 0
    outer loop
      vertex 100.706 184.107 2.95
      vertex 102.584 179.096 0
      vertex 102.584 179.096 2.95
    endloop
  endfacet
  facet normal -0.90586 -0.423576 -0
    outer loop
      vertex 102.584 179.096 0
      vertex 105.672 172.492 0
      vertex 102.584 179.096 2.95
    endloop
  endfacet
  facet normal -0.90586 -0.423576 0
    outer loop
      vertex 102.584 179.096 2.95
      vertex 105.672 172.492 0
      vertex 105.672 172.492 2.95
    endloop
  endfacet
  facet normal -0.765782 0.6431 0
    outer loop
      vertex 103.376 169.758 0
      vertex 103.376 169.758 2.95
      vertex 105.672 172.492 0
    endloop
  endfacet
  facet normal -0.765782 0.6431 0
    outer loop
      vertex 105.672 172.492 0
      vertex 103.376 169.758 2.95
      vertex 105.672 172.492 2.95
    endloop
  endfacet
  facet normal -0.263439 0.964676 0
    outer loop
      vertex 99.824 168.788 0
      vertex 99.824 168.788 2.95
      vertex 103.376 169.758 0
    endloop
  endfacet
  facet normal -0.263439 0.964676 0
    outer loop
      vertex 103.376 169.758 0
      vertex 99.824 168.788 2.95
      vertex 103.376 169.758 2.95
    endloop
  endfacet
  facet normal 0.252681 0.96755 0
    outer loop
      vertex 96.328 169.701 0
      vertex 96.328 169.701 2.95
      vertex 99.824 168.788 0
    endloop
  endfacet
  facet normal 0.252681 0.96755 0
    outer loop
      vertex 99.824 168.788 0
      vertex 96.328 169.701 2.95
      vertex 99.824 168.788 2.95
    endloop
  endfacet
  facet normal 0.999982 0.00597911 0
    outer loop
      vertex 105.786 193.952 0
      vertex 105.725 204.154 0
      vertex 105.725 204.154 2.95
    endloop
  endfacet
  facet normal 0.999982 0.00597911 -0
    outer loop
      vertex 105.786 193.952 2.95
      vertex 105.786 193.952 0
      vertex 105.725 204.154 2.95
    endloop
  endfacet
  facet normal -0.429501 -0.903066 0
    outer loop
      vertex 105.725 204.154 2.95
      vertex 105.725 204.154 0
      vertex 112.939 200.723 0
    endloop
  endfacet
  facet normal -0.429501 -0.903066 0
    outer loop
      vertex 112.939 200.723 2.95
      vertex 105.725 204.154 2.95
      vertex 112.939 200.723 0
    endloop
  endfacet
  facet normal -0.999959 -0.00909581 -0
    outer loop
      vertex 112.939 200.723 0
      vertex 112.986 195.556 0
      vertex 112.939 200.723 2.95
    endloop
  endfacet
  facet normal -0.999959 -0.00909581 0
    outer loop
      vertex 112.939 200.723 2.95
      vertex 112.986 195.556 0
      vertex 112.986 195.556 2.95
    endloop
  endfacet
  facet normal -0.998271 -0.0587833 -0
    outer loop
      vertex 112.986 195.556 0
      vertex 113.548 186.012 0
      vertex 112.986 195.556 2.95
    endloop
  endfacet
  facet normal -0.998271 -0.0587833 0
    outer loop
      vertex 112.986 195.556 2.95
      vertex 113.548 186.012 0
      vertex 113.548 186.012 2.95
    endloop
  endfacet
  facet normal -0.981097 -0.193518 -0
    outer loop
      vertex 113.548 186.012 0
      vertex 115.124 178.022 0
      vertex 113.548 186.012 2.95
    endloop
  endfacet
  facet normal -0.981097 -0.193518 0
    outer loop
      vertex 113.548 186.012 2.95
      vertex 115.124 178.022 0
      vertex 115.124 178.022 2.95
    endloop
  endfacet
  facet normal -0.961152 -0.276021 -0
    outer loop
      vertex 115.124 178.022 0
      vertex 116.246 174.115 0
      vertex 115.124 178.022 2.95
    endloop
  endfacet
  facet normal -0.961152 -0.276021 0
    outer loop
      vertex 115.124 178.022 2.95
      vertex 116.246 174.115 0
      vertex 116.246 174.115 2.95
    endloop
  endfacet
  facet normal -0.84812 0.529804 0
    outer loop
      vertex 115.269 172.551 0
      vertex 115.269 172.551 2.95
      vertex 116.246 174.115 0
    endloop
  endfacet
  facet normal -0.84812 0.529804 0
    outer loop
      vertex 116.246 174.115 0
      vertex 115.269 172.551 2.95
      vertex 116.246 174.115 2.95
    endloop
  endfacet
  facet normal -0.309112 0.951026 0
    outer loop
      vertex 112.78 171.742 0
      vertex 112.78 171.742 2.95
      vertex 115.269 172.551 0
    endloop
  endfacet
  facet normal -0.309112 0.951026 0
    outer loop
      vertex 115.269 172.551 0
      vertex 112.78 171.742 2.95
      vertex 115.269 172.551 2.95
    endloop
  endfacet
  facet normal 0.567014 0.823708 0
    outer loop
      vertex 109.539 173.973 0
      vertex 109.539 173.973 2.95
      vertex 112.78 171.742 0
    endloop
  endfacet
  facet normal 0.567014 0.823708 0
    outer loop
      vertex 112.78 171.742 0
      vertex 109.539 173.973 2.95
      vertex 112.78 171.742 2.95
    endloop
  endfacet
  facet normal 0.893485 0.449094 0
    outer loop
      vertex 109.539 173.973 0
      vertex 107.056 178.913 0
      vertex 107.056 178.913 2.95
    endloop
  endfacet
  facet normal 0.893485 0.449094 -0
    outer loop
      vertex 109.539 173.973 2.95
      vertex 109.539 173.973 0
      vertex 107.056 178.913 2.95
    endloop
  endfacet
  facet normal 0.996453 0.0841476 0
    outer loop
      vertex 107.056 178.913 0
      vertex 105.786 193.952 0
      vertex 105.786 193.952 2.95
    endloop
  endfacet
  facet normal 0.996453 0.0841476 -0
    outer loop
      vertex 107.056 178.913 2.95
      vertex 107.056 178.913 0
      vertex 105.786 193.952 2.95
    endloop
  endfacet
  facet normal 0.99844 0.055837 0
    outer loop
      vertex 116.498 191.458 0
      vertex 116.043 199.594 0
      vertex 116.043 199.594 2.95
    endloop
  endfacet
  facet normal 0.99844 0.055837 -0
    outer loop
      vertex 116.498 191.458 2.95
      vertex 116.498 191.458 0
      vertex 116.043 199.594 2.95
    endloop
  endfacet
  facet normal -0.519631 -0.854391 0
    outer loop
      vertex 116.043 199.594 2.95
      vertex 116.043 199.594 0
      vertex 118.363 198.183 0
    endloop
  endfacet
  facet normal -0.519631 -0.854391 0
    outer loop
      vertex 118.363 198.183 2.95
      vertex 116.043 199.594 2.95
      vertex 118.363 198.183 0
    endloop
  endfacet
  facet normal -0.519795 -0.854291 0
    outer loop
      vertex 118.363 198.183 2.95
      vertex 118.363 198.183 0
      vertex 120.682 196.772 0
    endloop
  endfacet
  facet normal -0.519795 -0.854291 0
    outer loop
      vertex 120.682 196.772 2.95
      vertex 118.363 198.183 2.95
      vertex 120.682 196.772 0
    endloop
  endfacet
  facet normal -0.526452 -0.850205 0
    outer loop
      vertex 120.682 196.772 2.95
      vertex 120.682 196.772 0
      vertex 124.587 194.354 0
    endloop
  endfacet
  facet normal -0.526452 -0.850205 0
    outer loop
      vertex 124.587 194.354 2.95
      vertex 120.682 196.772 2.95
      vertex 124.587 194.354 0
    endloop
  endfacet
  facet normal -0.605112 -0.79614 0
    outer loop
      vertex 124.587 194.354 2.95
      vertex 124.587 194.354 0
      vertex 130.155 190.122 0
    endloop
  endfacet
  facet normal -0.605112 -0.79614 0
    outer loop
      vertex 130.155 190.122 2.95
      vertex 124.587 194.354 2.95
      vertex 130.155 190.122 0
    endloop
  endfacet
  facet normal -0.966797 -0.255546 -0
    outer loop
      vertex 130.155 190.122 0
      vertex 131.087 186.596 0
      vertex 130.155 190.122 2.95
    endloop
  endfacet
  facet normal -0.966797 -0.255546 0
    outer loop
      vertex 130.155 190.122 2.95
      vertex 131.087 186.596 0
      vertex 131.087 186.596 2.95
    endloop
  endfacet
  facet normal -0.919949 0.392039 0
    outer loop
      vertex 130.357 184.883 0
      vertex 130.357 184.883 2.95
      vertex 131.087 186.596 0
    endloop
  endfacet
  facet normal -0.919949 0.392039 0
    outer loop
      vertex 131.087 186.596 0
      vertex 130.357 184.883 2.95
      vertex 131.087 186.596 2.95
    endloop
  endfacet
  facet normal -0.249962 0.968256 0
    outer loop
      vertex 127.231 184.076 0
      vertex 127.231 184.076 2.95
      vertex 130.357 184.883 0
    endloop
  endfacet
  facet normal -0.249962 0.968256 0
    outer loop
      vertex 130.357 184.883 0
      vertex 127.231 184.076 2.95
      vertex 130.357 184.883 2.95
    endloop
  endfacet
  facet normal -0.249887 0.968275 0
    outer loop
      vertex 124.104 183.269 0
      vertex 124.104 183.269 2.95
      vertex 127.231 184.076 0
    endloop
  endfacet
  facet normal -0.249887 0.968275 0
    outer loop
      vertex 127.231 184.076 0
      vertex 124.104 183.269 2.95
      vertex 127.231 184.076 2.95
    endloop
  endfacet
  facet normal -0.981243 -0.192775 -0
    outer loop
      vertex 124.104 183.269 0
      vertex 125.114 178.128 0
      vertex 124.104 183.269 2.95
    endloop
  endfacet
  facet normal -0.981243 -0.192775 0
    outer loop
      vertex 124.104 183.269 2.95
      vertex 125.114 178.128 0
      vertex 125.114 178.128 2.95
    endloop
  endfacet
  facet normal -0.98125 -0.192739 -0
    outer loop
      vertex 125.114 178.128 0
      vertex 126.124 172.986 0
      vertex 125.114 178.128 2.95
    endloop
  endfacet
  facet normal -0.98125 -0.192739 0
    outer loop
      vertex 125.114 178.128 2.95
      vertex 126.124 172.986 0
      vertex 126.124 172.986 2.95
    endloop
  endfacet
  facet normal -0.0336948 0.999432 0
    outer loop
      vertex 122.446 172.862 0
      vertex 122.446 172.862 2.95
      vertex 126.124 172.986 0
    endloop
  endfacet
  facet normal -0.0336948 0.999432 0
    outer loop
      vertex 126.124 172.986 0
      vertex 122.446 172.862 2.95
      vertex 126.124 172.986 2.95
    endloop
  endfacet
  facet normal 0.748032 0.663663 0
    outer loop
      vertex 122.446 172.862 0
      vertex 117.86 178.031 0
      vertex 117.86 178.031 2.95
    endloop
  endfacet
  facet normal 0.748032 0.663663 -0
    outer loop
      vertex 122.446 172.862 2.95
      vertex 122.446 172.862 0
      vertex 117.86 178.031 2.95
    endloop
  endfacet
  facet normal 0.994895 0.10092 0
    outer loop
      vertex 117.86 178.031 0
      vertex 116.498 191.458 0
      vertex 116.498 191.458 2.95
    endloop
  endfacet
  facet normal 0.994895 0.10092 -0
    outer loop
      vertex 117.86 178.031 2.95
      vertex 117.86 178.031 0
      vertex 116.498 191.458 2.95
    endloop
  endfacet
endsolid OpenSCAD_Model
