solid OpenSCAD_Model
  facet normal -0.244225 0.969718 0
    outer loop
      vertex 18.716 20.006 2.6
      vertex 20.741 20.516 2.6
      vertex 18.716 20.006 0
    endloop
  endfacet
  facet normal -0.244225 0.969718 0
    outer loop
      vertex 18.716 20.006 0
      vertex 20.741 20.516 2.6
      vertex 20.741 20.516 0
    endloop
  endfacet
  facet normal -0 0 -1
    outer loop
      vertex 6.378 27.048 0
      vertex 7.712 30.645 0
      vertex 5.784 23.275 0
    endloop
  endfacet
  facet normal 0 0 -1
    outer loop
      vertex 5.784 23.275 0
      vertex 7.712 30.645 0
      vertex 9.727 33.978 0
    endloop
  endfacet
  facet normal 0 0 -1
    outer loop
      vertex 5.784 23.275 0
      vertex 9.727 33.978 0
      vertex 12.363 36.959 0
    endloop
  endfacet
  facet normal 0 0 -1
    outer loop
      vertex 5.784 23.275 0
      vertex 12.363 36.959 0
      vertex 15.559 39.503 0
    endloop
  endfacet
  facet normal 0 0 -1
    outer loop
      vertex 5.784 23.275 0
      vertex 15.559 39.503 0
      vertex 19.256 41.52 0
    endloop
  endfacet
  facet normal 0 0 -1
    outer loop
      vertex 5.784 23.275 0
      vertex 19.256 41.52 0
      vertex 23.392 42.925 0
    endloop
  endfacet
  facet normal 0 0 -1
    outer loop
      vertex 5.784 23.275 0
      vertex 23.392 42.925 0
      vertex 24.101 43.09 0
    endloop
  endfacet
  facet normal 0 0 -1
    outer loop
      vertex 5.784 23.275 0
      vertex 24.101 43.09 0
      vertex 24.81 43.233 0
    endloop
  endfacet
  facet normal 0 0 -1
    outer loop
      vertex 5.784 23.275 0
      vertex 24.81 43.233 0
      vertex 25.516 43.357 0
    endloop
  endfacet
  facet normal 0 0 -1
    outer loop
      vertex 5.784 23.275 0
      vertex 25.516 43.357 0
      vertex 26.221 43.459 0
    endloop
  endfacet
  facet normal 0 0 -1
    outer loop
      vertex 5.784 23.275 0
      vertex 26.221 43.459 0
      vertex 26.925 43.541 0
    endloop
  endfacet
  facet normal 0 0 -1
    outer loop
      vertex 5.784 23.275 0
      vertex 26.925 43.541 0
      vertex 27.626 43.603 0
    endloop
  endfacet
  facet normal 0 0 -1
    outer loop
      vertex 5.784 23.275 0
      vertex 27.626 43.603 0
      vertex 28.324 43.645 0
    endloop
  endfacet
  facet normal 0 0 -1
    outer loop
      vertex 5.784 23.275 0
      vertex 28.324 43.645 0
      vertex 29.019 43.666 0
    endloop
  endfacet
  facet normal 0 0 -1
    outer loop
      vertex 21.273 35.33 0
      vertex 29.019 43.666 0
      vertex 32.703 43.446 0
    endloop
  endfacet
  facet normal 0 0 -1
    outer loop
      vertex 27.772 37.526 0
      vertex 32.703 43.446 0
      vertex 36.217 42.689 0
    endloop
  endfacet
  facet normal 0 0 -1
    outer loop
      vertex 31.843 37.476 0
      vertex 36.217 42.689 0
      vertex 39.498 41.428 0
    endloop
  endfacet
  facet normal 0 0 -1
    outer loop
      vertex 34.317 36.964 0
      vertex 39.498 41.428 0
      vertex 42.48 39.698 0
    endloop
  endfacet
  facet normal 0 0 -1
    outer loop
      vertex 36.624 36.104 0
      vertex 42.48 39.698 0
      vertex 45.099 37.533 0
    endloop
  endfacet
  facet normal 0 0 -1
    outer loop
      vertex 40.558 33.432 0
      vertex 45.099 37.533 0
      vertex 47.29 34.968 0
    endloop
  endfacet
  facet normal 0 0 -1
    outer loop
      vertex 42.093 31.666 0
      vertex 47.29 34.968 0
      vertex 48.99 32.035 0
    endloop
  endfacet
  facet normal -0 0 -1
    outer loop
      vertex 43.28 29.646 0
      vertex 48.99 32.035 0
      vertex 50.133 28.77 0
    endloop
  endfacet
  facet normal -0 0 -1
    outer loop
      vertex 44.074 27.394 0
      vertex 50.133 28.77 0
      vertex 50.66 24.715 0
    endloop
  endfacet
  facet normal -0 0 -1
    outer loop
      vertex 44.125 21.937 0
      vertex 50.66 24.715 0
      vertex 50.289 20.725 0
    endloop
  endfacet
  facet normal -0 0 -1
    outer loop
      vertex 43.239 19.377 0
      vertex 50.289 20.725 0
      vertex 49.088 16.901 0
    endloop
  endfacet
  facet normal 0 0 -1
    outer loop
      vertex 41.821 16.991 0
      vertex 49.088 16.901 0
      vertex 47.126 13.343 0
    endloop
  endfacet
  facet normal -0 0 -1
    outer loop
      vertex 37.609 12.917 0
      vertex 47.126 13.343 0
      vertex 44.472 10.151 0
    endloop
  endfacet
  facet normal 0 0 -1
    outer loop
      vertex 34.928 11.319 0
      vertex 44.472 10.151 0
      vertex 41.194 7.427 0
    endloop
  endfacet
  facet normal 0 0 -1
    outer loop
      vertex 31.938 10.073 0
      vertex 41.194 7.427 0
      vertex 37.361 5.271 0
    endloop
  endfacet
  facet normal 0 0 -1
    outer loop
      vertex 27.368 9.688 0
      vertex 37.361 5.271 0
      vertex 33.041 3.784 0
    endloop
  endfacet
  facet normal 0 0 -1
    outer loop
      vertex 21.817 10.554 0
      vertex 33.041 3.784 0
      vertex 28.667 3.102 0
    endloop
  endfacet
  facet normal 0 0 -1
    outer loop
      vertex 10.615 17.964 0
      vertex 24.401 3.189 0
      vertex 20.341 3.992 0
    endloop
  endfacet
  facet normal 0 0 -1
    outer loop
      vertex 19.288 11.319 0
      vertex 24.401 3.189 0
      vertex 17.252 12.231 0
    endloop
  endfacet
  facet normal 0 0 -1
    outer loop
      vertex 8.59 17.453 0
      vertex 16.586 5.46 0
      vertex 13.233 7.541 0
    endloop
  endfacet
  facet normal 0 0 -1
    outer loop
      vertex 10.615 17.964 0
      vertex 16.586 5.46 0
      vertex 8.59 17.453 0
    endloop
  endfacet
  facet normal 0 -0 -1
    outer loop
      vertex 5.992 19.412 0
      vertex 5.784 23.275 0
      vertex 8.023 19.924 0
    endloop
  endfacet
  facet normal 0 0 -1
    outer loop
      vertex 12.64 18.474 0
      vertex 15.64 14.279 0
      vertex 15.954 13.236 0
    endloop
  endfacet
  facet normal 0 0 -1
    outer loop
      vertex 10.615 17.964 0
      vertex 20.341 3.992 0
      vertex 16.586 5.46 0
    endloop
  endfacet
  facet normal -0 0 -1
    outer loop
      vertex 44.422 24.624 0
      vertex 50.66 24.715 0
      vertex 44.125 21.937 0
    endloop
  endfacet
  facet normal 0 -0 -1
    outer loop
      vertex 15.64 14.279 0
      vertex 12.64 18.474 0
      vertex 16.269 14.876 0
    endloop
  endfacet
  facet normal 0 0 -1
    outer loop
      vertex 27.368 9.688 0
      vertex 33.041 3.784 0
      vertex 24.592 9.992 0
    endloop
  endfacet
  facet normal 0 -0 -1
    outer loop
      vertex 17.648 15.425 0
      vertex 12.64 18.474 0
      vertex 19.505 16.022 0
    endloop
  endfacet
  facet normal 0 -0 -1
    outer loop
      vertex 19.505 16.022 0
      vertex 14.666 18.985 0
      vertex 21.569 16.761 0
    endloop
  endfacet
  facet normal 0 -0 -1
    outer loop
      vertex 21.569 16.761 0
      vertex 16.691 19.495 0
      vertex 23.566 17.738 0
    endloop
  endfacet
  facet normal 0 -0 -1
    outer loop
      vertex 23.566 17.738 0
      vertex 18.716 20.006 0
      vertex 25.224 19.048 0
    endloop
  endfacet
  facet normal 0 -0 -1
    outer loop
      vertex 25.224 19.048 0
      vertex 22.766 21.026 0
      vertex 26.271 20.786 0
    endloop
  endfacet
  facet normal 0 0 -1
    outer loop
      vertex 43.239 19.377 0
      vertex 49.088 16.901 0
      vertex 41.821 16.991 0
    endloop
  endfacet
  facet normal 0 -0 -1
    outer loop
      vertex 20.214 22.993 0
      vertex 5.784 23.275 0
      vertex 22.246 23.505 0
    endloop
  endfacet
  facet normal 0 0 -1
    outer loop
      vertex 26.271 20.786 0
      vertex 22.701 21.336 0
      vertex 22.636 21.646 0
    endloop
  endfacet
  facet normal 0 0 -1
    outer loop
      vertex 26.271 20.786 0
      vertex 22.636 21.646 0
      vertex 22.571 21.956 0
    endloop
  endfacet
  facet normal 0 0 -1
    outer loop
      vertex 26.271 20.786 0
      vertex 22.571 21.956 0
      vertex 22.506 22.266 0
    endloop
  endfacet
  facet normal 0 -0 -1
    outer loop
      vertex 18.182 22.482 0
      vertex 5.784 23.275 0
      vertex 20.214 22.993 0
    endloop
  endfacet
  facet normal 0 -0 -1
    outer loop
      vertex 16.151 21.97 0
      vertex 5.784 23.275 0
      vertex 18.182 22.482 0
    endloop
  endfacet
  facet normal 0 -0 -1
    outer loop
      vertex 14.119 21.459 0
      vertex 5.784 23.275 0
      vertex 16.151 21.97 0
    endloop
  endfacet
  facet normal 0 -0 -1
    outer loop
      vertex 12.087 20.947 0
      vertex 5.784 23.275 0
      vertex 14.119 21.459 0
    endloop
  endfacet
  facet normal 0 -0 -1
    outer loop
      vertex 10.055 20.436 0
      vertex 5.784 23.275 0
      vertex 12.087 20.947 0
    endloop
  endfacet
  facet normal 0 0 -1
    outer loop
      vertex 19.288 11.319 0
      vertex 28.667 3.102 0
      vertex 24.401 3.189 0
    endloop
  endfacet
  facet normal 0 -0 -1
    outer loop
      vertex 12.515 27.877 0
      vertex 5.784 23.275 0
      vertex 13.31 29.176 0
    endloop
  endfacet
  facet normal 0 0 -1
    outer loop
      vertex 21.273 35.33 0
      vertex 32.703 43.446 0
      vertex 23.444 36.434 0
    endloop
  endfacet
  facet normal 0 0 -1
    outer loop
      vertex 13.544 26.57 0
      vertex 5.784 23.275 0
      vertex 12.606 26.944 0
    endloop
  endfacet
  facet normal 0 0 -1
    outer loop
      vertex 15.204 26.494 0
      vertex 5.784 23.275 0
      vertex 13.544 26.57 0
    endloop
  endfacet
  facet normal 0 0 -1
    outer loop
      vertex 19.702 26.576 0
      vertex 5.784 23.275 0
      vertex 17.34 26.551 0
    endloop
  endfacet
  facet normal 0 0 -1
    outer loop
      vertex 5.784 23.275 0
      vertex 15.204 26.494 0
      vertex 17.34 26.551 0
    endloop
  endfacet
  facet normal 0 0 -1
    outer loop
      vertex 22.041 26.403 0
      vertex 5.784 23.275 0
      vertex 19.702 26.576 0
    endloop
  endfacet
  facet normal 0 0 -1
    outer loop
      vertex 25.656 24.804 0
      vertex 5.784 23.275 0
      vertex 24.108 25.868 0
    endloop
  endfacet
  facet normal 0 0 -1
    outer loop
      vertex 5.784 23.275 0
      vertex 22.041 26.403 0
      vertex 24.108 25.868 0
    endloop
  endfacet
  facet normal 0 0 -1
    outer loop
      vertex 26.435 23.046 0
      vertex 22.311 23.195 0
      vertex 22.246 23.505 0
    endloop
  endfacet
  facet normal 0 0 -1
    outer loop
      vertex 26.435 23.046 0
      vertex 22.376 22.885 0
      vertex 22.311 23.195 0
    endloop
  endfacet
  facet normal 0 0 -1
    outer loop
      vertex 26.271 20.786 0
      vertex 22.766 21.026 0
      vertex 22.701 21.336 0
    endloop
  endfacet
  facet normal -0 0 -1
    outer loop
      vertex 22.376 22.885 0
      vertex 26.435 23.046 0
      vertex 22.441 22.575 0
    endloop
  endfacet
  facet normal 0 0 -1
    outer loop
      vertex 25.224 19.048 0
      vertex 20.741 20.516 0
      vertex 22.766 21.026 0
    endloop
  endfacet
  facet normal 0 0 -1
    outer loop
      vertex 41.821 16.991 0
      vertex 47.126 13.343 0
      vertex 39.925 14.823 0
    endloop
  endfacet
  facet normal 0 0 -1
    outer loop
      vertex 20.741 20.516 0
      vertex 25.224 19.048 0
      vertex 18.716 20.006 0
    endloop
  endfacet
  facet normal 0 0 -1
    outer loop
      vertex 18.716 20.006 0
      vertex 23.566 17.738 0
      vertex 16.691 19.495 0
    endloop
  endfacet
  facet normal 0 -0 -1
    outer loop
      vertex 16.269 14.876 0
      vertex 12.64 18.474 0
      vertex 17.648 15.425 0
    endloop
  endfacet
  facet normal 0 0 -1
    outer loop
      vertex 14.666 18.985 0
      vertex 19.505 16.022 0
      vertex 12.64 18.474 0
    endloop
  endfacet
  facet normal 0 0 -1
    outer loop
      vertex 21.817 10.554 0
      vertex 28.667 3.102 0
      vertex 19.288 11.319 0
    endloop
  endfacet
  facet normal 0 0 -1
    outer loop
      vertex 27.772 37.526 0
      vertex 36.217 42.689 0
      vertex 28.266 37.569 0
    endloop
  endfacet
  facet normal 0 0 -1
    outer loop
      vertex 15.954 13.236 0
      vertex 17.252 12.231 0
      vertex 24.401 3.189 0
    endloop
  endfacet
  facet normal 0 -0 -1
    outer loop
      vertex 8.023 19.924 0
      vertex 5.784 23.275 0
      vertex 10.055 20.436 0
    endloop
  endfacet
  facet normal 0 0 -1
    outer loop
      vertex 24.592 9.992 0
      vertex 33.041 3.784 0
      vertex 21.817 10.554 0
    endloop
  endfacet
  facet normal 0 0 -1
    outer loop
      vertex 29.899 9.697 0
      vertex 37.361 5.271 0
      vertex 27.368 9.688 0
    endloop
  endfacet
  facet normal 0 0 -1
    outer loop
      vertex 16.691 19.495 0
      vertex 21.569 16.761 0
      vertex 14.666 18.985 0
    endloop
  endfacet
  facet normal 0 0 -1
    outer loop
      vertex 31.938 10.073 0
      vertex 37.361 5.271 0
      vertex 29.899 9.697 0
    endloop
  endfacet
  facet normal 0 0 -1
    outer loop
      vertex 34.928 11.319 0
      vertex 41.194 7.427 0
      vertex 31.938 10.073 0
    endloop
  endfacet
  facet normal 0 0 -1
    outer loop
      vertex 39.925 14.823 0
      vertex 47.126 13.343 0
      vertex 37.609 12.917 0
    endloop
  endfacet
  facet normal 0 0 -1
    outer loop
      vertex 37.609 12.917 0
      vertex 44.472 10.151 0
      vertex 34.928 11.319 0
    endloop
  endfacet
  facet normal 0 0 -1
    outer loop
      vertex 44.125 21.937 0
      vertex 50.289 20.725 0
      vertex 43.239 19.377 0
    endloop
  endfacet
  facet normal 0 -0 -1
    outer loop
      vertex 26.271 20.786 0
      vertex 22.441 22.575 0
      vertex 26.435 23.046 0
    endloop
  endfacet
  facet normal 0 0 -1
    outer loop
      vertex 26.271 20.786 0
      vertex 22.506 22.266 0
      vertex 22.441 22.575 0
    endloop
  endfacet
  facet normal 0 0 -1
    outer loop
      vertex 43.28 29.646 0
      vertex 50.133 28.77 0
      vertex 44.074 27.394 0
    endloop
  endfacet
  facet normal -0 0 -1
    outer loop
      vertex 42.093 31.666 0
      vertex 48.99 32.035 0
      vertex 43.28 29.646 0
    endloop
  endfacet
  facet normal -0 0 -1
    outer loop
      vertex 40.558 33.432 0
      vertex 47.29 34.968 0
      vertex 42.093 31.666 0
    endloop
  endfacet
  facet normal -0 0 -1
    outer loop
      vertex 38.72 34.919 0
      vertex 45.099 37.533 0
      vertex 40.558 33.432 0
    endloop
  endfacet
  facet normal -0 0 -1
    outer loop
      vertex 36.624 36.104 0
      vertex 45.099 37.533 0
      vertex 38.72 34.919 0
    endloop
  endfacet
  facet normal -0 0 -1
    outer loop
      vertex 34.317 36.964 0
      vertex 42.48 39.698 0
      vertex 36.624 36.104 0
    endloop
  endfacet
  facet normal -0 0 -1
    outer loop
      vertex 31.843 37.476 0
      vertex 39.498 41.428 0
      vertex 34.317 36.964 0
    endloop
  endfacet
  facet normal -0 0 -1
    outer loop
      vertex 29.249 37.616 0
      vertex 36.217 42.689 0
      vertex 31.843 37.476 0
    endloop
  endfacet
  facet normal 0 0 -1
    outer loop
      vertex 28.758 37.599 0
      vertex 36.217 42.689 0
      vertex 29.249 37.616 0
    endloop
  endfacet
  facet normal 0 -0 -1
    outer loop
      vertex 22.246 23.505 0
      vertex 5.784 23.275 0
      vertex 25.656 24.804 0
    endloop
  endfacet
  facet normal 0 0 -1
    outer loop
      vertex 28.266 37.569 0
      vertex 36.217 42.689 0
      vertex 28.758 37.599 0
    endloop
  endfacet
  facet normal 0 0 -1
    outer loop
      vertex 26.435 23.046 0
      vertex 22.246 23.505 0
      vertex 25.656 24.804 0
    endloop
  endfacet
  facet normal 0 0 -1
    outer loop
      vertex 44.074 27.394 0
      vertex 50.66 24.715 0
      vertex 44.422 24.624 0
    endloop
  endfacet
  facet normal 0 0 -1
    outer loop
      vertex 27.276 37.469 0
      vertex 32.703 43.446 0
      vertex 27.772 37.526 0
    endloop
  endfacet
  facet normal 0 0 -1
    outer loop
      vertex 23.444 36.434 0
      vertex 32.703 43.446 0
      vertex 25.28 37.095 0
    endloop
  endfacet
  facet normal 0 0 -1
    outer loop
      vertex 26.778 37.398 0
      vertex 32.703 43.446 0
      vertex 27.276 37.469 0
    endloop
  endfacet
  facet normal 0 0 -1
    outer loop
      vertex 26.28 37.312 0
      vertex 32.703 43.446 0
      vertex 26.778 37.398 0
    endloop
  endfacet
  facet normal 0 0 -1
    outer loop
      vertex 25.78 37.211 0
      vertex 32.703 43.446 0
      vertex 26.28 37.312 0
    endloop
  endfacet
  facet normal 0 0 -1
    outer loop
      vertex 25.28 37.095 0
      vertex 32.703 43.446 0
      vertex 25.78 37.211 0
    endloop
  endfacet
  facet normal 0 0 -1
    outer loop
      vertex 12.606 26.944 0
      vertex 5.784 23.275 0
      vertex 12.515 27.877 0
    endloop
  endfacet
  facet normal 0 0 -1
    outer loop
      vertex 18.971 33.917 0
      vertex 29.019 43.666 0
      vertex 21.273 35.33 0
    endloop
  endfacet
  facet normal 0 0 -1
    outer loop
      vertex 16.741 32.331 0
      vertex 29.019 43.666 0
      vertex 18.971 33.917 0
    endloop
  endfacet
  facet normal 0 0 -1
    outer loop
      vertex 5.784 23.275 0
      vertex 29.019 43.666 0
      vertex 16.741 32.331 0
    endloop
  endfacet
  facet normal 0 0 -1
    outer loop
      vertex 5.784 23.275 0
      vertex 16.741 32.331 0
      vertex 14.786 30.705 0
    endloop
  endfacet
  facet normal 0 0 -1
    outer loop
      vertex 8.59 17.453 0
      vertex 13.233 7.541 0
      vertex 10.38 10.183 0
    endloop
  endfacet
  facet normal 0 0 -1
    outer loop
      vertex 8.59 17.453 0
      vertex 10.38 10.183 0
      vertex 8.124 13.334 0
    endloop
  endfacet
  facet normal 0 0 -1
    outer loop
      vertex 8.59 17.453 0
      vertex 8.124 13.334 0
      vertex 6.565 16.943 0
    endloop
  endfacet
  facet normal 0 -0 -1
    outer loop
      vertex 13.31 29.176 0
      vertex 5.784 23.275 0
      vertex 14.786 30.705 0
    endloop
  endfacet
  facet normal 0 0 -1
    outer loop
      vertex 15.954 13.236 0
      vertex 24.401 3.189 0
      vertex 10.615 17.964 0
    endloop
  endfacet
  facet normal 0 0 -1
    outer loop
      vertex 12.64 18.474 0
      vertex 15.954 13.236 0
      vertex 10.615 17.964 0
    endloop
  endfacet
  facet normal -0.244225 0.969718 0
    outer loop
      vertex 20.741 20.516 2.6
      vertex 22.766 21.026 2.6
      vertex 20.741 20.516 0
    endloop
  endfacet
  facet normal -0.244225 0.969718 0
    outer loop
      vertex 20.741 20.516 0
      vertex 22.766 21.026 2.6
      vertex 22.766 21.026 0
    endloop
  endfacet
  facet normal -0.244676 0.969605 0
    outer loop
      vertex 16.691 19.495 2.6
      vertex 18.716 20.006 2.6
      vertex 16.691 19.495 0
    endloop
  endfacet
  facet normal -0.244676 0.969605 0
    outer loop
      vertex 16.691 19.495 0
      vertex 18.716 20.006 2.6
      vertex 18.716 20.006 0
    endloop
  endfacet
  facet normal 0 0 1
    outer loop
      vertex 14.119 21.459 2.6
      vertex 16.151 21.97 2.6
      vertex 5.784 23.275 2.6
    endloop
  endfacet
  facet normal 0 0 1
    outer loop
      vertex 5.784 23.275 2.6
      vertex 5.992 19.412 2.6
      vertex 8.023 19.924 2.6
    endloop
  endfacet
  facet normal 0 0 1.38608e-014
    outer loop
      vertex 22.376 22.885 2.6
      vertex 22.441 22.575 2.6
      vertex 22.311 23.195 2.6
    endloop
  endfacet
  facet normal -0 0 1
    outer loop
      vertex 10.055 20.436 2.6
      vertex 5.784 23.275 2.6
      vertex 8.023 19.924 2.6
    endloop
  endfacet
  facet normal 0 0 1
    outer loop
      vertex 10.055 20.436 2.6
      vertex 12.087 20.947 2.6
      vertex 5.784 23.275 2.6
    endloop
  endfacet
  facet normal 0 0 1
    outer loop
      vertex 12.087 20.947 2.6
      vertex 14.119 21.459 2.6
      vertex 5.784 23.275 2.6
    endloop
  endfacet
  facet normal 0 0 1
    outer loop
      vertex 18.182 22.482 2.6
      vertex 20.214 22.993 2.6
      vertex 5.784 23.275 2.6
    endloop
  endfacet
  facet normal 0 0 1
    outer loop
      vertex 16.151 21.97 2.6
      vertex 18.182 22.482 2.6
      vertex 5.784 23.275 2.6
    endloop
  endfacet
  facet normal 0 0 1
    outer loop
      vertex 20.214 22.993 2.6
      vertex 22.246 23.505 2.6
      vertex 5.784 23.275 2.6
    endloop
  endfacet
  facet normal 0 0 1
    outer loop
      vertex 22.311 23.195 2.6
      vertex 22.506 22.266 2.6
      vertex 22.246 23.505 2.6
    endloop
  endfacet
  facet normal 0 0 1.14631e-014
    outer loop
      vertex 22.571 21.956 2.6
      vertex 22.636 21.646 2.6
      vertex 22.506 22.266 2.6
    endloop
  endfacet
  facet normal 0 0 1
    outer loop
      vertex 22.441 22.575 2.6
      vertex 22.506 22.266 2.6
      vertex 22.311 23.195 2.6
    endloop
  endfacet
  facet normal 0 0 1.6622e-015
    outer loop
      vertex 22.636 21.646 2.6
      vertex 22.701 21.336 2.6
      vertex 22.506 22.266 2.6
    endloop
  endfacet
  facet normal 0 0 1
    outer loop
      vertex 25.224 19.048 2.6
      vertex 26.271 20.786 2.6
      vertex 22.246 23.505 2.6
    endloop
  endfacet
  facet normal -0 0 1
    outer loop
      vertex 21.817 10.554 2.6
      vertex 19.288 11.319 2.6
      vertex 20.341 3.992 2.6
    endloop
  endfacet
  facet normal 0 -0 1
    outer loop
      vertex 20.741 20.516 2.6
      vertex 16.691 19.495 2.6
      vertex 22.766 21.026 2.6
    endloop
  endfacet
  facet normal 0 -0 1
    outer loop
      vertex 18.716 20.006 2.6
      vertex 16.691 19.495 2.6
      vertex 20.741 20.516 2.6
    endloop
  endfacet
  facet normal 0 -0 1
    outer loop
      vertex 16.691 19.495 2.6
      vertex 12.64 18.474 2.6
      vertex 22.766 21.026 2.6
    endloop
  endfacet
  facet normal 0 -0 1
    outer loop
      vertex 14.666 18.985 2.6
      vertex 12.64 18.474 2.6
      vertex 16.691 19.495 2.6
    endloop
  endfacet
  facet normal 0 -0 1
    outer loop
      vertex 12.64 18.474 2.6
      vertex 8.59 17.453 2.6
      vertex 22.766 21.026 2.6
    endloop
  endfacet
  facet normal 0 -0 1
    outer loop
      vertex 10.615 17.964 2.6
      vertex 8.59 17.453 2.6
      vertex 12.64 18.474 2.6
    endloop
  endfacet
  facet normal 0 -0 1
    outer loop
      vertex 8.59 17.453 2.6
      vertex 8.124 13.334 2.6
      vertex 22.766 21.026 2.6
    endloop
  endfacet
  facet normal 0 0 1
    outer loop
      vertex 6.565 16.943 2.6
      vertex 8.124 13.334 2.6
      vertex 8.59 17.453 2.6
    endloop
  endfacet
  facet normal 0 0 1
    outer loop
      vertex 8.124 13.334 2.6
      vertex 10.38 10.183 2.6
      vertex 22.766 21.026 2.6
    endloop
  endfacet
  facet normal -0 0 1
    outer loop
      vertex 19.288 11.319 2.6
      vertex 17.252 12.231 2.6
      vertex 16.586 5.46 2.6
    endloop
  endfacet
  facet normal 0 0 1
    outer loop
      vertex 23.566 17.738 2.6
      vertex 25.224 19.048 2.6
      vertex 22.246 23.505 2.6
    endloop
  endfacet
  facet normal -0 0 1
    outer loop
      vertex 24.592 9.992 2.6
      vertex 21.817 10.554 2.6
      vertex 24.401 3.189 2.6
    endloop
  endfacet
  facet normal 0 0 1
    outer loop
      vertex 23.566 17.738 2.6
      vertex 22.701 21.336 2.6
      vertex 22.766 21.026 2.6
    endloop
  endfacet
  facet normal 0 -0 1
    outer loop
      vertex 37.609 12.917 2.6
      vertex 34.928 11.319 2.6
      vertex 41.194 7.427 2.6
    endloop
  endfacet
  facet normal 0 0 1
    outer loop
      vertex 26.435 23.046 2.6
      vertex 25.656 24.804 2.6
      vertex 22.246 23.505 2.6
    endloop
  endfacet
  facet normal -0 0 1
    outer loop
      vertex 22.246 23.505 2.6
      vertex 25.656 24.804 2.6
      vertex 5.784 23.275 2.6
    endloop
  endfacet
  facet normal 0 -0 1
    outer loop
      vertex 43.239 19.377 2.6
      vertex 41.821 16.991 2.6
      vertex 49.088 16.901 2.6
    endloop
  endfacet
  facet normal -0 0 1
    outer loop
      vertex 25.656 24.804 2.6
      vertex 24.108 25.868 2.6
      vertex 5.784 23.275 2.6
    endloop
  endfacet
  facet normal 0 0 1
    outer loop
      vertex 19.702 26.576 2.6
      vertex 17.34 26.551 2.6
      vertex 5.784 23.275 2.6
    endloop
  endfacet
  facet normal 0 0 1
    outer loop
      vertex 36.624 36.104 2.6
      vertex 38.72 34.919 2.6
      vertex 45.099 37.533 2.6
    endloop
  endfacet
  facet normal 0 0 1
    outer loop
      vertex 14.786 30.705 2.6
      vertex 16.741 32.331 2.6
      vertex 29.019 43.666 2.6
    endloop
  endfacet
  facet normal -0 0 1
    outer loop
      vertex 14.786 30.705 2.6
      vertex 29.019 43.666 2.6
      vertex 5.784 23.275 2.6
    endloop
  endfacet
  facet normal 0 0 1
    outer loop
      vertex 29.019 43.666 2.6
      vertex 28.324 43.645 2.6
      vertex 5.784 23.275 2.6
    endloop
  endfacet
  facet normal 0 0 1
    outer loop
      vertex 28.324 43.645 2.6
      vertex 27.626 43.603 2.6
      vertex 5.784 23.275 2.6
    endloop
  endfacet
  facet normal 0 0 1
    outer loop
      vertex 27.626 43.603 2.6
      vertex 26.925 43.541 2.6
      vertex 5.784 23.275 2.6
    endloop
  endfacet
  facet normal 0 0 1
    outer loop
      vertex 26.925 43.541 2.6
      vertex 26.221 43.459 2.6
      vertex 5.784 23.275 2.6
    endloop
  endfacet
  facet normal 0 0 1
    outer loop
      vertex 26.221 43.459 2.6
      vertex 25.516 43.357 2.6
      vertex 5.784 23.275 2.6
    endloop
  endfacet
  facet normal 0 0 1
    outer loop
      vertex 25.516 43.357 2.6
      vertex 24.81 43.233 2.6
      vertex 5.784 23.275 2.6
    endloop
  endfacet
  facet normal 0 0 1
    outer loop
      vertex 24.81 43.233 2.6
      vertex 24.101 43.09 2.6
      vertex 5.784 23.275 2.6
    endloop
  endfacet
  facet normal 0 0 1
    outer loop
      vertex 24.101 43.09 2.6
      vertex 23.392 42.925 2.6
      vertex 5.784 23.275 2.6
    endloop
  endfacet
  facet normal 0 0 1
    outer loop
      vertex 23.392 42.925 2.6
      vertex 19.256 41.52 2.6
      vertex 5.784 23.275 2.6
    endloop
  endfacet
  facet normal 0 0 1
    outer loop
      vertex 19.256 41.52 2.6
      vertex 15.559 39.503 2.6
      vertex 5.784 23.275 2.6
    endloop
  endfacet
  facet normal 0 0 1
    outer loop
      vertex 15.559 39.503 2.6
      vertex 12.363 36.959 2.6
      vertex 5.784 23.275 2.6
    endloop
  endfacet
  facet normal 0 0 1
    outer loop
      vertex 12.363 36.959 2.6
      vertex 9.727 33.978 2.6
      vertex 5.784 23.275 2.6
    endloop
  endfacet
  facet normal 0 0 1
    outer loop
      vertex 9.727 33.978 2.6
      vertex 7.712 30.645 2.6
      vertex 5.784 23.275 2.6
    endloop
  endfacet
  facet normal 0 0 1
    outer loop
      vertex 7.712 30.645 2.6
      vertex 6.378 27.048 2.6
      vertex 5.784 23.275 2.6
    endloop
  endfacet
  facet normal -0 0 1
    outer loop
      vertex 13.31 29.176 2.6
      vertex 14.786 30.705 2.6
      vertex 5.784 23.275 2.6
    endloop
  endfacet
  facet normal 0 0 1
    outer loop
      vertex 18.971 33.917 2.6
      vertex 21.273 35.33 2.6
      vertex 32.703 43.446 2.6
    endloop
  endfacet
  facet normal -0 0 1
    outer loop
      vertex 18.971 33.917 2.6
      vertex 29.019 43.666 2.6
      vertex 16.741 32.331 2.6
    endloop
  endfacet
  facet normal 0 0 1
    outer loop
      vertex 21.273 35.33 2.6
      vertex 23.444 36.434 2.6
      vertex 32.703 43.446 2.6
    endloop
  endfacet
  facet normal -0 0 1
    outer loop
      vertex 32.703 43.446 2.6
      vertex 29.019 43.666 2.6
      vertex 18.971 33.917 2.6
    endloop
  endfacet
  facet normal 0 0 1
    outer loop
      vertex 23.444 36.434 2.6
      vertex 25.28 37.095 2.6
      vertex 32.703 43.446 2.6
    endloop
  endfacet
  facet normal 0 0 1
    outer loop
      vertex 34.317 36.964 2.6
      vertex 36.624 36.104 2.6
      vertex 42.48 39.698 2.6
    endloop
  endfacet
  facet normal 0 0 1
    outer loop
      vertex 27.772 37.526 2.6
      vertex 28.266 37.569 2.6
      vertex 36.217 42.689 2.6
    endloop
  endfacet
  facet normal -0 0 1
    outer loop
      vertex 36.217 42.689 2.6
      vertex 32.703 43.446 2.6
      vertex 25.28 37.095 2.6
    endloop
  endfacet
  facet normal 0 0 1
    outer loop
      vertex 36.217 42.689 2.6
      vertex 25.28 37.095 2.6
      vertex 25.78 37.211 2.6
    endloop
  endfacet
  facet normal 0 0 1
    outer loop
      vertex 36.217 42.689 2.6
      vertex 25.78 37.211 2.6
      vertex 26.28 37.312 2.6
    endloop
  endfacet
  facet normal 0 0 1
    outer loop
      vertex 36.217 42.689 2.6
      vertex 26.28 37.312 2.6
      vertex 26.778 37.398 2.6
    endloop
  endfacet
  facet normal 0 0 1
    outer loop
      vertex 36.217 42.689 2.6
      vertex 26.778 37.398 2.6
      vertex 27.276 37.469 2.6
    endloop
  endfacet
  facet normal 0 0 1
    outer loop
      vertex 31.843 37.476 2.6
      vertex 34.317 36.964 2.6
      vertex 39.498 41.428 2.6
    endloop
  endfacet
  facet normal 0 0 1
    outer loop
      vertex 36.217 42.689 2.6
      vertex 27.276 37.469 2.6
      vertex 27.772 37.526 2.6
    endloop
  endfacet
  facet normal -0 0 1
    outer loop
      vertex 12.515 27.877 2.6
      vertex 13.31 29.176 2.6
      vertex 5.784 23.275 2.6
    endloop
  endfacet
  facet normal -0 0 1
    outer loop
      vertex 39.498 41.428 2.6
      vertex 36.217 42.689 2.6
      vertex 28.266 37.569 2.6
    endloop
  endfacet
  facet normal 0 0 1
    outer loop
      vertex 40.558 33.432 2.6
      vertex 42.093 31.666 2.6
      vertex 47.29 34.968 2.6
    endloop
  endfacet
  facet normal 0 0 1
    outer loop
      vertex 39.498 41.428 2.6
      vertex 28.266 37.569 2.6
      vertex 28.758 37.599 2.6
    endloop
  endfacet
  facet normal 0 0 1
    outer loop
      vertex 39.498 41.428 2.6
      vertex 28.758 37.599 2.6
      vertex 29.249 37.616 2.6
    endloop
  endfacet
  facet normal -0 -0 1
    outer loop
      vertex 27.368 9.688 2.6
      vertex 24.592 9.992 2.6
      vertex 28.667 3.102 2.6
    endloop
  endfacet
  facet normal 0 0 1
    outer loop
      vertex 39.498 41.428 2.6
      vertex 29.249 37.616 2.6
      vertex 31.843 37.476 2.6
    endloop
  endfacet
  facet normal -0 0 1
    outer loop
      vertex 42.48 39.698 2.6
      vertex 39.498 41.428 2.6
      vertex 34.317 36.964 2.6
    endloop
  endfacet
  facet normal -0 0 1
    outer loop
      vertex 45.099 37.533 2.6
      vertex 42.48 39.698 2.6
      vertex 36.624 36.104 2.6
    endloop
  endfacet
  facet normal -0 0 1
    outer loop
      vertex 47.29 34.968 2.6
      vertex 45.099 37.533 2.6
      vertex 38.72 34.919 2.6
    endloop
  endfacet
  facet normal 0 0 1
    outer loop
      vertex 47.29 34.968 2.6
      vertex 38.72 34.919 2.6
      vertex 40.558 33.432 2.6
    endloop
  endfacet
  facet normal 0 0 1
    outer loop
      vertex 43.28 29.646 2.6
      vertex 44.074 27.394 2.6
      vertex 50.133 28.77 2.6
    endloop
  endfacet
  facet normal -0 0 1
    outer loop
      vertex 48.99 32.035 2.6
      vertex 47.29 34.968 2.6
      vertex 42.093 31.666 2.6
    endloop
  endfacet
  facet normal -0 0 1
    outer loop
      vertex 22.041 26.403 2.6
      vertex 19.702 26.576 2.6
      vertex 5.784 23.275 2.6
    endloop
  endfacet
  facet normal 0 0 1
    outer loop
      vertex 50.133 28.77 2.6
      vertex 48.99 32.035 2.6
      vertex 43.28 29.646 2.6
    endloop
  endfacet
  facet normal -0 0 1
    outer loop
      vertex 24.108 25.868 2.6
      vertex 22.041 26.403 2.6
      vertex 5.784 23.275 2.6
    endloop
  endfacet
  facet normal 0 0 1
    outer loop
      vertex 50.66 24.715 2.6
      vertex 50.133 28.77 2.6
      vertex 44.074 27.394 2.6
    endloop
  endfacet
  facet normal 0 -0 1
    outer loop
      vertex 44.125 21.937 2.6
      vertex 43.239 19.377 2.6
      vertex 50.289 20.725 2.6
    endloop
  endfacet
  facet normal -0 0 1
    outer loop
      vertex 50.66 24.715 2.6
      vertex 44.074 27.394 2.6
      vertex 44.422 24.624 2.6
    endloop
  endfacet
  facet normal 0 -0 1
    outer loop
      vertex 39.925 14.823 2.6
      vertex 37.609 12.917 2.6
      vertex 44.472 10.151 2.6
    endloop
  endfacet
  facet normal 0 0 1
    outer loop
      vertex 50.289 20.725 2.6
      vertex 50.66 24.715 2.6
      vertex 44.125 21.937 2.6
    endloop
  endfacet
  facet normal 0 -0 1
    outer loop
      vertex 41.821 16.991 2.6
      vertex 39.925 14.823 2.6
      vertex 47.126 13.343 2.6
    endloop
  endfacet
  facet normal 0 0 1
    outer loop
      vertex 49.088 16.901 2.6
      vertex 50.289 20.725 2.6
      vertex 43.239 19.377 2.6
    endloop
  endfacet
  facet normal 0 0 1
    outer loop
      vertex 47.126 13.343 2.6
      vertex 49.088 16.901 2.6
      vertex 41.821 16.991 2.6
    endloop
  endfacet
  facet normal 0 0 1
    outer loop
      vertex 23.566 17.738 2.6
      vertex 22.246 23.505 2.6
      vertex 22.506 22.266 2.6
    endloop
  endfacet
  facet normal 0 0 1
    outer loop
      vertex 44.472 10.151 2.6
      vertex 47.126 13.343 2.6
      vertex 39.925 14.823 2.6
    endloop
  endfacet
  facet normal 0 -0 1
    outer loop
      vertex 34.928 11.319 2.6
      vertex 31.938 10.073 2.6
      vertex 37.361 5.271 2.6
    endloop
  endfacet
  facet normal 0 0 1
    outer loop
      vertex 41.194 7.427 2.6
      vertex 44.472 10.151 2.6
      vertex 37.609 12.917 2.6
    endloop
  endfacet
  facet normal 0 -0 1
    outer loop
      vertex 29.899 9.697 2.6
      vertex 27.368 9.688 2.6
      vertex 33.041 3.784 2.6
    endloop
  endfacet
  facet normal 0 0 1
    outer loop
      vertex 37.361 5.271 2.6
      vertex 41.194 7.427 2.6
      vertex 34.928 11.319 2.6
    endloop
  endfacet
  facet normal 0 0 1
    outer loop
      vertex 26.271 20.786 2.6
      vertex 26.435 23.046 2.6
      vertex 22.246 23.505 2.6
    endloop
  endfacet
  facet normal 0 0 1
    outer loop
      vertex 33.041 3.784 2.6
      vertex 37.361 5.271 2.6
      vertex 31.938 10.073 2.6
    endloop
  endfacet
  facet normal 0 0 1
    outer loop
      vertex 23.566 17.738 2.6
      vertex 22.506 22.266 2.6
      vertex 22.701 21.336 2.6
    endloop
  endfacet
  facet normal 0 0 1
    outer loop
      vertex 33.041 3.784 2.6
      vertex 31.938 10.073 2.6
      vertex 29.899 9.697 2.6
    endloop
  endfacet
  facet normal 0 0 1
    outer loop
      vertex 28.667 3.102 2.6
      vertex 33.041 3.784 2.6
      vertex 27.368 9.688 2.6
    endloop
  endfacet
  facet normal 0 0 1
    outer loop
      vertex 24.401 3.189 2.6
      vertex 28.667 3.102 2.6
      vertex 24.592 9.992 2.6
    endloop
  endfacet
  facet normal -0 0 1
    outer loop
      vertex 17.252 12.231 2.6
      vertex 15.954 13.236 2.6
      vertex 13.233 7.541 2.6
    endloop
  endfacet
  facet normal 0 0 1
    outer loop
      vertex 20.341 3.992 2.6
      vertex 24.401 3.189 2.6
      vertex 21.817 10.554 2.6
    endloop
  endfacet
  facet normal 0 0 1
    outer loop
      vertex 16.586 5.46 2.6
      vertex 20.341 3.992 2.6
      vertex 19.288 11.319 2.6
    endloop
  endfacet
  facet normal 0 0 1
    outer loop
      vertex 21.569 16.761 2.6
      vertex 23.566 17.738 2.6
      vertex 22.766 21.026 2.6
    endloop
  endfacet
  facet normal 0 0 1
    outer loop
      vertex 13.233 7.541 2.6
      vertex 16.586 5.46 2.6
      vertex 17.252 12.231 2.6
    endloop
  endfacet
  facet normal 0 0 1
    outer loop
      vertex 10.38 10.183 2.6
      vertex 13.233 7.541 2.6
      vertex 15.954 13.236 2.6
    endloop
  endfacet
  facet normal 0 0 1
    outer loop
      vertex 17.648 15.425 2.6
      vertex 19.505 16.022 2.6
      vertex 22.766 21.026 2.6
    endloop
  endfacet
  facet normal 0 0 1
    outer loop
      vertex 10.38 10.183 2.6
      vertex 15.954 13.236 2.6
      vertex 15.64 14.279 2.6
    endloop
  endfacet
  facet normal 0 0 1
    outer loop
      vertex 10.38 10.183 2.6
      vertex 16.269 14.876 2.6
      vertex 22.766 21.026 2.6
    endloop
  endfacet
  facet normal 0 0 1
    outer loop
      vertex 10.38 10.183 2.6
      vertex 15.64 14.279 2.6
      vertex 16.269 14.876 2.6
    endloop
  endfacet
  facet normal 0 0 1
    outer loop
      vertex 16.269 14.876 2.6
      vertex 17.648 15.425 2.6
      vertex 22.766 21.026 2.6
    endloop
  endfacet
  facet normal 0 0 1
    outer loop
      vertex 19.505 16.022 2.6
      vertex 21.569 16.761 2.6
      vertex 22.766 21.026 2.6
    endloop
  endfacet
  facet normal -0 0 1
    outer loop
      vertex 15.204 26.494 2.6
      vertex 13.544 26.57 2.6
      vertex 5.784 23.275 2.6
    endloop
  endfacet
  facet normal 0 -0 1
    outer loop
      vertex 44.422 24.624 2.6
      vertex 44.125 21.937 2.6
      vertex 50.66 24.715 2.6
    endloop
  endfacet
  facet normal 0 0 1
    outer loop
      vertex 17.34 26.551 2.6
      vertex 15.204 26.494 2.6
      vertex 5.784 23.275 2.6
    endloop
  endfacet
  facet normal 0 0 1
    outer loop
      vertex 42.093 31.666 2.6
      vertex 43.28 29.646 2.6
      vertex 48.99 32.035 2.6
    endloop
  endfacet
  facet normal -0 0 1
    outer loop
      vertex 13.544 26.57 2.6
      vertex 12.606 26.944 2.6
      vertex 5.784 23.275 2.6
    endloop
  endfacet
  facet normal -0 0 1
    outer loop
      vertex 12.606 26.944 2.6
      vertex 12.515 27.877 2.6
      vertex 5.784 23.275 2.6
    endloop
  endfacet
  facet normal -0.998554 -0.0537663 -0
    outer loop
      vertex 5.992 19.412 0
      vertex 5.992 19.412 2.6
      vertex 5.784 23.275 0
    endloop
  endfacet
  facet normal -0.998554 -0.0537663 -0
    outer loop
      vertex 5.784 23.275 0
      vertex 5.992 19.412 2.6
      vertex 5.784 23.275 2.6
    endloop
  endfacet
  facet normal -0.987833 0.155519 0
    outer loop
      vertex 5.784 23.275 2.6
      vertex 6.378 27.048 2.6
      vertex 5.784 23.275 0
    endloop
  endfacet
  facet normal -0.987833 0.155519 0
    outer loop
      vertex 5.784 23.275 0
      vertex 6.378 27.048 2.6
      vertex 6.378 27.048 0
    endloop
  endfacet
  facet normal 0.244445 -0.969663 0
    outer loop
      vertex 5.992 19.412 0
      vertex 8.023 19.924 0
      vertex 8.023 19.924 2.6
    endloop
  endfacet
  facet normal 0.244445 -0.969663 0
    outer loop
      vertex 5.992 19.412 2.6
      vertex 5.992 19.412 0
      vertex 8.023 19.924 2.6
    endloop
  endfacet
  facet normal 0.244332 -0.969692 0
    outer loop
      vertex 8.023 19.924 0
      vertex 10.055 20.436 0
      vertex 10.055 20.436 2.6
    endloop
  endfacet
  facet normal 0.244332 -0.969692 0
    outer loop
      vertex 8.023 19.924 2.6
      vertex 8.023 19.924 0
      vertex 10.055 20.436 2.6
    endloop
  endfacet
  facet normal 0.243883 -0.969805 0
    outer loop
      vertex 10.055 20.436 0
      vertex 12.087 20.947 0
      vertex 12.087 20.947 2.6
    endloop
  endfacet
  facet normal 0.243883 -0.969805 0
    outer loop
      vertex 10.055 20.436 2.6
      vertex 10.055 20.436 0
      vertex 12.087 20.947 2.6
    endloop
  endfacet
  facet normal 0.244332 -0.969692 0
    outer loop
      vertex 12.087 20.947 0
      vertex 14.119 21.459 0
      vertex 14.119 21.459 2.6
    endloop
  endfacet
  facet normal 0.244332 -0.969692 0
    outer loop
      vertex 12.087 20.947 2.6
      vertex 12.087 20.947 0
      vertex 14.119 21.459 2.6
    endloop
  endfacet
  facet normal 0.243883 -0.969805 0
    outer loop
      vertex 14.119 21.459 0
      vertex 16.151 21.97 0
      vertex 16.151 21.97 2.6
    endloop
  endfacet
  facet normal 0.243883 -0.969805 0
    outer loop
      vertex 14.119 21.459 2.6
      vertex 14.119 21.459 0
      vertex 16.151 21.97 2.6
    endloop
  endfacet
  facet normal 0.244445 -0.969663 0
    outer loop
      vertex 16.151 21.97 0
      vertex 18.182 22.482 0
      vertex 18.182 22.482 2.6
    endloop
  endfacet
  facet normal 0.244445 -0.969663 0
    outer loop
      vertex 16.151 21.97 2.6
      vertex 16.151 21.97 0
      vertex 18.182 22.482 2.6
    endloop
  endfacet
  facet normal 0.243883 -0.969805 0
    outer loop
      vertex 18.182 22.482 0
      vertex 20.214 22.993 0
      vertex 20.214 22.993 2.6
    endloop
  endfacet
  facet normal 0.243883 -0.969805 0
    outer loop
      vertex 18.182 22.482 2.6
      vertex 18.182 22.482 0
      vertex 20.214 22.993 2.6
    endloop
  endfacet
  facet normal 0.244332 -0.969692 0
    outer loop
      vertex 20.214 22.993 0
      vertex 22.246 23.505 0
      vertex 22.246 23.505 2.6
    endloop
  endfacet
  facet normal 0.244332 -0.969692 0
    outer loop
      vertex 20.214 22.993 2.6
      vertex 20.214 22.993 0
      vertex 22.246 23.505 2.6
    endloop
  endfacet
  facet normal -0.978717 -0.205215 -0
    outer loop
      vertex 22.311 23.195 0
      vertex 22.311 23.195 2.6
      vertex 22.246 23.505 0
    endloop
  endfacet
  facet normal -0.978717 -0.205215 -0
    outer loop
      vertex 22.246 23.505 0
      vertex 22.311 23.195 2.6
      vertex 22.246 23.505 2.6
    endloop
  endfacet
  facet normal -0.978717 -0.205215 -0
    outer loop
      vertex 22.376 22.885 0
      vertex 22.376 22.885 2.6
      vertex 22.311 23.195 0
    endloop
  endfacet
  facet normal -0.978717 -0.205215 -0
    outer loop
      vertex 22.311 23.195 0
      vertex 22.376 22.885 2.6
      vertex 22.311 23.195 2.6
    endloop
  endfacet
  facet normal -0.978717 -0.205215 -0
    outer loop
      vertex 22.441 22.575 0
      vertex 22.441 22.575 2.6
      vertex 22.376 22.885 0
    endloop
  endfacet
  facet normal -0.978717 -0.205215 -0
    outer loop
      vertex 22.376 22.885 0
      vertex 22.441 22.575 2.6
      vertex 22.376 22.885 2.6
    endloop
  endfacet
  facet normal -0.978583 -0.205851 -0
    outer loop
      vertex 22.506 22.266 0
      vertex 22.506 22.266 2.6
      vertex 22.441 22.575 0
    endloop
  endfacet
  facet normal -0.978583 -0.205851 -0
    outer loop
      vertex 22.441 22.575 0
      vertex 22.506 22.266 2.6
      vertex 22.441 22.575 2.6
    endloop
  endfacet
  facet normal -0.978717 -0.205215 -0
    outer loop
      vertex 22.571 21.956 0
      vertex 22.571 21.956 2.6
      vertex 22.506 22.266 0
    endloop
  endfacet
  facet normal -0.978717 -0.205215 -0
    outer loop
      vertex 22.506 22.266 0
      vertex 22.571 21.956 2.6
      vertex 22.506 22.266 2.6
    endloop
  endfacet
  facet normal -0.978717 -0.205215 -0
    outer loop
      vertex 22.636 21.646 0
      vertex 22.636 21.646 2.6
      vertex 22.571 21.956 0
    endloop
  endfacet
  facet normal -0.978717 -0.205215 -0
    outer loop
      vertex 22.571 21.956 0
      vertex 22.636 21.646 2.6
      vertex 22.571 21.956 2.6
    endloop
  endfacet
  facet normal -0.978717 -0.205215 -0
    outer loop
      vertex 22.701 21.336 0
      vertex 22.701 21.336 2.6
      vertex 22.636 21.646 0
    endloop
  endfacet
  facet normal -0.978717 -0.205215 -0
    outer loop
      vertex 22.636 21.646 0
      vertex 22.701 21.336 2.6
      vertex 22.636 21.646 2.6
    endloop
  endfacet
  facet normal -0.978717 -0.205215 -0
    outer loop
      vertex 22.766 21.026 0
      vertex 22.766 21.026 2.6
      vertex 22.701 21.336 0
    endloop
  endfacet
  facet normal -0.978717 -0.205215 -0
    outer loop
      vertex 22.701 21.336 0
      vertex 22.766 21.026 2.6
      vertex 22.701 21.336 2.6
    endloop
  endfacet
  facet normal -0.244225 0.969718 0
    outer loop
      vertex 14.666 18.985 2.6
      vertex 16.691 19.495 2.6
      vertex 14.666 18.985 0
    endloop
  endfacet
  facet normal -0.244225 0.969718 0
    outer loop
      vertex 14.666 18.985 0
      vertex 16.691 19.495 2.6
      vertex 16.691 19.495 0
    endloop
  endfacet
  facet normal -0.244562 0.969634 0
    outer loop
      vertex 12.64 18.474 2.6
      vertex 14.666 18.985 2.6
      vertex 12.64 18.474 0
    endloop
  endfacet
  facet normal -0.244562 0.969634 0
    outer loop
      vertex 12.64 18.474 0
      vertex 14.666 18.985 2.6
      vertex 14.666 18.985 0
    endloop
  endfacet
  facet normal -0.244225 0.969718 0
    outer loop
      vertex 10.615 17.964 2.6
      vertex 12.64 18.474 2.6
      vertex 10.615 17.964 0
    endloop
  endfacet
  facet normal -0.244225 0.969718 0
    outer loop
      vertex 10.615 17.964 0
      vertex 12.64 18.474 2.6
      vertex 12.64 18.474 0
    endloop
  endfacet
  facet normal -0.244676 0.969605 0
    outer loop
      vertex 8.59 17.453 2.6
      vertex 10.615 17.964 2.6
      vertex 8.59 17.453 0
    endloop
  endfacet
  facet normal -0.244676 0.969605 0
    outer loop
      vertex 8.59 17.453 0
      vertex 10.615 17.964 2.6
      vertex 10.615 17.964 0
    endloop
  endfacet
  facet normal -0.244225 0.969718 0
    outer loop
      vertex 6.565 16.943 2.6
      vertex 8.59 17.453 2.6
      vertex 6.565 16.943 0
    endloop
  endfacet
  facet normal -0.244225 0.969718 0
    outer loop
      vertex 6.565 16.943 0
      vertex 8.59 17.453 2.6
      vertex 8.59 17.453 0
    endloop
  endfacet
  facet normal -0.91801 -0.396558 -0
    outer loop
      vertex 8.124 13.334 0
      vertex 8.124 13.334 2.6
      vertex 6.565 16.943 0
    endloop
  endfacet
  facet normal -0.91801 -0.396558 -0
    outer loop
      vertex 6.565 16.943 0
      vertex 8.124 13.334 2.6
      vertex 6.565 16.943 2.6
    endloop
  endfacet
  facet normal -0.813088 -0.582141 -0
    outer loop
      vertex 10.38 10.183 0
      vertex 10.38 10.183 2.6
      vertex 8.124 13.334 0
    endloop
  endfacet
  facet normal -0.813088 -0.582141 -0
    outer loop
      vertex 8.124 13.334 0
      vertex 10.38 10.183 2.6
      vertex 8.124 13.334 2.6
    endloop
  endfacet
  facet normal -0.679454 -0.733718 0
    outer loop
      vertex 10.38 10.183 0
      vertex 13.233 7.541 0
      vertex 13.233 7.541 2.6
    endloop
  endfacet
  facet normal -0.679454 -0.733718 0
    outer loop
      vertex 10.38 10.183 2.6
      vertex 10.38 10.183 0
      vertex 13.233 7.541 2.6
    endloop
  endfacet
  facet normal -0.527331 -0.84966 0
    outer loop
      vertex 13.233 7.541 0
      vertex 16.586 5.46 0
      vertex 16.586 5.46 2.6
    endloop
  endfacet
  facet normal -0.527331 -0.84966 0
    outer loop
      vertex 13.233 7.541 2.6
      vertex 13.233 7.541 0
      vertex 16.586 5.46 2.6
    endloop
  endfacet
  facet normal -0.364109 -0.931356 0
    outer loop
      vertex 16.586 5.46 0
      vertex 20.341 3.992 0
      vertex 20.341 3.992 2.6
    endloop
  endfacet
  facet normal -0.364109 -0.931356 0
    outer loop
      vertex 16.586 5.46 2.6
      vertex 16.586 5.46 0
      vertex 20.341 3.992 2.6
    endloop
  endfacet
  facet normal -0.194025 -0.980997 0
    outer loop
      vertex 20.341 3.992 0
      vertex 24.401 3.189 0
      vertex 24.401 3.189 2.6
    endloop
  endfacet
  facet normal -0.194025 -0.980997 0
    outer loop
      vertex 20.341 3.992 2.6
      vertex 20.341 3.992 0
      vertex 24.401 3.189 2.6
    endloop
  endfacet
  facet normal -0.0203896 -0.999792 0
    outer loop
      vertex 24.401 3.189 0
      vertex 28.667 3.102 0
      vertex 28.667 3.102 2.6
    endloop
  endfacet
  facet normal -0.0203896 -0.999792 0
    outer loop
      vertex 24.401 3.189 2.6
      vertex 24.401 3.189 0
      vertex 28.667 3.102 2.6
    endloop
  endfacet
  facet normal 0.15406 -0.988062 0
    outer loop
      vertex 28.667 3.102 0
      vertex 33.041 3.784 0
      vertex 33.041 3.784 2.6
    endloop
  endfacet
  facet normal 0.15406 -0.988062 0
    outer loop
      vertex 28.667 3.102 2.6
      vertex 28.667 3.102 0
      vertex 33.041 3.784 2.6
    endloop
  endfacet
  facet normal 0.325471 -0.945552 0
    outer loop
      vertex 33.041 3.784 0
      vertex 37.361 5.271 0
      vertex 37.361 5.271 2.6
    endloop
  endfacet
  facet normal 0.325471 -0.945552 0
    outer loop
      vertex 33.041 3.784 2.6
      vertex 33.041 3.784 0
      vertex 37.361 5.271 2.6
    endloop
  endfacet
  facet normal 0.49025 -0.871582 0
    outer loop
      vertex 37.361 5.271 0
      vertex 41.194 7.427 0
      vertex 41.194 7.427 2.6
    endloop
  endfacet
  facet normal 0.49025 -0.871582 0
    outer loop
      vertex 37.361 5.271 2.6
      vertex 37.361 5.271 0
      vertex 41.194 7.427 2.6
    endloop
  endfacet
  facet normal 0.639122 -0.769105 0
    outer loop
      vertex 41.194 7.427 0
      vertex 44.472 10.151 0
      vertex 44.472 10.151 2.6
    endloop
  endfacet
  facet normal 0.639122 -0.769105 0
    outer loop
      vertex 41.194 7.427 2.6
      vertex 41.194 7.427 0
      vertex 44.472 10.151 2.6
    endloop
  endfacet
  facet normal 0.768932 -0.639331 0
    outer loop
      vertex 44.472 10.151 0
      vertex 47.126 13.343 0
      vertex 47.126 13.343 2.6
    endloop
  endfacet
  facet normal 0.768932 -0.639331 0
    outer loop
      vertex 44.472 10.151 2.6
      vertex 44.472 10.151 0
      vertex 47.126 13.343 2.6
    endloop
  endfacet
  facet normal 0.875685 -0.482882 0
    outer loop
      vertex 47.126 13.343 0
      vertex 49.088 16.901 0
      vertex 49.088 16.901 2.6
    endloop
  endfacet
  facet normal 0.875685 -0.482882 0
    outer loop
      vertex 47.126 13.343 2.6
      vertex 47.126 13.343 0
      vertex 49.088 16.901 2.6
    endloop
  endfacet
  facet normal 0.954053 -0.299638 0
    outer loop
      vertex 49.088 16.901 0
      vertex 50.289 20.725 0
      vertex 50.289 20.725 2.6
    endloop
  endfacet
  facet normal 0.954053 -0.299638 0
    outer loop
      vertex 49.088 16.901 2.6
      vertex 49.088 16.901 0
      vertex 50.289 20.725 2.6
    endloop
  endfacet
  facet normal 0.995705 -0.0925831 0
    outer loop
      vertex 50.289 20.725 0
      vertex 50.66 24.715 0
      vertex 50.66 24.715 2.6
    endloop
  endfacet
  facet normal 0.995705 -0.0925831 0
    outer loop
      vertex 50.289 20.725 2.6
      vertex 50.289 20.725 0
      vertex 50.66 24.715 2.6
    endloop
  endfacet
  facet normal 0.99166 0.128879 0
    outer loop
      vertex 50.133 28.77 0
      vertex 50.133 28.77 2.6
      vertex 50.66 24.715 2.6
    endloop
  endfacet
  facet normal 0.99166 0.128879 0
    outer loop
      vertex 50.66 24.715 0
      vertex 50.133 28.77 0
      vertex 50.66 24.715 2.6
    endloop
  endfacet
  facet normal 0.943836 0.330415 0
    outer loop
      vertex 48.99 32.035 0
      vertex 48.99 32.035 2.6
      vertex 50.133 28.77 2.6
    endloop
  endfacet
  facet normal 0.943836 0.330415 0
    outer loop
      vertex 50.133 28.77 0
      vertex 48.99 32.035 0
      vertex 50.133 28.77 2.6
    endloop
  endfacet
  facet normal 0.865177 0.501466 0
    outer loop
      vertex 47.29 34.968 0
      vertex 47.29 34.968 2.6
      vertex 48.99 32.035 2.6
    endloop
  endfacet
  facet normal 0.865177 0.501466 0
    outer loop
      vertex 48.99 32.035 0
      vertex 47.29 34.968 0
      vertex 48.99 32.035 2.6
    endloop
  endfacet
  facet normal 0.760365 0.649497 0
    outer loop
      vertex 45.099 37.533 0
      vertex 45.099 37.533 2.6
      vertex 47.29 34.968 2.6
    endloop
  endfacet
  facet normal 0.760365 0.649497 0
    outer loop
      vertex 47.29 34.968 0
      vertex 45.099 37.533 0
      vertex 47.29 34.968 2.6
    endloop
  endfacet
  facet normal 0.63714 0.770748 -0
    outer loop
      vertex 42.48 39.698 2.6
      vertex 45.099 37.533 2.6
      vertex 42.48 39.698 0
    endloop
  endfacet
  facet normal 0.63714 0.770748 0
    outer loop
      vertex 42.48 39.698 0
      vertex 45.099 37.533 2.6
      vertex 45.099 37.533 0
    endloop
  endfacet
  facet normal 0.501814 0.864976 -0
    outer loop
      vertex 39.498 41.428 2.6
      vertex 42.48 39.698 2.6
      vertex 39.498 41.428 0
    endloop
  endfacet
  facet normal 0.501814 0.864976 0
    outer loop
      vertex 39.498 41.428 0
      vertex 42.48 39.698 2.6
      vertex 42.48 39.698 0
    endloop
  endfacet
  facet normal 0.35875 0.933434 -0
    outer loop
      vertex 36.217 42.689 2.6
      vertex 39.498 41.428 2.6
      vertex 36.217 42.689 0
    endloop
  endfacet
  facet normal 0.35875 0.933434 0
    outer loop
      vertex 36.217 42.689 0
      vertex 39.498 41.428 2.6
      vertex 39.498 41.428 0
    endloop
  endfacet
  facet normal 0.210593 0.977574 -0
    outer loop
      vertex 32.703 43.446 2.6
      vertex 36.217 42.689 2.6
      vertex 32.703 43.446 0
    endloop
  endfacet
  facet normal 0.210593 0.977574 0
    outer loop
      vertex 32.703 43.446 0
      vertex 36.217 42.689 2.6
      vertex 36.217 42.689 0
    endloop
  endfacet
  facet normal 0.0596115 0.998222 -0
    outer loop
      vertex 29.019 43.666 2.6
      vertex 32.703 43.446 2.6
      vertex 29.019 43.666 0
    endloop
  endfacet
  facet normal 0.0596115 0.998222 0
    outer loop
      vertex 29.019 43.666 0
      vertex 32.703 43.446 2.6
      vertex 32.703 43.446 0
    endloop
  endfacet
  facet normal -0.030202 0.999544 0
    outer loop
      vertex 28.324 43.645 2.6
      vertex 29.019 43.666 2.6
      vertex 28.324 43.645 0
    endloop
  endfacet
  facet normal -0.030202 0.999544 0
    outer loop
      vertex 28.324 43.645 0
      vertex 29.019 43.666 2.6
      vertex 29.019 43.666 0
    endloop
  endfacet
  facet normal -0.0600633 0.998195 0
    outer loop
      vertex 27.626 43.603 2.6
      vertex 28.324 43.645 2.6
      vertex 27.626 43.603 0
    endloop
  endfacet
  facet normal -0.0600633 0.998195 0
    outer loop
      vertex 27.626 43.603 0
      vertex 28.324 43.645 2.6
      vertex 28.324 43.645 0
    endloop
  endfacet
  facet normal -0.0881012 0.996112 0
    outer loop
      vertex 26.925 43.541 2.6
      vertex 27.626 43.603 2.6
      vertex 26.925 43.541 0
    endloop
  endfacet
  facet normal -0.0881012 0.996112 0
    outer loop
      vertex 26.925 43.541 0
      vertex 27.626 43.603 2.6
      vertex 27.626 43.603 0
    endloop
  endfacet
  facet normal -0.115695 0.993285 0
    outer loop
      vertex 26.221 43.459 2.6
      vertex 26.925 43.541 2.6
      vertex 26.221 43.459 0
    endloop
  endfacet
  facet normal -0.115695 0.993285 0
    outer loop
      vertex 26.221 43.459 0
      vertex 26.925 43.541 2.6
      vertex 26.925 43.541 0
    endloop
  endfacet
  facet normal -0.14319 0.989695 0
    outer loop
      vertex 25.516 43.357 2.6
      vertex 26.221 43.459 2.6
      vertex 25.516 43.357 0
    endloop
  endfacet
  facet normal -0.14319 0.989695 0
    outer loop
      vertex 25.516 43.357 0
      vertex 26.221 43.459 2.6
      vertex 26.221 43.459 0
    endloop
  endfacet
  facet normal -0.172989 0.984924 0
    outer loop
      vertex 24.81 43.233 2.6
      vertex 25.516 43.357 2.6
      vertex 24.81 43.233 0
    endloop
  endfacet
  facet normal -0.172989 0.984924 0
    outer loop
      vertex 24.81 43.233 0
      vertex 25.516 43.357 2.6
      vertex 25.516 43.357 0
    endloop
  endfacet
  facet normal -0.197711 0.98026 0
    outer loop
      vertex 24.101 43.09 2.6
      vertex 24.81 43.233 2.6
      vertex 24.101 43.09 0
    endloop
  endfacet
  facet normal -0.197711 0.98026 0
    outer loop
      vertex 24.101 43.09 0
      vertex 24.81 43.233 2.6
      vertex 24.81 43.233 0
    endloop
  endfacet
  facet normal -0.226665 0.973973 0
    outer loop
      vertex 23.392 42.925 2.6
      vertex 24.101 43.09 2.6
      vertex 23.392 42.925 0
    endloop
  endfacet
  facet normal -0.226665 0.973973 0
    outer loop
      vertex 23.392 42.925 0
      vertex 24.101 43.09 2.6
      vertex 24.101 43.09 0
    endloop
  endfacet
  facet normal -0.321648 0.946859 0
    outer loop
      vertex 19.256 41.52 2.6
      vertex 23.392 42.925 2.6
      vertex 19.256 41.52 0
    endloop
  endfacet
  facet normal -0.321648 0.946859 0
    outer loop
      vertex 19.256 41.52 0
      vertex 23.392 42.925 2.6
      vertex 23.392 42.925 0
    endloop
  endfacet
  facet normal -0.478935 0.87785 0
    outer loop
      vertex 15.559 39.503 2.6
      vertex 19.256 41.52 2.6
      vertex 15.559 39.503 0
    endloop
  endfacet
  facet normal -0.478935 0.87785 0
    outer loop
      vertex 15.559 39.503 0
      vertex 19.256 41.52 2.6
      vertex 19.256 41.52 0
    endloop
  endfacet
  facet normal -0.622783 0.782395 0
    outer loop
      vertex 12.363 36.959 2.6
      vertex 15.559 39.503 2.6
      vertex 12.363 36.959 0
    endloop
  endfacet
  facet normal -0.622783 0.782395 0
    outer loop
      vertex 12.363 36.959 0
      vertex 15.559 39.503 2.6
      vertex 15.559 39.503 0
    endloop
  endfacet
  facet normal -0.749126 0.662427 0
    outer loop
      vertex 9.727 33.978 2.6
      vertex 12.363 36.959 2.6
      vertex 9.727 33.978 0
    endloop
  endfacet
  facet normal -0.749126 0.662427 0
    outer loop
      vertex 9.727 33.978 0
      vertex 12.363 36.959 2.6
      vertex 12.363 36.959 0
    endloop
  endfacet
  facet normal -0.855766 0.517362 0
    outer loop
      vertex 7.712 30.645 2.6
      vertex 9.727 33.978 2.6
      vertex 7.712 30.645 0
    endloop
  endfacet
  facet normal -0.855766 0.517362 0
    outer loop
      vertex 7.712 30.645 0
      vertex 9.727 33.978 2.6
      vertex 9.727 33.978 0
    endloop
  endfacet
  facet normal -0.937598 0.347722 0
    outer loop
      vertex 6.378 27.048 2.6
      vertex 7.712 30.645 2.6
      vertex 6.378 27.048 0
    endloop
  endfacet
  facet normal -0.937598 0.347722 0
    outer loop
      vertex 6.378 27.048 0
      vertex 7.712 30.645 2.6
      vertex 7.712 30.645 0
    endloop
  endfacet
  facet normal 0.995277 0.0970742 0
    outer loop
      vertex 12.515 27.877 0
      vertex 12.515 27.877 2.6
      vertex 12.606 26.944 2.6
    endloop
  endfacet
  facet normal 0.995277 0.0970742 0
    outer loop
      vertex 12.606 26.944 0
      vertex 12.515 27.877 0
      vertex 12.606 26.944 2.6
    endloop
  endfacet
  facet normal 0.852941 -0.522008 0
    outer loop
      vertex 12.515 27.877 0
      vertex 13.31 29.176 0
      vertex 13.31 29.176 2.6
    endloop
  endfacet
  facet normal 0.852941 -0.522008 0
    outer loop
      vertex 12.515 27.877 2.6
      vertex 12.515 27.877 0
      vertex 13.31 29.176 2.6
    endloop
  endfacet
  facet normal 0.719466 -0.694527 0
    outer loop
      vertex 13.31 29.176 0
      vertex 14.786 30.705 0
      vertex 14.786 30.705 2.6
    endloop
  endfacet
  facet normal 0.719466 -0.694527 0
    outer loop
      vertex 13.31 29.176 2.6
      vertex 13.31 29.176 0
      vertex 14.786 30.705 2.6
    endloop
  endfacet
  facet normal 0.639449 -0.768833 0
    outer loop
      vertex 14.786 30.705 0
      vertex 16.741 32.331 0
      vertex 16.741 32.331 2.6
    endloop
  endfacet
  facet normal 0.639449 -0.768833 0
    outer loop
      vertex 14.786 30.705 2.6
      vertex 14.786 30.705 0
      vertex 16.741 32.331 2.6
    endloop
  endfacet
  facet normal 0.579578 -0.814917 0
    outer loop
      vertex 16.741 32.331 0
      vertex 18.971 33.917 0
      vertex 18.971 33.917 2.6
    endloop
  endfacet
  facet normal 0.579578 -0.814917 0
    outer loop
      vertex 16.741 32.331 2.6
      vertex 16.741 32.331 0
      vertex 18.971 33.917 2.6
    endloop
  endfacet
  facet normal 0.523126 -0.852255 0
    outer loop
      vertex 18.971 33.917 0
      vertex 21.273 35.33 0
      vertex 21.273 35.33 2.6
    endloop
  endfacet
  facet normal 0.523126 -0.852255 0
    outer loop
      vertex 18.971 33.917 2.6
      vertex 18.971 33.917 0
      vertex 21.273 35.33 2.6
    endloop
  endfacet
  facet normal 0.45328 -0.891368 0
    outer loop
      vertex 21.273 35.33 0
      vertex 23.444 36.434 0
      vertex 23.444 36.434 2.6
    endloop
  endfacet
  facet normal 0.45328 -0.891368 0
    outer loop
      vertex 21.273 35.33 2.6
      vertex 21.273 35.33 0
      vertex 23.444 36.434 2.6
    endloop
  endfacet
  facet normal 0.338738 -0.940881 0
    outer loop
      vertex 23.444 36.434 0
      vertex 25.28 37.095 0
      vertex 25.28 37.095 2.6
    endloop
  endfacet
  facet normal 0.338738 -0.940881 0
    outer loop
      vertex 23.444 36.434 2.6
      vertex 23.444 36.434 0
      vertex 25.28 37.095 2.6
    endloop
  endfacet
  facet normal 0.225998 -0.974128 0
    outer loop
      vertex 25.28 37.095 0
      vertex 25.78 37.211 0
      vertex 25.78 37.211 2.6
    endloop
  endfacet
  facet normal 0.225998 -0.974128 0
    outer loop
      vertex 25.28 37.095 2.6
      vertex 25.28 37.095 0
      vertex 25.78 37.211 2.6
    endloop
  endfacet
  facet normal 0.198001 -0.980202 0
    outer loop
      vertex 25.78 37.211 0
      vertex 26.28 37.312 0
      vertex 26.28 37.312 2.6
    endloop
  endfacet
  facet normal 0.198001 -0.980202 0
    outer loop
      vertex 25.78 37.211 2.6
      vertex 25.78 37.211 0
      vertex 26.28 37.312 2.6
    endloop
  endfacet
  facet normal 0.170172 -0.985414 0
    outer loop
      vertex 26.28 37.312 0
      vertex 26.778 37.398 0
      vertex 26.778 37.398 2.6
    endloop
  endfacet
  facet normal 0.170172 -0.985414 0
    outer loop
      vertex 26.28 37.312 2.6
      vertex 26.28 37.312 0
      vertex 26.778 37.398 2.6
    endloop
  endfacet
  facet normal 0.141143 -0.989989 0
    outer loop
      vertex 26.778 37.398 0
      vertex 27.276 37.469 0
      vertex 27.276 37.469 2.6
    endloop
  endfacet
  facet normal 0.141143 -0.989989 0
    outer loop
      vertex 26.778 37.398 2.6
      vertex 26.778 37.398 0
      vertex 27.276 37.469 2.6
    endloop
  endfacet
  facet normal 0.114168 -0.993461 0
    outer loop
      vertex 27.276 37.469 0
      vertex 27.772 37.526 0
      vertex 27.772 37.526 2.6
    endloop
  endfacet
  facet normal 0.114168 -0.993461 0
    outer loop
      vertex 27.276 37.469 2.6
      vertex 27.276 37.469 0
      vertex 27.772 37.526 2.6
    endloop
  endfacet
  facet normal 0.0867166 -0.996233 0
    outer loop
      vertex 27.772 37.526 0
      vertex 28.266 37.569 0
      vertex 28.266 37.569 2.6
    endloop
  endfacet
  facet normal 0.0867166 -0.996233 0
    outer loop
      vertex 27.772 37.526 2.6
      vertex 27.772 37.526 0
      vertex 28.266 37.569 2.6
    endloop
  endfacet
  facet normal 0.0608626 -0.998146 0
    outer loop
      vertex 28.266 37.569 0
      vertex 28.758 37.599 0
      vertex 28.758 37.599 2.6
    endloop
  endfacet
  facet normal 0.0608626 -0.998146 0
    outer loop
      vertex 28.266 37.569 2.6
      vertex 28.266 37.569 0
      vertex 28.758 37.599 2.6
    endloop
  endfacet
  facet normal 0.0346025 -0.999401 0
    outer loop
      vertex 28.758 37.599 0
      vertex 29.249 37.616 0
      vertex 29.249 37.616 2.6
    endloop
  endfacet
  facet normal 0.0346025 -0.999401 0
    outer loop
      vertex 28.758 37.599 2.6
      vertex 28.758 37.599 0
      vertex 29.249 37.616 2.6
    endloop
  endfacet
  facet normal -0.0538923 -0.998547 0
    outer loop
      vertex 29.249 37.616 0
      vertex 31.843 37.476 0
      vertex 31.843 37.476 2.6
    endloop
  endfacet
  facet normal -0.0538923 -0.998547 0
    outer loop
      vertex 29.249 37.616 2.6
      vertex 29.249 37.616 0
      vertex 31.843 37.476 2.6
    endloop
  endfacet
  facet normal -0.202658 -0.97925 0
    outer loop
      vertex 31.843 37.476 0
      vertex 34.317 36.964 0
      vertex 34.317 36.964 2.6
    endloop
  endfacet
  facet normal -0.202658 -0.97925 0
    outer loop
      vertex 31.843 37.476 2.6
      vertex 31.843 37.476 0
      vertex 34.317 36.964 2.6
    endloop
  endfacet
  facet normal -0.349298 -0.937012 0
    outer loop
      vertex 34.317 36.964 0
      vertex 36.624 36.104 0
      vertex 36.624 36.104 2.6
    endloop
  endfacet
  facet normal -0.349298 -0.937012 0
    outer loop
      vertex 34.317 36.964 2.6
      vertex 34.317 36.964 0
      vertex 36.624 36.104 2.6
    endloop
  endfacet
  facet normal -0.492153 -0.870509 0
    outer loop
      vertex 36.624 36.104 0
      vertex 38.72 34.919 0
      vertex 38.72 34.919 2.6
    endloop
  endfacet
  facet normal -0.492153 -0.870509 0
    outer loop
      vertex 36.624 36.104 2.6
      vertex 36.624 36.104 0
      vertex 38.72 34.919 2.6
    endloop
  endfacet
  facet normal -0.628967 -0.777432 0
    outer loop
      vertex 38.72 34.919 0
      vertex 40.558 33.432 0
      vertex 40.558 33.432 2.6
    endloop
  endfacet
  facet normal -0.628967 -0.777432 0
    outer loop
      vertex 38.72 34.919 2.6
      vertex 38.72 34.919 0
      vertex 40.558 33.432 2.6
    endloop
  endfacet
  facet normal -0.754744 -0.65602 -0
    outer loop
      vertex 42.093 31.666 0
      vertex 42.093 31.666 2.6
      vertex 40.558 33.432 0
    endloop
  endfacet
  facet normal -0.754744 -0.65602 -0
    outer loop
      vertex 40.558 33.432 0
      vertex 42.093 31.666 2.6
      vertex 40.558 33.432 2.6
    endloop
  endfacet
  facet normal -0.862165 -0.506628 -0
    outer loop
      vertex 43.28 29.646 0
      vertex 43.28 29.646 2.6
      vertex 42.093 31.666 0
    endloop
  endfacet
  facet normal -0.862165 -0.506628 -0
    outer loop
      vertex 42.093 31.666 0
      vertex 43.28 29.646 2.6
      vertex 42.093 31.666 2.6
    endloop
  endfacet
  facet normal -0.943099 -0.332513 -0
    outer loop
      vertex 44.074 27.394 0
      vertex 44.074 27.394 2.6
      vertex 43.28 29.646 0
    endloop
  endfacet
  facet normal -0.943099 -0.332513 -0
    outer loop
      vertex 43.28 29.646 0
      vertex 44.074 27.394 2.6
      vertex 43.28 29.646 2.6
    endloop
  endfacet
  facet normal -0.992201 -0.124652 -0
    outer loop
      vertex 44.422 24.624 0
      vertex 44.422 24.624 2.6
      vertex 44.074 27.394 0
    endloop
  endfacet
  facet normal -0.992201 -0.124652 -0
    outer loop
      vertex 44.074 27.394 0
      vertex 44.422 24.624 2.6
      vertex 44.074 27.394 2.6
    endloop
  endfacet
  facet normal -0.993947 0.109863 0
    outer loop
      vertex 44.125 21.937 2.6
      vertex 44.422 24.624 2.6
      vertex 44.125 21.937 0
    endloop
  endfacet
  facet normal -0.993947 0.109863 0
    outer loop
      vertex 44.125 21.937 0
      vertex 44.422 24.624 2.6
      vertex 44.422 24.624 0
    endloop
  endfacet
  facet normal -0.945004 0.32706 0
    outer loop
      vertex 43.239 19.377 2.6
      vertex 44.125 21.937 2.6
      vertex 43.239 19.377 0
    endloop
  endfacet
  facet normal -0.945004 0.32706 0
    outer loop
      vertex 43.239 19.377 0
      vertex 44.125 21.937 2.6
      vertex 44.125 21.937 0
    endloop
  endfacet
  facet normal -0.859647 0.510888 0
    outer loop
      vertex 41.821 16.991 2.6
      vertex 43.239 19.377 2.6
      vertex 41.821 16.991 0
    endloop
  endfacet
  facet normal -0.859647 0.510888 0
    outer loop
      vertex 41.821 16.991 0
      vertex 43.239 19.377 2.6
      vertex 43.239 19.377 0
    endloop
  endfacet
  facet normal -0.752749 0.658308 0
    outer loop
      vertex 39.925 14.823 2.6
      vertex 41.821 16.991 2.6
      vertex 39.925 14.823 0
    endloop
  endfacet
  facet normal -0.752749 0.658308 0
    outer loop
      vertex 39.925 14.823 0
      vertex 41.821 16.991 2.6
      vertex 41.821 16.991 0
    endloop
  endfacet
  facet normal -0.63545 0.772142 0
    outer loop
      vertex 37.609 12.917 2.6
      vertex 39.925 14.823 2.6
      vertex 37.609 12.917 0
    endloop
  endfacet
  facet normal -0.63545 0.772142 0
    outer loop
      vertex 37.609 12.917 0
      vertex 39.925 14.823 2.6
      vertex 39.925 14.823 0
    endloop
  endfacet
  facet normal -0.511996 0.858988 0
    outer loop
      vertex 34.928 11.319 2.6
      vertex 37.609 12.917 2.6
      vertex 34.928 11.319 0
    endloop
  endfacet
  facet normal -0.511996 0.858988 0
    outer loop
      vertex 34.928 11.319 0
      vertex 37.609 12.917 2.6
      vertex 37.609 12.917 0
    endloop
  endfacet
  facet normal -0.384659 0.923059 0
    outer loop
      vertex 31.938 10.073 2.6
      vertex 34.928 11.319 2.6
      vertex 31.938 10.073 0
    endloop
  endfacet
  facet normal -0.384659 0.923059 0
    outer loop
      vertex 31.938 10.073 0
      vertex 34.928 11.319 2.6
      vertex 34.928 11.319 0
    endloop
  endfacet
  facet normal -0.181347 0.983419 0
    outer loop
      vertex 29.899 9.697 2.6
      vertex 31.938 10.073 2.6
      vertex 29.899 9.697 0
    endloop
  endfacet
  facet normal -0.181347 0.983419 0
    outer loop
      vertex 29.899 9.697 0
      vertex 31.938 10.073 2.6
      vertex 31.938 10.073 0
    endloop
  endfacet
  facet normal -0.00355588 0.999994 0
    outer loop
      vertex 27.368 9.688 2.6
      vertex 29.899 9.697 2.6
      vertex 27.368 9.688 0
    endloop
  endfacet
  facet normal -0.00355588 0.999994 0
    outer loop
      vertex 27.368 9.688 0
      vertex 29.899 9.697 2.6
      vertex 29.899 9.697 0
    endloop
  endfacet
  facet normal 0.108859 0.994057 -0
    outer loop
      vertex 24.592 9.992 2.6
      vertex 27.368 9.688 2.6
      vertex 24.592 9.992 0
    endloop
  endfacet
  facet normal 0.108859 0.994057 0
    outer loop
      vertex 24.592 9.992 0
      vertex 27.368 9.688 2.6
      vertex 27.368 9.688 0
    endloop
  endfacet
  facet normal 0.198493 0.980102 -0
    outer loop
      vertex 21.817 10.554 2.6
      vertex 24.592 9.992 2.6
      vertex 21.817 10.554 0
    endloop
  endfacet
  facet normal 0.198493 0.980102 0
    outer loop
      vertex 21.817 10.554 0
      vertex 24.592 9.992 2.6
      vertex 24.592 9.992 0
    endloop
  endfacet
  facet normal 0.289535 0.957168 -0
    outer loop
      vertex 19.288 11.319 2.6
      vertex 21.817 10.554 2.6
      vertex 19.288 11.319 0
    endloop
  endfacet
  facet normal 0.289535 0.957168 0
    outer loop
      vertex 19.288 11.319 0
      vertex 21.817 10.554 2.6
      vertex 21.817 10.554 0
    endloop
  endfacet
  facet normal 0.408798 0.912625 -0
    outer loop
      vertex 17.252 12.231 2.6
      vertex 19.288 11.319 2.6
      vertex 17.252 12.231 0
    endloop
  endfacet
  facet normal 0.408798 0.912625 0
    outer loop
      vertex 17.252 12.231 0
      vertex 19.288 11.319 2.6
      vertex 19.288 11.319 0
    endloop
  endfacet
  facet normal 0.61221 0.790695 -0
    outer loop
      vertex 15.954 13.236 2.6
      vertex 17.252 12.231 2.6
      vertex 15.954 13.236 0
    endloop
  endfacet
  facet normal 0.61221 0.790695 0
    outer loop
      vertex 15.954 13.236 0
      vertex 17.252 12.231 2.6
      vertex 17.252 12.231 0
    endloop
  endfacet
  facet normal 0.957548 0.288274 0
    outer loop
      vertex 15.64 14.279 0
      vertex 15.64 14.279 2.6
      vertex 15.954 13.236 2.6
    endloop
  endfacet
  facet normal 0.957548 0.288274 0
    outer loop
      vertex 15.954 13.236 0
      vertex 15.64 14.279 0
      vertex 15.954 13.236 2.6
    endloop
  endfacet
  facet normal 0.688416 -0.725316 0
    outer loop
      vertex 15.64 14.279 0
      vertex 16.269 14.876 0
      vertex 16.269 14.876 2.6
    endloop
  endfacet
  facet normal 0.688416 -0.725316 0
    outer loop
      vertex 15.64 14.279 2.6
      vertex 15.64 14.279 0
      vertex 16.269 14.876 2.6
    endloop
  endfacet
  facet normal 0.36988 -0.92908 0
    outer loop
      vertex 16.269 14.876 0
      vertex 17.648 15.425 0
      vertex 17.648 15.425 2.6
    endloop
  endfacet
  facet normal 0.36988 -0.92908 0
    outer loop
      vertex 16.269 14.876 2.6
      vertex 16.269 14.876 0
      vertex 17.648 15.425 2.6
    endloop
  endfacet
  facet normal 0.306059 -0.952013 0
    outer loop
      vertex 17.648 15.425 0
      vertex 19.505 16.022 0
      vertex 19.505 16.022 2.6
    endloop
  endfacet
  facet normal 0.306059 -0.952013 0
    outer loop
      vertex 17.648 15.425 2.6
      vertex 17.648 15.425 0
      vertex 19.505 16.022 2.6
    endloop
  endfacet
  facet normal 0.337088 -0.941473 0
    outer loop
      vertex 19.505 16.022 0
      vertex 21.569 16.761 0
      vertex 21.569 16.761 2.6
    endloop
  endfacet
  facet normal 0.337088 -0.941473 0
    outer loop
      vertex 19.505 16.022 2.6
      vertex 19.505 16.022 0
      vertex 21.569 16.761 2.6
    endloop
  endfacet
  facet normal 0.43946 -0.898262 0
    outer loop
      vertex 21.569 16.761 0
      vertex 23.566 17.738 0
      vertex 23.566 17.738 2.6
    endloop
  endfacet
  facet normal 0.43946 -0.898262 0
    outer loop
      vertex 21.569 16.761 2.6
      vertex 21.569 16.761 0
      vertex 23.566 17.738 2.6
    endloop
  endfacet
  facet normal 0.619951 -0.78464 0
    outer loop
      vertex 23.566 17.738 0
      vertex 25.224 19.048 0
      vertex 25.224 19.048 2.6
    endloop
  endfacet
  facet normal 0.619951 -0.78464 0
    outer loop
      vertex 23.566 17.738 2.6
      vertex 23.566 17.738 0
      vertex 25.224 19.048 2.6
    endloop
  endfacet
  facet normal 0.856578 -0.516017 0
    outer loop
      vertex 25.224 19.048 0
      vertex 26.271 20.786 0
      vertex 26.271 20.786 2.6
    endloop
  endfacet
  facet normal 0.856578 -0.516017 0
    outer loop
      vertex 25.224 19.048 2.6
      vertex 25.224 19.048 0
      vertex 26.271 20.786 2.6
    endloop
  endfacet
  facet normal 0.997377 -0.0723761 0
    outer loop
      vertex 26.271 20.786 0
      vertex 26.435 23.046 0
      vertex 26.435 23.046 2.6
    endloop
  endfacet
  facet normal 0.997377 -0.0723761 0
    outer loop
      vertex 26.271 20.786 2.6
      vertex 26.271 20.786 0
      vertex 26.435 23.046 2.6
    endloop
  endfacet
  facet normal 0.914261 0.405125 0
    outer loop
      vertex 25.656 24.804 0
      vertex 25.656 24.804 2.6
      vertex 26.435 23.046 2.6
    endloop
  endfacet
  facet normal 0.914261 0.405125 0
    outer loop
      vertex 26.435 23.046 0
      vertex 25.656 24.804 0
      vertex 26.435 23.046 2.6
    endloop
  endfacet
  facet normal 0.566438 0.824104 -0
    outer loop
      vertex 24.108 25.868 2.6
      vertex 25.656 24.804 2.6
      vertex 24.108 25.868 0
    endloop
  endfacet
  facet normal 0.566438 0.824104 0
    outer loop
      vertex 24.108 25.868 0
      vertex 25.656 24.804 2.6
      vertex 25.656 24.804 0
    endloop
  endfacet
  facet normal 0.250572 0.968098 -0
    outer loop
      vertex 22.041 26.403 2.6
      vertex 24.108 25.868 2.6
      vertex 22.041 26.403 0
    endloop
  endfacet
  facet normal 0.250572 0.968098 0
    outer loop
      vertex 22.041 26.403 0
      vertex 24.108 25.868 2.6
      vertex 24.108 25.868 0
    endloop
  endfacet
  facet normal 0.0737617 0.997276 -0
    outer loop
      vertex 19.702 26.576 2.6
      vertex 22.041 26.403 2.6
      vertex 19.702 26.576 0
    endloop
  endfacet
  facet normal 0.0737617 0.997276 0
    outer loop
      vertex 19.702 26.576 0
      vertex 22.041 26.403 2.6
      vertex 22.041 26.403 0
    endloop
  endfacet
  facet normal -0.0105837 0.999944 0
    outer loop
      vertex 17.34 26.551 2.6
      vertex 19.702 26.576 2.6
      vertex 17.34 26.551 0
    endloop
  endfacet
  facet normal -0.0105837 0.999944 0
    outer loop
      vertex 17.34 26.551 0
      vertex 19.702 26.576 2.6
      vertex 19.702 26.576 0
    endloop
  endfacet
  facet normal -0.0266759 0.999644 0
    outer loop
      vertex 15.204 26.494 2.6
      vertex 17.34 26.551 2.6
      vertex 15.204 26.494 0
    endloop
  endfacet
  facet normal -0.0266759 0.999644 0
    outer loop
      vertex 15.204 26.494 0
      vertex 17.34 26.551 2.6
      vertex 17.34 26.551 0
    endloop
  endfacet
  facet normal 0.0457352 0.998954 -0
    outer loop
      vertex 13.544 26.57 2.6
      vertex 15.204 26.494 2.6
      vertex 13.544 26.57 0
    endloop
  endfacet
  facet normal 0.0457352 0.998954 0
    outer loop
      vertex 13.544 26.57 0
      vertex 15.204 26.494 2.6
      vertex 15.204 26.494 0
    endloop
  endfacet
  facet normal 0.370366 0.928886 -0
    outer loop
      vertex 12.606 26.944 2.6
      vertex 13.544 26.57 2.6
      vertex 12.606 26.944 0
    endloop
  endfacet
  facet normal 0.370366 0.928886 0
    outer loop
      vertex 12.606 26.944 0
      vertex 13.544 26.57 2.6
      vertex 13.544 26.57 0
    endloop
  endfacet
endsolid OpenSCAD_Model
